<?xml version="1.0" encoding="UTF-8" standalone="no"?>
<!DOCTYPE svg PUBLIC "-//W3C//DTD SVG 1.1//EN"
 "http://www.w3.org/Graphics/SVG/1.1/DTD/svg11.dtd">
<!-- Generated by graphviz version 2.40.1 (20161225.0304)
 -->
<!-- Title: activity_log Pages: 1 -->
<svg width="330pt" height="495pt"
 viewBox="0.00 0.00 330.00 495.00" xmlns="http://www.w3.org/2000/svg" xmlns:xlink="http://www.w3.org/1999/xlink">
<g id="graph0" class="graph" transform="scale(1 1) rotate(0) translate(4 491)">
<title>activity_log</title>
<polygon fill="#ffffff" stroke="transparent" points="-4,4 -4,-491 326,-491 326,4 -4,4"/>
<!-- activity_log -->
<g id="node1" class="node">
<title>activity_log</title>
<polygon fill="#efefef" stroke="transparent" points="46,-405.5 46,-440.5 276,-440.5 276,-405.5 46,-405.5"/>
<polygon fill="none" stroke="#000000" points="46,-405.5 46,-440.5 276,-440.5 276,-405.5 46,-405.5"/>
<text text-anchor="start" x="52.7101" y="-418.3" font-family="Arial Bold" font-size="18.00" fill="#000000">activity_log</text>
<text text-anchor="start" x="141.7219" y="-418.3" font-family="Arial" font-size="14.00" fill="#000000">    </text>
<text text-anchor="start" x="175.9267" y="-418.3" font-family="Arial" font-size="14.00" fill="#666666">[BASE TABLE]</text>
<polygon fill="none" stroke="#000000" points="46,-375.5 46,-405.5 276,-405.5 276,-375.5 46,-375.5"/>
<text text-anchor="start" x="53" y="-386.9" font-family="Arial" font-size="14.00" fill="#000000">id </text>
<text text-anchor="start" x="67.7798" y="-386.9" font-family="Arial" font-size="14.00" fill="#666666">[char(36)]</text>
<polygon fill="none" stroke="#000000" points="46,-345.5 46,-375.5 276,-375.5 276,-345.5 46,-345.5"/>
<text text-anchor="start" x="53" y="-356.9" font-family="Arial" font-size="14.00" fill="#000000">log_name </text>
<text text-anchor="start" x="118.3534" y="-356.9" font-family="Arial" font-size="14.00" fill="#666666">[varchar(255)]</text>
<polygon fill="none" stroke="#000000" points="46,-315.5 46,-345.5 276,-345.5 276,-315.5 46,-315.5"/>
<text text-anchor="start" x="53" y="-326.9" font-family="Arial" font-size="14.00" fill="#000000">description </text>
<text text-anchor="start" x="124.568" y="-326.9" font-family="Arial" font-size="14.00" fill="#666666">[text]</text>
<polygon fill="none" stroke="#000000" points="46,-285.5 46,-315.5 276,-315.5 276,-285.5 46,-285.5"/>
<text text-anchor="start" x="53" y="-296.9" font-family="Arial" font-size="14.00" fill="#000000">subject_type </text>
<text text-anchor="start" x="135.474" y="-296.9" font-family="Arial" font-size="14.00" fill="#666666">[varchar(255)]</text>
<polygon fill="none" stroke="#000000" points="46,-255.5 46,-285.5 276,-285.5 276,-255.5 46,-255.5"/>
<text text-anchor="start" x="53" y="-266.9" font-family="Arial" font-size="14.00" fill="#000000">event </text>
<text text-anchor="start" x="91.129" y="-266.9" font-family="Arial" font-size="14.00" fill="#666666">[varchar(255)]</text>
<polygon fill="none" stroke="#000000" points="46,-225.5 46,-255.5 276,-255.5 276,-225.5 46,-225.5"/>
<text text-anchor="start" x="53" y="-236.9" font-family="Arial" font-size="14.00" fill="#000000">subject_id </text>
<text text-anchor="start" x="119.9074" y="-236.9" font-family="Arial" font-size="14.00" fill="#666666">[char(36)]</text>
<polygon fill="none" stroke="#000000" points="46,-195.5 46,-225.5 276,-225.5 276,-195.5 46,-195.5"/>
<text text-anchor="start" x="53" y="-206.9" font-family="Arial" font-size="14.00" fill="#000000">causer_type </text>
<text text-anchor="start" x="133.1374" y="-206.9" font-family="Arial" font-size="14.00" fill="#666666">[varchar(255)]</text>
<polygon fill="none" stroke="#000000" points="46,-165.5 46,-195.5 276,-195.5 276,-165.5 46,-165.5"/>
<text text-anchor="start" x="53" y="-176.9" font-family="Arial" font-size="14.00" fill="#000000">causer_id </text>
<text text-anchor="start" x="117.5708" y="-176.9" font-family="Arial" font-size="14.00" fill="#666666">[char(36)]</text>
<polygon fill="none" stroke="#000000" points="46,-135.5 46,-165.5 276,-165.5 276,-135.5 46,-135.5"/>
<text text-anchor="start" x="53" y="-146.9" font-family="Arial" font-size="14.00" fill="#000000">properties </text>
<text text-anchor="start" x="119.122" y="-146.9" font-family="Arial" font-size="14.00" fill="#666666">[json]</text>
<polygon fill="none" stroke="#000000" points="46,-105.5 46,-135.5 276,-135.5 276,-105.5 46,-105.5"/>
<text text-anchor="start" x="53" y="-116.9" font-family="Arial" font-size="14.00" fill="#000000">batch_uuid </text>
<text text-anchor="start" x="125.366" y="-116.9" font-family="Arial" font-size="14.00" fill="#666666">[char(36)]</text>
<polygon fill="none" stroke="#000000" points="46,-75.5 46,-105.5 276,-105.5 276,-75.5 46,-75.5"/>
<text text-anchor="start" x="53" y="-86.9" font-family="Arial" font-size="14.00" fill="#000000">created_at </text>
<text text-anchor="start" x="123.028" y="-86.9" font-family="Arial" font-size="14.00" fill="#666666">[timestamp]</text>
<polygon fill="none" stroke="#000000" points="46,-45.5 46,-75.5 276,-75.5 276,-45.5 46,-45.5"/>
<text text-anchor="start" x="53" y="-56.9" font-family="Arial" font-size="14.00" fill="#000000">updated_at </text>
<text text-anchor="start" x="126.9326" y="-56.9" font-family="Arial" font-size="14.00" fill="#666666">[timestamp]</text>
<polygon fill="none" stroke="#000000" stroke-width="3" points="44.5,-44.5 44.5,-442.5 277.5,-442.5 277.5,-44.5 44.5,-44.5"/>
</g>
</g>
</svg>
