<?xml version="1.0" encoding="UTF-8" standalone="no"?>
<!DOCTYPE svg PUBLIC "-//W3C//DTD SVG 1.1//EN"
 "http://www.w3.org/Graphics/SVG/1.1/DTD/svg11.dtd">
<!-- Generated by graphviz version 2.40.1 (20161225.0304)
 -->
<!-- Title: benefit_vendor Pages: 1 -->
<svg width="791pt" height="982pt"
 viewBox="0.00 0.00 791.00 982.00" xmlns="http://www.w3.org/2000/svg" xmlns:xlink="http://www.w3.org/1999/xlink">
<g id="graph0" class="graph" transform="scale(1 1) rotate(0) translate(4 978)">
<title>benefit_vendor</title>
<polygon fill="#ffffff" stroke="transparent" points="-4,4 -4,-978 787,-978 787,4 -4,4"/>
<!-- benefit_vendor -->
<g id="node1" class="node">
<title>benefit_vendor</title>
<polygon fill="#efefef" stroke="transparent" points="261,-892.5 261,-927.5 521,-927.5 521,-892.5 261,-892.5"/>
<polygon fill="none" stroke="#000000" points="261,-892.5 261,-927.5 521,-927.5 521,-892.5 261,-892.5"/>
<text text-anchor="start" x="267.6927" y="-905.3" font-family="Arial Bold" font-size="18.00" fill="#000000">benefit_vendor</text>
<text text-anchor="start" x="386.7393" y="-905.3" font-family="Arial" font-size="14.00" fill="#000000">    </text>
<text text-anchor="start" x="420.9441" y="-905.3" font-family="Arial" font-size="14.00" fill="#666666">[BASE TABLE]</text>
<polygon fill="none" stroke="#000000" points="261,-862.5 261,-892.5 521,-892.5 521,-862.5 261,-862.5"/>
<text text-anchor="start" x="268" y="-873.9" font-family="Arial" font-size="14.00" fill="#000000">id </text>
<text text-anchor="start" x="282.7798" y="-873.9" font-family="Arial" font-size="14.00" fill="#666666">[char(36)]</text>
<polygon fill="none" stroke="#000000" points="261,-832.5 261,-862.5 521,-862.5 521,-832.5 261,-832.5"/>
<text text-anchor="start" x="268" y="-843.9" font-family="Arial" font-size="14.00" fill="#000000">benefit_id </text>
<text text-anchor="start" x="332.5806" y="-843.9" font-family="Arial" font-size="14.00" fill="#666666">[char(36)]</text>
<polygon fill="none" stroke="#000000" points="261,-802.5 261,-832.5 521,-832.5 521,-802.5 261,-802.5"/>
<text text-anchor="start" x="268" y="-813.9" font-family="Arial" font-size="14.00" fill="#000000">vendor_id </text>
<text text-anchor="start" x="333.3534" y="-813.9" font-family="Arial" font-size="14.00" fill="#666666">[char(36)]</text>
<polygon fill="none" stroke="#000000" points="261,-772.5 261,-802.5 521,-802.5 521,-772.5 261,-772.5"/>
<text text-anchor="start" x="268" y="-783.9" font-family="Arial" font-size="14.00" fill="#000000">created_at </text>
<text text-anchor="start" x="338.028" y="-783.9" font-family="Arial" font-size="14.00" fill="#666666">[timestamp]</text>
<polygon fill="none" stroke="#000000" points="261,-742.5 261,-772.5 521,-772.5 521,-742.5 261,-742.5"/>
<text text-anchor="start" x="268" y="-753.9" font-family="Arial" font-size="14.00" fill="#000000">updated_at </text>
<text text-anchor="start" x="341.9326" y="-753.9" font-family="Arial" font-size="14.00" fill="#666666">[timestamp]</text>
<polygon fill="none" stroke="#000000" stroke-width="3" points="259.5,-741.5 259.5,-929.5 522.5,-929.5 522.5,-741.5 259.5,-741.5"/>
</g>
<!-- benefits -->
<g id="node2" class="node">
<title>benefits</title>
<polygon fill="#efefef" stroke="transparent" points="86,-582.5 86,-617.5 354,-617.5 354,-582.5 86,-582.5"/>
<polygon fill="none" stroke="#000000" points="86,-582.5 86,-617.5 354,-617.5 354,-582.5 86,-582.5"/>
<text text-anchor="start" x="124.7043" y="-595.3" font-family="Arial Bold" font-size="18.00" fill="#000000">benefits</text>
<text text-anchor="start" x="187.7277" y="-595.3" font-family="Arial" font-size="14.00" fill="#000000">    </text>
<text text-anchor="start" x="221.9325" y="-595.3" font-family="Arial" font-size="14.00" fill="#666666">[BASE TABLE]</text>
<polygon fill="none" stroke="#000000" points="86,-552.5 86,-582.5 354,-582.5 354,-552.5 86,-552.5"/>
<text text-anchor="start" x="93" y="-563.9" font-family="Arial" font-size="14.00" fill="#000000">id    </text>
<text text-anchor="start" x="138.094" y="-563.9" font-family="Arial" font-size="14.00" fill="#666666">[char(36)]</text>
<polygon fill="none" stroke="#000000" points="86,-522.5 86,-552.5 354,-552.5 354,-522.5 86,-522.5"/>
<text text-anchor="start" x="93" y="-533.9" font-family="Arial" font-size="14.00" fill="#000000">code    </text>
<text text-anchor="start" x="157.5526" y="-533.9" font-family="Arial" font-size="14.00" fill="#666666">[varchar(20)]</text>
<polygon fill="none" stroke="#000000" points="86,-492.5 86,-522.5 354,-522.5 354,-492.5 86,-492.5"/>
<text text-anchor="start" x="93" y="-503.9" font-family="Arial" font-size="14.00" fill="#000000">name    </text>
<text text-anchor="start" x="162.2132" y="-503.9" font-family="Arial" font-size="14.00" fill="#666666">[json]</text>
<polygon fill="none" stroke="#000000" points="86,-462.5 86,-492.5 354,-492.5 354,-462.5 86,-462.5"/>
<text text-anchor="start" x="93" y="-473.9" font-family="Arial" font-size="14.00" fill="#000000">coverage    </text>
<text text-anchor="start" x="184.7784" y="-473.9" font-family="Arial" font-size="14.00" fill="#666666">[double(8,2) unsigned]</text>
<polygon fill="none" stroke="#000000" points="86,-432.5 86,-462.5 354,-462.5 354,-432.5 86,-432.5"/>
<text text-anchor="start" x="92.8086" y="-443.9" font-family="Arial" font-size="14.00" fill="#000000">max_amount    </text>
<text text-anchor="start" x="207.9208" y="-443.9" font-family="Arial" font-size="14.00" fill="#666666">[double(8,2) unsigned]</text>
<polygon fill="none" stroke="#000000" points="86,-402.5 86,-432.5 354,-432.5 354,-402.5 86,-402.5"/>
<text text-anchor="start" x="93" y="-413.9" font-family="Arial" font-size="14.00" fill="#000000">effective_date    </text>
<text text-anchor="start" x="214.352" y="-413.9" font-family="Arial" font-size="14.00" fill="#666666">[date]</text>
<polygon fill="none" stroke="#000000" points="86,-372.5 86,-402.5 354,-402.5 354,-372.5 86,-372.5"/>
<text text-anchor="start" x="93" y="-383.9" font-family="Arial" font-size="14.00" fill="#000000">end_date    </text>
<text text-anchor="start" x="185.5736" y="-383.9" font-family="Arial" font-size="14.00" fill="#666666">[date]</text>
<polygon fill="none" stroke="#000000" points="86,-342.5 86,-372.5 354,-372.5 354,-342.5 86,-342.5"/>
<text text-anchor="start" x="93" y="-353.9" font-family="Arial" font-size="14.00" fill="#000000">status    </text>
<text text-anchor="start" x="164.5512" y="-353.9" font-family="Arial" font-size="14.00" fill="#666666">[varchar(30)]</text>
<polygon fill="none" stroke="#000000" points="86,-312.5 86,-342.5 354,-342.5 354,-312.5 86,-312.5"/>
<text text-anchor="start" x="93" y="-323.9" font-family="Arial" font-size="14.00" fill="#000000">is_individual    </text>
<text text-anchor="start" x="203.4334" y="-323.9" font-family="Arial" font-size="14.00" fill="#666666">[tinyint(1)]</text>
<polygon fill="none" stroke="#000000" points="86,-282.5 86,-312.5 354,-312.5 354,-282.5 86,-282.5"/>
<text text-anchor="start" x="93" y="-293.9" font-family="Arial" font-size="14.00" fill="#000000">is_locked    </text>
<text text-anchor="start" x="185.5484" y="-293.9" font-family="Arial" font-size="14.00" fill="#666666">[tinyint(1)]</text>
<polygon fill="none" stroke="#000000" points="86,-252.5 86,-282.5 354,-282.5 354,-252.5 86,-252.5"/>
<text text-anchor="start" x="93" y="-263.9" font-family="Arial" font-size="14.00" fill="#000000">is_reportable_to_vendors    </text>
<text text-anchor="start" x="285.1374" y="-263.9" font-family="Arial" font-size="14.00" fill="#666666">[tinyint(1)]</text>
<polygon fill="none" stroke="#000000" points="86,-222.5 86,-252.5 354,-252.5 354,-222.5 86,-222.5"/>
<text text-anchor="start" x="93" y="-233.9" font-family="Arial" font-size="14.00" fill="#000000">min_time_req    </text>
<text text-anchor="start" x="211.986" y="-233.9" font-family="Arial" font-size="14.00" fill="#666666">[json]</text>
<polygon fill="none" stroke="#000000" points="86,-192.5 86,-222.5 354,-222.5 354,-192.5 86,-192.5"/>
<text text-anchor="start" x="93" y="-203.9" font-family="Arial" font-size="14.00" fill="#000000">rules    </text>
<text text-anchor="start" x="157.5372" y="-203.9" font-family="Arial" font-size="14.00" fill="#666666">[json]</text>
<polygon fill="none" stroke="#000000" points="86,-162.5 86,-192.5 354,-192.5 354,-162.5 86,-162.5"/>
<text text-anchor="start" x="93" y="-173.9" font-family="Arial" font-size="14.00" fill="#000000">benefit_category_id    </text>
<text text-anchor="start" x="249.359" y="-173.9" font-family="Arial" font-size="14.00" fill="#666666">[char(36)]</text>
<polygon fill="none" stroke="#000000" points="86,-132.5 86,-162.5 354,-162.5 354,-132.5 86,-132.5"/>
<text text-anchor="start" x="93" y="-143.9" font-family="Arial" font-size="14.00" fill="#000000">insurer_id    </text>
<text text-anchor="start" x="188.6522" y="-143.9" font-family="Arial" font-size="14.00" fill="#666666">[char(36)]</text>
<polygon fill="none" stroke="#000000" points="86,-102.5 86,-132.5 354,-132.5 354,-102.5 86,-102.5"/>
<text text-anchor="start" x="93" y="-113.9" font-family="Arial" font-size="14.00" fill="#000000">created_at    </text>
<text text-anchor="start" x="193.3422" y="-113.9" font-family="Arial" font-size="14.00" fill="#666666">[timestamp]</text>
<polygon fill="none" stroke="#000000" points="86,-72.5 86,-102.5 354,-102.5 354,-72.5 86,-72.5"/>
<text text-anchor="start" x="93" y="-83.9" font-family="Arial" font-size="14.00" fill="#000000">updated_at    </text>
<text text-anchor="start" x="197.2468" y="-83.9" font-family="Arial" font-size="14.00" fill="#666666">[timestamp]</text>
<polygon fill="none" stroke="#000000" points="86,-42.5 86,-72.5 354,-72.5 354,-42.5 86,-42.5"/>
<text text-anchor="start" x="93" y="-53.9" font-family="Arial" font-size="14.00" fill="#000000">deleted_at    </text>
<text text-anchor="start" x="192.5708" y="-53.9" font-family="Arial" font-size="14.00" fill="#666666">[timestamp]</text>
</g>
<!-- benefit_vendor&#45;&gt;benefits -->
<g id="edge1" class="edge">
<title>benefit_vendor:benefit_id&#45;&gt;benefits:id</title>
<path fill="none" stroke="#000000" d="M250.8728,-846.6669C197.3179,-837.1942 225.259,-749.1606 261,-697 286.0529,-660.4377 328.9471,-697.5623 354,-661 377.4891,-626.7199 395.5556,-567.5 354,-567.5"/>
<polygon fill="#000000" stroke="#000000" points="251.0337,-846.6801 260.631,-851.9849 256.0168,-847.09 261,-847.5 261,-847.5 261,-847.5 256.0168,-847.09 261.369,-843.0151 251.0337,-846.6801 251.0337,-846.6801"/>
<text text-anchor="start" x="7.379" y="-857.5" font-family="Arial" font-size="10.00" fill="#000000">FOREIGN KEY (benefit_id) REFERENCES benefits (id)</text>
</g>
<!-- vendors -->
<g id="node3" class="node">
<title>vendors</title>
<polygon fill="#efefef" stroke="transparent" points="459,-402.5 459,-437.5 664,-437.5 664,-402.5 459,-402.5"/>
<polygon fill="none" stroke="#000000" points="459,-402.5 459,-437.5 664,-437.5 664,-402.5 459,-402.5"/>
<text text-anchor="start" x="465.7075" y="-415.3" font-family="Arial Bold" font-size="18.00" fill="#000000">vendors</text>
<text text-anchor="start" x="529.7245" y="-415.3" font-family="Arial" font-size="14.00" fill="#000000">    </text>
<text text-anchor="start" x="563.9293" y="-415.3" font-family="Arial" font-size="14.00" fill="#666666">[BASE TABLE]</text>
<polygon fill="none" stroke="#000000" points="459,-372.5 459,-402.5 664,-402.5 664,-372.5 459,-372.5"/>
<text text-anchor="start" x="466" y="-383.9" font-family="Arial" font-size="14.00" fill="#000000">id    </text>
<text text-anchor="start" x="511.094" y="-383.9" font-family="Arial" font-size="14.00" fill="#666666">[char(36)]</text>
<polygon fill="none" stroke="#000000" points="459,-342.5 459,-372.5 664,-372.5 664,-342.5 459,-342.5"/>
<text text-anchor="start" x="466" y="-353.9" font-family="Arial" font-size="14.00" fill="#000000">name    </text>
<text text-anchor="start" x="535.2132" y="-353.9" font-family="Arial" font-size="14.00" fill="#666666">[varchar(255)]</text>
<polygon fill="none" stroke="#000000" points="459,-312.5 459,-342.5 664,-342.5 664,-312.5 459,-312.5"/>
<text text-anchor="start" x="466" y="-323.9" font-family="Arial" font-size="14.00" fill="#000000">is_active    </text>
<text text-anchor="start" x="554.6564" y="-323.9" font-family="Arial" font-size="14.00" fill="#666666">[tinyint(1)]</text>
<polygon fill="none" stroke="#000000" points="459,-282.5 459,-312.5 664,-312.5 664,-282.5 459,-282.5"/>
<text text-anchor="start" x="466" y="-293.9" font-family="Arial" font-size="14.00" fill="#000000">created_at    </text>
<text text-anchor="start" x="566.3422" y="-293.9" font-family="Arial" font-size="14.00" fill="#666666">[timestamp]</text>
<polygon fill="none" stroke="#000000" points="459,-252.5 459,-282.5 664,-282.5 664,-252.5 459,-252.5"/>
<text text-anchor="start" x="466" y="-263.9" font-family="Arial" font-size="14.00" fill="#000000">updated_at    </text>
<text text-anchor="start" x="570.2468" y="-263.9" font-family="Arial" font-size="14.00" fill="#666666">[timestamp]</text>
<polygon fill="none" stroke="#000000" points="459,-222.5 459,-252.5 664,-252.5 664,-222.5 459,-222.5"/>
<text text-anchor="start" x="466" y="-233.9" font-family="Arial" font-size="14.00" fill="#000000">deleted_at    </text>
<text text-anchor="start" x="565.5708" y="-233.9" font-family="Arial" font-size="14.00" fill="#666666">[timestamp]</text>
</g>
<!-- benefit_vendor&#45;&gt;vendors -->
<g id="edge2" class="edge">
<title>benefit_vendor:vendor_id&#45;&gt;vendors:id</title>
<path fill="none" stroke="#000000" d="M531.0939,-817.0614C697.6767,-801.691 269.4952,-387.5 459,-387.5"/>
<polygon fill="#000000" stroke="#000000" points="530.9906,-817.0658 520.8046,-813.0042 525.9953,-817.2829 521,-817.5 521,-817.5 521,-817.5 525.9953,-817.2829 521.1954,-821.9958 530.9906,-817.0658 530.9906,-817.0658"/>
<text text-anchor="start" x="527.827" y="-827.5" font-family="Arial" font-size="10.00" fill="#000000">FOREIGN KEY (vendor_id) REFERENCES vendors (id)</text>
</g>
</g>
</svg>
