<?xml version="1.0" encoding="UTF-8" standalone="no"?>
<!DOCTYPE svg PUBLIC "-//W3C//DTD SVG 1.1//EN"
 "http://www.w3.org/Graphics/SVG/1.1/DTD/svg11.dtd">
<!-- Generated by graphviz version 2.40.1 (20161225.0304)
 -->
<!-- Title: benefit_prices Pages: 1 -->
<svg width="1196pt" height="1229pt"
 viewBox="0.00 0.00 1196.00 1229.00" xmlns="http://www.w3.org/2000/svg" xmlns:xlink="http://www.w3.org/1999/xlink">
<g id="graph0" class="graph" transform="scale(1 1) rotate(0) translate(4 1225)">
<title>benefit_prices</title>
<polygon fill="#ffffff" stroke="transparent" points="-4,4 -4,-1225 1192,-1225 1192,4 -4,4"/>
<!-- benefit_prices -->
<g id="node1" class="node">
<title>benefit_prices</title>
<polygon fill="#efefef" stroke="transparent" points="46,-802.5 46,-837.5 932,-837.5 932,-802.5 46,-802.5"/>
<polygon fill="none" stroke="#000000" points="46,-802.5 46,-837.5 932,-837.5 932,-802.5 46,-802.5"/>
<text text-anchor="start" x="369.2018" y="-815.3" font-family="Arial Bold" font-size="18.00" fill="#000000">benefit_prices</text>
<text text-anchor="start" x="481.2302" y="-815.3" font-family="Arial" font-size="14.00" fill="#000000">    </text>
<text text-anchor="start" x="515.435" y="-815.3" font-family="Arial" font-size="14.00" fill="#666666">[BASE TABLE]</text>
<polygon fill="none" stroke="#000000" points="46,-772.5 46,-802.5 932,-802.5 932,-772.5 46,-772.5"/>
<text text-anchor="start" x="53" y="-783.9" font-family="Arial" font-size="14.00" fill="#000000">id </text>
<text text-anchor="start" x="67.7798" y="-783.9" font-family="Arial" font-size="14.00" fill="#666666">[char(36)]</text>
<polygon fill="none" stroke="#000000" points="46,-742.5 46,-772.5 932,-772.5 932,-742.5 46,-742.5"/>
<text text-anchor="start" x="53" y="-753.9" font-family="Arial" font-size="14.00" fill="#000000">priceable_type </text>
<text text-anchor="start" x="147.9158" y="-753.9" font-family="Arial" font-size="14.00" fill="#666666">[varchar(255)]</text>
<polygon fill="none" stroke="#000000" points="46,-712.5 46,-742.5 932,-742.5 932,-712.5 46,-712.5"/>
<text text-anchor="start" x="53" y="-723.9" font-family="Arial" font-size="14.00" fill="#000000">priceable_id </text>
<text text-anchor="start" x="132.3492" y="-723.9" font-family="Arial" font-size="14.00" fill="#666666">[char(36)]</text>
<polygon fill="none" stroke="#000000" points="46,-682.5 46,-712.5 932,-712.5 932,-682.5 46,-682.5"/>
<text text-anchor="start" x="52.7985" y="-693.9" font-family="Arial" font-size="14.00" fill="#000000">unit_term </text>
<text text-anchor="start" x="115.0285" y="-693.9" font-family="Arial" font-size="14.00" fill="#666666">[enum(&#39;daily&#39;,&#39;flat_rate&#39;,&#39; weekly&#39;,&#39;monthly&#39;,&#39;two_months&#39;,&#39;four_months&#39;,&#39;six_months&#39;,&#39;eight_months&#39;,&#39;yearly&#39;,&#39;flat_daily&#39;,&#39;flat_monthly&#39;)]</text>
<polygon fill="none" stroke="#000000" points="46,-652.5 46,-682.5 932,-682.5 932,-652.5 46,-652.5"/>
<text text-anchor="start" x="53" y="-663.9" font-family="Arial" font-size="14.00" fill="#000000">net_price </text>
<text text-anchor="start" x="114.4614" y="-663.9" font-family="Arial" font-size="14.00" fill="#666666">[double(8,2)]</text>
<polygon fill="none" stroke="#000000" points="46,-622.5 46,-652.5 932,-652.5 932,-622.5 46,-622.5"/>
<text text-anchor="start" x="53" y="-633.9" font-family="Arial" font-size="14.00" fill="#000000">sale_price </text>
<text text-anchor="start" x="120.6774" y="-633.9" font-family="Arial" font-size="14.00" fill="#666666">[double(8,2)]</text>
<polygon fill="none" stroke="#000000" points="46,-592.5 46,-622.5 932,-622.5 932,-592.5 46,-592.5"/>
<text text-anchor="start" x="53" y="-603.9" font-family="Arial" font-size="14.00" fill="#000000">region_id </text>
<text text-anchor="start" x="114.46" y="-603.9" font-family="Arial" font-size="14.00" fill="#666666">[char(36)]</text>
<polygon fill="none" stroke="#000000" points="46,-562.5 46,-592.5 932,-592.5 932,-562.5 46,-562.5"/>
<text text-anchor="start" x="53" y="-573.9" font-family="Arial" font-size="14.00" fill="#000000">effective_date </text>
<text text-anchor="start" x="144.0378" y="-573.9" font-family="Arial" font-size="14.00" fill="#666666">[date]</text>
<polygon fill="none" stroke="#000000" points="46,-532.5 46,-562.5 932,-562.5 932,-532.5 46,-532.5"/>
<text text-anchor="start" x="53" y="-543.9" font-family="Arial" font-size="14.00" fill="#000000">end_date </text>
<text text-anchor="start" x="115.2594" y="-543.9" font-family="Arial" font-size="14.00" fill="#666666">[date]</text>
<polygon fill="none" stroke="#000000" points="46,-502.5 46,-532.5 932,-532.5 932,-502.5 46,-502.5"/>
<text text-anchor="start" x="53" y="-513.9" font-family="Arial" font-size="14.00" fill="#000000">min_days </text>
<text text-anchor="start" x="116.7882" y="-513.9" font-family="Arial" font-size="14.00" fill="#666666">[int unsigned]</text>
<polygon fill="none" stroke="#000000" points="46,-472.5 46,-502.5 932,-502.5 932,-472.5 46,-472.5"/>
<text text-anchor="start" x="53" y="-483.9" font-family="Arial" font-size="14.00" fill="#000000">max_days </text>
<text text-anchor="start" x="120.6816" y="-483.9" font-family="Arial" font-size="14.00" fill="#666666">[int unsigned]</text>
<polygon fill="none" stroke="#000000" points="46,-442.5 46,-472.5 932,-472.5 932,-442.5 46,-442.5"/>
<text text-anchor="start" x="53" y="-453.9" font-family="Arial" font-size="14.00" fill="#000000">created_at </text>
<text text-anchor="start" x="123.028" y="-453.9" font-family="Arial" font-size="14.00" fill="#666666">[timestamp]</text>
<polygon fill="none" stroke="#000000" points="46,-412.5 46,-442.5 932,-442.5 932,-412.5 46,-412.5"/>
<text text-anchor="start" x="53" y="-423.9" font-family="Arial" font-size="14.00" fill="#000000">updated_at </text>
<text text-anchor="start" x="126.9326" y="-423.9" font-family="Arial" font-size="14.00" fill="#666666">[timestamp]</text>
<polygon fill="none" stroke="#000000" points="46,-382.5 46,-412.5 932,-412.5 932,-382.5 46,-382.5"/>
<text text-anchor="start" x="53" y="-393.9" font-family="Arial" font-size="14.00" fill="#000000">deleted_at </text>
<text text-anchor="start" x="122.2566" y="-393.9" font-family="Arial" font-size="14.00" fill="#666666">[timestamp]</text>
<polygon fill="none" stroke="#000000" stroke-width="3" points="44.5,-381.5 44.5,-839.5 933.5,-839.5 933.5,-381.5 44.5,-381.5"/>
</g>
<!-- regions -->
<g id="node3" class="node">
<title>regions</title>
<polygon fill="#efefef" stroke="transparent" points="389,-222.5 389,-257.5 589,-257.5 589,-222.5 389,-222.5"/>
<polygon fill="none" stroke="#000000" points="389,-222.5 389,-257.5 589,-257.5 589,-222.5 389,-222.5"/>
<text text-anchor="start" x="395.7104" y="-235.3" font-family="Arial Bold" font-size="18.00" fill="#000000">regions</text>
<text text-anchor="start" x="454.7216" y="-235.3" font-family="Arial" font-size="14.00" fill="#000000">    </text>
<text text-anchor="start" x="488.9264" y="-235.3" font-family="Arial" font-size="14.00" fill="#666666">[BASE TABLE]</text>
<polygon fill="none" stroke="#000000" points="389,-192.5 389,-222.5 589,-222.5 589,-192.5 389,-192.5"/>
<text text-anchor="start" x="396" y="-203.9" font-family="Arial" font-size="14.00" fill="#000000">id    </text>
<text text-anchor="start" x="441.094" y="-203.9" font-family="Arial" font-size="14.00" fill="#666666">[char(36)]</text>
<polygon fill="none" stroke="#000000" points="389,-162.5 389,-192.5 589,-192.5 589,-162.5 389,-162.5"/>
<text text-anchor="start" x="396" y="-173.9" font-family="Arial" font-size="14.00" fill="#000000">name    </text>
<text text-anchor="start" x="465.2132" y="-173.9" font-family="Arial" font-size="14.00" fill="#666666">[varchar(255)]</text>
<polygon fill="none" stroke="#000000" points="389,-132.5 389,-162.5 589,-162.5 589,-132.5 389,-132.5"/>
<text text-anchor="start" x="396" y="-143.9" font-family="Arial" font-size="14.00" fill="#000000">is_active    </text>
<text text-anchor="start" x="484.6564" y="-143.9" font-family="Arial" font-size="14.00" fill="#666666">[tinyint(1)]</text>
<polygon fill="none" stroke="#000000" points="389,-102.5 389,-132.5 589,-132.5 589,-102.5 389,-102.5"/>
<text text-anchor="start" x="396" y="-113.9" font-family="Arial" font-size="14.00" fill="#000000">created_at    </text>
<text text-anchor="start" x="496.3422" y="-113.9" font-family="Arial" font-size="14.00" fill="#666666">[timestamp]</text>
<polygon fill="none" stroke="#000000" points="389,-72.5 389,-102.5 589,-102.5 589,-72.5 389,-72.5"/>
<text text-anchor="start" x="396" y="-83.9" font-family="Arial" font-size="14.00" fill="#000000">updated_at    </text>
<text text-anchor="start" x="500.2468" y="-83.9" font-family="Arial" font-size="14.00" fill="#666666">[timestamp]</text>
<polygon fill="none" stroke="#000000" points="389,-42.5 389,-72.5 589,-72.5 589,-42.5 389,-42.5"/>
<text text-anchor="start" x="396" y="-53.9" font-family="Arial" font-size="14.00" fill="#000000">deleted_at    </text>
<text text-anchor="start" x="495.5708" y="-53.9" font-family="Arial" font-size="14.00" fill="#666666">[timestamp]</text>
</g>
<!-- benefit_prices&#45;&gt;regions -->
<g id="edge2" class="edge">
<title>benefit_prices:region_id&#45;&gt;regions:id</title>
<path fill="none" stroke="#000000" d="M942.1272,-607.0643C1049.1697,-597.5072 998.3646,-432.993 932,-337 885.6678,-269.9827 670.4738,-207.5 589,-207.5"/>
<polygon fill="#000000" stroke="#000000" points="941.9908,-607.07 931.8065,-603.0042 936.9954,-607.285 932,-607.5 932,-607.5 932,-607.5 936.9954,-607.285 932.1935,-611.9958 941.9908,-607.07 941.9908,-607.07"/>
<text text-anchor="start" x="938.608" y="-617.5" font-family="Arial" font-size="10.00" fill="#000000">FOREIGN KEY (region_id) REFERENCES regions (id)</text>
</g>
<!-- benefit_country_price -->
<g id="node2" class="node">
<title>benefit_country_price</title>
<polygon fill="#efefef" stroke="transparent" points="332,-1142.5 332,-1177.5 645,-1177.5 645,-1142.5 332,-1142.5"/>
<polygon fill="none" stroke="#000000" points="332,-1142.5 332,-1177.5 645,-1177.5 645,-1142.5 332,-1142.5"/>
<text text-anchor="start" x="338.6922" y="-1155.3" font-family="Arial Bold" font-size="18.00" fill="#000000">benefit_country_price</text>
<text text-anchor="start" x="510.7398" y="-1155.3" font-family="Arial" font-size="14.00" fill="#000000">    </text>
<text text-anchor="start" x="544.9446" y="-1155.3" font-family="Arial" font-size="14.00" fill="#666666">[BASE TABLE]</text>
<polygon fill="none" stroke="#000000" points="332,-1112.5 332,-1142.5 645,-1142.5 645,-1112.5 332,-1112.5"/>
<text text-anchor="start" x="339" y="-1123.9" font-family="Arial" font-size="14.00" fill="#000000">id    </text>
<text text-anchor="start" x="384.094" y="-1123.9" font-family="Arial" font-size="14.00" fill="#666666">[char(36)]</text>
<polygon fill="none" stroke="#000000" points="332,-1082.5 332,-1112.5 645,-1112.5 645,-1082.5 332,-1082.5"/>
<text text-anchor="start" x="339" y="-1093.9" font-family="Arial" font-size="14.00" fill="#000000">benefit_price_id    </text>
<text text-anchor="start" x="472.0098" y="-1093.9" font-family="Arial" font-size="14.00" fill="#666666">[char(36)]</text>
<polygon fill="none" stroke="#000000" points="332,-1052.5 332,-1082.5 645,-1082.5 645,-1052.5 332,-1052.5"/>
<text text-anchor="start" x="339" y="-1063.9" font-family="Arial" font-size="14.00" fill="#000000">country_id    </text>
<text text-anchor="start" x="437.7756" y="-1063.9" font-family="Arial" font-size="14.00" fill="#666666">[char(36)]</text>
<polygon fill="none" stroke="#000000" points="332,-1022.5 332,-1052.5 645,-1052.5 645,-1022.5 332,-1022.5"/>
<text text-anchor="start" x="339" y="-1033.9" font-family="Arial" font-size="14.00" fill="#000000">created_at    </text>
<text text-anchor="start" x="439.3422" y="-1033.9" font-family="Arial" font-size="14.00" fill="#666666">[timestamp]</text>
<polygon fill="none" stroke="#000000" points="332,-992.5 332,-1022.5 645,-1022.5 645,-992.5 332,-992.5"/>
<text text-anchor="start" x="339" y="-1003.9" font-family="Arial" font-size="14.00" fill="#000000">updated_at    </text>
<text text-anchor="start" x="443.2468" y="-1003.9" font-family="Arial" font-size="14.00" fill="#666666">[timestamp]</text>
<polygon fill="none" stroke="#000000" points="332,-962.5 332,-992.5 645,-992.5 645,-962.5 332,-962.5"/>
<text text-anchor="start" x="339" y="-973.9" font-family="Arial" font-size="14.00" fill="#000000">deleted_at    </text>
<text text-anchor="start" x="438.5708" y="-973.9" font-family="Arial" font-size="14.00" fill="#666666">[timestamp]</text>
</g>
<!-- benefit_country_price&#45;&gt;benefit_prices -->
<g id="edge1" class="edge">
<title>benefit_country_price:benefit_price_id&#45;&gt;benefit_prices:id</title>
<path fill="none" stroke="#000000" d="M655.0105,-1096.7897C721.6012,-1086.839 696.6542,-974.8518 645,-920 553.5786,-822.9192 137.4214,-981.0808 46,-884 16.5967,-852.7765 3.1111,-787.5 46,-787.5"/>
<polygon fill="#000000" stroke="#000000" points="654.9749,-1096.7921 644.6814,-1093.0113 649.9875,-1097.1461 645,-1097.5 645,-1097.5 645,-1097.5 649.9875,-1097.1461 645.3186,-1101.9887 654.9749,-1096.7921 654.9749,-1096.7921"/>
<text text-anchor="start" x="652.154" y="-1107.5" font-family="Arial" font-size="10.00" fill="#000000">FOREIGN KEY (benefit_price_id) REFERENCES benefit_prices (id)</text>
</g>
</g>
</svg>
