<?xml version="1.0" encoding="UTF-8" standalone="no"?>
<!DOCTYPE svg PUBLIC "-//W3C//DTD SVG 1.1//EN"
 "http://www.w3.org/Graphics/SVG/1.1/DTD/svg11.dtd">
<!-- Generated by graphviz version 2.40.1 (20161225.0304)
 -->
<!-- Title: benefit_mapping Pages: 1 -->
<svg width="866pt" height="982pt"
 viewBox="0.00 0.00 866.00 982.00" xmlns="http://www.w3.org/2000/svg" xmlns:xlink="http://www.w3.org/1999/xlink">
<g id="graph0" class="graph" transform="scale(1 1) rotate(0) translate(4 978)">
<title>benefit_mapping</title>
<polygon fill="#ffffff" stroke="transparent" points="-4,4 -4,-978 862,-978 862,4 -4,4"/>
<!-- benefit_mapping -->
<g id="node1" class="node">
<title>benefit_mapping</title>
<polygon fill="#efefef" stroke="transparent" points="323,-892.5 323,-927.5 597,-927.5 597,-892.5 323,-892.5"/>
<polygon fill="none" stroke="#000000" points="323,-892.5 323,-927.5 597,-927.5 597,-892.5 323,-892.5"/>
<text text-anchor="start" x="329.6925" y="-905.3" font-family="Arial Bold" font-size="18.00" fill="#000000">benefit_mapping</text>
<text text-anchor="start" x="462.7395" y="-905.3" font-family="Arial" font-size="14.00" fill="#000000">    </text>
<text text-anchor="start" x="496.9443" y="-905.3" font-family="Arial" font-size="14.00" fill="#666666">[BASE TABLE]</text>
<polygon fill="none" stroke="#000000" points="323,-862.5 323,-892.5 597,-892.5 597,-862.5 323,-862.5"/>
<text text-anchor="start" x="330" y="-873.9" font-family="Arial" font-size="14.00" fill="#000000">id </text>
<text text-anchor="start" x="344.7798" y="-873.9" font-family="Arial" font-size="14.00" fill="#666666">[varchar(36)]</text>
<polygon fill="none" stroke="#000000" points="323,-832.5 323,-862.5 597,-862.5 597,-832.5 323,-832.5"/>
<text text-anchor="start" x="330" y="-843.9" font-family="Arial" font-size="14.00" fill="#000000">benefit_group_id </text>
<text text-anchor="start" x="438.1542" y="-843.9" font-family="Arial" font-size="14.00" fill="#666666">[char(36)]</text>
<polygon fill="none" stroke="#000000" points="323,-802.5 323,-832.5 597,-832.5 597,-802.5 323,-802.5"/>
<text text-anchor="start" x="330" y="-813.9" font-family="Arial" font-size="14.00" fill="#000000">benefit_id </text>
<text text-anchor="start" x="394.5806" y="-813.9" font-family="Arial" font-size="14.00" fill="#666666">[char(36)]</text>
<polygon fill="none" stroke="#000000" points="323,-772.5 323,-802.5 597,-802.5 597,-772.5 323,-772.5"/>
<text text-anchor="start" x="330" y="-783.9" font-family="Arial" font-size="14.00" fill="#000000">created_at </text>
<text text-anchor="start" x="400.028" y="-783.9" font-family="Arial" font-size="14.00" fill="#666666">[timestamp]</text>
<polygon fill="none" stroke="#000000" points="323,-742.5 323,-772.5 597,-772.5 597,-742.5 323,-742.5"/>
<text text-anchor="start" x="330" y="-753.9" font-family="Arial" font-size="14.00" fill="#000000">updated_at </text>
<text text-anchor="start" x="403.9326" y="-753.9" font-family="Arial" font-size="14.00" fill="#666666">[timestamp]</text>
<polygon fill="none" stroke="#000000" stroke-width="3" points="321.5,-741.5 321.5,-929.5 598.5,-929.5 598.5,-741.5 321.5,-741.5"/>
</g>
<!-- benefit_groups -->
<g id="node2" class="node">
<title>benefit_groups</title>
<polygon fill="#efefef" stroke="transparent" points="146,-477.5 146,-512.5 406,-512.5 406,-477.5 146,-477.5"/>
<polygon fill="none" stroke="#000000" points="146,-477.5 146,-512.5 406,-512.5 406,-477.5 146,-477.5"/>
<text text-anchor="start" x="152.6927" y="-490.3" font-family="Arial Bold" font-size="18.00" fill="#000000">benefit_groups</text>
<text text-anchor="start" x="271.7393" y="-490.3" font-family="Arial" font-size="14.00" fill="#000000">    </text>
<text text-anchor="start" x="305.9441" y="-490.3" font-family="Arial" font-size="14.00" fill="#666666">[BASE TABLE]</text>
<polygon fill="none" stroke="#000000" points="146,-447.5 146,-477.5 406,-477.5 406,-447.5 146,-447.5"/>
<text text-anchor="start" x="153" y="-458.9" font-family="Arial" font-size="14.00" fill="#000000">id    </text>
<text text-anchor="start" x="198.094" y="-458.9" font-family="Arial" font-size="14.00" fill="#666666">[char(36)]</text>
<polygon fill="none" stroke="#000000" points="146,-417.5 146,-447.5 406,-447.5 406,-417.5 146,-417.5"/>
<text text-anchor="start" x="153" y="-428.9" font-family="Arial" font-size="14.00" fill="#000000">name    </text>
<text text-anchor="start" x="222.2132" y="-428.9" font-family="Arial" font-size="14.00" fill="#666666">[json]</text>
<polygon fill="none" stroke="#000000" points="146,-387.5 146,-417.5 406,-417.5 406,-387.5 146,-387.5"/>
<text text-anchor="start" x="153" y="-398.9" font-family="Arial" font-size="14.00" fill="#000000">coverage    </text>
<text text-anchor="start" x="244.7784" y="-398.9" font-family="Arial" font-size="14.00" fill="#666666">[double(8,2)]</text>
<polygon fill="none" stroke="#000000" points="146,-357.5 146,-387.5 406,-387.5 406,-357.5 146,-357.5"/>
<text text-anchor="start" x="153" y="-368.9" font-family="Arial" font-size="14.00" fill="#000000">max_amount    </text>
<text text-anchor="start" x="268.1122" y="-368.9" font-family="Arial" font-size="14.00" fill="#666666">[double(8,2)]</text>
<polygon fill="none" stroke="#000000" points="146,-327.5 146,-357.5 406,-357.5 406,-327.5 146,-327.5"/>
<text text-anchor="start" x="153" y="-338.9" font-family="Arial" font-size="14.00" fill="#000000">effective_date    </text>
<text text-anchor="start" x="274.352" y="-338.9" font-family="Arial" font-size="14.00" fill="#666666">[date]</text>
<polygon fill="none" stroke="#000000" points="146,-297.5 146,-327.5 406,-327.5 406,-297.5 146,-297.5"/>
<text text-anchor="start" x="153" y="-308.9" font-family="Arial" font-size="14.00" fill="#000000">end_date    </text>
<text text-anchor="start" x="245.5736" y="-308.9" font-family="Arial" font-size="14.00" fill="#666666">[date]</text>
<polygon fill="none" stroke="#000000" points="146,-267.5 146,-297.5 406,-297.5 406,-267.5 146,-267.5"/>
<text text-anchor="start" x="153" y="-278.9" font-family="Arial" font-size="14.00" fill="#000000">status    </text>
<text text-anchor="start" x="224.5512" y="-278.9" font-family="Arial" font-size="14.00" fill="#666666">[varchar(30)]</text>
<polygon fill="none" stroke="#000000" points="146,-237.5 146,-267.5 406,-267.5 406,-237.5 146,-237.5"/>
<text text-anchor="start" x="153" y="-248.9" font-family="Arial" font-size="14.00" fill="#000000">is_locked    </text>
<text text-anchor="start" x="245.5484" y="-248.9" font-family="Arial" font-size="14.00" fill="#666666">[tinyint(1)]</text>
<polygon fill="none" stroke="#000000" points="146,-207.5 146,-237.5 406,-237.5 406,-207.5 146,-207.5"/>
<text text-anchor="start" x="153" y="-218.9" font-family="Arial" font-size="14.00" fill="#000000">created_at    </text>
<text text-anchor="start" x="253.3422" y="-218.9" font-family="Arial" font-size="14.00" fill="#666666">[timestamp]</text>
<polygon fill="none" stroke="#000000" points="146,-177.5 146,-207.5 406,-207.5 406,-177.5 146,-177.5"/>
<text text-anchor="start" x="153" y="-188.9" font-family="Arial" font-size="14.00" fill="#000000">updated_at    </text>
<text text-anchor="start" x="257.2468" y="-188.9" font-family="Arial" font-size="14.00" fill="#666666">[timestamp]</text>
<polygon fill="none" stroke="#000000" points="146,-147.5 146,-177.5 406,-177.5 406,-147.5 146,-147.5"/>
<text text-anchor="start" x="153" y="-158.9" font-family="Arial" font-size="14.00" fill="#000000">deleted_at    </text>
<text text-anchor="start" x="252.5708" y="-158.9" font-family="Arial" font-size="14.00" fill="#666666">[timestamp]</text>
</g>
<!-- benefit_mapping&#45;&gt;benefit_groups -->
<g id="edge1" class="edge">
<title>benefit_mapping:benefit_group_id&#45;&gt;benefit_groups:id</title>
<path fill="none" stroke="#000000" d="M312.9487,-847.0772C187.441,-835.8967 392.2927,-606.3066 406,-556 416.9246,-515.9061 447.5556,-462.5 406,-462.5"/>
<polygon fill="#000000" stroke="#000000" points="313.0088,-847.0796 322.8108,-851.996 318.0044,-847.2898 323,-847.5 323,-847.5 323,-847.5 318.0044,-847.2898 323.1892,-843.004 313.0088,-847.0796 313.0088,-847.0796"/>
<text text-anchor="start" x="7.255" y="-857.5" font-family="Arial" font-size="10.00" fill="#000000">FOREIGN KEY (benefit_group_id) REFERENCES benefit_groups (id)</text>
</g>
<!-- benefits -->
<g id="node3" class="node">
<title>benefits</title>
<polygon fill="#efefef" stroke="transparent" points="510,-582.5 510,-617.5 778,-617.5 778,-582.5 510,-582.5"/>
<polygon fill="none" stroke="#000000" points="510,-582.5 510,-617.5 778,-617.5 778,-582.5 510,-582.5"/>
<text text-anchor="start" x="548.7043" y="-595.3" font-family="Arial Bold" font-size="18.00" fill="#000000">benefits</text>
<text text-anchor="start" x="611.7277" y="-595.3" font-family="Arial" font-size="14.00" fill="#000000">    </text>
<text text-anchor="start" x="645.9325" y="-595.3" font-family="Arial" font-size="14.00" fill="#666666">[BASE TABLE]</text>
<polygon fill="none" stroke="#000000" points="510,-552.5 510,-582.5 778,-582.5 778,-552.5 510,-552.5"/>
<text text-anchor="start" x="517" y="-563.9" font-family="Arial" font-size="14.00" fill="#000000">id    </text>
<text text-anchor="start" x="562.094" y="-563.9" font-family="Arial" font-size="14.00" fill="#666666">[char(36)]</text>
<polygon fill="none" stroke="#000000" points="510,-522.5 510,-552.5 778,-552.5 778,-522.5 510,-522.5"/>
<text text-anchor="start" x="517" y="-533.9" font-family="Arial" font-size="14.00" fill="#000000">code    </text>
<text text-anchor="start" x="581.5526" y="-533.9" font-family="Arial" font-size="14.00" fill="#666666">[varchar(20)]</text>
<polygon fill="none" stroke="#000000" points="510,-492.5 510,-522.5 778,-522.5 778,-492.5 510,-492.5"/>
<text text-anchor="start" x="517" y="-503.9" font-family="Arial" font-size="14.00" fill="#000000">name    </text>
<text text-anchor="start" x="586.2132" y="-503.9" font-family="Arial" font-size="14.00" fill="#666666">[json]</text>
<polygon fill="none" stroke="#000000" points="510,-462.5 510,-492.5 778,-492.5 778,-462.5 510,-462.5"/>
<text text-anchor="start" x="517" y="-473.9" font-family="Arial" font-size="14.00" fill="#000000">coverage    </text>
<text text-anchor="start" x="608.7784" y="-473.9" font-family="Arial" font-size="14.00" fill="#666666">[double(8,2) unsigned]</text>
<polygon fill="none" stroke="#000000" points="510,-432.5 510,-462.5 778,-462.5 778,-432.5 510,-432.5"/>
<text text-anchor="start" x="516.8086" y="-443.9" font-family="Arial" font-size="14.00" fill="#000000">max_amount    </text>
<text text-anchor="start" x="631.9208" y="-443.9" font-family="Arial" font-size="14.00" fill="#666666">[double(8,2) unsigned]</text>
<polygon fill="none" stroke="#000000" points="510,-402.5 510,-432.5 778,-432.5 778,-402.5 510,-402.5"/>
<text text-anchor="start" x="517" y="-413.9" font-family="Arial" font-size="14.00" fill="#000000">effective_date    </text>
<text text-anchor="start" x="638.352" y="-413.9" font-family="Arial" font-size="14.00" fill="#666666">[date]</text>
<polygon fill="none" stroke="#000000" points="510,-372.5 510,-402.5 778,-402.5 778,-372.5 510,-372.5"/>
<text text-anchor="start" x="517" y="-383.9" font-family="Arial" font-size="14.00" fill="#000000">end_date    </text>
<text text-anchor="start" x="609.5736" y="-383.9" font-family="Arial" font-size="14.00" fill="#666666">[date]</text>
<polygon fill="none" stroke="#000000" points="510,-342.5 510,-372.5 778,-372.5 778,-342.5 510,-342.5"/>
<text text-anchor="start" x="517" y="-353.9" font-family="Arial" font-size="14.00" fill="#000000">status    </text>
<text text-anchor="start" x="588.5512" y="-353.9" font-family="Arial" font-size="14.00" fill="#666666">[varchar(30)]</text>
<polygon fill="none" stroke="#000000" points="510,-312.5 510,-342.5 778,-342.5 778,-312.5 510,-312.5"/>
<text text-anchor="start" x="517" y="-323.9" font-family="Arial" font-size="14.00" fill="#000000">is_individual    </text>
<text text-anchor="start" x="627.4334" y="-323.9" font-family="Arial" font-size="14.00" fill="#666666">[tinyint(1)]</text>
<polygon fill="none" stroke="#000000" points="510,-282.5 510,-312.5 778,-312.5 778,-282.5 510,-282.5"/>
<text text-anchor="start" x="517" y="-293.9" font-family="Arial" font-size="14.00" fill="#000000">is_locked    </text>
<text text-anchor="start" x="609.5484" y="-293.9" font-family="Arial" font-size="14.00" fill="#666666">[tinyint(1)]</text>
<polygon fill="none" stroke="#000000" points="510,-252.5 510,-282.5 778,-282.5 778,-252.5 510,-252.5"/>
<text text-anchor="start" x="517" y="-263.9" font-family="Arial" font-size="14.00" fill="#000000">is_reportable_to_vendors    </text>
<text text-anchor="start" x="709.1374" y="-263.9" font-family="Arial" font-size="14.00" fill="#666666">[tinyint(1)]</text>
<polygon fill="none" stroke="#000000" points="510,-222.5 510,-252.5 778,-252.5 778,-222.5 510,-222.5"/>
<text text-anchor="start" x="517" y="-233.9" font-family="Arial" font-size="14.00" fill="#000000">min_time_req    </text>
<text text-anchor="start" x="635.986" y="-233.9" font-family="Arial" font-size="14.00" fill="#666666">[json]</text>
<polygon fill="none" stroke="#000000" points="510,-192.5 510,-222.5 778,-222.5 778,-192.5 510,-192.5"/>
<text text-anchor="start" x="517" y="-203.9" font-family="Arial" font-size="14.00" fill="#000000">rules    </text>
<text text-anchor="start" x="581.5372" y="-203.9" font-family="Arial" font-size="14.00" fill="#666666">[json]</text>
<polygon fill="none" stroke="#000000" points="510,-162.5 510,-192.5 778,-192.5 778,-162.5 510,-162.5"/>
<text text-anchor="start" x="517" y="-173.9" font-family="Arial" font-size="14.00" fill="#000000">benefit_category_id    </text>
<text text-anchor="start" x="673.359" y="-173.9" font-family="Arial" font-size="14.00" fill="#666666">[char(36)]</text>
<polygon fill="none" stroke="#000000" points="510,-132.5 510,-162.5 778,-162.5 778,-132.5 510,-132.5"/>
<text text-anchor="start" x="517" y="-143.9" font-family="Arial" font-size="14.00" fill="#000000">insurer_id    </text>
<text text-anchor="start" x="612.6522" y="-143.9" font-family="Arial" font-size="14.00" fill="#666666">[char(36)]</text>
<polygon fill="none" stroke="#000000" points="510,-102.5 510,-132.5 778,-132.5 778,-102.5 510,-102.5"/>
<text text-anchor="start" x="517" y="-113.9" font-family="Arial" font-size="14.00" fill="#000000">created_at    </text>
<text text-anchor="start" x="617.3422" y="-113.9" font-family="Arial" font-size="14.00" fill="#666666">[timestamp]</text>
<polygon fill="none" stroke="#000000" points="510,-72.5 510,-102.5 778,-102.5 778,-72.5 510,-72.5"/>
<text text-anchor="start" x="517" y="-83.9" font-family="Arial" font-size="14.00" fill="#000000">updated_at    </text>
<text text-anchor="start" x="621.2468" y="-83.9" font-family="Arial" font-size="14.00" fill="#666666">[timestamp]</text>
<polygon fill="none" stroke="#000000" points="510,-42.5 510,-72.5 778,-72.5 778,-42.5 510,-42.5"/>
<text text-anchor="start" x="517" y="-53.9" font-family="Arial" font-size="14.00" fill="#000000">deleted_at    </text>
<text text-anchor="start" x="616.5708" y="-53.9" font-family="Arial" font-size="14.00" fill="#666666">[timestamp]</text>
</g>
<!-- benefit_mapping&#45;&gt;benefits -->
<g id="edge2" class="edge">
<title>benefit_mapping:benefit_id&#45;&gt;benefits:id</title>
<path fill="none" stroke="#000000" d="M607.1745,-816.4105C647.1801,-806.9714 624.6692,-738.3938 597,-697 573.7452,-662.2103 533.2548,-695.7897 510,-661 486.9068,-626.452 468.4444,-567.5 510,-567.5"/>
<polygon fill="#000000" stroke="#000000" points="606.9432,-816.4352 596.5208,-813.0256 601.9716,-816.9676 597,-817.5 597,-817.5 597,-817.5 601.9716,-816.9676 597.4792,-821.9744 606.9432,-816.4352 606.9432,-816.4352"/>
<text text-anchor="start" x="604.379" y="-827.5" font-family="Arial" font-size="10.00" fill="#000000">FOREIGN KEY (benefit_id) REFERENCES benefits (id)</text>
</g>
</g>
</svg>
