<?xml version="1.0" encoding="UTF-8" standalone="no"?>
<!DOCTYPE svg PUBLIC "-//W3C//DTD SVG 1.1//EN"
 "http://www.w3.org/Graphics/SVG/1.1/DTD/svg11.dtd">
<!-- Generated by graphviz version 2.40.1 (20161225.0304)
 -->
<!-- Title: benefit_service_codes Pages: 1 -->
<svg width="752pt" height="1497pt"
 viewBox="0.00 0.00 752.29 1497.00" xmlns="http://www.w3.org/2000/svg" xmlns:xlink="http://www.w3.org/1999/xlink">
<g id="graph0" class="graph" transform="scale(1 1) rotate(0) translate(4 1493)">
<title>benefit_service_codes</title>
<polygon fill="#ffffff" stroke="transparent" points="-4,4 -4,-1493 748.2944,-1493 748.2944,4 -4,4"/>
<!-- benefit_service_codes -->
<g id="node1" class="node">
<title>benefit_service_codes</title>
<polygon fill="#efefef" stroke="transparent" points="163.2944,-1102.5 163.2944,-1137.5 483.2944,-1137.5 483.2944,-1102.5 163.2944,-1102.5"/>
<polygon fill="none" stroke="#000000" points="163.2944,-1102.5 163.2944,-1137.5 483.2944,-1137.5 483.2944,-1102.5 163.2944,-1102.5"/>
<text text-anchor="start" x="169.9838" y="-1115.3" font-family="Arial Bold" font-size="18.00" fill="#000000">benefit_service_codes</text>
<text text-anchor="start" x="349.037" y="-1115.3" font-family="Arial" font-size="14.00" fill="#000000">    </text>
<text text-anchor="start" x="383.2418" y="-1115.3" font-family="Arial" font-size="14.00" fill="#666666">[BASE TABLE]</text>
<polygon fill="none" stroke="#000000" points="163.2944,-1072.5 163.2944,-1102.5 483.2944,-1102.5 483.2944,-1072.5 163.2944,-1072.5"/>
<text text-anchor="start" x="170.2944" y="-1083.9" font-family="Arial" font-size="14.00" fill="#000000">id </text>
<text text-anchor="start" x="185.0742" y="-1083.9" font-family="Arial" font-size="14.00" fill="#666666">[char(36)]</text>
<polygon fill="none" stroke="#000000" points="163.2944,-1042.5 163.2944,-1072.5 483.2944,-1072.5 483.2944,-1042.5 163.2944,-1042.5"/>
<text text-anchor="start" x="170.2944" y="-1053.9" font-family="Arial" font-size="14.00" fill="#000000">benefit_id </text>
<text text-anchor="start" x="234.875" y="-1053.9" font-family="Arial" font-size="14.00" fill="#666666">[char(36)]</text>
<polygon fill="none" stroke="#000000" points="163.2944,-1012.5 163.2944,-1042.5 483.2944,-1042.5 483.2944,-1012.5 163.2944,-1012.5"/>
<text text-anchor="start" x="170.2944" y="-1023.9" font-family="Arial" font-size="14.00" fill="#000000">mappable_type </text>
<text text-anchor="start" x="269.8862" y="-1023.9" font-family="Arial" font-size="14.00" fill="#666666">[enum(&#39;code_group&#39;,&#39;code&#39;)]</text>
<polygon fill="none" stroke="#000000" points="163.2944,-982.5 163.2944,-1012.5 483.2944,-1012.5 483.2944,-982.5 163.2944,-982.5"/>
<text text-anchor="start" x="170.2944" y="-993.9" font-family="Arial" font-size="14.00" fill="#000000">mappable_id </text>
<text text-anchor="start" x="254.3196" y="-993.9" font-family="Arial" font-size="14.00" fill="#666666">[char(36)]</text>
<polygon fill="none" stroke="#000000" points="163.2944,-952.5 163.2944,-982.5 483.2944,-982.5 483.2944,-952.5 163.2944,-952.5"/>
<text text-anchor="start" x="170.2944" y="-963.9" font-family="Arial" font-size="14.00" fill="#000000">parent_id </text>
<text text-anchor="start" x="232.5384" y="-963.9" font-family="Arial" font-size="14.00" fill="#666666">[char(36)]</text>
<polygon fill="none" stroke="#000000" points="163.2944,-922.5 163.2944,-952.5 483.2944,-952.5 483.2944,-922.5 163.2944,-922.5"/>
<text text-anchor="start" x="170.2944" y="-933.9" font-family="Arial" font-size="14.00" fill="#000000">coverage </text>
<text text-anchor="start" x="231.7586" y="-933.9" font-family="Arial" font-size="14.00" fill="#666666">[double(8,2) unsigned]</text>
<polygon fill="none" stroke="#000000" points="163.2944,-892.5 163.2944,-922.5 483.2944,-922.5 483.2944,-892.5 163.2944,-892.5"/>
<text text-anchor="start" x="170.2944" y="-903.9" font-family="Arial" font-size="14.00" fill="#000000">max_amount </text>
<text text-anchor="start" x="255.0924" y="-903.9" font-family="Arial" font-size="14.00" fill="#666666">[double(8,2) unsigned]</text>
<polygon fill="none" stroke="#000000" points="163.2944,-862.5 163.2944,-892.5 483.2944,-892.5 483.2944,-862.5 163.2944,-862.5"/>
<text text-anchor="start" x="170.2944" y="-873.9" font-family="Arial" font-size="14.00" fill="#000000">rules </text>
<text text-anchor="start" x="204.5174" y="-873.9" font-family="Arial" font-size="14.00" fill="#666666">[json]</text>
<polygon fill="none" stroke="#000000" points="163.2944,-832.5 163.2944,-862.5 483.2944,-862.5 483.2944,-832.5 163.2944,-832.5"/>
<text text-anchor="start" x="170.2944" y="-843.9" font-family="Arial" font-size="14.00" fill="#000000">is_excluded </text>
<text text-anchor="start" x="248.0938" y="-843.9" font-family="Arial" font-size="14.00" fill="#666666">[tinyint(1)]</text>
<polygon fill="none" stroke="#000000" points="163.2944,-802.5 163.2944,-832.5 483.2944,-832.5 483.2944,-802.5 163.2944,-802.5"/>
<text text-anchor="start" x="170.2944" y="-813.9" font-family="Arial" font-size="14.00" fill="#000000">created_at </text>
<text text-anchor="start" x="240.3224" y="-813.9" font-family="Arial" font-size="14.00" fill="#666666">[timestamp]</text>
<polygon fill="none" stroke="#000000" points="163.2944,-772.5 163.2944,-802.5 483.2944,-802.5 483.2944,-772.5 163.2944,-772.5"/>
<text text-anchor="start" x="170.2944" y="-783.9" font-family="Arial" font-size="14.00" fill="#000000">updated_at </text>
<text text-anchor="start" x="244.227" y="-783.9" font-family="Arial" font-size="14.00" fill="#666666">[timestamp]</text>
<polygon fill="none" stroke="#000000" points="163.2944,-742.5 163.2944,-772.5 483.2944,-772.5 483.2944,-742.5 163.2944,-742.5"/>
<text text-anchor="start" x="170.2944" y="-753.9" font-family="Arial" font-size="14.00" fill="#000000">deleted_at </text>
<text text-anchor="start" x="239.551" y="-753.9" font-family="Arial" font-size="14.00" fill="#666666">[timestamp]</text>
<polygon fill="none" stroke="#000000" stroke-width="3" points="161.7944,-741.5 161.7944,-1139.5 484.7944,-1139.5 484.7944,-741.5 161.7944,-741.5"/>
</g>
<!-- benefit_service_codes&#45;&gt;benefit_service_codes -->
<g id="edge1" class="edge">
<title>benefit_service_codes:parent_id&#45;&gt;benefit_service_codes:id</title>
<path fill="none" stroke="#000000" d="M324.4409,-992.7533C332.2766,-1179.763 331.8944,-1489 323.2944,-1489 314.5405,-1489 314.3011,-1282.1282 322.5763,-1102.5732"/>
<polygon fill="#000000" stroke="#000000" points="324.4321,-992.5485 328.4958,-982.3634 324.216,-987.5531 324,-982.5578 324,-982.5578 324,-982.5578 324.216,-987.5531 319.5042,-982.7523 324.4321,-992.5485 324.4321,-992.5485"/>
<text text-anchor="start" x="6.983" y="-992.5578" font-family="Arial" font-size="10.00" fill="#000000">FOREIGN KEY (parent_id) REFERENCES benefit_service_codes (id)</text>
</g>
<!-- benefits -->
<g id="node2" class="node">
<title>benefits</title>
<polygon fill="#efefef" stroke="transparent" points="189.2944,-582.5 189.2944,-617.5 457.2944,-617.5 457.2944,-582.5 189.2944,-582.5"/>
<polygon fill="none" stroke="#000000" points="189.2944,-582.5 189.2944,-617.5 457.2944,-617.5 457.2944,-582.5 189.2944,-582.5"/>
<text text-anchor="start" x="227.9987" y="-595.3" font-family="Arial Bold" font-size="18.00" fill="#000000">benefits</text>
<text text-anchor="start" x="291.0221" y="-595.3" font-family="Arial" font-size="14.00" fill="#000000">    </text>
<text text-anchor="start" x="325.2269" y="-595.3" font-family="Arial" font-size="14.00" fill="#666666">[BASE TABLE]</text>
<polygon fill="none" stroke="#000000" points="189.2944,-552.5 189.2944,-582.5 457.2944,-582.5 457.2944,-552.5 189.2944,-552.5"/>
<text text-anchor="start" x="196.2944" y="-563.9" font-family="Arial" font-size="14.00" fill="#000000">id    </text>
<text text-anchor="start" x="241.3884" y="-563.9" font-family="Arial" font-size="14.00" fill="#666666">[char(36)]</text>
<polygon fill="none" stroke="#000000" points="189.2944,-522.5 189.2944,-552.5 457.2944,-552.5 457.2944,-522.5 189.2944,-522.5"/>
<text text-anchor="start" x="196.2944" y="-533.9" font-family="Arial" font-size="14.00" fill="#000000">code    </text>
<text text-anchor="start" x="260.847" y="-533.9" font-family="Arial" font-size="14.00" fill="#666666">[varchar(20)]</text>
<polygon fill="none" stroke="#000000" points="189.2944,-492.5 189.2944,-522.5 457.2944,-522.5 457.2944,-492.5 189.2944,-492.5"/>
<text text-anchor="start" x="196.2944" y="-503.9" font-family="Arial" font-size="14.00" fill="#000000">name    </text>
<text text-anchor="start" x="265.5076" y="-503.9" font-family="Arial" font-size="14.00" fill="#666666">[json]</text>
<polygon fill="none" stroke="#000000" points="189.2944,-462.5 189.2944,-492.5 457.2944,-492.5 457.2944,-462.5 189.2944,-462.5"/>
<text text-anchor="start" x="196.2944" y="-473.9" font-family="Arial" font-size="14.00" fill="#000000">coverage    </text>
<text text-anchor="start" x="288.0728" y="-473.9" font-family="Arial" font-size="14.00" fill="#666666">[double(8,2) unsigned]</text>
<polygon fill="none" stroke="#000000" points="189.2944,-432.5 189.2944,-462.5 457.2944,-462.5 457.2944,-432.5 189.2944,-432.5"/>
<text text-anchor="start" x="196.103" y="-443.9" font-family="Arial" font-size="14.00" fill="#000000">max_amount    </text>
<text text-anchor="start" x="311.2152" y="-443.9" font-family="Arial" font-size="14.00" fill="#666666">[double(8,2) unsigned]</text>
<polygon fill="none" stroke="#000000" points="189.2944,-402.5 189.2944,-432.5 457.2944,-432.5 457.2944,-402.5 189.2944,-402.5"/>
<text text-anchor="start" x="196.2944" y="-413.9" font-family="Arial" font-size="14.00" fill="#000000">effective_date    </text>
<text text-anchor="start" x="317.6464" y="-413.9" font-family="Arial" font-size="14.00" fill="#666666">[date]</text>
<polygon fill="none" stroke="#000000" points="189.2944,-372.5 189.2944,-402.5 457.2944,-402.5 457.2944,-372.5 189.2944,-372.5"/>
<text text-anchor="start" x="196.2944" y="-383.9" font-family="Arial" font-size="14.00" fill="#000000">end_date    </text>
<text text-anchor="start" x="288.868" y="-383.9" font-family="Arial" font-size="14.00" fill="#666666">[date]</text>
<polygon fill="none" stroke="#000000" points="189.2944,-342.5 189.2944,-372.5 457.2944,-372.5 457.2944,-342.5 189.2944,-342.5"/>
<text text-anchor="start" x="196.2944" y="-353.9" font-family="Arial" font-size="14.00" fill="#000000">status    </text>
<text text-anchor="start" x="267.8456" y="-353.9" font-family="Arial" font-size="14.00" fill="#666666">[varchar(30)]</text>
<polygon fill="none" stroke="#000000" points="189.2944,-312.5 189.2944,-342.5 457.2944,-342.5 457.2944,-312.5 189.2944,-312.5"/>
<text text-anchor="start" x="196.2944" y="-323.9" font-family="Arial" font-size="14.00" fill="#000000">is_individual    </text>
<text text-anchor="start" x="306.7278" y="-323.9" font-family="Arial" font-size="14.00" fill="#666666">[tinyint(1)]</text>
<polygon fill="none" stroke="#000000" points="189.2944,-282.5 189.2944,-312.5 457.2944,-312.5 457.2944,-282.5 189.2944,-282.5"/>
<text text-anchor="start" x="196.2944" y="-293.9" font-family="Arial" font-size="14.00" fill="#000000">is_locked    </text>
<text text-anchor="start" x="288.8428" y="-293.9" font-family="Arial" font-size="14.00" fill="#666666">[tinyint(1)]</text>
<polygon fill="none" stroke="#000000" points="189.2944,-252.5 189.2944,-282.5 457.2944,-282.5 457.2944,-252.5 189.2944,-252.5"/>
<text text-anchor="start" x="196.2944" y="-263.9" font-family="Arial" font-size="14.00" fill="#000000">is_reportable_to_vendors    </text>
<text text-anchor="start" x="388.4318" y="-263.9" font-family="Arial" font-size="14.00" fill="#666666">[tinyint(1)]</text>
<polygon fill="none" stroke="#000000" points="189.2944,-222.5 189.2944,-252.5 457.2944,-252.5 457.2944,-222.5 189.2944,-222.5"/>
<text text-anchor="start" x="196.2944" y="-233.9" font-family="Arial" font-size="14.00" fill="#000000">min_time_req    </text>
<text text-anchor="start" x="315.2804" y="-233.9" font-family="Arial" font-size="14.00" fill="#666666">[json]</text>
<polygon fill="none" stroke="#000000" points="189.2944,-192.5 189.2944,-222.5 457.2944,-222.5 457.2944,-192.5 189.2944,-192.5"/>
<text text-anchor="start" x="196.2944" y="-203.9" font-family="Arial" font-size="14.00" fill="#000000">rules    </text>
<text text-anchor="start" x="260.8316" y="-203.9" font-family="Arial" font-size="14.00" fill="#666666">[json]</text>
<polygon fill="none" stroke="#000000" points="189.2944,-162.5 189.2944,-192.5 457.2944,-192.5 457.2944,-162.5 189.2944,-162.5"/>
<text text-anchor="start" x="196.2944" y="-173.9" font-family="Arial" font-size="14.00" fill="#000000">benefit_category_id    </text>
<text text-anchor="start" x="352.6534" y="-173.9" font-family="Arial" font-size="14.00" fill="#666666">[char(36)]</text>
<polygon fill="none" stroke="#000000" points="189.2944,-132.5 189.2944,-162.5 457.2944,-162.5 457.2944,-132.5 189.2944,-132.5"/>
<text text-anchor="start" x="196.2944" y="-143.9" font-family="Arial" font-size="14.00" fill="#000000">insurer_id    </text>
<text text-anchor="start" x="291.9466" y="-143.9" font-family="Arial" font-size="14.00" fill="#666666">[char(36)]</text>
<polygon fill="none" stroke="#000000" points="189.2944,-102.5 189.2944,-132.5 457.2944,-132.5 457.2944,-102.5 189.2944,-102.5"/>
<text text-anchor="start" x="196.2944" y="-113.9" font-family="Arial" font-size="14.00" fill="#000000">created_at    </text>
<text text-anchor="start" x="296.6366" y="-113.9" font-family="Arial" font-size="14.00" fill="#666666">[timestamp]</text>
<polygon fill="none" stroke="#000000" points="189.2944,-72.5 189.2944,-102.5 457.2944,-102.5 457.2944,-72.5 189.2944,-72.5"/>
<text text-anchor="start" x="196.2944" y="-83.9" font-family="Arial" font-size="14.00" fill="#000000">updated_at    </text>
<text text-anchor="start" x="300.5412" y="-83.9" font-family="Arial" font-size="14.00" fill="#666666">[timestamp]</text>
<polygon fill="none" stroke="#000000" points="189.2944,-42.5 189.2944,-72.5 457.2944,-72.5 457.2944,-42.5 189.2944,-42.5"/>
<text text-anchor="start" x="196.2944" y="-53.9" font-family="Arial" font-size="14.00" fill="#000000">deleted_at    </text>
<text text-anchor="start" x="295.8652" y="-53.9" font-family="Arial" font-size="14.00" fill="#666666">[timestamp]</text>
</g>
<!-- benefit_service_codes&#45;&gt;benefits -->
<g id="edge2" class="edge">
<title>benefit_service_codes:benefit_id&#45;&gt;benefits:id</title>
<path fill="none" stroke="#000000" d="M493.4175,-1056.0061C590.5744,-1026.4269 562.8224,-567.5 457.2944,-567.5"/>
<polygon fill="#000000" stroke="#000000" points="493.1872,-1056.04 482.6374,-1053.0482 488.2408,-1056.77 483.2944,-1057.5 483.2944,-1057.5 483.2944,-1057.5 488.2408,-1056.77 483.9514,-1061.9518 493.1872,-1056.04 493.1872,-1056.04"/>
<text text-anchor="start" x="490.6734" y="-1067.5" font-family="Arial" font-size="10.00" fill="#000000">FOREIGN KEY (benefit_id) REFERENCES benefits (id)</text>
</g>
</g>
</svg>
