<?xml version="1.0" encoding="UTF-8" standalone="no"?>
<!DOCTYPE svg PUBLIC "-//W3C//DTD SVG 1.1//EN"
 "http://www.w3.org/Graphics/SVG/1.1/DTD/svg11.dtd">
<!-- Generated by graphviz version 2.40.1 (20161225.0304)
 -->
<!-- Title: benefit_country_price Pages: 1 -->
<svg width="1328pt" height="892pt"
 viewBox="0.00 0.00 1328.00 892.00" xmlns="http://www.w3.org/2000/svg" xmlns:xlink="http://www.w3.org/1999/xlink">
<g id="graph0" class="graph" transform="scale(1 1) rotate(0) translate(4 888)">
<title>benefit_country_price</title>
<polygon fill="#ffffff" stroke="transparent" points="-4,4 -4,-888 1324,-888 1324,4 -4,4"/>
<!-- benefit_country_price -->
<g id="node1" class="node">
<title>benefit_country_price</title>
<polygon fill="#efefef" stroke="transparent" points="678,-802.5 678,-837.5 991,-837.5 991,-802.5 678,-802.5"/>
<polygon fill="none" stroke="#000000" points="678,-802.5 678,-837.5 991,-837.5 991,-802.5 678,-802.5"/>
<text text-anchor="start" x="684.6922" y="-815.3" font-family="Arial Bold" font-size="18.00" fill="#000000">benefit_country_price</text>
<text text-anchor="start" x="856.7398" y="-815.3" font-family="Arial" font-size="14.00" fill="#000000">    </text>
<text text-anchor="start" x="890.9446" y="-815.3" font-family="Arial" font-size="14.00" fill="#666666">[BASE TABLE]</text>
<polygon fill="none" stroke="#000000" points="678,-772.5 678,-802.5 991,-802.5 991,-772.5 678,-772.5"/>
<text text-anchor="start" x="685" y="-783.9" font-family="Arial" font-size="14.00" fill="#000000">id </text>
<text text-anchor="start" x="699.7798" y="-783.9" font-family="Arial" font-size="14.00" fill="#666666">[char(36)]</text>
<polygon fill="none" stroke="#000000" points="678,-742.5 678,-772.5 991,-772.5 991,-742.5 678,-742.5"/>
<text text-anchor="start" x="685" y="-753.9" font-family="Arial" font-size="14.00" fill="#000000">benefit_price_id </text>
<text text-anchor="start" x="787.6956" y="-753.9" font-family="Arial" font-size="14.00" fill="#666666">[char(36)]</text>
<polygon fill="none" stroke="#000000" points="678,-712.5 678,-742.5 991,-742.5 991,-712.5 678,-712.5"/>
<text text-anchor="start" x="685" y="-723.9" font-family="Arial" font-size="14.00" fill="#000000">country_id </text>
<text text-anchor="start" x="753.4614" y="-723.9" font-family="Arial" font-size="14.00" fill="#666666">[char(36)]</text>
<polygon fill="none" stroke="#000000" points="678,-682.5 678,-712.5 991,-712.5 991,-682.5 678,-682.5"/>
<text text-anchor="start" x="685" y="-693.9" font-family="Arial" font-size="14.00" fill="#000000">created_at </text>
<text text-anchor="start" x="755.028" y="-693.9" font-family="Arial" font-size="14.00" fill="#666666">[timestamp]</text>
<polygon fill="none" stroke="#000000" points="678,-652.5 678,-682.5 991,-682.5 991,-652.5 678,-652.5"/>
<text text-anchor="start" x="685" y="-663.9" font-family="Arial" font-size="14.00" fill="#000000">updated_at </text>
<text text-anchor="start" x="758.9326" y="-663.9" font-family="Arial" font-size="14.00" fill="#666666">[timestamp]</text>
<polygon fill="none" stroke="#000000" points="678,-622.5 678,-652.5 991,-652.5 991,-622.5 678,-622.5"/>
<text text-anchor="start" x="685" y="-633.9" font-family="Arial" font-size="14.00" fill="#000000">deleted_at </text>
<text text-anchor="start" x="754.2566" y="-633.9" font-family="Arial" font-size="14.00" fill="#666666">[timestamp]</text>
<polygon fill="none" stroke="#000000" stroke-width="3" points="676,-621.5 676,-839.5 992,-839.5 992,-621.5 676,-621.5"/>
</g>
<!-- benefit_prices -->
<g id="node2" class="node">
<title>benefit_prices</title>
<polygon fill="#efefef" stroke="transparent" points="43,-462.5 43,-497.5 959,-497.5 959,-462.5 43,-462.5"/>
<polygon fill="none" stroke="#000000" points="43,-462.5 43,-497.5 959,-497.5 959,-462.5 43,-462.5"/>
<text text-anchor="start" x="381.2018" y="-475.3" font-family="Arial Bold" font-size="18.00" fill="#000000">benefit_prices</text>
<text text-anchor="start" x="493.2302" y="-475.3" font-family="Arial" font-size="14.00" fill="#000000">    </text>
<text text-anchor="start" x="527.435" y="-475.3" font-family="Arial" font-size="14.00" fill="#666666">[BASE TABLE]</text>
<polygon fill="none" stroke="#000000" points="43,-432.5 43,-462.5 959,-462.5 959,-432.5 43,-432.5"/>
<text text-anchor="start" x="50" y="-443.9" font-family="Arial" font-size="14.00" fill="#000000">id    </text>
<text text-anchor="start" x="95.094" y="-443.9" font-family="Arial" font-size="14.00" fill="#666666">[char(36)]</text>
<polygon fill="none" stroke="#000000" points="43,-402.5 43,-432.5 959,-432.5 959,-402.5 43,-402.5"/>
<text text-anchor="start" x="50" y="-413.9" font-family="Arial" font-size="14.00" fill="#000000">priceable_type    </text>
<text text-anchor="start" x="175.23" y="-413.9" font-family="Arial" font-size="14.00" fill="#666666">[varchar(255)]</text>
<polygon fill="none" stroke="#000000" points="43,-372.5 43,-402.5 959,-402.5 959,-372.5 43,-372.5"/>
<text text-anchor="start" x="50" y="-383.9" font-family="Arial" font-size="14.00" fill="#000000">priceable_id    </text>
<text text-anchor="start" x="159.6634" y="-383.9" font-family="Arial" font-size="14.00" fill="#666666">[char(36)]</text>
<polygon fill="none" stroke="#000000" points="43,-342.5 43,-372.5 959,-372.5 959,-342.5 43,-342.5"/>
<text text-anchor="start" x="49.6414" y="-353.9" font-family="Arial" font-size="14.00" fill="#000000">unit_term    </text>
<text text-anchor="start" x="142.1856" y="-353.9" font-family="Arial" font-size="14.00" fill="#666666">[enum(&#39;daily&#39;,&#39;flat_rate&#39;,&#39; weekly&#39;,&#39;monthly&#39;,&#39;two_months&#39;,&#39;four_months&#39;,&#39;six_months&#39;,&#39;eight_months&#39;,&#39;yearly&#39;,&#39;flat_daily&#39;,&#39;flat_monthly&#39;)]</text>
<polygon fill="none" stroke="#000000" points="43,-312.5 43,-342.5 959,-342.5 959,-312.5 43,-312.5"/>
<text text-anchor="start" x="50" y="-323.9" font-family="Arial" font-size="14.00" fill="#000000">net_price    </text>
<text text-anchor="start" x="141.7756" y="-323.9" font-family="Arial" font-size="14.00" fill="#666666">[double(8,2)]</text>
<polygon fill="none" stroke="#000000" points="43,-282.5 43,-312.5 959,-312.5 959,-282.5 43,-282.5"/>
<text text-anchor="start" x="50" y="-293.9" font-family="Arial" font-size="14.00" fill="#000000">sale_price    </text>
<text text-anchor="start" x="147.9916" y="-293.9" font-family="Arial" font-size="14.00" fill="#666666">[double(8,2)]</text>
<polygon fill="none" stroke="#000000" points="43,-252.5 43,-282.5 959,-282.5 959,-252.5 43,-252.5"/>
<text text-anchor="start" x="50" y="-263.9" font-family="Arial" font-size="14.00" fill="#000000">region_id    </text>
<text text-anchor="start" x="141.7742" y="-263.9" font-family="Arial" font-size="14.00" fill="#666666">[char(36)]</text>
<polygon fill="none" stroke="#000000" points="43,-222.5 43,-252.5 959,-252.5 959,-222.5 43,-222.5"/>
<text text-anchor="start" x="50" y="-233.9" font-family="Arial" font-size="14.00" fill="#000000">effective_date    </text>
<text text-anchor="start" x="171.352" y="-233.9" font-family="Arial" font-size="14.00" fill="#666666">[date]</text>
<polygon fill="none" stroke="#000000" points="43,-192.5 43,-222.5 959,-222.5 959,-192.5 43,-192.5"/>
<text text-anchor="start" x="50" y="-203.9" font-family="Arial" font-size="14.00" fill="#000000">end_date    </text>
<text text-anchor="start" x="142.5736" y="-203.9" font-family="Arial" font-size="14.00" fill="#666666">[date]</text>
<polygon fill="none" stroke="#000000" points="43,-162.5 43,-192.5 959,-192.5 959,-162.5 43,-162.5"/>
<text text-anchor="start" x="50" y="-173.9" font-family="Arial" font-size="14.00" fill="#000000">min_days    </text>
<text text-anchor="start" x="144.1024" y="-173.9" font-family="Arial" font-size="14.00" fill="#666666">[int unsigned]</text>
<polygon fill="none" stroke="#000000" points="43,-132.5 43,-162.5 959,-162.5 959,-132.5 43,-132.5"/>
<text text-anchor="start" x="50" y="-143.9" font-family="Arial" font-size="14.00" fill="#000000">max_days    </text>
<text text-anchor="start" x="147.9958" y="-143.9" font-family="Arial" font-size="14.00" fill="#666666">[int unsigned]</text>
<polygon fill="none" stroke="#000000" points="43,-102.5 43,-132.5 959,-132.5 959,-102.5 43,-102.5"/>
<text text-anchor="start" x="50" y="-113.9" font-family="Arial" font-size="14.00" fill="#000000">created_at    </text>
<text text-anchor="start" x="150.3422" y="-113.9" font-family="Arial" font-size="14.00" fill="#666666">[timestamp]</text>
<polygon fill="none" stroke="#000000" points="43,-72.5 43,-102.5 959,-102.5 959,-72.5 43,-72.5"/>
<text text-anchor="start" x="50" y="-83.9" font-family="Arial" font-size="14.00" fill="#000000">updated_at    </text>
<text text-anchor="start" x="154.2468" y="-83.9" font-family="Arial" font-size="14.00" fill="#666666">[timestamp]</text>
<polygon fill="none" stroke="#000000" points="43,-42.5 43,-72.5 959,-72.5 959,-42.5 43,-42.5"/>
<text text-anchor="start" x="50" y="-53.9" font-family="Arial" font-size="14.00" fill="#000000">deleted_at    </text>
<text text-anchor="start" x="149.5708" y="-53.9" font-family="Arial" font-size="14.00" fill="#666666">[timestamp]</text>
</g>
<!-- benefit_country_price&#45;&gt;benefit_prices -->
<g id="edge1" class="edge">
<title>benefit_country_price:benefit_price_id&#45;&gt;benefit_prices:id</title>
<path fill="none" stroke="#000000" d="M667.8319,-756.7882C600.2756,-746.815 627.3818,-634.5168 678,-577 761.1826,-482.4807 875.8174,-635.5193 959,-541 986.4538,-509.8046 1000.5556,-447.5 959,-447.5"/>
<polygon fill="#000000" stroke="#000000" points="668.0244,-756.8016 677.6857,-761.989 673.0122,-757.1508 678,-757.5 678,-757.5 678,-757.5 673.0122,-757.1508 678.3143,-753.011 668.0244,-756.8016 668.0244,-756.8016"/>
<text text-anchor="start" x="370.154" y="-767.5" font-family="Arial" font-size="10.00" fill="#000000">FOREIGN KEY (benefit_price_id) REFERENCES benefit_prices (id)</text>
</g>
<!-- countries -->
<g id="node3" class="node">
<title>countries</title>
<polygon fill="#efefef" stroke="transparent" points="1063,-357.5 1063,-392.5 1277,-392.5 1277,-357.5 1063,-357.5"/>
<polygon fill="none" stroke="#000000" points="1063,-357.5 1063,-392.5 1277,-392.5 1277,-357.5 1063,-357.5"/>
<text text-anchor="start" x="1069.7093" y="-370.3" font-family="Arial Bold" font-size="18.00" fill="#000000">countries</text>
<text text-anchor="start" x="1142.7227" y="-370.3" font-family="Arial" font-size="14.00" fill="#000000">    </text>
<text text-anchor="start" x="1176.9275" y="-370.3" font-family="Arial" font-size="14.00" fill="#666666">[BASE TABLE]</text>
<polygon fill="none" stroke="#000000" points="1063,-327.5 1063,-357.5 1277,-357.5 1277,-327.5 1063,-327.5"/>
<text text-anchor="start" x="1070" y="-338.9" font-family="Arial" font-size="14.00" fill="#000000">id    </text>
<text text-anchor="start" x="1115.094" y="-338.9" font-family="Arial" font-size="14.00" fill="#666666">[char(36)]</text>
<polygon fill="none" stroke="#000000" points="1063,-297.5 1063,-327.5 1277,-327.5 1277,-297.5 1063,-297.5"/>
<text text-anchor="start" x="1070" y="-308.9" font-family="Arial" font-size="14.00" fill="#000000">name    </text>
<text text-anchor="start" x="1139.2132" y="-308.9" font-family="Arial" font-size="14.00" fill="#666666">[varchar(255)]</text>
<polygon fill="none" stroke="#000000" points="1063,-267.5 1063,-297.5 1277,-297.5 1277,-267.5 1063,-267.5"/>
<text text-anchor="start" x="1070" y="-278.9" font-family="Arial" font-size="14.00" fill="#000000">is_active    </text>
<text text-anchor="start" x="1158.6564" y="-278.9" font-family="Arial" font-size="14.00" fill="#666666">[tinyint(1)]</text>
<polygon fill="none" stroke="#000000" points="1063,-237.5 1063,-267.5 1277,-267.5 1277,-237.5 1063,-237.5"/>
<text text-anchor="start" x="1070" y="-248.9" font-family="Arial" font-size="14.00" fill="#000000">region_id    </text>
<text text-anchor="start" x="1161.7742" y="-248.9" font-family="Arial" font-size="14.00" fill="#666666">[char(36)]</text>
<polygon fill="none" stroke="#000000" points="1063,-207.5 1063,-237.5 1277,-237.5 1277,-207.5 1063,-207.5"/>
<text text-anchor="start" x="1070" y="-218.9" font-family="Arial" font-size="14.00" fill="#000000">created_at    </text>
<text text-anchor="start" x="1170.3422" y="-218.9" font-family="Arial" font-size="14.00" fill="#666666">[timestamp]</text>
<polygon fill="none" stroke="#000000" points="1063,-177.5 1063,-207.5 1277,-207.5 1277,-177.5 1063,-177.5"/>
<text text-anchor="start" x="1070" y="-188.9" font-family="Arial" font-size="14.00" fill="#000000">updated_at    </text>
<text text-anchor="start" x="1174.2468" y="-188.9" font-family="Arial" font-size="14.00" fill="#666666">[timestamp]</text>
<polygon fill="none" stroke="#000000" points="1063,-147.5 1063,-177.5 1277,-177.5 1277,-147.5 1063,-147.5"/>
<text text-anchor="start" x="1070" y="-158.9" font-family="Arial" font-size="14.00" fill="#000000">deleted_at    </text>
<text text-anchor="start" x="1169.5708" y="-158.9" font-family="Arial" font-size="14.00" fill="#666666">[timestamp]</text>
</g>
<!-- benefit_country_price&#45;&gt;countries -->
<g id="edge2" class="edge">
<title>benefit_country_price:country_id&#45;&gt;countries:id</title>
<path fill="none" stroke="#000000" d="M1001.2023,-725.4286C1069.6157,-695.1249 979.7011,-342.5 1063,-342.5"/>
<polygon fill="#000000" stroke="#000000" points="1000.8001,-725.5102 990.1046,-723.09 995.9,-726.5051 991,-727.5 991,-727.5 991,-727.5 995.9,-726.5051 991.8954,-731.91 1000.8001,-725.5102 1000.8001,-725.5102"/>
<text text-anchor="start" x="998.218" y="-737.5" font-family="Arial" font-size="10.00" fill="#000000">FOREIGN KEY (country_id) REFERENCES countries (id)</text>
</g>
</g>
</svg>
