<?xml version="1.0" encoding="UTF-8" standalone="no"?>
<!DOCTYPE svg PUBLIC "-//W3C//DTD SVG 1.1//EN"
 "http://www.w3.org/Graphics/SVG/1.1/DTD/svg11.dtd">
<!-- Generated by graphviz version 2.40.1 (20161225.0304)
 -->
<!-- Title: benefits Pages: 1 -->
<svg width="1530pt" height="1529pt"
 viewBox="0.00 0.00 1529.50 1529.00" xmlns="http://www.w3.org/2000/svg" xmlns:xlink="http://www.w3.org/1999/xlink">
<g id="graph0" class="graph" transform="scale(1 1) rotate(0) translate(4 1525)">
<title>benefits</title>
<polygon fill="#ffffff" stroke="transparent" points="-4,4 -4,-1525 1525.5,-1525 1525.5,4 -4,4"/>
<!-- benefits -->
<g id="node1" class="node">
<title>benefits</title>
<polygon fill="#efefef" stroke="transparent" points="659,-922.5 659,-957.5 897,-957.5 897,-922.5 659,-922.5"/>
<polygon fill="none" stroke="#000000" points="659,-922.5 659,-957.5 897,-957.5 897,-922.5 659,-922.5"/>
<text text-anchor="start" x="682.7043" y="-935.3" font-family="Arial Bold" font-size="18.00" fill="#000000">benefits</text>
<text text-anchor="start" x="745.7277" y="-935.3" font-family="Arial" font-size="14.00" fill="#000000">    </text>
<text text-anchor="start" x="779.9325" y="-935.3" font-family="Arial" font-size="14.00" fill="#666666">[BASE TABLE]</text>
<polygon fill="none" stroke="#000000" points="659,-892.5 659,-922.5 897,-922.5 897,-892.5 659,-892.5"/>
<text text-anchor="start" x="666" y="-903.9" font-family="Arial" font-size="14.00" fill="#000000">id </text>
<text text-anchor="start" x="680.7798" y="-903.9" font-family="Arial" font-size="14.00" fill="#666666">[char(36)]</text>
<polygon fill="none" stroke="#000000" points="659,-862.5 659,-892.5 897,-892.5 897,-862.5 659,-862.5"/>
<text text-anchor="start" x="666" y="-873.9" font-family="Arial" font-size="14.00" fill="#000000">code </text>
<text text-anchor="start" x="700.2384" y="-873.9" font-family="Arial" font-size="14.00" fill="#666666">[varchar(20)]</text>
<polygon fill="none" stroke="#000000" points="659,-832.5 659,-862.5 897,-862.5 897,-832.5 659,-832.5"/>
<text text-anchor="start" x="666" y="-843.9" font-family="Arial" font-size="14.00" fill="#000000">name </text>
<text text-anchor="start" x="704.899" y="-843.9" font-family="Arial" font-size="14.00" fill="#666666">[json]</text>
<polygon fill="none" stroke="#000000" points="659,-802.5 659,-832.5 897,-832.5 897,-802.5 659,-802.5"/>
<text text-anchor="start" x="666" y="-813.9" font-family="Arial" font-size="14.00" fill="#000000">coverage </text>
<text text-anchor="start" x="727.4642" y="-813.9" font-family="Arial" font-size="14.00" fill="#666666">[double(8,2) unsigned]</text>
<polygon fill="none" stroke="#000000" points="659,-772.5 659,-802.5 897,-802.5 897,-772.5 659,-772.5"/>
<text text-anchor="start" x="665.9657" y="-783.9" font-family="Arial" font-size="14.00" fill="#000000">max_amount </text>
<text text-anchor="start" x="750.7637" y="-783.9" font-family="Arial" font-size="14.00" fill="#666666">[double(8,2) unsigned]</text>
<polygon fill="none" stroke="#000000" points="659,-742.5 659,-772.5 897,-772.5 897,-742.5 659,-742.5"/>
<text text-anchor="start" x="666" y="-753.9" font-family="Arial" font-size="14.00" fill="#000000">effective_date </text>
<text text-anchor="start" x="757.0378" y="-753.9" font-family="Arial" font-size="14.00" fill="#666666">[date]</text>
<polygon fill="none" stroke="#000000" points="659,-712.5 659,-742.5 897,-742.5 897,-712.5 659,-712.5"/>
<text text-anchor="start" x="666" y="-723.9" font-family="Arial" font-size="14.00" fill="#000000">end_date </text>
<text text-anchor="start" x="728.2594" y="-723.9" font-family="Arial" font-size="14.00" fill="#666666">[date]</text>
<polygon fill="none" stroke="#000000" points="659,-682.5 659,-712.5 897,-712.5 897,-682.5 659,-682.5"/>
<text text-anchor="start" x="666" y="-693.9" font-family="Arial" font-size="14.00" fill="#000000">status </text>
<text text-anchor="start" x="707.237" y="-693.9" font-family="Arial" font-size="14.00" fill="#666666">[varchar(30)]</text>
<polygon fill="none" stroke="#000000" points="659,-652.5 659,-682.5 897,-682.5 897,-652.5 659,-652.5"/>
<text text-anchor="start" x="666" y="-663.9" font-family="Arial" font-size="14.00" fill="#000000">is_individual </text>
<text text-anchor="start" x="746.1192" y="-663.9" font-family="Arial" font-size="14.00" fill="#666666">[tinyint(1)]</text>
<polygon fill="none" stroke="#000000" points="659,-622.5 659,-652.5 897,-652.5 897,-622.5 659,-622.5"/>
<text text-anchor="start" x="666" y="-633.9" font-family="Arial" font-size="14.00" fill="#000000">is_locked </text>
<text text-anchor="start" x="728.2342" y="-633.9" font-family="Arial" font-size="14.00" fill="#666666">[tinyint(1)]</text>
<polygon fill="none" stroke="#000000" points="659,-592.5 659,-622.5 897,-622.5 897,-592.5 659,-592.5"/>
<text text-anchor="start" x="666" y="-603.9" font-family="Arial" font-size="14.00" fill="#000000">is_reportable_to_vendors </text>
<text text-anchor="start" x="827.8232" y="-603.9" font-family="Arial" font-size="14.00" fill="#666666">[tinyint(1)]</text>
<polygon fill="none" stroke="#000000" points="659,-562.5 659,-592.5 897,-592.5 897,-562.5 659,-562.5"/>
<text text-anchor="start" x="666" y="-573.9" font-family="Arial" font-size="14.00" fill="#000000">min_time_req </text>
<text text-anchor="start" x="754.6718" y="-573.9" font-family="Arial" font-size="14.00" fill="#666666">[json]</text>
<polygon fill="none" stroke="#000000" points="659,-532.5 659,-562.5 897,-562.5 897,-532.5 659,-532.5"/>
<text text-anchor="start" x="666" y="-543.9" font-family="Arial" font-size="14.00" fill="#000000">rules </text>
<text text-anchor="start" x="700.223" y="-543.9" font-family="Arial" font-size="14.00" fill="#666666">[json]</text>
<polygon fill="none" stroke="#000000" points="659,-502.5 659,-532.5 897,-532.5 897,-502.5 659,-502.5"/>
<text text-anchor="start" x="666" y="-513.9" font-family="Arial" font-size="14.00" fill="#000000">benefit_category_id </text>
<text text-anchor="start" x="792.0448" y="-513.9" font-family="Arial" font-size="14.00" fill="#666666">[char(36)]</text>
<polygon fill="none" stroke="#000000" points="659,-472.5 659,-502.5 897,-502.5 897,-472.5 659,-472.5"/>
<text text-anchor="start" x="666" y="-483.9" font-family="Arial" font-size="14.00" fill="#000000">insurer_id </text>
<text text-anchor="start" x="731.338" y="-483.9" font-family="Arial" font-size="14.00" fill="#666666">[char(36)]</text>
<polygon fill="none" stroke="#000000" points="659,-442.5 659,-472.5 897,-472.5 897,-442.5 659,-442.5"/>
<text text-anchor="start" x="666" y="-453.9" font-family="Arial" font-size="14.00" fill="#000000">created_at </text>
<text text-anchor="start" x="736.028" y="-453.9" font-family="Arial" font-size="14.00" fill="#666666">[timestamp]</text>
<polygon fill="none" stroke="#000000" points="659,-412.5 659,-442.5 897,-442.5 897,-412.5 659,-412.5"/>
<text text-anchor="start" x="666" y="-423.9" font-family="Arial" font-size="14.00" fill="#000000">updated_at </text>
<text text-anchor="start" x="739.9326" y="-423.9" font-family="Arial" font-size="14.00" fill="#666666">[timestamp]</text>
<polygon fill="none" stroke="#000000" points="659,-382.5 659,-412.5 897,-412.5 897,-382.5 659,-382.5"/>
<text text-anchor="start" x="666" y="-393.9" font-family="Arial" font-size="14.00" fill="#000000">deleted_at </text>
<text text-anchor="start" x="735.2566" y="-393.9" font-family="Arial" font-size="14.00" fill="#666666">[timestamp]</text>
<polygon fill="none" stroke="#000000" stroke-width="3" points="657.5,-381.5 657.5,-959.5 898.5,-959.5 898.5,-381.5 657.5,-381.5"/>
</g>
<!-- benefit_categories -->
<g id="node6" class="node">
<title>benefit_categories</title>
<polygon fill="#efefef" stroke="transparent" points="458,-222.5 458,-257.5 746,-257.5 746,-222.5 458,-222.5"/>
<polygon fill="none" stroke="#000000" points="458,-222.5 458,-257.5 746,-257.5 746,-222.5 458,-222.5"/>
<text text-anchor="start" x="464.6914" y="-235.3" font-family="Arial Bold" font-size="18.00" fill="#000000">benefit_categories</text>
<text text-anchor="start" x="611.7406" y="-235.3" font-family="Arial" font-size="14.00" fill="#000000">    </text>
<text text-anchor="start" x="645.9454" y="-235.3" font-family="Arial" font-size="14.00" fill="#666666">[BASE TABLE]</text>
<polygon fill="none" stroke="#000000" points="458,-192.5 458,-222.5 746,-222.5 746,-192.5 458,-192.5"/>
<text text-anchor="start" x="465" y="-203.9" font-family="Arial" font-size="14.00" fill="#000000">id    </text>
<text text-anchor="start" x="510.094" y="-203.9" font-family="Arial" font-size="14.00" fill="#666666">[char(36)]</text>
<polygon fill="none" stroke="#000000" points="458,-162.5 458,-192.5 746,-192.5 746,-162.5 458,-162.5"/>
<text text-anchor="start" x="465" y="-173.9" font-family="Arial" font-size="14.00" fill="#000000">name    </text>
<text text-anchor="start" x="534.2132" y="-173.9" font-family="Arial" font-size="14.00" fill="#666666">[json]</text>
<polygon fill="none" stroke="#000000" points="458,-132.5 458,-162.5 746,-162.5 746,-132.5 458,-132.5"/>
<text text-anchor="start" x="465" y="-143.9" font-family="Arial" font-size="14.00" fill="#000000">status    </text>
<text text-anchor="start" x="536.5512" y="-143.9" font-family="Arial" font-size="14.00" fill="#666666">[varchar(30)]</text>
<polygon fill="none" stroke="#000000" points="458,-102.5 458,-132.5 746,-132.5 746,-102.5 458,-102.5"/>
<text text-anchor="start" x="465" y="-113.9" font-family="Arial" font-size="14.00" fill="#000000">created_at    </text>
<text text-anchor="start" x="565.3422" y="-113.9" font-family="Arial" font-size="14.00" fill="#666666">[timestamp]</text>
<polygon fill="none" stroke="#000000" points="458,-72.5 458,-102.5 746,-102.5 746,-72.5 458,-72.5"/>
<text text-anchor="start" x="465" y="-83.9" font-family="Arial" font-size="14.00" fill="#000000">updated_at    </text>
<text text-anchor="start" x="569.2468" y="-83.9" font-family="Arial" font-size="14.00" fill="#666666">[timestamp]</text>
<polygon fill="none" stroke="#000000" points="458,-42.5 458,-72.5 746,-72.5 746,-42.5 458,-42.5"/>
<text text-anchor="start" x="465" y="-53.9" font-family="Arial" font-size="14.00" fill="#000000">deleted_at    </text>
<text text-anchor="start" x="564.5708" y="-53.9" font-family="Arial" font-size="14.00" fill="#666666">[timestamp]</text>
</g>
<!-- benefits&#45;&gt;benefit_categories -->
<g id="edge5" class="edge">
<title>benefits:benefit_category_id&#45;&gt;benefit_categories:id</title>
<path fill="none" stroke="#000000" d="M648.8805,-516.8256C581.998,-507.3703 616.4216,-400.6983 659,-337 682.2548,-302.2103 722.7452,-335.7897 746,-301 769.0932,-266.452 787.5556,-207.5 746,-207.5"/>
<polygon fill="#000000" stroke="#000000" points="649.0221,-516.835 658.7007,-521.99 654.0111,-517.1675 659,-517.5 659,-517.5 659,-517.5 654.0111,-517.1675 659.2993,-513.01 649.0221,-516.835 649.0221,-516.835"/>
<text text-anchor="start" x="315.087" y="-527.5" font-family="Arial" font-size="10.00" fill="#000000">FOREIGN KEY (benefit_category_id) REFERENCES benefit_categories (id)</text>
</g>
<!-- insurers -->
<g id="node7" class="node">
<title>insurers</title>
<polygon fill="#efefef" stroke="transparent" points="851,-222.5 851,-257.5 1056,-257.5 1056,-222.5 851,-222.5"/>
<polygon fill="none" stroke="#000000" points="851,-222.5 851,-257.5 1056,-257.5 1056,-222.5 851,-222.5"/>
<text text-anchor="start" x="857.7174" y="-235.3" font-family="Arial Bold" font-size="18.00" fill="#000000">insurers</text>
<text text-anchor="start" x="921.7146" y="-235.3" font-family="Arial" font-size="14.00" fill="#000000">    </text>
<text text-anchor="start" x="955.9194" y="-235.3" font-family="Arial" font-size="14.00" fill="#666666">[BASE TABLE]</text>
<polygon fill="none" stroke="#000000" points="851,-192.5 851,-222.5 1056,-222.5 1056,-192.5 851,-192.5"/>
<text text-anchor="start" x="858" y="-203.9" font-family="Arial" font-size="14.00" fill="#000000">id    </text>
<text text-anchor="start" x="903.094" y="-203.9" font-family="Arial" font-size="14.00" fill="#666666">[char(36)]</text>
<polygon fill="none" stroke="#000000" points="851,-162.5 851,-192.5 1056,-192.5 1056,-162.5 851,-162.5"/>
<text text-anchor="start" x="858" y="-173.9" font-family="Arial" font-size="14.00" fill="#000000">name    </text>
<text text-anchor="start" x="927.2132" y="-173.9" font-family="Arial" font-size="14.00" fill="#666666">[varchar(255)]</text>
<polygon fill="none" stroke="#000000" points="851,-132.5 851,-162.5 1056,-162.5 1056,-132.5 851,-132.5"/>
<text text-anchor="start" x="858" y="-143.9" font-family="Arial" font-size="14.00" fill="#000000">is_active    </text>
<text text-anchor="start" x="946.6564" y="-143.9" font-family="Arial" font-size="14.00" fill="#666666">[tinyint(1)]</text>
<polygon fill="none" stroke="#000000" points="851,-102.5 851,-132.5 1056,-132.5 1056,-102.5 851,-102.5"/>
<text text-anchor="start" x="858" y="-113.9" font-family="Arial" font-size="14.00" fill="#000000">created_at    </text>
<text text-anchor="start" x="958.3422" y="-113.9" font-family="Arial" font-size="14.00" fill="#666666">[timestamp]</text>
<polygon fill="none" stroke="#000000" points="851,-72.5 851,-102.5 1056,-102.5 1056,-72.5 851,-72.5"/>
<text text-anchor="start" x="858" y="-83.9" font-family="Arial" font-size="14.00" fill="#000000">updated_at    </text>
<text text-anchor="start" x="962.2468" y="-83.9" font-family="Arial" font-size="14.00" fill="#666666">[timestamp]</text>
<polygon fill="none" stroke="#000000" points="851,-42.5 851,-72.5 1056,-72.5 1056,-42.5 851,-42.5"/>
<text text-anchor="start" x="858" y="-53.9" font-family="Arial" font-size="14.00" fill="#000000">deleted_at    </text>
<text text-anchor="start" x="957.5708" y="-53.9" font-family="Arial" font-size="14.00" fill="#666666">[timestamp]</text>
</g>
<!-- benefits&#45;&gt;insurers -->
<g id="edge6" class="edge">
<title>benefits:insurer_id&#45;&gt;insurers:id</title>
<path fill="none" stroke="#000000" d="M907.055,-486.7089C959.8021,-477.7064 924.6953,-393.8429 897,-337 885.629,-313.6617 862.371,-324.3383 851,-301 832.7986,-263.6426 809.4444,-207.5 851,-207.5"/>
<polygon fill="#000000" stroke="#000000" points="906.9692,-486.7156 896.647,-483.0139 901.9846,-487.1078 897,-487.5 897,-487.5 897,-487.5 901.9846,-487.1078 897.353,-491.9861 906.9692,-486.7156 906.9692,-486.7156"/>
<text text-anchor="start" x="903.838" y="-497.5" font-family="Arial" font-size="10.00" fill="#000000">FOREIGN KEY (insurer_id) REFERENCES insurers (id)</text>
</g>
<!-- benefit_mapping -->
<g id="node2" class="node">
<title>benefit_mapping</title>
<polygon fill="#efefef" stroke="transparent" points="43,-1337.5 43,-1372.5 317,-1372.5 317,-1337.5 43,-1337.5"/>
<polygon fill="none" stroke="#000000" points="43,-1337.5 43,-1372.5 317,-1372.5 317,-1337.5 43,-1337.5"/>
<text text-anchor="start" x="49.6925" y="-1350.3" font-family="Arial Bold" font-size="18.00" fill="#000000">benefit_mapping</text>
<text text-anchor="start" x="182.7395" y="-1350.3" font-family="Arial" font-size="14.00" fill="#000000">    </text>
<text text-anchor="start" x="216.9443" y="-1350.3" font-family="Arial" font-size="14.00" fill="#666666">[BASE TABLE]</text>
<polygon fill="none" stroke="#000000" points="43,-1307.5 43,-1337.5 317,-1337.5 317,-1307.5 43,-1307.5"/>
<text text-anchor="start" x="50" y="-1318.9" font-family="Arial" font-size="14.00" fill="#000000">id    </text>
<text text-anchor="start" x="95.094" y="-1318.9" font-family="Arial" font-size="14.00" fill="#666666">[varchar(36)]</text>
<polygon fill="none" stroke="#000000" points="43,-1277.5 43,-1307.5 317,-1307.5 317,-1277.5 43,-1277.5"/>
<text text-anchor="start" x="50" y="-1288.9" font-family="Arial" font-size="14.00" fill="#000000">benefit_group_id    </text>
<text text-anchor="start" x="188.4684" y="-1288.9" font-family="Arial" font-size="14.00" fill="#666666">[char(36)]</text>
<polygon fill="none" stroke="#000000" points="43,-1247.5 43,-1277.5 317,-1277.5 317,-1247.5 43,-1247.5"/>
<text text-anchor="start" x="50" y="-1258.9" font-family="Arial" font-size="14.00" fill="#000000">benefit_id    </text>
<text text-anchor="start" x="144.8948" y="-1258.9" font-family="Arial" font-size="14.00" fill="#666666">[char(36)]</text>
<polygon fill="none" stroke="#000000" points="43,-1217.5 43,-1247.5 317,-1247.5 317,-1217.5 43,-1217.5"/>
<text text-anchor="start" x="50" y="-1228.9" font-family="Arial" font-size="14.00" fill="#000000">created_at    </text>
<text text-anchor="start" x="150.3422" y="-1228.9" font-family="Arial" font-size="14.00" fill="#666666">[timestamp]</text>
<polygon fill="none" stroke="#000000" points="43,-1187.5 43,-1217.5 317,-1217.5 317,-1187.5 43,-1187.5"/>
<text text-anchor="start" x="50" y="-1198.9" font-family="Arial" font-size="14.00" fill="#000000">updated_at    </text>
<text text-anchor="start" x="154.2468" y="-1198.9" font-family="Arial" font-size="14.00" fill="#666666">[timestamp]</text>
</g>
<!-- benefit_mapping&#45;&gt;benefits -->
<g id="edge1" class="edge">
<title>benefit_mapping:benefit_id&#45;&gt;benefits:id</title>
<path fill="none" stroke="#000000" d="M327.183,-1261.9462C410.557,-1252.1853 307.0028,-1115.7473 369,-1040 458.752,-930.3423 517.2952,-907.5 659,-907.5"/>
<polygon fill="#000000" stroke="#000000" points="326.9852,-1261.9569 316.7556,-1258.0066 321.9926,-1262.2284 317,-1262.5 317,-1262.5 317,-1262.5 321.9926,-1262.2284 317.2444,-1266.9934 326.9852,-1261.9569 326.9852,-1261.9569"/>
<text text-anchor="start" x="193.879" y="-1246.5" font-family="Arial" font-size="10.00" fill="#000000">FOREIGN KEY (benefit_id) REFERENCES benefits (id)</text>
</g>
<!-- benefit_service_codes -->
<g id="node3" class="node">
<title>benefit_service_codes</title>
<polygon fill="#efefef" stroke="transparent" points="421,-1442.5 421,-1477.5 741,-1477.5 741,-1442.5 421,-1442.5"/>
<polygon fill="none" stroke="#000000" points="421,-1442.5 421,-1477.5 741,-1477.5 741,-1442.5 421,-1442.5"/>
<text text-anchor="start" x="427.6894" y="-1455.3" font-family="Arial Bold" font-size="18.00" fill="#000000">benefit_service_codes</text>
<text text-anchor="start" x="606.7426" y="-1455.3" font-family="Arial" font-size="14.00" fill="#000000">    </text>
<text text-anchor="start" x="640.9474" y="-1455.3" font-family="Arial" font-size="14.00" fill="#666666">[BASE TABLE]</text>
<polygon fill="none" stroke="#000000" points="421,-1412.5 421,-1442.5 741,-1442.5 741,-1412.5 421,-1412.5"/>
<text text-anchor="start" x="428" y="-1423.9" font-family="Arial" font-size="14.00" fill="#000000">id    </text>
<text text-anchor="start" x="473.094" y="-1423.9" font-family="Arial" font-size="14.00" fill="#666666">[char(36)]</text>
<polygon fill="none" stroke="#000000" points="421,-1382.5 421,-1412.5 741,-1412.5 741,-1382.5 421,-1382.5"/>
<text text-anchor="start" x="428" y="-1393.9" font-family="Arial" font-size="14.00" fill="#000000">benefit_id    </text>
<text text-anchor="start" x="522.8948" y="-1393.9" font-family="Arial" font-size="14.00" fill="#666666">[char(36)]</text>
<polygon fill="none" stroke="#000000" points="421,-1352.5 421,-1382.5 741,-1382.5 741,-1352.5 421,-1352.5"/>
<text text-anchor="start" x="428" y="-1363.9" font-family="Arial" font-size="14.00" fill="#000000">mappable_type    </text>
<text text-anchor="start" x="557.906" y="-1363.9" font-family="Arial" font-size="14.00" fill="#666666">[enum(&#39;code_group&#39;,&#39;code&#39;)]</text>
<polygon fill="none" stroke="#000000" points="421,-1322.5 421,-1352.5 741,-1352.5 741,-1322.5 421,-1322.5"/>
<text text-anchor="start" x="428" y="-1333.9" font-family="Arial" font-size="14.00" fill="#000000">mappable_id    </text>
<text text-anchor="start" x="542.3394" y="-1333.9" font-family="Arial" font-size="14.00" fill="#666666">[char(36)]</text>
<polygon fill="none" stroke="#000000" points="421,-1292.5 421,-1322.5 741,-1322.5 741,-1292.5 421,-1292.5"/>
<text text-anchor="start" x="428" y="-1303.9" font-family="Arial" font-size="14.00" fill="#000000">parent_id    </text>
<text text-anchor="start" x="520.5582" y="-1303.9" font-family="Arial" font-size="14.00" fill="#666666">[char(36)]</text>
<polygon fill="none" stroke="#000000" points="421,-1262.5 421,-1292.5 741,-1292.5 741,-1262.5 421,-1262.5"/>
<text text-anchor="start" x="428" y="-1273.9" font-family="Arial" font-size="14.00" fill="#000000">coverage    </text>
<text text-anchor="start" x="519.7784" y="-1273.9" font-family="Arial" font-size="14.00" fill="#666666">[double(8,2) unsigned]</text>
<polygon fill="none" stroke="#000000" points="421,-1232.5 421,-1262.5 741,-1262.5 741,-1232.5 421,-1232.5"/>
<text text-anchor="start" x="428" y="-1243.9" font-family="Arial" font-size="14.00" fill="#000000">max_amount    </text>
<text text-anchor="start" x="543.1122" y="-1243.9" font-family="Arial" font-size="14.00" fill="#666666">[double(8,2) unsigned]</text>
<polygon fill="none" stroke="#000000" points="421,-1202.5 421,-1232.5 741,-1232.5 741,-1202.5 421,-1202.5"/>
<text text-anchor="start" x="428" y="-1213.9" font-family="Arial" font-size="14.00" fill="#000000">rules    </text>
<text text-anchor="start" x="492.5372" y="-1213.9" font-family="Arial" font-size="14.00" fill="#666666">[json]</text>
<polygon fill="none" stroke="#000000" points="421,-1172.5 421,-1202.5 741,-1202.5 741,-1172.5 421,-1172.5"/>
<text text-anchor="start" x="428" y="-1183.9" font-family="Arial" font-size="14.00" fill="#000000">is_excluded    </text>
<text text-anchor="start" x="536.1136" y="-1183.9" font-family="Arial" font-size="14.00" fill="#666666">[tinyint(1)]</text>
<polygon fill="none" stroke="#000000" points="421,-1142.5 421,-1172.5 741,-1172.5 741,-1142.5 421,-1142.5"/>
<text text-anchor="start" x="428" y="-1153.9" font-family="Arial" font-size="14.00" fill="#000000">created_at    </text>
<text text-anchor="start" x="528.3422" y="-1153.9" font-family="Arial" font-size="14.00" fill="#666666">[timestamp]</text>
<polygon fill="none" stroke="#000000" points="421,-1112.5 421,-1142.5 741,-1142.5 741,-1112.5 421,-1112.5"/>
<text text-anchor="start" x="428" y="-1123.9" font-family="Arial" font-size="14.00" fill="#000000">updated_at    </text>
<text text-anchor="start" x="532.2468" y="-1123.9" font-family="Arial" font-size="14.00" fill="#666666">[timestamp]</text>
<polygon fill="none" stroke="#000000" points="421,-1082.5 421,-1112.5 741,-1112.5 741,-1082.5 421,-1082.5"/>
<text text-anchor="start" x="428" y="-1093.9" font-family="Arial" font-size="14.00" fill="#000000">deleted_at    </text>
<text text-anchor="start" x="527.5708" y="-1093.9" font-family="Arial" font-size="14.00" fill="#666666">[timestamp]</text>
</g>
<!-- benefit_service_codes&#45;&gt;benefits -->
<g id="edge2" class="edge">
<title>benefit_service_codes:benefit_id&#45;&gt;benefits:id</title>
<path fill="none" stroke="#000000" d="M751.0173,-1395.7851C817.1948,-1371.8098 782.4898,-1103.5272 741,-1040 719.2357,-1006.6756 680.7643,-1037.3244 659,-1004 635.5478,-968.0911 616.1111,-907.5 659,-907.5"/>
<polygon fill="#000000" stroke="#000000" points="750.8566,-1395.8125 740.2406,-1393.0645 745.9283,-1396.6563 741,-1397.5 741,-1397.5 741,-1397.5 745.9283,-1396.6563 741.7594,-1401.9355 750.8566,-1395.8125 750.8566,-1395.8125"/>
<text text-anchor="start" x="748.379" y="-1407.5" font-family="Arial" font-size="10.00" fill="#000000">FOREIGN KEY (benefit_id) REFERENCES benefits (id)</text>
</g>
<!-- benefit_vendor -->
<g id="node4" class="node">
<title>benefit_vendor</title>
<polygon fill="#efefef" stroke="transparent" points="845,-1337.5 845,-1372.5 1105,-1372.5 1105,-1337.5 845,-1337.5"/>
<polygon fill="none" stroke="#000000" points="845,-1337.5 845,-1372.5 1105,-1372.5 1105,-1337.5 845,-1337.5"/>
<text text-anchor="start" x="851.6927" y="-1350.3" font-family="Arial Bold" font-size="18.00" fill="#000000">benefit_vendor</text>
<text text-anchor="start" x="970.7393" y="-1350.3" font-family="Arial" font-size="14.00" fill="#000000">    </text>
<text text-anchor="start" x="1004.9441" y="-1350.3" font-family="Arial" font-size="14.00" fill="#666666">[BASE TABLE]</text>
<polygon fill="none" stroke="#000000" points="845,-1307.5 845,-1337.5 1105,-1337.5 1105,-1307.5 845,-1307.5"/>
<text text-anchor="start" x="852" y="-1318.9" font-family="Arial" font-size="14.00" fill="#000000">id    </text>
<text text-anchor="start" x="897.094" y="-1318.9" font-family="Arial" font-size="14.00" fill="#666666">[char(36)]</text>
<polygon fill="none" stroke="#000000" points="845,-1277.5 845,-1307.5 1105,-1307.5 1105,-1277.5 845,-1277.5"/>
<text text-anchor="start" x="852" y="-1288.9" font-family="Arial" font-size="14.00" fill="#000000">benefit_id    </text>
<text text-anchor="start" x="946.8948" y="-1288.9" font-family="Arial" font-size="14.00" fill="#666666">[char(36)]</text>
<polygon fill="none" stroke="#000000" points="845,-1247.5 845,-1277.5 1105,-1277.5 1105,-1247.5 845,-1247.5"/>
<text text-anchor="start" x="852" y="-1258.9" font-family="Arial" font-size="14.00" fill="#000000">vendor_id    </text>
<text text-anchor="start" x="947.6676" y="-1258.9" font-family="Arial" font-size="14.00" fill="#666666">[char(36)]</text>
<polygon fill="none" stroke="#000000" points="845,-1217.5 845,-1247.5 1105,-1247.5 1105,-1217.5 845,-1217.5"/>
<text text-anchor="start" x="852" y="-1228.9" font-family="Arial" font-size="14.00" fill="#000000">created_at    </text>
<text text-anchor="start" x="952.3422" y="-1228.9" font-family="Arial" font-size="14.00" fill="#666666">[timestamp]</text>
<polygon fill="none" stroke="#000000" points="845,-1187.5 845,-1217.5 1105,-1217.5 1105,-1187.5 845,-1187.5"/>
<text text-anchor="start" x="852" y="-1198.9" font-family="Arial" font-size="14.00" fill="#000000">updated_at    </text>
<text text-anchor="start" x="956.2468" y="-1198.9" font-family="Arial" font-size="14.00" fill="#666666">[timestamp]</text>
</g>
<!-- benefit_vendor&#45;&gt;benefits -->
<g id="edge3" class="edge">
<title>benefit_vendor:benefit_id&#45;&gt;benefits:id</title>
<path fill="none" stroke="#000000" d="M834.6439,-1291.1754C762.8071,-1270.808 893.7602,-1022.1478 897,-1004 904.5374,-961.7786 939.8889,-907.5 897,-907.5"/>
<polygon fill="#000000" stroke="#000000" points="835.0808,-1291.2312 844.429,-1296.9636 840.0404,-1291.8656 845,-1292.5 845,-1292.5 845,-1292.5 840.0404,-1291.8656 845.571,-1288.0364 835.0808,-1291.2312 835.0808,-1291.2312"/>
<text text-anchor="start" x="852.379" y="-1302.5" font-family="Arial" font-size="10.00" fill="#000000">FOREIGN KEY (benefit_id) REFERENCES benefits (id)</text>
</g>
<!-- benefit_vendors -->
<g id="node5" class="node">
<title>benefit_vendors</title>
<polygon fill="#efefef" stroke="transparent" points="1210,-1352.5 1210,-1387.5 1479,-1387.5 1479,-1352.5 1210,-1352.5"/>
<polygon fill="none" stroke="#000000" points="1210,-1352.5 1210,-1387.5 1479,-1387.5 1479,-1352.5 1210,-1352.5"/>
<text text-anchor="start" x="1216.6927" y="-1365.3" font-family="Arial Bold" font-size="18.00" fill="#000000">benefit_vendors</text>
<text text-anchor="start" x="1344.7393" y="-1365.3" font-family="Arial" font-size="14.00" fill="#000000">    </text>
<text text-anchor="start" x="1378.9441" y="-1365.3" font-family="Arial" font-size="14.00" fill="#666666">[BASE TABLE]</text>
<polygon fill="none" stroke="#000000" points="1210,-1322.5 1210,-1352.5 1479,-1352.5 1479,-1322.5 1210,-1322.5"/>
<text text-anchor="start" x="1217" y="-1333.9" font-family="Arial" font-size="14.00" fill="#000000">id    </text>
<text text-anchor="start" x="1262.094" y="-1333.9" font-family="Arial" font-size="14.00" fill="#666666">[char(36)]</text>
<polygon fill="none" stroke="#000000" points="1210,-1292.5 1210,-1322.5 1479,-1322.5 1479,-1292.5 1210,-1292.5"/>
<text text-anchor="start" x="1217" y="-1303.9" font-family="Arial" font-size="14.00" fill="#000000">benefit_id    </text>
<text text-anchor="start" x="1311.8948" y="-1303.9" font-family="Arial" font-size="14.00" fill="#666666">[char(36)]</text>
<polygon fill="none" stroke="#000000" points="1210,-1262.5 1210,-1292.5 1479,-1292.5 1479,-1262.5 1210,-1262.5"/>
<text text-anchor="start" x="1217" y="-1273.9" font-family="Arial" font-size="14.00" fill="#000000">vendor_id    </text>
<text text-anchor="start" x="1312.6676" y="-1273.9" font-family="Arial" font-size="14.00" fill="#666666">[bigint unsigned]</text>
<polygon fill="none" stroke="#000000" points="1210,-1232.5 1210,-1262.5 1479,-1262.5 1479,-1232.5 1210,-1232.5"/>
<text text-anchor="start" x="1217" y="-1243.9" font-family="Arial" font-size="14.00" fill="#000000">created_at    </text>
<text text-anchor="start" x="1317.3422" y="-1243.9" font-family="Arial" font-size="14.00" fill="#666666">[timestamp]</text>
<polygon fill="none" stroke="#000000" points="1210,-1202.5 1210,-1232.5 1479,-1232.5 1479,-1202.5 1210,-1202.5"/>
<text text-anchor="start" x="1217" y="-1213.9" font-family="Arial" font-size="14.00" fill="#000000">updated_at    </text>
<text text-anchor="start" x="1321.2468" y="-1213.9" font-family="Arial" font-size="14.00" fill="#666666">[timestamp]</text>
<polygon fill="none" stroke="#000000" points="1210,-1172.5 1210,-1202.5 1479,-1202.5 1479,-1172.5 1210,-1172.5"/>
<text text-anchor="start" x="1217" y="-1183.9" font-family="Arial" font-size="14.00" fill="#000000">deleted_at    </text>
<text text-anchor="start" x="1316.5708" y="-1183.9" font-family="Arial" font-size="14.00" fill="#666666">[timestamp]</text>
</g>
<!-- benefit_vendors&#45;&gt;benefits -->
<g id="edge4" class="edge">
<title>benefit_vendors:benefit_id&#45;&gt;benefits:id</title>
<path fill="none" stroke="#000000" d="M1199.7011,-1307.0371C1097.1595,-1297.2245 1227.8978,-1133.7389 1157,-1040 1078.7639,-936.5587 1026.6958,-907.5 897,-907.5"/>
<polygon fill="#000000" stroke="#000000" points="1200.0101,-1307.0509 1209.7979,-1311.9955 1205.005,-1307.2754 1210,-1307.5 1210,-1307.5 1210,-1307.5 1205.005,-1307.2754 1210.2021,-1303.0045 1200.0101,-1307.0509 1200.0101,-1307.0509"/>
<text text-anchor="start" x="1217.379" y="-1317.5" font-family="Arial" font-size="10.00" fill="#000000">FOREIGN KEY (benefit_id) REFERENCES benefits (id)</text>
</g>
</g>
</svg>
