<?xml version="1.0" encoding="UTF-8" standalone="no"?>
<!DOCTYPE svg PUBLIC "-//W3C//DTD SVG 1.1//EN"
 "http://www.w3.org/Graphics/SVG/1.1/DTD/svg11.dtd">
<!-- Generated by graphviz version 2.40.1 (20161225.0304)
 -->
<!-- Title: benefit_groups Pages: 1 -->
<svg width="648pt" height="772pt"
 viewBox="0.00 0.00 648.00 772.00" xmlns="http://www.w3.org/2000/svg" xmlns:xlink="http://www.w3.org/1999/xlink">
<g id="graph0" class="graph" transform="scale(1 1) rotate(0) translate(4 768)">
<title>benefit_groups</title>
<polygon fill="#ffffff" stroke="transparent" points="-4,4 -4,-768 644,-768 644,4 -4,4"/>
<!-- benefit_groups -->
<g id="node1" class="node">
<title>benefit_groups</title>
<polygon fill="#efefef" stroke="transparent" points="50,-375.5 50,-410.5 310,-410.5 310,-375.5 50,-375.5"/>
<polygon fill="none" stroke="#000000" points="50,-375.5 50,-410.5 310,-410.5 310,-375.5 50,-375.5"/>
<text text-anchor="start" x="56.6927" y="-388.3" font-family="Arial Bold" font-size="18.00" fill="#000000">benefit_groups</text>
<text text-anchor="start" x="175.7393" y="-388.3" font-family="Arial" font-size="14.00" fill="#000000">    </text>
<text text-anchor="start" x="209.9441" y="-388.3" font-family="Arial" font-size="14.00" fill="#666666">[BASE TABLE]</text>
<polygon fill="none" stroke="#000000" points="50,-345.5 50,-375.5 310,-375.5 310,-345.5 50,-345.5"/>
<text text-anchor="start" x="57" y="-356.9" font-family="Arial" font-size="14.00" fill="#000000">id </text>
<text text-anchor="start" x="71.7798" y="-356.9" font-family="Arial" font-size="14.00" fill="#666666">[char(36)]</text>
<polygon fill="none" stroke="#000000" points="50,-315.5 50,-345.5 310,-345.5 310,-315.5 50,-315.5"/>
<text text-anchor="start" x="57" y="-326.9" font-family="Arial" font-size="14.00" fill="#000000">name </text>
<text text-anchor="start" x="95.899" y="-326.9" font-family="Arial" font-size="14.00" fill="#666666">[json]</text>
<polygon fill="none" stroke="#000000" points="50,-285.5 50,-315.5 310,-315.5 310,-285.5 50,-285.5"/>
<text text-anchor="start" x="57" y="-296.9" font-family="Arial" font-size="14.00" fill="#000000">coverage </text>
<text text-anchor="start" x="118.4642" y="-296.9" font-family="Arial" font-size="14.00" fill="#666666">[double(8,2)]</text>
<polygon fill="none" stroke="#000000" points="50,-255.5 50,-285.5 310,-285.5 310,-255.5 50,-255.5"/>
<text text-anchor="start" x="57" y="-266.9" font-family="Arial" font-size="14.00" fill="#000000">max_amount </text>
<text text-anchor="start" x="141.798" y="-266.9" font-family="Arial" font-size="14.00" fill="#666666">[double(8,2)]</text>
<polygon fill="none" stroke="#000000" points="50,-225.5 50,-255.5 310,-255.5 310,-225.5 50,-225.5"/>
<text text-anchor="start" x="57" y="-236.9" font-family="Arial" font-size="14.00" fill="#000000">effective_date </text>
<text text-anchor="start" x="148.0378" y="-236.9" font-family="Arial" font-size="14.00" fill="#666666">[date]</text>
<polygon fill="none" stroke="#000000" points="50,-195.5 50,-225.5 310,-225.5 310,-195.5 50,-195.5"/>
<text text-anchor="start" x="57" y="-206.9" font-family="Arial" font-size="14.00" fill="#000000">end_date </text>
<text text-anchor="start" x="119.2594" y="-206.9" font-family="Arial" font-size="14.00" fill="#666666">[date]</text>
<polygon fill="none" stroke="#000000" points="50,-165.5 50,-195.5 310,-195.5 310,-165.5 50,-165.5"/>
<text text-anchor="start" x="57" y="-176.9" font-family="Arial" font-size="14.00" fill="#000000">status </text>
<text text-anchor="start" x="98.237" y="-176.9" font-family="Arial" font-size="14.00" fill="#666666">[varchar(30)]</text>
<polygon fill="none" stroke="#000000" points="50,-135.5 50,-165.5 310,-165.5 310,-135.5 50,-135.5"/>
<text text-anchor="start" x="57" y="-146.9" font-family="Arial" font-size="14.00" fill="#000000">is_locked </text>
<text text-anchor="start" x="119.2342" y="-146.9" font-family="Arial" font-size="14.00" fill="#666666">[tinyint(1)]</text>
<polygon fill="none" stroke="#000000" points="50,-105.5 50,-135.5 310,-135.5 310,-105.5 50,-105.5"/>
<text text-anchor="start" x="57" y="-116.9" font-family="Arial" font-size="14.00" fill="#000000">created_at </text>
<text text-anchor="start" x="127.028" y="-116.9" font-family="Arial" font-size="14.00" fill="#666666">[timestamp]</text>
<polygon fill="none" stroke="#000000" points="50,-75.5 50,-105.5 310,-105.5 310,-75.5 50,-75.5"/>
<text text-anchor="start" x="57" y="-86.9" font-family="Arial" font-size="14.00" fill="#000000">updated_at </text>
<text text-anchor="start" x="130.9326" y="-86.9" font-family="Arial" font-size="14.00" fill="#666666">[timestamp]</text>
<polygon fill="none" stroke="#000000" points="50,-45.5 50,-75.5 310,-75.5 310,-45.5 50,-45.5"/>
<text text-anchor="start" x="57" y="-56.9" font-family="Arial" font-size="14.00" fill="#000000">deleted_at </text>
<text text-anchor="start" x="126.2566" y="-56.9" font-family="Arial" font-size="14.00" fill="#666666">[timestamp]</text>
<polygon fill="none" stroke="#000000" stroke-width="3" points="48.5,-44.5 48.5,-412.5 311.5,-412.5 311.5,-44.5 48.5,-44.5"/>
</g>
<!-- benefit_mapping -->
<g id="node2" class="node">
<title>benefit_mapping</title>
<polygon fill="#efefef" stroke="transparent" points="43,-685.5 43,-720.5 317,-720.5 317,-685.5 43,-685.5"/>
<polygon fill="none" stroke="#000000" points="43,-685.5 43,-720.5 317,-720.5 317,-685.5 43,-685.5"/>
<text text-anchor="start" x="49.6925" y="-698.3" font-family="Arial Bold" font-size="18.00" fill="#000000">benefit_mapping</text>
<text text-anchor="start" x="182.7395" y="-698.3" font-family="Arial" font-size="14.00" fill="#000000">    </text>
<text text-anchor="start" x="216.9443" y="-698.3" font-family="Arial" font-size="14.00" fill="#666666">[BASE TABLE]</text>
<polygon fill="none" stroke="#000000" points="43,-655.5 43,-685.5 317,-685.5 317,-655.5 43,-655.5"/>
<text text-anchor="start" x="50" y="-666.9" font-family="Arial" font-size="14.00" fill="#000000">id    </text>
<text text-anchor="start" x="95.094" y="-666.9" font-family="Arial" font-size="14.00" fill="#666666">[varchar(36)]</text>
<polygon fill="none" stroke="#000000" points="43,-625.5 43,-655.5 317,-655.5 317,-625.5 43,-625.5"/>
<text text-anchor="start" x="50" y="-636.9" font-family="Arial" font-size="14.00" fill="#000000">benefit_group_id    </text>
<text text-anchor="start" x="188.4684" y="-636.9" font-family="Arial" font-size="14.00" fill="#666666">[char(36)]</text>
<polygon fill="none" stroke="#000000" points="43,-595.5 43,-625.5 317,-625.5 317,-595.5 43,-595.5"/>
<text text-anchor="start" x="50" y="-606.9" font-family="Arial" font-size="14.00" fill="#000000">benefit_id    </text>
<text text-anchor="start" x="144.8948" y="-606.9" font-family="Arial" font-size="14.00" fill="#666666">[char(36)]</text>
<polygon fill="none" stroke="#000000" points="43,-565.5 43,-595.5 317,-595.5 317,-565.5 43,-565.5"/>
<text text-anchor="start" x="50" y="-576.9" font-family="Arial" font-size="14.00" fill="#000000">created_at    </text>
<text text-anchor="start" x="150.3422" y="-576.9" font-family="Arial" font-size="14.00" fill="#666666">[timestamp]</text>
<polygon fill="none" stroke="#000000" points="43,-535.5 43,-565.5 317,-565.5 317,-535.5 43,-535.5"/>
<text text-anchor="start" x="50" y="-546.9" font-family="Arial" font-size="14.00" fill="#000000">updated_at    </text>
<text text-anchor="start" x="154.2468" y="-546.9" font-family="Arial" font-size="14.00" fill="#666666">[timestamp]</text>
</g>
<!-- benefit_mapping&#45;&gt;benefit_groups -->
<g id="edge1" class="edge">
<title>benefit_mapping:benefit_group_id&#45;&gt;benefit_groups:id</title>
<path fill="none" stroke="#000000" d="M326.9123,-637.9069C378.2715,-609.6795 368.7163,-360.5 310,-360.5"/>
<polygon fill="#000000" stroke="#000000" points="326.6744,-637.9691 315.8611,-636.1465 321.8372,-639.2345 317,-640.5 317,-640.5 317,-640.5 321.8372,-639.2345 318.1389,-644.8535 326.6744,-637.9691 326.6744,-637.9691"/>
<text text-anchor="start" x="324.255" y="-650.5" font-family="Arial" font-size="10.00" fill="#000000">FOREIGN KEY (benefit_group_id) REFERENCES benefit_groups (id)</text>
</g>
</g>
</svg>
