<?xml version="1.0" encoding="UTF-8" standalone="no"?>
<!DOCTYPE svg PUBLIC "-//W3C//DTD SVG 1.1//EN"
 "http://www.w3.org/Graphics/SVG/1.1/DTD/svg11.dtd">
<!-- Generated by graphviz version 2.40.1 (20161225.0304)
 -->
<!-- Title: benefit_vendors Pages: 1 -->
<svg width="585pt" height="1012pt"
 viewBox="0.00 0.00 584.50 1012.00" xmlns="http://www.w3.org/2000/svg" xmlns:xlink="http://www.w3.org/1999/xlink">
<g id="graph0" class="graph" transform="scale(1 1) rotate(0) translate(4 1008)">
<title>benefit_vendors</title>
<polygon fill="#ffffff" stroke="transparent" points="-4,4 -4,-1008 580.5,-1008 580.5,4 -4,4"/>
<!-- benefit_vendors -->
<g id="node1" class="node">
<title>benefit_vendors</title>
<polygon fill="#efefef" stroke="transparent" points="46.5,-922.5 46.5,-957.5 315.5,-957.5 315.5,-922.5 46.5,-922.5"/>
<polygon fill="none" stroke="#000000" points="46.5,-922.5 46.5,-957.5 315.5,-957.5 315.5,-922.5 46.5,-922.5"/>
<text text-anchor="start" x="53.1927" y="-935.3" font-family="Arial Bold" font-size="18.00" fill="#000000">benefit_vendors</text>
<text text-anchor="start" x="181.2393" y="-935.3" font-family="Arial" font-size="14.00" fill="#000000">    </text>
<text text-anchor="start" x="215.4441" y="-935.3" font-family="Arial" font-size="14.00" fill="#666666">[BASE TABLE]</text>
<polygon fill="none" stroke="#000000" points="46.5,-892.5 46.5,-922.5 315.5,-922.5 315.5,-892.5 46.5,-892.5"/>
<text text-anchor="start" x="53.5" y="-903.9" font-family="Arial" font-size="14.00" fill="#000000">id </text>
<text text-anchor="start" x="68.2798" y="-903.9" font-family="Arial" font-size="14.00" fill="#666666">[char(36)]</text>
<polygon fill="none" stroke="#000000" points="46.5,-862.5 46.5,-892.5 315.5,-892.5 315.5,-862.5 46.5,-862.5"/>
<text text-anchor="start" x="53.5" y="-873.9" font-family="Arial" font-size="14.00" fill="#000000">benefit_id </text>
<text text-anchor="start" x="118.0806" y="-873.9" font-family="Arial" font-size="14.00" fill="#666666">[char(36)]</text>
<polygon fill="none" stroke="#000000" points="46.5,-832.5 46.5,-862.5 315.5,-862.5 315.5,-832.5 46.5,-832.5"/>
<text text-anchor="start" x="53.5" y="-843.9" font-family="Arial" font-size="14.00" fill="#000000">vendor_id </text>
<text text-anchor="start" x="118.8534" y="-843.9" font-family="Arial" font-size="14.00" fill="#666666">[bigint unsigned]</text>
<polygon fill="none" stroke="#000000" points="46.5,-802.5 46.5,-832.5 315.5,-832.5 315.5,-802.5 46.5,-802.5"/>
<text text-anchor="start" x="53.5" y="-813.9" font-family="Arial" font-size="14.00" fill="#000000">created_at </text>
<text text-anchor="start" x="123.528" y="-813.9" font-family="Arial" font-size="14.00" fill="#666666">[timestamp]</text>
<polygon fill="none" stroke="#000000" points="46.5,-772.5 46.5,-802.5 315.5,-802.5 315.5,-772.5 46.5,-772.5"/>
<text text-anchor="start" x="53.5" y="-783.9" font-family="Arial" font-size="14.00" fill="#000000">updated_at </text>
<text text-anchor="start" x="127.4326" y="-783.9" font-family="Arial" font-size="14.00" fill="#666666">[timestamp]</text>
<polygon fill="none" stroke="#000000" points="46.5,-742.5 46.5,-772.5 315.5,-772.5 315.5,-742.5 46.5,-742.5"/>
<text text-anchor="start" x="53.5" y="-753.9" font-family="Arial" font-size="14.00" fill="#000000">deleted_at </text>
<text text-anchor="start" x="122.7566" y="-753.9" font-family="Arial" font-size="14.00" fill="#666666">[timestamp]</text>
<polygon fill="none" stroke="#000000" stroke-width="3" points="44.5,-741.5 44.5,-959.5 316.5,-959.5 316.5,-741.5 44.5,-741.5"/>
</g>
<!-- benefits -->
<g id="node2" class="node">
<title>benefits</title>
<polygon fill="#efefef" stroke="transparent" points="47.5,-582.5 47.5,-617.5 315.5,-617.5 315.5,-582.5 47.5,-582.5"/>
<polygon fill="none" stroke="#000000" points="47.5,-582.5 47.5,-617.5 315.5,-617.5 315.5,-582.5 47.5,-582.5"/>
<text text-anchor="start" x="86.2043" y="-595.3" font-family="Arial Bold" font-size="18.00" fill="#000000">benefits</text>
<text text-anchor="start" x="149.2277" y="-595.3" font-family="Arial" font-size="14.00" fill="#000000">    </text>
<text text-anchor="start" x="183.4325" y="-595.3" font-family="Arial" font-size="14.00" fill="#666666">[BASE TABLE]</text>
<polygon fill="none" stroke="#000000" points="47.5,-552.5 47.5,-582.5 315.5,-582.5 315.5,-552.5 47.5,-552.5"/>
<text text-anchor="start" x="54.5" y="-563.9" font-family="Arial" font-size="14.00" fill="#000000">id    </text>
<text text-anchor="start" x="99.594" y="-563.9" font-family="Arial" font-size="14.00" fill="#666666">[char(36)]</text>
<polygon fill="none" stroke="#000000" points="47.5,-522.5 47.5,-552.5 315.5,-552.5 315.5,-522.5 47.5,-522.5"/>
<text text-anchor="start" x="54.5" y="-533.9" font-family="Arial" font-size="14.00" fill="#000000">code    </text>
<text text-anchor="start" x="119.0526" y="-533.9" font-family="Arial" font-size="14.00" fill="#666666">[varchar(20)]</text>
<polygon fill="none" stroke="#000000" points="47.5,-492.5 47.5,-522.5 315.5,-522.5 315.5,-492.5 47.5,-492.5"/>
<text text-anchor="start" x="54.5" y="-503.9" font-family="Arial" font-size="14.00" fill="#000000">name    </text>
<text text-anchor="start" x="123.7132" y="-503.9" font-family="Arial" font-size="14.00" fill="#666666">[json]</text>
<polygon fill="none" stroke="#000000" points="47.5,-462.5 47.5,-492.5 315.5,-492.5 315.5,-462.5 47.5,-462.5"/>
<text text-anchor="start" x="54.5" y="-473.9" font-family="Arial" font-size="14.00" fill="#000000">coverage    </text>
<text text-anchor="start" x="146.2784" y="-473.9" font-family="Arial" font-size="14.00" fill="#666666">[double(8,2) unsigned]</text>
<polygon fill="none" stroke="#000000" points="47.5,-432.5 47.5,-462.5 315.5,-462.5 315.5,-432.5 47.5,-432.5"/>
<text text-anchor="start" x="54.3086" y="-443.9" font-family="Arial" font-size="14.00" fill="#000000">max_amount    </text>
<text text-anchor="start" x="169.4208" y="-443.9" font-family="Arial" font-size="14.00" fill="#666666">[double(8,2) unsigned]</text>
<polygon fill="none" stroke="#000000" points="47.5,-402.5 47.5,-432.5 315.5,-432.5 315.5,-402.5 47.5,-402.5"/>
<text text-anchor="start" x="54.5" y="-413.9" font-family="Arial" font-size="14.00" fill="#000000">effective_date    </text>
<text text-anchor="start" x="175.852" y="-413.9" font-family="Arial" font-size="14.00" fill="#666666">[date]</text>
<polygon fill="none" stroke="#000000" points="47.5,-372.5 47.5,-402.5 315.5,-402.5 315.5,-372.5 47.5,-372.5"/>
<text text-anchor="start" x="54.5" y="-383.9" font-family="Arial" font-size="14.00" fill="#000000">end_date    </text>
<text text-anchor="start" x="147.0736" y="-383.9" font-family="Arial" font-size="14.00" fill="#666666">[date]</text>
<polygon fill="none" stroke="#000000" points="47.5,-342.5 47.5,-372.5 315.5,-372.5 315.5,-342.5 47.5,-342.5"/>
<text text-anchor="start" x="54.5" y="-353.9" font-family="Arial" font-size="14.00" fill="#000000">status    </text>
<text text-anchor="start" x="126.0512" y="-353.9" font-family="Arial" font-size="14.00" fill="#666666">[varchar(30)]</text>
<polygon fill="none" stroke="#000000" points="47.5,-312.5 47.5,-342.5 315.5,-342.5 315.5,-312.5 47.5,-312.5"/>
<text text-anchor="start" x="54.5" y="-323.9" font-family="Arial" font-size="14.00" fill="#000000">is_individual    </text>
<text text-anchor="start" x="164.9334" y="-323.9" font-family="Arial" font-size="14.00" fill="#666666">[tinyint(1)]</text>
<polygon fill="none" stroke="#000000" points="47.5,-282.5 47.5,-312.5 315.5,-312.5 315.5,-282.5 47.5,-282.5"/>
<text text-anchor="start" x="54.5" y="-293.9" font-family="Arial" font-size="14.00" fill="#000000">is_locked    </text>
<text text-anchor="start" x="147.0484" y="-293.9" font-family="Arial" font-size="14.00" fill="#666666">[tinyint(1)]</text>
<polygon fill="none" stroke="#000000" points="47.5,-252.5 47.5,-282.5 315.5,-282.5 315.5,-252.5 47.5,-252.5"/>
<text text-anchor="start" x="54.5" y="-263.9" font-family="Arial" font-size="14.00" fill="#000000">is_reportable_to_vendors    </text>
<text text-anchor="start" x="246.6374" y="-263.9" font-family="Arial" font-size="14.00" fill="#666666">[tinyint(1)]</text>
<polygon fill="none" stroke="#000000" points="47.5,-222.5 47.5,-252.5 315.5,-252.5 315.5,-222.5 47.5,-222.5"/>
<text text-anchor="start" x="54.5" y="-233.9" font-family="Arial" font-size="14.00" fill="#000000">min_time_req    </text>
<text text-anchor="start" x="173.486" y="-233.9" font-family="Arial" font-size="14.00" fill="#666666">[json]</text>
<polygon fill="none" stroke="#000000" points="47.5,-192.5 47.5,-222.5 315.5,-222.5 315.5,-192.5 47.5,-192.5"/>
<text text-anchor="start" x="54.5" y="-203.9" font-family="Arial" font-size="14.00" fill="#000000">rules    </text>
<text text-anchor="start" x="119.0372" y="-203.9" font-family="Arial" font-size="14.00" fill="#666666">[json]</text>
<polygon fill="none" stroke="#000000" points="47.5,-162.5 47.5,-192.5 315.5,-192.5 315.5,-162.5 47.5,-162.5"/>
<text text-anchor="start" x="54.5" y="-173.9" font-family="Arial" font-size="14.00" fill="#000000">benefit_category_id    </text>
<text text-anchor="start" x="210.859" y="-173.9" font-family="Arial" font-size="14.00" fill="#666666">[char(36)]</text>
<polygon fill="none" stroke="#000000" points="47.5,-132.5 47.5,-162.5 315.5,-162.5 315.5,-132.5 47.5,-132.5"/>
<text text-anchor="start" x="54.5" y="-143.9" font-family="Arial" font-size="14.00" fill="#000000">insurer_id    </text>
<text text-anchor="start" x="150.1522" y="-143.9" font-family="Arial" font-size="14.00" fill="#666666">[char(36)]</text>
<polygon fill="none" stroke="#000000" points="47.5,-102.5 47.5,-132.5 315.5,-132.5 315.5,-102.5 47.5,-102.5"/>
<text text-anchor="start" x="54.5" y="-113.9" font-family="Arial" font-size="14.00" fill="#000000">created_at    </text>
<text text-anchor="start" x="154.8422" y="-113.9" font-family="Arial" font-size="14.00" fill="#666666">[timestamp]</text>
<polygon fill="none" stroke="#000000" points="47.5,-72.5 47.5,-102.5 315.5,-102.5 315.5,-72.5 47.5,-72.5"/>
<text text-anchor="start" x="54.5" y="-83.9" font-family="Arial" font-size="14.00" fill="#000000">updated_at    </text>
<text text-anchor="start" x="158.7468" y="-83.9" font-family="Arial" font-size="14.00" fill="#666666">[timestamp]</text>
<polygon fill="none" stroke="#000000" points="47.5,-42.5 47.5,-72.5 315.5,-72.5 315.5,-42.5 47.5,-42.5"/>
<text text-anchor="start" x="54.5" y="-53.9" font-family="Arial" font-size="14.00" fill="#000000">deleted_at    </text>
<text text-anchor="start" x="154.0708" y="-53.9" font-family="Arial" font-size="14.00" fill="#666666">[timestamp]</text>
</g>
<!-- benefit_vendors&#45;&gt;benefits -->
<g id="edge1" class="edge">
<title>benefit_vendors:benefit_id&#45;&gt;benefits:id</title>
<path fill="none" stroke="#000000" d="M325.6671,-876.7891C393.2086,-866.8288 365.9423,-754.6712 315.5,-697 236.3781,-606.5391 126.6219,-751.4609 47.5,-661 20.1416,-629.7209 5.9444,-567.5 47.5,-567.5"/>
<polygon fill="#000000" stroke="#000000" points="325.4756,-876.8024 315.1861,-873.011 320.4878,-877.1512 315.5,-877.5 315.5,-877.5 315.5,-877.5 320.4878,-877.1512 315.8139,-881.989 325.4756,-876.8024 325.4756,-876.8024"/>
<text text-anchor="start" x="322.879" y="-887.5" font-family="Arial" font-size="10.00" fill="#000000">FOREIGN KEY (benefit_id) REFERENCES benefits (id)</text>
</g>
</g>
</svg>
