<?xml version="1.0" encoding="UTF-8" standalone="no"?>
<!DOCTYPE svg PUBLIC "-//W3C//DTD SVG 1.1//EN"
 "http://www.w3.org/Graphics/SVG/1.1/DTD/svg11.dtd">
<!-- Generated by graphviz version 2.40.1 (20161225.0304)
 -->
<!-- Title: benefit_categories Pages: 1 -->
<svg width="683pt" height="1012pt"
 viewBox="0.00 0.00 683.00 1012.00" xmlns="http://www.w3.org/2000/svg" xmlns:xlink="http://www.w3.org/1999/xlink">
<g id="graph0" class="graph" transform="scale(1 1) rotate(0) translate(4 1008)">
<title>benefit_categories</title>
<polygon fill="#ffffff" stroke="transparent" points="-4,4 -4,-1008 679,-1008 679,4 -4,4"/>
<!-- benefit_categories -->
<g id="node1" class="node">
<title>benefit_categories</title>
<polygon fill="#efefef" stroke="transparent" points="46,-225.5 46,-260.5 334,-260.5 334,-225.5 46,-225.5"/>
<polygon fill="none" stroke="#000000" points="46,-225.5 46,-260.5 334,-260.5 334,-225.5 46,-225.5"/>
<text text-anchor="start" x="52.6914" y="-238.3" font-family="Arial Bold" font-size="18.00" fill="#000000">benefit_categories</text>
<text text-anchor="start" x="199.7406" y="-238.3" font-family="Arial" font-size="14.00" fill="#000000">    </text>
<text text-anchor="start" x="233.9454" y="-238.3" font-family="Arial" font-size="14.00" fill="#666666">[BASE TABLE]</text>
<polygon fill="none" stroke="#000000" points="46,-195.5 46,-225.5 334,-225.5 334,-195.5 46,-195.5"/>
<text text-anchor="start" x="53" y="-206.9" font-family="Arial" font-size="14.00" fill="#000000">id </text>
<text text-anchor="start" x="67.7798" y="-206.9" font-family="Arial" font-size="14.00" fill="#666666">[char(36)]</text>
<polygon fill="none" stroke="#000000" points="46,-165.5 46,-195.5 334,-195.5 334,-165.5 46,-165.5"/>
<text text-anchor="start" x="53" y="-176.9" font-family="Arial" font-size="14.00" fill="#000000">name </text>
<text text-anchor="start" x="91.899" y="-176.9" font-family="Arial" font-size="14.00" fill="#666666">[json]</text>
<polygon fill="none" stroke="#000000" points="46,-135.5 46,-165.5 334,-165.5 334,-135.5 46,-135.5"/>
<text text-anchor="start" x="53" y="-146.9" font-family="Arial" font-size="14.00" fill="#000000">status </text>
<text text-anchor="start" x="94.237" y="-146.9" font-family="Arial" font-size="14.00" fill="#666666">[varchar(30)]</text>
<polygon fill="none" stroke="#000000" points="46,-105.5 46,-135.5 334,-135.5 334,-105.5 46,-105.5"/>
<text text-anchor="start" x="53" y="-116.9" font-family="Arial" font-size="14.00" fill="#000000">created_at </text>
<text text-anchor="start" x="123.028" y="-116.9" font-family="Arial" font-size="14.00" fill="#666666">[timestamp]</text>
<polygon fill="none" stroke="#000000" points="46,-75.5 46,-105.5 334,-105.5 334,-75.5 46,-75.5"/>
<text text-anchor="start" x="53" y="-86.9" font-family="Arial" font-size="14.00" fill="#000000">updated_at </text>
<text text-anchor="start" x="126.9326" y="-86.9" font-family="Arial" font-size="14.00" fill="#666666">[timestamp]</text>
<polygon fill="none" stroke="#000000" points="46,-45.5 46,-75.5 334,-75.5 334,-45.5 46,-45.5"/>
<text text-anchor="start" x="53" y="-56.9" font-family="Arial" font-size="14.00" fill="#000000">deleted_at </text>
<text text-anchor="start" x="122.2566" y="-56.9" font-family="Arial" font-size="14.00" fill="#666666">[timestamp]</text>
<polygon fill="none" stroke="#000000" stroke-width="3" points="44.5,-44.5 44.5,-262.5 335.5,-262.5 335.5,-44.5 44.5,-44.5"/>
</g>
<!-- benefits -->
<g id="node2" class="node">
<title>benefits</title>
<polygon fill="#efefef" stroke="transparent" points="56,-925.5 56,-960.5 324,-960.5 324,-925.5 56,-925.5"/>
<polygon fill="none" stroke="#000000" points="56,-925.5 56,-960.5 324,-960.5 324,-925.5 56,-925.5"/>
<text text-anchor="start" x="94.7043" y="-938.3" font-family="Arial Bold" font-size="18.00" fill="#000000">benefits</text>
<text text-anchor="start" x="157.7277" y="-938.3" font-family="Arial" font-size="14.00" fill="#000000">    </text>
<text text-anchor="start" x="191.9325" y="-938.3" font-family="Arial" font-size="14.00" fill="#666666">[BASE TABLE]</text>
<polygon fill="none" stroke="#000000" points="56,-895.5 56,-925.5 324,-925.5 324,-895.5 56,-895.5"/>
<text text-anchor="start" x="63" y="-906.9" font-family="Arial" font-size="14.00" fill="#000000">id    </text>
<text text-anchor="start" x="108.094" y="-906.9" font-family="Arial" font-size="14.00" fill="#666666">[char(36)]</text>
<polygon fill="none" stroke="#000000" points="56,-865.5 56,-895.5 324,-895.5 324,-865.5 56,-865.5"/>
<text text-anchor="start" x="63" y="-876.9" font-family="Arial" font-size="14.00" fill="#000000">code    </text>
<text text-anchor="start" x="127.5526" y="-876.9" font-family="Arial" font-size="14.00" fill="#666666">[varchar(20)]</text>
<polygon fill="none" stroke="#000000" points="56,-835.5 56,-865.5 324,-865.5 324,-835.5 56,-835.5"/>
<text text-anchor="start" x="63" y="-846.9" font-family="Arial" font-size="14.00" fill="#000000">name    </text>
<text text-anchor="start" x="132.2132" y="-846.9" font-family="Arial" font-size="14.00" fill="#666666">[json]</text>
<polygon fill="none" stroke="#000000" points="56,-805.5 56,-835.5 324,-835.5 324,-805.5 56,-805.5"/>
<text text-anchor="start" x="63" y="-816.9" font-family="Arial" font-size="14.00" fill="#000000">coverage    </text>
<text text-anchor="start" x="154.7784" y="-816.9" font-family="Arial" font-size="14.00" fill="#666666">[double(8,2) unsigned]</text>
<polygon fill="none" stroke="#000000" points="56,-775.5 56,-805.5 324,-805.5 324,-775.5 56,-775.5"/>
<text text-anchor="start" x="62.8086" y="-786.9" font-family="Arial" font-size="14.00" fill="#000000">max_amount    </text>
<text text-anchor="start" x="177.9208" y="-786.9" font-family="Arial" font-size="14.00" fill="#666666">[double(8,2) unsigned]</text>
<polygon fill="none" stroke="#000000" points="56,-745.5 56,-775.5 324,-775.5 324,-745.5 56,-745.5"/>
<text text-anchor="start" x="63" y="-756.9" font-family="Arial" font-size="14.00" fill="#000000">effective_date    </text>
<text text-anchor="start" x="184.352" y="-756.9" font-family="Arial" font-size="14.00" fill="#666666">[date]</text>
<polygon fill="none" stroke="#000000" points="56,-715.5 56,-745.5 324,-745.5 324,-715.5 56,-715.5"/>
<text text-anchor="start" x="63" y="-726.9" font-family="Arial" font-size="14.00" fill="#000000">end_date    </text>
<text text-anchor="start" x="155.5736" y="-726.9" font-family="Arial" font-size="14.00" fill="#666666">[date]</text>
<polygon fill="none" stroke="#000000" points="56,-685.5 56,-715.5 324,-715.5 324,-685.5 56,-685.5"/>
<text text-anchor="start" x="63" y="-696.9" font-family="Arial" font-size="14.00" fill="#000000">status    </text>
<text text-anchor="start" x="134.5512" y="-696.9" font-family="Arial" font-size="14.00" fill="#666666">[varchar(30)]</text>
<polygon fill="none" stroke="#000000" points="56,-655.5 56,-685.5 324,-685.5 324,-655.5 56,-655.5"/>
<text text-anchor="start" x="63" y="-666.9" font-family="Arial" font-size="14.00" fill="#000000">is_individual    </text>
<text text-anchor="start" x="173.4334" y="-666.9" font-family="Arial" font-size="14.00" fill="#666666">[tinyint(1)]</text>
<polygon fill="none" stroke="#000000" points="56,-625.5 56,-655.5 324,-655.5 324,-625.5 56,-625.5"/>
<text text-anchor="start" x="63" y="-636.9" font-family="Arial" font-size="14.00" fill="#000000">is_locked    </text>
<text text-anchor="start" x="155.5484" y="-636.9" font-family="Arial" font-size="14.00" fill="#666666">[tinyint(1)]</text>
<polygon fill="none" stroke="#000000" points="56,-595.5 56,-625.5 324,-625.5 324,-595.5 56,-595.5"/>
<text text-anchor="start" x="63" y="-606.9" font-family="Arial" font-size="14.00" fill="#000000">is_reportable_to_vendors    </text>
<text text-anchor="start" x="255.1374" y="-606.9" font-family="Arial" font-size="14.00" fill="#666666">[tinyint(1)]</text>
<polygon fill="none" stroke="#000000" points="56,-565.5 56,-595.5 324,-595.5 324,-565.5 56,-565.5"/>
<text text-anchor="start" x="63" y="-576.9" font-family="Arial" font-size="14.00" fill="#000000">min_time_req    </text>
<text text-anchor="start" x="181.986" y="-576.9" font-family="Arial" font-size="14.00" fill="#666666">[json]</text>
<polygon fill="none" stroke="#000000" points="56,-535.5 56,-565.5 324,-565.5 324,-535.5 56,-535.5"/>
<text text-anchor="start" x="63" y="-546.9" font-family="Arial" font-size="14.00" fill="#000000">rules    </text>
<text text-anchor="start" x="127.5372" y="-546.9" font-family="Arial" font-size="14.00" fill="#666666">[json]</text>
<polygon fill="none" stroke="#000000" points="56,-505.5 56,-535.5 324,-535.5 324,-505.5 56,-505.5"/>
<text text-anchor="start" x="63" y="-516.9" font-family="Arial" font-size="14.00" fill="#000000">benefit_category_id    </text>
<text text-anchor="start" x="219.359" y="-516.9" font-family="Arial" font-size="14.00" fill="#666666">[char(36)]</text>
<polygon fill="none" stroke="#000000" points="56,-475.5 56,-505.5 324,-505.5 324,-475.5 56,-475.5"/>
<text text-anchor="start" x="63" y="-486.9" font-family="Arial" font-size="14.00" fill="#000000">insurer_id    </text>
<text text-anchor="start" x="158.6522" y="-486.9" font-family="Arial" font-size="14.00" fill="#666666">[char(36)]</text>
<polygon fill="none" stroke="#000000" points="56,-445.5 56,-475.5 324,-475.5 324,-445.5 56,-445.5"/>
<text text-anchor="start" x="63" y="-456.9" font-family="Arial" font-size="14.00" fill="#000000">created_at    </text>
<text text-anchor="start" x="163.3422" y="-456.9" font-family="Arial" font-size="14.00" fill="#666666">[timestamp]</text>
<polygon fill="none" stroke="#000000" points="56,-415.5 56,-445.5 324,-445.5 324,-415.5 56,-415.5"/>
<text text-anchor="start" x="63" y="-426.9" font-family="Arial" font-size="14.00" fill="#000000">updated_at    </text>
<text text-anchor="start" x="167.2468" y="-426.9" font-family="Arial" font-size="14.00" fill="#666666">[timestamp]</text>
<polygon fill="none" stroke="#000000" points="56,-385.5 56,-415.5 324,-415.5 324,-385.5 56,-385.5"/>
<text text-anchor="start" x="63" y="-396.9" font-family="Arial" font-size="14.00" fill="#000000">deleted_at    </text>
<text text-anchor="start" x="162.5708" y="-396.9" font-family="Arial" font-size="14.00" fill="#666666">[timestamp]</text>
</g>
<!-- benefits&#45;&gt;benefit_categories -->
<g id="edge1" class="edge">
<title>benefits:benefit_category_id&#45;&gt;benefit_categories:id</title>
<path fill="none" stroke="#000000" d="M334.0418,-518.183C393.7368,-489.815 399.4246,-210.5 334,-210.5"/>
<polygon fill="#000000" stroke="#000000" points="333.744,-518.2516 322.9882,-516.1152 328.872,-519.3758 324,-520.5 324,-520.5 324,-520.5 328.872,-519.3758 325.0118,-524.8848 333.744,-518.2516 333.744,-518.2516"/>
<text text-anchor="start" x="331.087" y="-530.5" font-family="Arial" font-size="10.00" fill="#000000">FOREIGN KEY (benefit_category_id) REFERENCES benefit_categories (id)</text>
</g>
</g>
</svg>
