<?xml version="1.0" encoding="UTF-8" standalone="no"?>
<!DOCTYPE svg PUBLIC "-//W3C//DTD SVG 1.1//EN"
 "http://www.w3.org/Graphics/SVG/1.1/DTD/svg11.dtd">
<!-- Generated by graphviz version 2.40.1 (20161225.0304)
 -->
<!-- Title: countries Pages: 1 -->
<svg width="634pt" height="1019pt"
 viewBox="0.00 0.00 633.50 1019.00" xmlns="http://www.w3.org/2000/svg" xmlns:xlink="http://www.w3.org/1999/xlink">
<g id="graph0" class="graph" transform="scale(1 1) rotate(0) translate(4 1015)">
<title>countries</title>
<polygon fill="#ffffff" stroke="transparent" points="-4,4 -4,-1015 629.5,-1015 629.5,4 -4,4"/>
<!-- countries -->
<g id="node1" class="node">
<title>countries</title>
<polygon fill="#efefef" stroke="transparent" points="93.5,-592.5 93.5,-627.5 307.5,-627.5 307.5,-592.5 93.5,-592.5"/>
<polygon fill="none" stroke="#000000" points="93.5,-592.5 93.5,-627.5 307.5,-627.5 307.5,-592.5 93.5,-592.5"/>
<text text-anchor="start" x="100.2093" y="-605.3" font-family="Arial Bold" font-size="18.00" fill="#000000">countries</text>
<text text-anchor="start" x="173.2227" y="-605.3" font-family="Arial" font-size="14.00" fill="#000000">    </text>
<text text-anchor="start" x="207.4275" y="-605.3" font-family="Arial" font-size="14.00" fill="#666666">[BASE TABLE]</text>
<polygon fill="none" stroke="#000000" points="93.5,-562.5 93.5,-592.5 307.5,-592.5 307.5,-562.5 93.5,-562.5"/>
<text text-anchor="start" x="100.5" y="-573.9" font-family="Arial" font-size="14.00" fill="#000000">id </text>
<text text-anchor="start" x="115.2798" y="-573.9" font-family="Arial" font-size="14.00" fill="#666666">[char(36)]</text>
<polygon fill="none" stroke="#000000" points="93.5,-532.5 93.5,-562.5 307.5,-562.5 307.5,-532.5 93.5,-532.5"/>
<text text-anchor="start" x="100.5" y="-543.9" font-family="Arial" font-size="14.00" fill="#000000">name </text>
<text text-anchor="start" x="139.399" y="-543.9" font-family="Arial" font-size="14.00" fill="#666666">[varchar(255)]</text>
<polygon fill="none" stroke="#000000" points="93.5,-502.5 93.5,-532.5 307.5,-532.5 307.5,-502.5 93.5,-502.5"/>
<text text-anchor="start" x="100.5" y="-513.9" font-family="Arial" font-size="14.00" fill="#000000">is_active </text>
<text text-anchor="start" x="158.8422" y="-513.9" font-family="Arial" font-size="14.00" fill="#666666">[tinyint(1)]</text>
<polygon fill="none" stroke="#000000" points="93.5,-472.5 93.5,-502.5 307.5,-502.5 307.5,-472.5 93.5,-472.5"/>
<text text-anchor="start" x="100.5" y="-483.9" font-family="Arial" font-size="14.00" fill="#000000">region_id </text>
<text text-anchor="start" x="161.96" y="-483.9" font-family="Arial" font-size="14.00" fill="#666666">[char(36)]</text>
<polygon fill="none" stroke="#000000" points="93.5,-442.5 93.5,-472.5 307.5,-472.5 307.5,-442.5 93.5,-442.5"/>
<text text-anchor="start" x="100.5" y="-453.9" font-family="Arial" font-size="14.00" fill="#000000">created_at </text>
<text text-anchor="start" x="170.528" y="-453.9" font-family="Arial" font-size="14.00" fill="#666666">[timestamp]</text>
<polygon fill="none" stroke="#000000" points="93.5,-412.5 93.5,-442.5 307.5,-442.5 307.5,-412.5 93.5,-412.5"/>
<text text-anchor="start" x="100.5" y="-423.9" font-family="Arial" font-size="14.00" fill="#000000">updated_at </text>
<text text-anchor="start" x="174.4326" y="-423.9" font-family="Arial" font-size="14.00" fill="#666666">[timestamp]</text>
<polygon fill="none" stroke="#000000" points="93.5,-382.5 93.5,-412.5 307.5,-412.5 307.5,-382.5 93.5,-382.5"/>
<text text-anchor="start" x="100.5" y="-393.9" font-family="Arial" font-size="14.00" fill="#000000">deleted_at </text>
<text text-anchor="start" x="169.7566" y="-393.9" font-family="Arial" font-size="14.00" fill="#666666">[timestamp]</text>
<polygon fill="none" stroke="#000000" stroke-width="3" points="92,-381.5 92,-629.5 309,-629.5 309,-381.5 92,-381.5"/>
</g>
<!-- regions -->
<g id="node3" class="node">
<title>regions</title>
<polygon fill="#efefef" stroke="transparent" points="100.5,-222.5 100.5,-257.5 300.5,-257.5 300.5,-222.5 100.5,-222.5"/>
<polygon fill="none" stroke="#000000" points="100.5,-222.5 100.5,-257.5 300.5,-257.5 300.5,-222.5 100.5,-222.5"/>
<text text-anchor="start" x="107.2104" y="-235.3" font-family="Arial Bold" font-size="18.00" fill="#000000">regions</text>
<text text-anchor="start" x="166.2216" y="-235.3" font-family="Arial" font-size="14.00" fill="#000000">    </text>
<text text-anchor="start" x="200.4264" y="-235.3" font-family="Arial" font-size="14.00" fill="#666666">[BASE TABLE]</text>
<polygon fill="none" stroke="#000000" points="100.5,-192.5 100.5,-222.5 300.5,-222.5 300.5,-192.5 100.5,-192.5"/>
<text text-anchor="start" x="107.5" y="-203.9" font-family="Arial" font-size="14.00" fill="#000000">id    </text>
<text text-anchor="start" x="152.594" y="-203.9" font-family="Arial" font-size="14.00" fill="#666666">[char(36)]</text>
<polygon fill="none" stroke="#000000" points="100.5,-162.5 100.5,-192.5 300.5,-192.5 300.5,-162.5 100.5,-162.5"/>
<text text-anchor="start" x="107.5" y="-173.9" font-family="Arial" font-size="14.00" fill="#000000">name    </text>
<text text-anchor="start" x="176.7132" y="-173.9" font-family="Arial" font-size="14.00" fill="#666666">[varchar(255)]</text>
<polygon fill="none" stroke="#000000" points="100.5,-132.5 100.5,-162.5 300.5,-162.5 300.5,-132.5 100.5,-132.5"/>
<text text-anchor="start" x="107.5" y="-143.9" font-family="Arial" font-size="14.00" fill="#000000">is_active    </text>
<text text-anchor="start" x="196.1564" y="-143.9" font-family="Arial" font-size="14.00" fill="#666666">[tinyint(1)]</text>
<polygon fill="none" stroke="#000000" points="100.5,-102.5 100.5,-132.5 300.5,-132.5 300.5,-102.5 100.5,-102.5"/>
<text text-anchor="start" x="107.5" y="-113.9" font-family="Arial" font-size="14.00" fill="#000000">created_at    </text>
<text text-anchor="start" x="207.8422" y="-113.9" font-family="Arial" font-size="14.00" fill="#666666">[timestamp]</text>
<polygon fill="none" stroke="#000000" points="100.5,-72.5 100.5,-102.5 300.5,-102.5 300.5,-72.5 100.5,-72.5"/>
<text text-anchor="start" x="107.5" y="-83.9" font-family="Arial" font-size="14.00" fill="#000000">updated_at    </text>
<text text-anchor="start" x="211.7468" y="-83.9" font-family="Arial" font-size="14.00" fill="#666666">[timestamp]</text>
<polygon fill="none" stroke="#000000" points="100.5,-42.5 100.5,-72.5 300.5,-72.5 300.5,-42.5 100.5,-42.5"/>
<text text-anchor="start" x="107.5" y="-53.9" font-family="Arial" font-size="14.00" fill="#000000">deleted_at    </text>
<text text-anchor="start" x="207.0708" y="-53.9" font-family="Arial" font-size="14.00" fill="#666666">[timestamp]</text>
</g>
<!-- countries&#45;&gt;regions -->
<g id="edge2" class="edge">
<title>countries:region_id&#45;&gt;regions:id</title>
<path fill="none" stroke="#000000" d="M317.7602,-486.839C431.4926,-471.8652 421.4579,-207.5 300.5,-207.5"/>
<polygon fill="#000000" stroke="#000000" points="317.4793,-486.857 307.2107,-483.0093 312.4897,-487.1785 307.5,-487.5 307.5,-487.5 307.5,-487.5 312.4897,-487.1785 307.7893,-491.9907 317.4793,-486.857 317.4793,-486.857"/>
<text text-anchor="start" x="314.108" y="-497.5" font-family="Arial" font-size="10.00" fill="#000000">FOREIGN KEY (region_id) REFERENCES regions (id)</text>
</g>
<!-- benefit_country_price -->
<g id="node2" class="node">
<title>benefit_country_price</title>
<polygon fill="#efefef" stroke="transparent" points="43.5,-932.5 43.5,-967.5 356.5,-967.5 356.5,-932.5 43.5,-932.5"/>
<polygon fill="none" stroke="#000000" points="43.5,-932.5 43.5,-967.5 356.5,-967.5 356.5,-932.5 43.5,-932.5"/>
<text text-anchor="start" x="50.1922" y="-945.3" font-family="Arial Bold" font-size="18.00" fill="#000000">benefit_country_price</text>
<text text-anchor="start" x="222.2398" y="-945.3" font-family="Arial" font-size="14.00" fill="#000000">    </text>
<text text-anchor="start" x="256.4446" y="-945.3" font-family="Arial" font-size="14.00" fill="#666666">[BASE TABLE]</text>
<polygon fill="none" stroke="#000000" points="43.5,-902.5 43.5,-932.5 356.5,-932.5 356.5,-902.5 43.5,-902.5"/>
<text text-anchor="start" x="50.5" y="-913.9" font-family="Arial" font-size="14.00" fill="#000000">id    </text>
<text text-anchor="start" x="95.594" y="-913.9" font-family="Arial" font-size="14.00" fill="#666666">[char(36)]</text>
<polygon fill="none" stroke="#000000" points="43.5,-872.5 43.5,-902.5 356.5,-902.5 356.5,-872.5 43.5,-872.5"/>
<text text-anchor="start" x="50.5" y="-883.9" font-family="Arial" font-size="14.00" fill="#000000">benefit_price_id    </text>
<text text-anchor="start" x="183.5098" y="-883.9" font-family="Arial" font-size="14.00" fill="#666666">[char(36)]</text>
<polygon fill="none" stroke="#000000" points="43.5,-842.5 43.5,-872.5 356.5,-872.5 356.5,-842.5 43.5,-842.5"/>
<text text-anchor="start" x="50.5" y="-853.9" font-family="Arial" font-size="14.00" fill="#000000">country_id    </text>
<text text-anchor="start" x="149.2756" y="-853.9" font-family="Arial" font-size="14.00" fill="#666666">[char(36)]</text>
<polygon fill="none" stroke="#000000" points="43.5,-812.5 43.5,-842.5 356.5,-842.5 356.5,-812.5 43.5,-812.5"/>
<text text-anchor="start" x="50.5" y="-823.9" font-family="Arial" font-size="14.00" fill="#000000">created_at    </text>
<text text-anchor="start" x="150.8422" y="-823.9" font-family="Arial" font-size="14.00" fill="#666666">[timestamp]</text>
<polygon fill="none" stroke="#000000" points="43.5,-782.5 43.5,-812.5 356.5,-812.5 356.5,-782.5 43.5,-782.5"/>
<text text-anchor="start" x="50.5" y="-793.9" font-family="Arial" font-size="14.00" fill="#000000">updated_at    </text>
<text text-anchor="start" x="154.7468" y="-793.9" font-family="Arial" font-size="14.00" fill="#666666">[timestamp]</text>
<polygon fill="none" stroke="#000000" points="43.5,-752.5 43.5,-782.5 356.5,-782.5 356.5,-752.5 43.5,-752.5"/>
<text text-anchor="start" x="50.5" y="-763.9" font-family="Arial" font-size="14.00" fill="#000000">deleted_at    </text>
<text text-anchor="start" x="150.0708" y="-763.9" font-family="Arial" font-size="14.00" fill="#666666">[timestamp]</text>
</g>
<!-- benefit_country_price&#45;&gt;countries -->
<g id="edge1" class="edge">
<title>benefit_country_price:country_id&#45;&gt;countries:id</title>
<path fill="none" stroke="#000000" d="M366.4766,-856.6438C419.5374,-846.9158 397.2402,-756.6967 356.5,-710 278.9392,-621.0993 171.0608,-762.9007 93.5,-674 65.3043,-641.6819 50.6111,-577.5 93.5,-577.5"/>
<polygon fill="#000000" stroke="#000000" points="366.4634,-856.6449 356.1152,-853.0165 361.4817,-857.0724 356.5,-857.5 356.5,-857.5 356.5,-857.5 361.4817,-857.0724 356.8848,-861.9835 366.4634,-856.6449 366.4634,-856.6449"/>
<text text-anchor="start" x="363.718" y="-867.5" font-family="Arial" font-size="10.00" fill="#000000">FOREIGN KEY (country_id) REFERENCES countries (id)</text>
</g>
</g>
</svg>
