<?xml version="1.0" encoding="UTF-8" standalone="no"?>
<!DOCTYPE svg PUBLIC "-//W3C//DTD SVG 1.1//EN"
 "http://www.w3.org/Graphics/SVG/1.1/DTD/svg11.dtd">
<!-- Generated by graphviz version 2.40.1 (20161225.0304)
 -->
<!-- Title: insurers Pages: 1 -->
<svg width="581pt" height="1012pt"
 viewBox="0.00 0.00 581.00 1012.00" xmlns="http://www.w3.org/2000/svg" xmlns:xlink="http://www.w3.org/1999/xlink">
<g id="graph0" class="graph" transform="scale(1 1) rotate(0) translate(4 1008)">
<title>insurers</title>
<polygon fill="#ffffff" stroke="transparent" points="-4,4 -4,-1008 577,-1008 577,4 -4,4"/>
<!-- insurers -->
<g id="node1" class="node">
<title>insurers</title>
<polygon fill="#efefef" stroke="transparent" points="293,-225.5 293,-260.5 498,-260.5 498,-225.5 293,-225.5"/>
<polygon fill="none" stroke="#000000" points="293,-225.5 293,-260.5 498,-260.5 498,-225.5 293,-225.5"/>
<text text-anchor="start" x="299.7174" y="-238.3" font-family="Arial Bold" font-size="18.00" fill="#000000">insurers</text>
<text text-anchor="start" x="363.7146" y="-238.3" font-family="Arial" font-size="14.00" fill="#000000">    </text>
<text text-anchor="start" x="397.9194" y="-238.3" font-family="Arial" font-size="14.00" fill="#666666">[BASE TABLE]</text>
<polygon fill="none" stroke="#000000" points="293,-195.5 293,-225.5 498,-225.5 498,-195.5 293,-195.5"/>
<text text-anchor="start" x="300" y="-206.9" font-family="Arial" font-size="14.00" fill="#000000">id </text>
<text text-anchor="start" x="314.7798" y="-206.9" font-family="Arial" font-size="14.00" fill="#666666">[char(36)]</text>
<polygon fill="none" stroke="#000000" points="293,-165.5 293,-195.5 498,-195.5 498,-165.5 293,-165.5"/>
<text text-anchor="start" x="300" y="-176.9" font-family="Arial" font-size="14.00" fill="#000000">name </text>
<text text-anchor="start" x="338.899" y="-176.9" font-family="Arial" font-size="14.00" fill="#666666">[varchar(255)]</text>
<polygon fill="none" stroke="#000000" points="293,-135.5 293,-165.5 498,-165.5 498,-135.5 293,-135.5"/>
<text text-anchor="start" x="300" y="-146.9" font-family="Arial" font-size="14.00" fill="#000000">is_active </text>
<text text-anchor="start" x="358.3422" y="-146.9" font-family="Arial" font-size="14.00" fill="#666666">[tinyint(1)]</text>
<polygon fill="none" stroke="#000000" points="293,-105.5 293,-135.5 498,-135.5 498,-105.5 293,-105.5"/>
<text text-anchor="start" x="300" y="-116.9" font-family="Arial" font-size="14.00" fill="#000000">created_at </text>
<text text-anchor="start" x="370.028" y="-116.9" font-family="Arial" font-size="14.00" fill="#666666">[timestamp]</text>
<polygon fill="none" stroke="#000000" points="293,-75.5 293,-105.5 498,-105.5 498,-75.5 293,-75.5"/>
<text text-anchor="start" x="300" y="-86.9" font-family="Arial" font-size="14.00" fill="#000000">updated_at </text>
<text text-anchor="start" x="373.9326" y="-86.9" font-family="Arial" font-size="14.00" fill="#666666">[timestamp]</text>
<polygon fill="none" stroke="#000000" points="293,-45.5 293,-75.5 498,-75.5 498,-45.5 293,-45.5"/>
<text text-anchor="start" x="300" y="-56.9" font-family="Arial" font-size="14.00" fill="#000000">deleted_at </text>
<text text-anchor="start" x="369.2566" y="-56.9" font-family="Arial" font-size="14.00" fill="#666666">[timestamp]</text>
<polygon fill="none" stroke="#000000" stroke-width="3" points="291,-44.5 291,-262.5 499,-262.5 499,-44.5 291,-44.5"/>
</g>
<!-- benefits -->
<g id="node2" class="node">
<title>benefits</title>
<polygon fill="#efefef" stroke="transparent" points="262,-925.5 262,-960.5 530,-960.5 530,-925.5 262,-925.5"/>
<polygon fill="none" stroke="#000000" points="262,-925.5 262,-960.5 530,-960.5 530,-925.5 262,-925.5"/>
<text text-anchor="start" x="300.7043" y="-938.3" font-family="Arial Bold" font-size="18.00" fill="#000000">benefits</text>
<text text-anchor="start" x="363.7277" y="-938.3" font-family="Arial" font-size="14.00" fill="#000000">    </text>
<text text-anchor="start" x="397.9325" y="-938.3" font-family="Arial" font-size="14.00" fill="#666666">[BASE TABLE]</text>
<polygon fill="none" stroke="#000000" points="262,-895.5 262,-925.5 530,-925.5 530,-895.5 262,-895.5"/>
<text text-anchor="start" x="269" y="-906.9" font-family="Arial" font-size="14.00" fill="#000000">id    </text>
<text text-anchor="start" x="314.094" y="-906.9" font-family="Arial" font-size="14.00" fill="#666666">[char(36)]</text>
<polygon fill="none" stroke="#000000" points="262,-865.5 262,-895.5 530,-895.5 530,-865.5 262,-865.5"/>
<text text-anchor="start" x="269" y="-876.9" font-family="Arial" font-size="14.00" fill="#000000">code    </text>
<text text-anchor="start" x="333.5526" y="-876.9" font-family="Arial" font-size="14.00" fill="#666666">[varchar(20)]</text>
<polygon fill="none" stroke="#000000" points="262,-835.5 262,-865.5 530,-865.5 530,-835.5 262,-835.5"/>
<text text-anchor="start" x="269" y="-846.9" font-family="Arial" font-size="14.00" fill="#000000">name    </text>
<text text-anchor="start" x="338.2132" y="-846.9" font-family="Arial" font-size="14.00" fill="#666666">[json]</text>
<polygon fill="none" stroke="#000000" points="262,-805.5 262,-835.5 530,-835.5 530,-805.5 262,-805.5"/>
<text text-anchor="start" x="269" y="-816.9" font-family="Arial" font-size="14.00" fill="#000000">coverage    </text>
<text text-anchor="start" x="360.7784" y="-816.9" font-family="Arial" font-size="14.00" fill="#666666">[double(8,2) unsigned]</text>
<polygon fill="none" stroke="#000000" points="262,-775.5 262,-805.5 530,-805.5 530,-775.5 262,-775.5"/>
<text text-anchor="start" x="268.8086" y="-786.9" font-family="Arial" font-size="14.00" fill="#000000">max_amount    </text>
<text text-anchor="start" x="383.9208" y="-786.9" font-family="Arial" font-size="14.00" fill="#666666">[double(8,2) unsigned]</text>
<polygon fill="none" stroke="#000000" points="262,-745.5 262,-775.5 530,-775.5 530,-745.5 262,-745.5"/>
<text text-anchor="start" x="269" y="-756.9" font-family="Arial" font-size="14.00" fill="#000000">effective_date    </text>
<text text-anchor="start" x="390.352" y="-756.9" font-family="Arial" font-size="14.00" fill="#666666">[date]</text>
<polygon fill="none" stroke="#000000" points="262,-715.5 262,-745.5 530,-745.5 530,-715.5 262,-715.5"/>
<text text-anchor="start" x="269" y="-726.9" font-family="Arial" font-size="14.00" fill="#000000">end_date    </text>
<text text-anchor="start" x="361.5736" y="-726.9" font-family="Arial" font-size="14.00" fill="#666666">[date]</text>
<polygon fill="none" stroke="#000000" points="262,-685.5 262,-715.5 530,-715.5 530,-685.5 262,-685.5"/>
<text text-anchor="start" x="269" y="-696.9" font-family="Arial" font-size="14.00" fill="#000000">status    </text>
<text text-anchor="start" x="340.5512" y="-696.9" font-family="Arial" font-size="14.00" fill="#666666">[varchar(30)]</text>
<polygon fill="none" stroke="#000000" points="262,-655.5 262,-685.5 530,-685.5 530,-655.5 262,-655.5"/>
<text text-anchor="start" x="269" y="-666.9" font-family="Arial" font-size="14.00" fill="#000000">is_individual    </text>
<text text-anchor="start" x="379.4334" y="-666.9" font-family="Arial" font-size="14.00" fill="#666666">[tinyint(1)]</text>
<polygon fill="none" stroke="#000000" points="262,-625.5 262,-655.5 530,-655.5 530,-625.5 262,-625.5"/>
<text text-anchor="start" x="269" y="-636.9" font-family="Arial" font-size="14.00" fill="#000000">is_locked    </text>
<text text-anchor="start" x="361.5484" y="-636.9" font-family="Arial" font-size="14.00" fill="#666666">[tinyint(1)]</text>
<polygon fill="none" stroke="#000000" points="262,-595.5 262,-625.5 530,-625.5 530,-595.5 262,-595.5"/>
<text text-anchor="start" x="269" y="-606.9" font-family="Arial" font-size="14.00" fill="#000000">is_reportable_to_vendors    </text>
<text text-anchor="start" x="461.1374" y="-606.9" font-family="Arial" font-size="14.00" fill="#666666">[tinyint(1)]</text>
<polygon fill="none" stroke="#000000" points="262,-565.5 262,-595.5 530,-595.5 530,-565.5 262,-565.5"/>
<text text-anchor="start" x="269" y="-576.9" font-family="Arial" font-size="14.00" fill="#000000">min_time_req    </text>
<text text-anchor="start" x="387.986" y="-576.9" font-family="Arial" font-size="14.00" fill="#666666">[json]</text>
<polygon fill="none" stroke="#000000" points="262,-535.5 262,-565.5 530,-565.5 530,-535.5 262,-535.5"/>
<text text-anchor="start" x="269" y="-546.9" font-family="Arial" font-size="14.00" fill="#000000">rules    </text>
<text text-anchor="start" x="333.5372" y="-546.9" font-family="Arial" font-size="14.00" fill="#666666">[json]</text>
<polygon fill="none" stroke="#000000" points="262,-505.5 262,-535.5 530,-535.5 530,-505.5 262,-505.5"/>
<text text-anchor="start" x="269" y="-516.9" font-family="Arial" font-size="14.00" fill="#000000">benefit_category_id    </text>
<text text-anchor="start" x="425.359" y="-516.9" font-family="Arial" font-size="14.00" fill="#666666">[char(36)]</text>
<polygon fill="none" stroke="#000000" points="262,-475.5 262,-505.5 530,-505.5 530,-475.5 262,-475.5"/>
<text text-anchor="start" x="269" y="-486.9" font-family="Arial" font-size="14.00" fill="#000000">insurer_id    </text>
<text text-anchor="start" x="364.6522" y="-486.9" font-family="Arial" font-size="14.00" fill="#666666">[char(36)]</text>
<polygon fill="none" stroke="#000000" points="262,-445.5 262,-475.5 530,-475.5 530,-445.5 262,-445.5"/>
<text text-anchor="start" x="269" y="-456.9" font-family="Arial" font-size="14.00" fill="#000000">created_at    </text>
<text text-anchor="start" x="369.3422" y="-456.9" font-family="Arial" font-size="14.00" fill="#666666">[timestamp]</text>
<polygon fill="none" stroke="#000000" points="262,-415.5 262,-445.5 530,-445.5 530,-415.5 262,-415.5"/>
<text text-anchor="start" x="269" y="-426.9" font-family="Arial" font-size="14.00" fill="#000000">updated_at    </text>
<text text-anchor="start" x="373.2468" y="-426.9" font-family="Arial" font-size="14.00" fill="#666666">[timestamp]</text>
<polygon fill="none" stroke="#000000" points="262,-385.5 262,-415.5 530,-415.5 530,-385.5 262,-385.5"/>
<text text-anchor="start" x="269" y="-396.9" font-family="Arial" font-size="14.00" fill="#000000">deleted_at    </text>
<text text-anchor="start" x="368.5708" y="-396.9" font-family="Arial" font-size="14.00" fill="#666666">[timestamp]</text>
</g>
<!-- benefits&#45;&gt;insurers -->
<g id="edge1" class="edge">
<title>benefits:insurer_id&#45;&gt;insurers:id</title>
<path fill="none" stroke="#000000" d="M252.0267,-489.6466C199.0019,-479.9498 221.6192,-390.0077 262,-343 331.1377,-262.5161 428.8623,-387.4839 498,-307 525.947,-274.4666 540.8889,-210.5 498,-210.5"/>
<polygon fill="#000000" stroke="#000000" points="252.0364,-489.6474 261.6163,-494.9836 257.0182,-490.0737 262,-490.5 262,-490.5 262,-490.5 257.0182,-490.0737 262.3837,-486.0164 252.0364,-489.6474 252.0364,-489.6474"/>
<text text-anchor="start" x="6.838" y="-500.5" font-family="Arial" font-size="10.00" fill="#000000">FOREIGN KEY (insurer_id) REFERENCES insurers (id)</text>
</g>
</g>
</svg>
