<?xml version="1.0" encoding="UTF-8" standalone="no"?>
<!DOCTYPE svg PUBLIC "-//W3C//DTD SVG 1.1//EN"
 "http://www.w3.org/Graphics/SVG/1.1/DTD/svg11.dtd">
<!-- Generated by graphviz version 2.40.1 (20161225.0304)
 -->
<!-- Title: model_has_permissions Pages: 1 -->
<svg width="686pt" height="532pt"
 viewBox="0.00 0.00 685.50 532.00" xmlns="http://www.w3.org/2000/svg" xmlns:xlink="http://www.w3.org/1999/xlink">
<g id="graph0" class="graph" transform="scale(1 1) rotate(0) translate(4 528)">
<title>model_has_permissions</title>
<polygon fill="#ffffff" stroke="transparent" points="-4,4 -4,-528 681.5,-528 681.5,4 -4,4"/>
<!-- model_has_permissions -->
<g id="node1" class="node">
<title>model_has_permissions</title>
<polygon fill="#efefef" stroke="transparent" points="297,-442.5 297,-477.5 632,-477.5 632,-442.5 297,-442.5"/>
<polygon fill="none" stroke="#000000" points="297,-442.5 297,-477.5 632,-477.5 632,-442.5 297,-442.5"/>
<text text-anchor="start" x="303.7023" y="-455.3" font-family="Arial Bold" font-size="18.00" fill="#000000">model_has_permissions</text>
<text text-anchor="start" x="497.7297" y="-455.3" font-family="Arial" font-size="14.00" fill="#000000">    </text>
<text text-anchor="start" x="531.9345" y="-455.3" font-family="Arial" font-size="14.00" fill="#666666">[BASE TABLE]</text>
<polygon fill="none" stroke="#000000" points="297,-412.5 297,-442.5 632,-442.5 632,-412.5 297,-412.5"/>
<text text-anchor="start" x="304" y="-423.9" font-family="Arial" font-size="14.00" fill="#000000">permission_id </text>
<text text-anchor="start" x="394.2272" y="-423.9" font-family="Arial" font-size="14.00" fill="#666666">[bigint unsigned]</text>
<polygon fill="none" stroke="#000000" points="297,-382.5 297,-412.5 632,-412.5 632,-382.5 297,-382.5"/>
<text text-anchor="start" x="304" y="-393.9" font-family="Arial" font-size="14.00" fill="#000000">model_type </text>
<text text-anchor="start" x="380.244" y="-393.9" font-family="Arial" font-size="14.00" fill="#666666">[varchar(255)]</text>
<polygon fill="none" stroke="#000000" points="297,-352.5 297,-382.5 632,-382.5 632,-352.5 297,-352.5"/>
<text text-anchor="start" x="304" y="-363.9" font-family="Arial" font-size="14.00" fill="#000000">model_id </text>
<text text-anchor="start" x="364.6774" y="-363.9" font-family="Arial" font-size="14.00" fill="#666666">[char(36)]</text>
<polygon fill="none" stroke="#000000" stroke-width="3" points="295,-351.5 295,-479.5 633,-479.5 633,-351.5 295,-351.5"/>
</g>
<!-- permissions -->
<g id="node2" class="node">
<title>permissions</title>
<polygon fill="#efefef" stroke="transparent" points="346,-192.5 346,-227.5 583,-227.5 583,-192.5 346,-192.5"/>
<polygon fill="none" stroke="#000000" points="346,-192.5 346,-227.5 583,-227.5 583,-192.5 346,-192.5"/>
<text text-anchor="start" x="352.7172" y="-205.3" font-family="Arial Bold" font-size="18.00" fill="#000000">permissions</text>
<text text-anchor="start" x="448.7148" y="-205.3" font-family="Arial" font-size="14.00" fill="#000000">    </text>
<text text-anchor="start" x="482.9196" y="-205.3" font-family="Arial" font-size="14.00" fill="#666666">[BASE TABLE]</text>
<polygon fill="none" stroke="#000000" points="346,-162.5 346,-192.5 583,-192.5 583,-162.5 346,-162.5"/>
<text text-anchor="start" x="353" y="-173.9" font-family="Arial" font-size="14.00" fill="#000000">id    </text>
<text text-anchor="start" x="398.094" y="-173.9" font-family="Arial" font-size="14.00" fill="#666666">[bigint unsigned]</text>
<polygon fill="none" stroke="#000000" points="346,-132.5 346,-162.5 583,-162.5 583,-132.5 346,-132.5"/>
<text text-anchor="start" x="353" y="-143.9" font-family="Arial" font-size="14.00" fill="#000000">name    </text>
<text text-anchor="start" x="422.2132" y="-143.9" font-family="Arial" font-size="14.00" fill="#666666">[varchar(255)]</text>
<polygon fill="none" stroke="#000000" points="346,-102.5 346,-132.5 583,-132.5 583,-102.5 346,-102.5"/>
<text text-anchor="start" x="353" y="-113.9" font-family="Arial" font-size="14.00" fill="#000000">guard_name    </text>
<text text-anchor="start" x="465.7868" y="-113.9" font-family="Arial" font-size="14.00" fill="#666666">[varchar(255)]</text>
<polygon fill="none" stroke="#000000" points="346,-72.5 346,-102.5 583,-102.5 583,-72.5 346,-72.5"/>
<text text-anchor="start" x="353" y="-83.9" font-family="Arial" font-size="14.00" fill="#000000">created_at    </text>
<text text-anchor="start" x="453.3422" y="-83.9" font-family="Arial" font-size="14.00" fill="#666666">[timestamp]</text>
<polygon fill="none" stroke="#000000" points="346,-42.5 346,-72.5 583,-72.5 583,-42.5 346,-42.5"/>
<text text-anchor="start" x="353" y="-53.9" font-family="Arial" font-size="14.00" fill="#000000">updated_at    </text>
<text text-anchor="start" x="457.2468" y="-53.9" font-family="Arial" font-size="14.00" fill="#666666">[timestamp]</text>
</g>
<!-- model_has_permissions&#45;&gt;permissions -->
<g id="edge1" class="edge">
<title>model_has_permissions:permission_id&#45;&gt;permissions:id</title>
<path fill="none" stroke="#000000" d="M286.8574,-426.7828C186.9,-412.1191 236.3131,-177.5 346,-177.5"/>
<polygon fill="#000000" stroke="#000000" points="287.0249,-426.7946 296.6826,-431.9888 292.0125,-427.1473 297,-427.5 297,-427.5 297,-427.5 292.0125,-427.1473 297.3174,-423.0112 287.0249,-426.7946 287.0249,-426.7946"/>
<text text-anchor="start" x="7.06" y="-437.5" font-family="Arial" font-size="10.00" fill="#000000">FOREIGN KEY (permission_id) REFERENCES permissions (id)</text>
</g>
</g>
</svg>
