<?xml version="1.0" encoding="UTF-8" standalone="no"?>
<!DOCTYPE svg PUBLIC "-//W3C//DTD SVG 1.1//EN"
 "http://www.w3.org/Graphics/SVG/1.1/DTD/svg11.dtd">
<!-- Generated by graphviz version 2.40.1 (20161225.0304)
 -->
<!-- Title: model_has_roles Pages: 1 -->
<svg width="566pt" height="532pt"
 viewBox="0.00 0.00 566.00 532.00" xmlns="http://www.w3.org/2000/svg" xmlns:xlink="http://www.w3.org/1999/xlink">
<g id="graph0" class="graph" transform="scale(1 1) rotate(0) translate(4 528)">
<title>model_has_roles</title>
<polygon fill="#ffffff" stroke="transparent" points="-4,4 -4,-528 562,-528 562,4 -4,4"/>
<!-- model_has_roles -->
<g id="node1" class="node">
<title>model_has_roles</title>
<polygon fill="#efefef" stroke="transparent" points="234,-442.5 234,-477.5 512,-477.5 512,-442.5 234,-442.5"/>
<polygon fill="none" stroke="#000000" points="234,-442.5 234,-477.5 512,-477.5 512,-442.5 234,-442.5"/>
<text text-anchor="start" x="240.7017" y="-455.3" font-family="Arial Bold" font-size="18.00" fill="#000000">model_has_roles</text>
<text text-anchor="start" x="377.7303" y="-455.3" font-family="Arial" font-size="14.00" fill="#000000">    </text>
<text text-anchor="start" x="411.9351" y="-455.3" font-family="Arial" font-size="14.00" fill="#666666">[BASE TABLE]</text>
<polygon fill="none" stroke="#000000" points="234,-412.5 234,-442.5 512,-442.5 512,-412.5 234,-412.5"/>
<text text-anchor="start" x="241" y="-423.9" font-family="Arial" font-size="14.00" fill="#000000">role_id </text>
<text text-anchor="start" x="286.8948" y="-423.9" font-family="Arial" font-size="14.00" fill="#666666">[bigint unsigned]</text>
<polygon fill="none" stroke="#000000" points="234,-382.5 234,-412.5 512,-412.5 512,-382.5 234,-382.5"/>
<text text-anchor="start" x="241" y="-393.9" font-family="Arial" font-size="14.00" fill="#000000">model_type </text>
<text text-anchor="start" x="317.244" y="-393.9" font-family="Arial" font-size="14.00" fill="#666666">[varchar(255)]</text>
<polygon fill="none" stroke="#000000" points="234,-352.5 234,-382.5 512,-382.5 512,-352.5 234,-352.5"/>
<text text-anchor="start" x="241" y="-363.9" font-family="Arial" font-size="14.00" fill="#000000">model_id </text>
<text text-anchor="start" x="301.6774" y="-363.9" font-family="Arial" font-size="14.00" fill="#666666">[char(36)]</text>
<polygon fill="none" stroke="#000000" stroke-width="3" points="232.5,-351.5 232.5,-479.5 513.5,-479.5 513.5,-351.5 232.5,-351.5"/>
</g>
<!-- roles -->
<g id="node2" class="node">
<title>roles</title>
<polygon fill="#efefef" stroke="transparent" points="266,-192.5 266,-227.5 479,-227.5 479,-192.5 266,-192.5"/>
<polygon fill="none" stroke="#000000" points="266,-192.5 266,-227.5 479,-227.5 479,-192.5 266,-192.5"/>
<text text-anchor="start" x="289.2166" y="-205.3" font-family="Arial Bold" font-size="18.00" fill="#000000">roles</text>
<text text-anchor="start" x="328.2154" y="-205.3" font-family="Arial" font-size="14.00" fill="#000000">    </text>
<text text-anchor="start" x="362.4202" y="-205.3" font-family="Arial" font-size="14.00" fill="#666666">[BASE TABLE]</text>
<polygon fill="none" stroke="#000000" points="266,-162.5 266,-192.5 479,-192.5 479,-162.5 266,-162.5"/>
<text text-anchor="start" x="273" y="-173.9" font-family="Arial" font-size="14.00" fill="#000000">id    </text>
<text text-anchor="start" x="318.094" y="-173.9" font-family="Arial" font-size="14.00" fill="#666666">[bigint unsigned]</text>
<polygon fill="none" stroke="#000000" points="266,-132.5 266,-162.5 479,-162.5 479,-132.5 266,-132.5"/>
<text text-anchor="start" x="273" y="-143.9" font-family="Arial" font-size="14.00" fill="#000000">name    </text>
<text text-anchor="start" x="342.2132" y="-143.9" font-family="Arial" font-size="14.00" fill="#666666">[varchar(255)]</text>
<polygon fill="none" stroke="#000000" points="266,-102.5 266,-132.5 479,-132.5 479,-102.5 266,-102.5"/>
<text text-anchor="start" x="272.547" y="-113.9" font-family="Arial" font-size="14.00" fill="#000000">guard_name    </text>
<text text-anchor="start" x="385.3338" y="-113.9" font-family="Arial" font-size="14.00" fill="#666666">[varchar(255)]</text>
<polygon fill="none" stroke="#000000" points="266,-72.5 266,-102.5 479,-102.5 479,-72.5 266,-72.5"/>
<text text-anchor="start" x="273" y="-83.9" font-family="Arial" font-size="14.00" fill="#000000">created_at    </text>
<text text-anchor="start" x="373.3422" y="-83.9" font-family="Arial" font-size="14.00" fill="#666666">[timestamp]</text>
<polygon fill="none" stroke="#000000" points="266,-42.5 266,-72.5 479,-72.5 479,-42.5 266,-42.5"/>
<text text-anchor="start" x="273" y="-53.9" font-family="Arial" font-size="14.00" fill="#000000">updated_at    </text>
<text text-anchor="start" x="377.2468" y="-53.9" font-family="Arial" font-size="14.00" fill="#666666">[timestamp]</text>
</g>
<!-- model_has_roles&#45;&gt;roles -->
<g id="edge1" class="edge">
<title>model_has_roles:role_id&#45;&gt;roles:id</title>
<path fill="none" stroke="#000000" d="M224.01,-426.417C183.0571,-416.7508 201.3844,-344.7583 234,-307 305.9439,-223.7122 407.0561,-354.2878 479,-271 506.1645,-239.5523 520.5556,-177.5 479,-177.5"/>
<polygon fill="#000000" stroke="#000000" points="224.0582,-426.4222 233.515,-431.9738 229.0291,-426.9611 234,-427.5 234,-427.5 234,-427.5 229.0291,-426.9611 234.485,-423.0262 224.0582,-426.4222 224.0582,-426.4222"/>
<text text-anchor="start" x="6.726" y="-437.5" font-family="Arial" font-size="10.00" fill="#000000">FOREIGN KEY (role_id) REFERENCES roles (id)</text>
</g>
</g>
</svg>
