<?xml version="1.0" encoding="UTF-8" standalone="no"?>
<!DOCTYPE svg PUBLIC "-//W3C//DTD SVG 1.1//EN"
 "http://www.w3.org/Graphics/SVG/1.1/DTD/svg11.dtd">
<!-- Generated by graphviz version 2.40.1 (20161225.0304)
 -->
<!-- Title: permissions Pages: 1 -->
<svg width="850pt" height="532pt"
 viewBox="0.00 0.00 849.50 532.00" xmlns="http://www.w3.org/2000/svg" xmlns:xlink="http://www.w3.org/1999/xlink">
<g id="graph0" class="graph" transform="scale(1 1) rotate(0) translate(4 528)">
<title>permissions</title>
<polygon fill="#ffffff" stroke="transparent" points="-4,4 -4,-528 845.5,-528 845.5,4 -4,4"/>
<!-- permissions -->
<g id="node1" class="node">
<title>permissions</title>
<polygon fill="#efefef" stroke="transparent" points="306.5,-195.5 306.5,-230.5 543.5,-230.5 543.5,-195.5 306.5,-195.5"/>
<polygon fill="none" stroke="#000000" points="306.5,-195.5 306.5,-230.5 543.5,-230.5 543.5,-195.5 306.5,-195.5"/>
<text text-anchor="start" x="313.2172" y="-208.3" font-family="Arial Bold" font-size="18.00" fill="#000000">permissions</text>
<text text-anchor="start" x="409.2148" y="-208.3" font-family="Arial" font-size="14.00" fill="#000000">    </text>
<text text-anchor="start" x="443.4196" y="-208.3" font-family="Arial" font-size="14.00" fill="#666666">[BASE TABLE]</text>
<polygon fill="none" stroke="#000000" points="306.5,-165.5 306.5,-195.5 543.5,-195.5 543.5,-165.5 306.5,-165.5"/>
<text text-anchor="start" x="313.5" y="-176.9" font-family="Arial" font-size="14.00" fill="#000000">id </text>
<text text-anchor="start" x="328.2798" y="-176.9" font-family="Arial" font-size="14.00" fill="#666666">[bigint unsigned]</text>
<polygon fill="none" stroke="#000000" points="306.5,-135.5 306.5,-165.5 543.5,-165.5 543.5,-135.5 306.5,-135.5"/>
<text text-anchor="start" x="313.5" y="-146.9" font-family="Arial" font-size="14.00" fill="#000000">name </text>
<text text-anchor="start" x="352.399" y="-146.9" font-family="Arial" font-size="14.00" fill="#666666">[varchar(255)]</text>
<polygon fill="none" stroke="#000000" points="306.5,-105.5 306.5,-135.5 543.5,-135.5 543.5,-105.5 306.5,-105.5"/>
<text text-anchor="start" x="313.5" y="-116.9" font-family="Arial" font-size="14.00" fill="#000000">guard_name </text>
<text text-anchor="start" x="395.9726" y="-116.9" font-family="Arial" font-size="14.00" fill="#666666">[varchar(255)]</text>
<polygon fill="none" stroke="#000000" points="306.5,-75.5 306.5,-105.5 543.5,-105.5 543.5,-75.5 306.5,-75.5"/>
<text text-anchor="start" x="313.5" y="-86.9" font-family="Arial" font-size="14.00" fill="#000000">created_at </text>
<text text-anchor="start" x="383.528" y="-86.9" font-family="Arial" font-size="14.00" fill="#666666">[timestamp]</text>
<polygon fill="none" stroke="#000000" points="306.5,-45.5 306.5,-75.5 543.5,-75.5 543.5,-45.5 306.5,-45.5"/>
<text text-anchor="start" x="313.5" y="-56.9" font-family="Arial" font-size="14.00" fill="#000000">updated_at </text>
<text text-anchor="start" x="387.4326" y="-56.9" font-family="Arial" font-size="14.00" fill="#666666">[timestamp]</text>
<polygon fill="none" stroke="#000000" stroke-width="3" points="304.5,-44.5 304.5,-232.5 544.5,-232.5 544.5,-44.5 304.5,-44.5"/>
</g>
<!-- model_has_permissions -->
<g id="node2" class="node">
<title>model_has_permissions</title>
<polygon fill="#efefef" stroke="transparent" points="43.5,-445.5 43.5,-480.5 378.5,-480.5 378.5,-445.5 43.5,-445.5"/>
<polygon fill="none" stroke="#000000" points="43.5,-445.5 43.5,-480.5 378.5,-480.5 378.5,-445.5 43.5,-445.5"/>
<text text-anchor="start" x="50.2023" y="-458.3" font-family="Arial Bold" font-size="18.00" fill="#000000">model_has_permissions</text>
<text text-anchor="start" x="244.2297" y="-458.3" font-family="Arial" font-size="14.00" fill="#000000">    </text>
<text text-anchor="start" x="278.4345" y="-458.3" font-family="Arial" font-size="14.00" fill="#666666">[BASE TABLE]</text>
<polygon fill="none" stroke="#000000" points="43.5,-415.5 43.5,-445.5 378.5,-445.5 378.5,-415.5 43.5,-415.5"/>
<text text-anchor="start" x="50.5" y="-426.9" font-family="Arial" font-size="14.00" fill="#000000">permission_id    </text>
<text text-anchor="start" x="171.0414" y="-426.9" font-family="Arial" font-size="14.00" fill="#666666">[bigint unsigned]</text>
<polygon fill="none" stroke="#000000" points="43.5,-385.5 43.5,-415.5 378.5,-415.5 378.5,-385.5 43.5,-385.5"/>
<text text-anchor="start" x="50.5" y="-396.9" font-family="Arial" font-size="14.00" fill="#000000">model_type    </text>
<text text-anchor="start" x="157.0582" y="-396.9" font-family="Arial" font-size="14.00" fill="#666666">[varchar(255)]</text>
<polygon fill="none" stroke="#000000" points="43.5,-355.5 43.5,-385.5 378.5,-385.5 378.5,-355.5 43.5,-355.5"/>
<text text-anchor="start" x="50.5" y="-366.9" font-family="Arial" font-size="14.00" fill="#000000">model_id    </text>
<text text-anchor="start" x="141.4916" y="-366.9" font-family="Arial" font-size="14.00" fill="#666666">[char(36)]</text>
</g>
<!-- model_has_permissions&#45;&gt;permissions -->
<g id="edge1" class="edge">
<title>model_has_permissions:permission_id&#45;&gt;permissions:id</title>
<path fill="none" stroke="#000000" d="M388.8857,-429.334C427.031,-419.8105 403.9172,-354.1259 378.5,-313 359.6909,-282.5662 325.3091,-307.4338 306.5,-277 283.952,-240.5165 263.6111,-180.5 306.5,-180.5"/>
<polygon fill="#000000" stroke="#000000" points="388.4376,-429.3842 377.9979,-426.0281 383.4688,-429.9421 378.5,-430.5 378.5,-430.5 378.5,-430.5 383.4688,-429.9421 379.0021,-434.9719 388.4376,-429.3842 388.4376,-429.3842"/>
<text text-anchor="start" x="385.56" y="-440.5" font-family="Arial" font-size="10.00" fill="#000000">FOREIGN KEY (permission_id) REFERENCES permissions (id)</text>
</g>
<!-- role_has_permissions -->
<g id="node3" class="node">
<title>role_has_permissions</title>
<polygon fill="#efefef" stroke="transparent" points="482.5,-430.5 482.5,-465.5 798.5,-465.5 798.5,-430.5 482.5,-430.5"/>
<polygon fill="none" stroke="#000000" points="482.5,-430.5 482.5,-465.5 798.5,-465.5 798.5,-430.5 482.5,-430.5"/>
<text text-anchor="start" x="489.2054" y="-443.3" font-family="Arial Bold" font-size="18.00" fill="#000000">role_has_permissions</text>
<text text-anchor="start" x="664.2266" y="-443.3" font-family="Arial" font-size="14.00" fill="#000000">    </text>
<text text-anchor="start" x="698.4314" y="-443.3" font-family="Arial" font-size="14.00" fill="#666666">[BASE TABLE]</text>
<polygon fill="none" stroke="#000000" points="482.5,-400.5 482.5,-430.5 798.5,-430.5 798.5,-400.5 482.5,-400.5"/>
<text text-anchor="start" x="489.5" y="-411.9" font-family="Arial" font-size="14.00" fill="#000000">permission_id    </text>
<text text-anchor="start" x="610.0414" y="-411.9" font-family="Arial" font-size="14.00" fill="#666666">[bigint unsigned]</text>
<polygon fill="none" stroke="#000000" points="482.5,-370.5 482.5,-400.5 798.5,-400.5 798.5,-370.5 482.5,-370.5"/>
<text text-anchor="start" x="489.5" y="-381.9" font-family="Arial" font-size="14.00" fill="#000000">role_id    </text>
<text text-anchor="start" x="565.709" y="-381.9" font-family="Arial" font-size="14.00" fill="#666666">[bigint unsigned]</text>
</g>
<!-- role_has_permissions&#45;&gt;permissions -->
<g id="edge2" class="edge">
<title>role_has_permissions:permission_id&#45;&gt;permissions:id</title>
<path fill="none" stroke="#000000" d="M472.4778,-413.9551C448.1042,-405.0585 467.7058,-359.6525 482.5,-328 497.4631,-295.986 528.5369,-309.014 543.5,-277 561.6603,-238.1456 586.3889,-180.5 543.5,-180.5"/>
<polygon fill="#000000" stroke="#000000" points="472.6167,-413.9765 481.8144,-419.9475 477.5584,-414.7382 482.5,-415.5 482.5,-415.5 482.5,-415.5 477.5584,-414.7382 483.1856,-411.0525 472.6167,-413.9765 472.6167,-413.9765"/>
<text text-anchor="start" x="489.56" y="-399.5" font-family="Arial" font-size="10.00" fill="#000000">FOREIGN KEY (permission_id) REFERENCES permissions (id)</text>
</g>
</g>
</svg>
