<?xml version="1.0" encoding="UTF-8" standalone="no"?>
<!DOCTYPE svg PUBLIC "-//W3C//DTD SVG 1.1//EN"
 "http://www.w3.org/Graphics/SVG/1.1/DTD/svg11.dtd">
<!-- Generated by graphviz version 2.40.1 (20161225.0304)
 -->
<!-- Title: regions Pages: 1 -->
<svg width="1328pt" height="892pt"
 viewBox="0.00 0.00 1328.00 892.00" xmlns="http://www.w3.org/2000/svg" xmlns:xlink="http://www.w3.org/1999/xlink">
<g id="graph0" class="graph" transform="scale(1 1) rotate(0) translate(4 888)">
<title>regions</title>
<polygon fill="#ffffff" stroke="transparent" points="-4,4 -4,-888 1324,-888 1324,4 -4,4"/>
<!-- regions -->
<g id="node1" class="node">
<title>regions</title>
<polygon fill="#efefef" stroke="transparent" points="735,-225.5 735,-260.5 935,-260.5 935,-225.5 735,-225.5"/>
<polygon fill="none" stroke="#000000" points="735,-225.5 735,-260.5 935,-260.5 935,-225.5 735,-225.5"/>
<text text-anchor="start" x="741.7104" y="-238.3" font-family="Arial Bold" font-size="18.00" fill="#000000">regions</text>
<text text-anchor="start" x="800.7216" y="-238.3" font-family="Arial" font-size="14.00" fill="#000000">    </text>
<text text-anchor="start" x="834.9264" y="-238.3" font-family="Arial" font-size="14.00" fill="#666666">[BASE TABLE]</text>
<polygon fill="none" stroke="#000000" points="735,-195.5 735,-225.5 935,-225.5 935,-195.5 735,-195.5"/>
<text text-anchor="start" x="742" y="-206.9" font-family="Arial" font-size="14.00" fill="#000000">id </text>
<text text-anchor="start" x="756.7798" y="-206.9" font-family="Arial" font-size="14.00" fill="#666666">[char(36)]</text>
<polygon fill="none" stroke="#000000" points="735,-165.5 735,-195.5 935,-195.5 935,-165.5 735,-165.5"/>
<text text-anchor="start" x="742" y="-176.9" font-family="Arial" font-size="14.00" fill="#000000">name </text>
<text text-anchor="start" x="780.899" y="-176.9" font-family="Arial" font-size="14.00" fill="#666666">[varchar(255)]</text>
<polygon fill="none" stroke="#000000" points="735,-135.5 735,-165.5 935,-165.5 935,-135.5 735,-135.5"/>
<text text-anchor="start" x="742" y="-146.9" font-family="Arial" font-size="14.00" fill="#000000">is_active </text>
<text text-anchor="start" x="800.3422" y="-146.9" font-family="Arial" font-size="14.00" fill="#666666">[tinyint(1)]</text>
<polygon fill="none" stroke="#000000" points="735,-105.5 735,-135.5 935,-135.5 935,-105.5 735,-105.5"/>
<text text-anchor="start" x="742" y="-116.9" font-family="Arial" font-size="14.00" fill="#000000">created_at </text>
<text text-anchor="start" x="812.028" y="-116.9" font-family="Arial" font-size="14.00" fill="#666666">[timestamp]</text>
<polygon fill="none" stroke="#000000" points="735,-75.5 735,-105.5 935,-105.5 935,-75.5 735,-75.5"/>
<text text-anchor="start" x="742" y="-86.9" font-family="Arial" font-size="14.00" fill="#000000">updated_at </text>
<text text-anchor="start" x="815.9326" y="-86.9" font-family="Arial" font-size="14.00" fill="#666666">[timestamp]</text>
<polygon fill="none" stroke="#000000" points="735,-45.5 735,-75.5 935,-75.5 935,-45.5 735,-45.5"/>
<text text-anchor="start" x="742" y="-56.9" font-family="Arial" font-size="14.00" fill="#000000">deleted_at </text>
<text text-anchor="start" x="811.2566" y="-56.9" font-family="Arial" font-size="14.00" fill="#666666">[timestamp]</text>
<polygon fill="none" stroke="#000000" stroke-width="3" points="733.5,-44.5 733.5,-262.5 936.5,-262.5 936.5,-44.5 733.5,-44.5"/>
</g>
<!-- benefit_prices -->
<g id="node2" class="node">
<title>benefit_prices</title>
<polygon fill="#efefef" stroke="transparent" points="43,-805.5 43,-840.5 959,-840.5 959,-805.5 43,-805.5"/>
<polygon fill="none" stroke="#000000" points="43,-805.5 43,-840.5 959,-840.5 959,-805.5 43,-805.5"/>
<text text-anchor="start" x="381.2018" y="-818.3" font-family="Arial Bold" font-size="18.00" fill="#000000">benefit_prices</text>
<text text-anchor="start" x="493.2302" y="-818.3" font-family="Arial" font-size="14.00" fill="#000000">    </text>
<text text-anchor="start" x="527.435" y="-818.3" font-family="Arial" font-size="14.00" fill="#666666">[BASE TABLE]</text>
<polygon fill="none" stroke="#000000" points="43,-775.5 43,-805.5 959,-805.5 959,-775.5 43,-775.5"/>
<text text-anchor="start" x="50" y="-786.9" font-family="Arial" font-size="14.00" fill="#000000">id    </text>
<text text-anchor="start" x="95.094" y="-786.9" font-family="Arial" font-size="14.00" fill="#666666">[char(36)]</text>
<polygon fill="none" stroke="#000000" points="43,-745.5 43,-775.5 959,-775.5 959,-745.5 43,-745.5"/>
<text text-anchor="start" x="50" y="-756.9" font-family="Arial" font-size="14.00" fill="#000000">priceable_type    </text>
<text text-anchor="start" x="175.23" y="-756.9" font-family="Arial" font-size="14.00" fill="#666666">[varchar(255)]</text>
<polygon fill="none" stroke="#000000" points="43,-715.5 43,-745.5 959,-745.5 959,-715.5 43,-715.5"/>
<text text-anchor="start" x="50" y="-726.9" font-family="Arial" font-size="14.00" fill="#000000">priceable_id    </text>
<text text-anchor="start" x="159.6634" y="-726.9" font-family="Arial" font-size="14.00" fill="#666666">[char(36)]</text>
<polygon fill="none" stroke="#000000" points="43,-685.5 43,-715.5 959,-715.5 959,-685.5 43,-685.5"/>
<text text-anchor="start" x="49.6414" y="-696.9" font-family="Arial" font-size="14.00" fill="#000000">unit_term    </text>
<text text-anchor="start" x="142.1856" y="-696.9" font-family="Arial" font-size="14.00" fill="#666666">[enum(&#39;daily&#39;,&#39;flat_rate&#39;,&#39; weekly&#39;,&#39;monthly&#39;,&#39;two_months&#39;,&#39;four_months&#39;,&#39;six_months&#39;,&#39;eight_months&#39;,&#39;yearly&#39;,&#39;flat_daily&#39;,&#39;flat_monthly&#39;)]</text>
<polygon fill="none" stroke="#000000" points="43,-655.5 43,-685.5 959,-685.5 959,-655.5 43,-655.5"/>
<text text-anchor="start" x="50" y="-666.9" font-family="Arial" font-size="14.00" fill="#000000">net_price    </text>
<text text-anchor="start" x="141.7756" y="-666.9" font-family="Arial" font-size="14.00" fill="#666666">[double(8,2)]</text>
<polygon fill="none" stroke="#000000" points="43,-625.5 43,-655.5 959,-655.5 959,-625.5 43,-625.5"/>
<text text-anchor="start" x="50" y="-636.9" font-family="Arial" font-size="14.00" fill="#000000">sale_price    </text>
<text text-anchor="start" x="147.9916" y="-636.9" font-family="Arial" font-size="14.00" fill="#666666">[double(8,2)]</text>
<polygon fill="none" stroke="#000000" points="43,-595.5 43,-625.5 959,-625.5 959,-595.5 43,-595.5"/>
<text text-anchor="start" x="50" y="-606.9" font-family="Arial" font-size="14.00" fill="#000000">region_id    </text>
<text text-anchor="start" x="141.7742" y="-606.9" font-family="Arial" font-size="14.00" fill="#666666">[char(36)]</text>
<polygon fill="none" stroke="#000000" points="43,-565.5 43,-595.5 959,-595.5 959,-565.5 43,-565.5"/>
<text text-anchor="start" x="50" y="-576.9" font-family="Arial" font-size="14.00" fill="#000000">effective_date    </text>
<text text-anchor="start" x="171.352" y="-576.9" font-family="Arial" font-size="14.00" fill="#666666">[date]</text>
<polygon fill="none" stroke="#000000" points="43,-535.5 43,-565.5 959,-565.5 959,-535.5 43,-535.5"/>
<text text-anchor="start" x="50" y="-546.9" font-family="Arial" font-size="14.00" fill="#000000">end_date    </text>
<text text-anchor="start" x="142.5736" y="-546.9" font-family="Arial" font-size="14.00" fill="#666666">[date]</text>
<polygon fill="none" stroke="#000000" points="43,-505.5 43,-535.5 959,-535.5 959,-505.5 43,-505.5"/>
<text text-anchor="start" x="50" y="-516.9" font-family="Arial" font-size="14.00" fill="#000000">min_days    </text>
<text text-anchor="start" x="144.1024" y="-516.9" font-family="Arial" font-size="14.00" fill="#666666">[int unsigned]</text>
<polygon fill="none" stroke="#000000" points="43,-475.5 43,-505.5 959,-505.5 959,-475.5 43,-475.5"/>
<text text-anchor="start" x="50" y="-486.9" font-family="Arial" font-size="14.00" fill="#000000">max_days    </text>
<text text-anchor="start" x="147.9958" y="-486.9" font-family="Arial" font-size="14.00" fill="#666666">[int unsigned]</text>
<polygon fill="none" stroke="#000000" points="43,-445.5 43,-475.5 959,-475.5 959,-445.5 43,-445.5"/>
<text text-anchor="start" x="50" y="-456.9" font-family="Arial" font-size="14.00" fill="#000000">created_at    </text>
<text text-anchor="start" x="150.3422" y="-456.9" font-family="Arial" font-size="14.00" fill="#666666">[timestamp]</text>
<polygon fill="none" stroke="#000000" points="43,-415.5 43,-445.5 959,-445.5 959,-415.5 43,-415.5"/>
<text text-anchor="start" x="50" y="-426.9" font-family="Arial" font-size="14.00" fill="#000000">updated_at    </text>
<text text-anchor="start" x="154.2468" y="-426.9" font-family="Arial" font-size="14.00" fill="#666666">[timestamp]</text>
<polygon fill="none" stroke="#000000" points="43,-385.5 43,-415.5 959,-415.5 959,-385.5 43,-385.5"/>
<text text-anchor="start" x="50" y="-396.9" font-family="Arial" font-size="14.00" fill="#000000">deleted_at    </text>
<text text-anchor="start" x="149.5708" y="-396.9" font-family="Arial" font-size="14.00" fill="#666666">[timestamp]</text>
</g>
<!-- benefit_prices&#45;&gt;regions -->
<g id="edge1" class="edge">
<title>benefit_prices:region_id&#45;&gt;regions:id</title>
<path fill="none" stroke="#000000" d="M968.9279,-608.1443C1015.8501,-584.2353 995.2203,-385.5062 959,-343 893.6013,-266.2516 800.3987,-383.7484 735,-307 707.183,-274.3554 692.1111,-210.5 735,-210.5"/>
<polygon fill="#000000" stroke="#000000" points="968.7299,-608.1912 957.9611,-606.1216 963.8649,-609.3456 959,-610.5 959,-610.5 959,-610.5 963.8649,-609.3456 960.0389,-614.8784 968.7299,-608.1912 968.7299,-608.1912"/>
<text text-anchor="start" x="965.608" y="-620.5" font-family="Arial" font-size="10.00" fill="#000000">FOREIGN KEY (region_id) REFERENCES regions (id)</text>
</g>
<!-- countries -->
<g id="node3" class="node">
<title>countries</title>
<polygon fill="#efefef" stroke="transparent" points="1063,-700.5 1063,-735.5 1277,-735.5 1277,-700.5 1063,-700.5"/>
<polygon fill="none" stroke="#000000" points="1063,-700.5 1063,-735.5 1277,-735.5 1277,-700.5 1063,-700.5"/>
<text text-anchor="start" x="1069.7093" y="-713.3" font-family="Arial Bold" font-size="18.00" fill="#000000">countries</text>
<text text-anchor="start" x="1142.7227" y="-713.3" font-family="Arial" font-size="14.00" fill="#000000">    </text>
<text text-anchor="start" x="1176.9275" y="-713.3" font-family="Arial" font-size="14.00" fill="#666666">[BASE TABLE]</text>
<polygon fill="none" stroke="#000000" points="1063,-670.5 1063,-700.5 1277,-700.5 1277,-670.5 1063,-670.5"/>
<text text-anchor="start" x="1070" y="-681.9" font-family="Arial" font-size="14.00" fill="#000000">id    </text>
<text text-anchor="start" x="1115.094" y="-681.9" font-family="Arial" font-size="14.00" fill="#666666">[char(36)]</text>
<polygon fill="none" stroke="#000000" points="1063,-640.5 1063,-670.5 1277,-670.5 1277,-640.5 1063,-640.5"/>
<text text-anchor="start" x="1070" y="-651.9" font-family="Arial" font-size="14.00" fill="#000000">name    </text>
<text text-anchor="start" x="1139.2132" y="-651.9" font-family="Arial" font-size="14.00" fill="#666666">[varchar(255)]</text>
<polygon fill="none" stroke="#000000" points="1063,-610.5 1063,-640.5 1277,-640.5 1277,-610.5 1063,-610.5"/>
<text text-anchor="start" x="1070" y="-621.9" font-family="Arial" font-size="14.00" fill="#000000">is_active    </text>
<text text-anchor="start" x="1158.6564" y="-621.9" font-family="Arial" font-size="14.00" fill="#666666">[tinyint(1)]</text>
<polygon fill="none" stroke="#000000" points="1063,-580.5 1063,-610.5 1277,-610.5 1277,-580.5 1063,-580.5"/>
<text text-anchor="start" x="1070" y="-591.9" font-family="Arial" font-size="14.00" fill="#000000">region_id    </text>
<text text-anchor="start" x="1161.7742" y="-591.9" font-family="Arial" font-size="14.00" fill="#666666">[char(36)]</text>
<polygon fill="none" stroke="#000000" points="1063,-550.5 1063,-580.5 1277,-580.5 1277,-550.5 1063,-550.5"/>
<text text-anchor="start" x="1070" y="-561.9" font-family="Arial" font-size="14.00" fill="#000000">created_at    </text>
<text text-anchor="start" x="1170.3422" y="-561.9" font-family="Arial" font-size="14.00" fill="#666666">[timestamp]</text>
<polygon fill="none" stroke="#000000" points="1063,-520.5 1063,-550.5 1277,-550.5 1277,-520.5 1063,-520.5"/>
<text text-anchor="start" x="1070" y="-531.9" font-family="Arial" font-size="14.00" fill="#000000">updated_at    </text>
<text text-anchor="start" x="1174.2468" y="-531.9" font-family="Arial" font-size="14.00" fill="#666666">[timestamp]</text>
<polygon fill="none" stroke="#000000" points="1063,-490.5 1063,-520.5 1277,-520.5 1277,-490.5 1063,-490.5"/>
<text text-anchor="start" x="1070" y="-501.9" font-family="Arial" font-size="14.00" fill="#000000">deleted_at    </text>
<text text-anchor="start" x="1169.5708" y="-501.9" font-family="Arial" font-size="14.00" fill="#666666">[timestamp]</text>
</g>
<!-- countries&#45;&gt;regions -->
<g id="edge2" class="edge">
<title>countries:region_id&#45;&gt;regions:id</title>
<path fill="none" stroke="#000000" d="M1053.198,-593.2529C1008.7289,-571.2024 1030.0172,-393.2285 1011,-343 986.9617,-279.5098 1002.8884,-210.5 935,-210.5"/>
<polygon fill="#000000" stroke="#000000" points="1053.2528,-593.2654 1061.9944,-599.8862 1058.1264,-594.3827 1063,-595.5 1063,-595.5 1063,-595.5 1058.1264,-594.3827 1064.0056,-591.1138 1053.2528,-593.2654 1053.2528,-593.2654"/>
<text text-anchor="start" x="1069.608" y="-579.5" font-family="Arial" font-size="10.00" fill="#000000">FOREIGN KEY (region_id) REFERENCES regions (id)</text>
</g>
</g>
</svg>
