<?xml version="1.0" encoding="UTF-8" standalone="no"?>
<!DOCTYPE svg PUBLIC "-//W3C//DTD SVG 1.1//EN"
 "http://www.w3.org/Graphics/SVG/1.1/DTD/svg11.dtd">
<!-- Generated by graphviz version 2.40.1 (20161225.0304)
 -->
<!-- Title: role_has_permissions Pages: 1 -->
<svg width="855pt" height="502pt"
 viewBox="0.00 0.00 855.00 502.00" xmlns="http://www.w3.org/2000/svg" xmlns:xlink="http://www.w3.org/1999/xlink">
<g id="graph0" class="graph" transform="scale(1 1) rotate(0) translate(4 498)">
<title>role_has_permissions</title>
<polygon fill="#ffffff" stroke="transparent" points="-4,4 -4,-498 851,-498 851,4 -4,4"/>
<!-- role_has_permissions -->
<g id="node1" class="node">
<title>role_has_permissions</title>
<polygon fill="#efefef" stroke="transparent" points="297,-412.5 297,-447.5 613,-447.5 613,-412.5 297,-412.5"/>
<polygon fill="none" stroke="#000000" points="297,-412.5 297,-447.5 613,-447.5 613,-412.5 297,-412.5"/>
<text text-anchor="start" x="303.7054" y="-425.3" font-family="Arial Bold" font-size="18.00" fill="#000000">role_has_permissions</text>
<text text-anchor="start" x="478.7266" y="-425.3" font-family="Arial" font-size="14.00" fill="#000000">    </text>
<text text-anchor="start" x="512.9314" y="-425.3" font-family="Arial" font-size="14.00" fill="#666666">[BASE TABLE]</text>
<polygon fill="none" stroke="#000000" points="297,-382.5 297,-412.5 613,-412.5 613,-382.5 297,-382.5"/>
<text text-anchor="start" x="304" y="-393.9" font-family="Arial" font-size="14.00" fill="#000000">permission_id </text>
<text text-anchor="start" x="394.2272" y="-393.9" font-family="Arial" font-size="14.00" fill="#666666">[bigint unsigned]</text>
<polygon fill="none" stroke="#000000" points="297,-352.5 297,-382.5 613,-382.5 613,-352.5 297,-352.5"/>
<text text-anchor="start" x="304" y="-363.9" font-family="Arial" font-size="14.00" fill="#000000">role_id </text>
<text text-anchor="start" x="349.8948" y="-363.9" font-family="Arial" font-size="14.00" fill="#666666">[bigint unsigned]</text>
<polygon fill="none" stroke="#000000" stroke-width="3" points="295.5,-351.5 295.5,-449.5 614.5,-449.5 614.5,-351.5 295.5,-351.5"/>
</g>
<!-- permissions -->
<g id="node2" class="node">
<title>permissions</title>
<polygon fill="#efefef" stroke="transparent" points="172,-192.5 172,-227.5 409,-227.5 409,-192.5 172,-192.5"/>
<polygon fill="none" stroke="#000000" points="172,-192.5 172,-227.5 409,-227.5 409,-192.5 172,-192.5"/>
<text text-anchor="start" x="178.7172" y="-205.3" font-family="Arial Bold" font-size="18.00" fill="#000000">permissions</text>
<text text-anchor="start" x="274.7148" y="-205.3" font-family="Arial" font-size="14.00" fill="#000000">    </text>
<text text-anchor="start" x="308.9196" y="-205.3" font-family="Arial" font-size="14.00" fill="#666666">[BASE TABLE]</text>
<polygon fill="none" stroke="#000000" points="172,-162.5 172,-192.5 409,-192.5 409,-162.5 172,-162.5"/>
<text text-anchor="start" x="179" y="-173.9" font-family="Arial" font-size="14.00" fill="#000000">id    </text>
<text text-anchor="start" x="224.094" y="-173.9" font-family="Arial" font-size="14.00" fill="#666666">[bigint unsigned]</text>
<polygon fill="none" stroke="#000000" points="172,-132.5 172,-162.5 409,-162.5 409,-132.5 172,-132.5"/>
<text text-anchor="start" x="179" y="-143.9" font-family="Arial" font-size="14.00" fill="#000000">name    </text>
<text text-anchor="start" x="248.2132" y="-143.9" font-family="Arial" font-size="14.00" fill="#666666">[varchar(255)]</text>
<polygon fill="none" stroke="#000000" points="172,-102.5 172,-132.5 409,-132.5 409,-102.5 172,-102.5"/>
<text text-anchor="start" x="179" y="-113.9" font-family="Arial" font-size="14.00" fill="#000000">guard_name    </text>
<text text-anchor="start" x="291.7868" y="-113.9" font-family="Arial" font-size="14.00" fill="#666666">[varchar(255)]</text>
<polygon fill="none" stroke="#000000" points="172,-72.5 172,-102.5 409,-102.5 409,-72.5 172,-72.5"/>
<text text-anchor="start" x="179" y="-83.9" font-family="Arial" font-size="14.00" fill="#000000">created_at    </text>
<text text-anchor="start" x="279.3422" y="-83.9" font-family="Arial" font-size="14.00" fill="#666666">[timestamp]</text>
<polygon fill="none" stroke="#000000" points="172,-42.5 172,-72.5 409,-72.5 409,-42.5 172,-42.5"/>
<text text-anchor="start" x="179" y="-53.9" font-family="Arial" font-size="14.00" fill="#000000">updated_at    </text>
<text text-anchor="start" x="283.2468" y="-53.9" font-family="Arial" font-size="14.00" fill="#666666">[timestamp]</text>
</g>
<!-- role_has_permissions&#45;&gt;permissions -->
<g id="edge1" class="edge">
<title>role_has_permissions:permission_id&#45;&gt;permissions:id</title>
<path fill="none" stroke="#000000" d="M286.7936,-395.9185C260.0744,-386.4156 275.6204,-336.3289 297,-307 327.7998,-264.7484 378.2002,-313.2516 409,-271 433.4788,-237.4195 450.5556,-177.5 409,-177.5"/>
<polygon fill="#000000" stroke="#000000" points="287.1179,-395.9686 296.3109,-401.9469 292.059,-396.7343 297,-397.5 297,-397.5 297,-397.5 292.059,-396.7343 297.6891,-393.0531 287.1179,-395.9686 287.1179,-395.9686"/>
<text text-anchor="start" x="7.06" y="-407.5" font-family="Arial" font-size="10.00" fill="#000000">FOREIGN KEY (permission_id) REFERENCES permissions (id)</text>
</g>
<!-- roles -->
<g id="node3" class="node">
<title>roles</title>
<polygon fill="#efefef" stroke="transparent" points="513,-192.5 513,-227.5 726,-227.5 726,-192.5 513,-192.5"/>
<polygon fill="none" stroke="#000000" points="513,-192.5 513,-227.5 726,-227.5 726,-192.5 513,-192.5"/>
<text text-anchor="start" x="536.2166" y="-205.3" font-family="Arial Bold" font-size="18.00" fill="#000000">roles</text>
<text text-anchor="start" x="575.2154" y="-205.3" font-family="Arial" font-size="14.00" fill="#000000">    </text>
<text text-anchor="start" x="609.4202" y="-205.3" font-family="Arial" font-size="14.00" fill="#666666">[BASE TABLE]</text>
<polygon fill="none" stroke="#000000" points="513,-162.5 513,-192.5 726,-192.5 726,-162.5 513,-162.5"/>
<text text-anchor="start" x="520" y="-173.9" font-family="Arial" font-size="14.00" fill="#000000">id    </text>
<text text-anchor="start" x="565.094" y="-173.9" font-family="Arial" font-size="14.00" fill="#666666">[bigint unsigned]</text>
<polygon fill="none" stroke="#000000" points="513,-132.5 513,-162.5 726,-162.5 726,-132.5 513,-132.5"/>
<text text-anchor="start" x="520" y="-143.9" font-family="Arial" font-size="14.00" fill="#000000">name    </text>
<text text-anchor="start" x="589.2132" y="-143.9" font-family="Arial" font-size="14.00" fill="#666666">[varchar(255)]</text>
<polygon fill="none" stroke="#000000" points="513,-102.5 513,-132.5 726,-132.5 726,-102.5 513,-102.5"/>
<text text-anchor="start" x="519.547" y="-113.9" font-family="Arial" font-size="14.00" fill="#000000">guard_name    </text>
<text text-anchor="start" x="632.3338" y="-113.9" font-family="Arial" font-size="14.00" fill="#666666">[varchar(255)]</text>
<polygon fill="none" stroke="#000000" points="513,-72.5 513,-102.5 726,-102.5 726,-72.5 513,-72.5"/>
<text text-anchor="start" x="520" y="-83.9" font-family="Arial" font-size="14.00" fill="#000000">created_at    </text>
<text text-anchor="start" x="620.3422" y="-83.9" font-family="Arial" font-size="14.00" fill="#666666">[timestamp]</text>
<polygon fill="none" stroke="#000000" points="513,-42.5 513,-72.5 726,-72.5 726,-42.5 513,-42.5"/>
<text text-anchor="start" x="520" y="-53.9" font-family="Arial" font-size="14.00" fill="#000000">updated_at    </text>
<text text-anchor="start" x="624.2468" y="-53.9" font-family="Arial" font-size="14.00" fill="#666666">[timestamp]</text>
</g>
<!-- role_has_permissions&#45;&gt;roles -->
<g id="edge2" class="edge">
<title>role_has_permissions:role_id&#45;&gt;roles:id</title>
<path fill="none" stroke="#000000" d="M622.9286,-364.8899C636.2193,-355.8713 626.0456,-325.5616 613,-307 585.8383,-268.3535 540.1617,-309.6465 513,-271 489.105,-237.0016 471.4444,-177.5 513,-177.5"/>
<polygon fill="#000000" stroke="#000000" points="622.6714,-364.9575 611.8559,-363.1479 617.8357,-366.2287 613,-367.5 613,-367.5 613,-367.5 617.8357,-366.2287 614.1441,-371.8521 622.6714,-364.9575 622.6714,-364.9575"/>
<text text-anchor="start" x="619.726" y="-377.5" font-family="Arial" font-size="10.00" fill="#000000">FOREIGN KEY (role_id) REFERENCES roles (id)</text>
</g>
</g>
</svg>
