<?xml version="1.0" encoding="UTF-8" standalone="no"?>
<!DOCTYPE svg PUBLIC "-//W3C//DTD SVG 1.1//EN"
 "http://www.w3.org/Graphics/SVG/1.1/DTD/svg11.dtd">
<!-- Generated by graphviz version 2.40.1 (20161225.0304)
 -->
<!-- Title: roles Pages: 1 -->
<svg width="792pt" height="532pt"
 viewBox="0.00 0.00 792.00 532.00" xmlns="http://www.w3.org/2000/svg" xmlns:xlink="http://www.w3.org/1999/xlink">
<g id="graph0" class="graph" transform="scale(1 1) rotate(0) translate(4 528)">
<title>roles</title>
<polygon fill="#ffffff" stroke="transparent" points="-4,4 -4,-528 788,-528 788,4 -4,4"/>
<!-- roles -->
<g id="node1" class="node">
<title>roles</title>
<polygon fill="#efefef" stroke="transparent" points="290,-195.5 290,-230.5 473,-230.5 473,-195.5 290,-195.5"/>
<polygon fill="none" stroke="#000000" points="290,-195.5 290,-230.5 473,-230.5 473,-195.5 290,-195.5"/>
<text text-anchor="start" x="298.2166" y="-208.3" font-family="Arial Bold" font-size="18.00" fill="#000000">roles</text>
<text text-anchor="start" x="337.2154" y="-208.3" font-family="Arial" font-size="14.00" fill="#000000">    </text>
<text text-anchor="start" x="371.4202" y="-208.3" font-family="Arial" font-size="14.00" fill="#666666">[BASE TABLE]</text>
<polygon fill="none" stroke="#000000" points="290,-165.5 290,-195.5 473,-195.5 473,-165.5 290,-165.5"/>
<text text-anchor="start" x="297" y="-176.9" font-family="Arial" font-size="14.00" fill="#000000">id </text>
<text text-anchor="start" x="311.7798" y="-176.9" font-family="Arial" font-size="14.00" fill="#666666">[bigint unsigned]</text>
<polygon fill="none" stroke="#000000" points="290,-135.5 290,-165.5 473,-165.5 473,-135.5 290,-135.5"/>
<text text-anchor="start" x="297" y="-146.9" font-family="Arial" font-size="14.00" fill="#000000">name </text>
<text text-anchor="start" x="335.899" y="-146.9" font-family="Arial" font-size="14.00" fill="#666666">[varchar(255)]</text>
<polygon fill="none" stroke="#000000" points="290,-105.5 290,-135.5 473,-135.5 473,-105.5 290,-105.5"/>
<text text-anchor="start" x="296.7041" y="-116.9" font-family="Arial" font-size="14.00" fill="#000000">guard_name </text>
<text text-anchor="start" x="379.1767" y="-116.9" font-family="Arial" font-size="14.00" fill="#666666">[varchar(255)]</text>
<polygon fill="none" stroke="#000000" points="290,-75.5 290,-105.5 473,-105.5 473,-75.5 290,-75.5"/>
<text text-anchor="start" x="297" y="-86.9" font-family="Arial" font-size="14.00" fill="#000000">created_at </text>
<text text-anchor="start" x="367.028" y="-86.9" font-family="Arial" font-size="14.00" fill="#666666">[timestamp]</text>
<polygon fill="none" stroke="#000000" points="290,-45.5 290,-75.5 473,-75.5 473,-45.5 290,-45.5"/>
<text text-anchor="start" x="297" y="-56.9" font-family="Arial" font-size="14.00" fill="#000000">updated_at </text>
<text text-anchor="start" x="370.9326" y="-56.9" font-family="Arial" font-size="14.00" fill="#666666">[timestamp]</text>
<polygon fill="none" stroke="#000000" stroke-width="3" points="288,-44.5 288,-232.5 474,-232.5 474,-44.5 288,-44.5"/>
</g>
<!-- model_has_roles -->
<g id="node2" class="node">
<title>model_has_roles</title>
<polygon fill="#efefef" stroke="transparent" points="43,-445.5 43,-480.5 321,-480.5 321,-445.5 43,-445.5"/>
<polygon fill="none" stroke="#000000" points="43,-445.5 43,-480.5 321,-480.5 321,-445.5 43,-445.5"/>
<text text-anchor="start" x="49.7017" y="-458.3" font-family="Arial Bold" font-size="18.00" fill="#000000">model_has_roles</text>
<text text-anchor="start" x="186.7303" y="-458.3" font-family="Arial" font-size="14.00" fill="#000000">    </text>
<text text-anchor="start" x="220.9351" y="-458.3" font-family="Arial" font-size="14.00" fill="#666666">[BASE TABLE]</text>
<polygon fill="none" stroke="#000000" points="43,-415.5 43,-445.5 321,-445.5 321,-415.5 43,-415.5"/>
<text text-anchor="start" x="50" y="-426.9" font-family="Arial" font-size="14.00" fill="#000000">role_id    </text>
<text text-anchor="start" x="126.209" y="-426.9" font-family="Arial" font-size="14.00" fill="#666666">[bigint unsigned]</text>
<polygon fill="none" stroke="#000000" points="43,-385.5 43,-415.5 321,-415.5 321,-385.5 43,-385.5"/>
<text text-anchor="start" x="50" y="-396.9" font-family="Arial" font-size="14.00" fill="#000000">model_type    </text>
<text text-anchor="start" x="156.5582" y="-396.9" font-family="Arial" font-size="14.00" fill="#666666">[varchar(255)]</text>
<polygon fill="none" stroke="#000000" points="43,-355.5 43,-385.5 321,-385.5 321,-355.5 43,-355.5"/>
<text text-anchor="start" x="50" y="-366.9" font-family="Arial" font-size="14.00" fill="#000000">model_id    </text>
<text text-anchor="start" x="140.9916" y="-366.9" font-family="Arial" font-size="14.00" fill="#666666">[char(36)]</text>
</g>
<!-- model_has_roles&#45;&gt;roles -->
<g id="edge1" class="edge">
<title>model_has_roles:role_id&#45;&gt;roles:id</title>
<path fill="none" stroke="#000000" d="M331.2437,-429.4033C368.2557,-420.4336 337.8253,-358.3241 321,-313 313.6518,-293.2053 297.3482,-296.7947 290,-277 275.074,-236.7922 247.1111,-180.5 290,-180.5"/>
<polygon fill="#000000" stroke="#000000" points="330.9432,-429.4354 320.5209,-426.0256 325.9716,-429.9677 321,-430.5 321,-430.5 321,-430.5 325.9716,-429.9677 321.4791,-434.9744 330.9432,-429.4354 330.9432,-429.4354"/>
<text text-anchor="start" x="327.726" y="-440.5" font-family="Arial" font-size="10.00" fill="#000000">FOREIGN KEY (role_id) REFERENCES roles (id)</text>
</g>
<!-- role_has_permissions -->
<g id="node3" class="node">
<title>role_has_permissions</title>
<polygon fill="#efefef" stroke="transparent" points="425,-430.5 425,-465.5 741,-465.5 741,-430.5 425,-430.5"/>
<polygon fill="none" stroke="#000000" points="425,-430.5 425,-465.5 741,-465.5 741,-430.5 425,-430.5"/>
<text text-anchor="start" x="431.7054" y="-443.3" font-family="Arial Bold" font-size="18.00" fill="#000000">role_has_permissions</text>
<text text-anchor="start" x="606.7266" y="-443.3" font-family="Arial" font-size="14.00" fill="#000000">    </text>
<text text-anchor="start" x="640.9314" y="-443.3" font-family="Arial" font-size="14.00" fill="#666666">[BASE TABLE]</text>
<polygon fill="none" stroke="#000000" points="425,-400.5 425,-430.5 741,-430.5 741,-400.5 425,-400.5"/>
<text text-anchor="start" x="432" y="-411.9" font-family="Arial" font-size="14.00" fill="#000000">permission_id    </text>
<text text-anchor="start" x="552.5414" y="-411.9" font-family="Arial" font-size="14.00" fill="#666666">[bigint unsigned]</text>
<polygon fill="none" stroke="#000000" points="425,-370.5 425,-400.5 741,-400.5 741,-370.5 425,-370.5"/>
<text text-anchor="start" x="432" y="-381.9" font-family="Arial" font-size="14.00" fill="#000000">role_id    </text>
<text text-anchor="start" x="508.209" y="-381.9" font-family="Arial" font-size="14.00" fill="#666666">[bigint unsigned]</text>
</g>
<!-- role_has_permissions&#45;&gt;roles -->
<g id="edge2" class="edge">
<title>role_has_permissions:role_id&#45;&gt;roles:id</title>
<path fill="none" stroke="#000000" d="M415.2719,-382.7315C404.7924,-374.1955 417.1983,-347.6727 425,-328 436.4748,-299.0653 461.5252,-305.9347 473,-277 488.8108,-237.1318 515.8889,-180.5 473,-180.5"/>
<polygon fill="#000000" stroke="#000000" points="415.3819,-382.7628 423.7682,-389.8281 420.1909,-384.1314 425,-385.5 425,-385.5 425,-385.5 420.1909,-384.1314 426.2318,-381.1719 415.3819,-382.7628 415.3819,-382.7628"/>
<text text-anchor="start" x="373.226" y="-369.5" font-family="Arial" font-size="10.00" fill="#000000">FOREIGN KEY (role_id) REFERENCES roles (id)</text>
</g>
</g>
</svg>
