<?xml version="1.0" encoding="UTF-8" standalone="no"?>
<!DOCTYPE svg PUBLIC "-//W3C//DTD SVG 1.1//EN"
 "http://www.w3.org/Graphics/SVG/1.1/DTD/svg11.dtd">
<!-- Generated by graphviz version 2.40.1 (20161225.0304)
 -->
<!-- Title: service_code_mapping Pages: 1 -->
<svg width="699pt" height="712pt"
 viewBox="0.00 0.00 699.00 712.00" xmlns="http://www.w3.org/2000/svg" xmlns:xlink="http://www.w3.org/1999/xlink">
<g id="graph0" class="graph" transform="scale(1 1) rotate(0) translate(4 708)">
<title>service_code_mapping</title>
<polygon fill="#ffffff" stroke="transparent" points="-4,4 -4,-708 695,-708 695,4 -4,4"/>
<!-- service_code_mapping -->
<g id="node1" class="node">
<title>service_code_mapping</title>
<polygon fill="#efefef" stroke="transparent" points="46,-622.5 46,-657.5 372,-657.5 372,-622.5 46,-622.5"/>
<polygon fill="none" stroke="#000000" points="46,-622.5 46,-657.5 372,-657.5 372,-622.5 46,-622.5"/>
<text text-anchor="start" x="52.6924" y="-635.3" font-family="Arial Bold" font-size="18.00" fill="#000000">service_code_mapping</text>
<text text-anchor="start" x="237.7396" y="-635.3" font-family="Arial" font-size="14.00" fill="#000000">    </text>
<text text-anchor="start" x="271.9444" y="-635.3" font-family="Arial" font-size="14.00" fill="#666666">[BASE TABLE]</text>
<polygon fill="none" stroke="#000000" points="46,-592.5 46,-622.5 372,-622.5 372,-592.5 46,-592.5"/>
<text text-anchor="start" x="53" y="-603.9" font-family="Arial" font-size="14.00" fill="#000000">id </text>
<text text-anchor="start" x="67.7798" y="-603.9" font-family="Arial" font-size="14.00" fill="#666666">[char(36)]</text>
<polygon fill="none" stroke="#000000" points="46,-562.5 46,-592.5 372,-592.5 372,-562.5 46,-562.5"/>
<text text-anchor="start" x="53" y="-573.9" font-family="Arial" font-size="14.00" fill="#000000">mappable_type </text>
<text text-anchor="start" x="152.5918" y="-573.9" font-family="Arial" font-size="14.00" fill="#666666">[varchar(255)]</text>
<polygon fill="none" stroke="#000000" points="46,-532.5 46,-562.5 372,-562.5 372,-532.5 46,-532.5"/>
<text text-anchor="start" x="53" y="-543.9" font-family="Arial" font-size="14.00" fill="#000000">mappable_id </text>
<text text-anchor="start" x="137.0252" y="-543.9" font-family="Arial" font-size="14.00" fill="#666666">[char(36)]</text>
<polygon fill="none" stroke="#000000" points="46,-502.5 46,-532.5 372,-532.5 372,-502.5 46,-502.5"/>
<text text-anchor="start" x="53" y="-513.9" font-family="Arial" font-size="14.00" fill="#000000">service_code_id </text>
<text text-anchor="start" x="158.0252" y="-513.9" font-family="Arial" font-size="14.00" fill="#666666">[char(36)]</text>
<polygon fill="none" stroke="#000000" points="46,-472.5 46,-502.5 372,-502.5 372,-472.5 46,-472.5"/>
<text text-anchor="start" x="53" y="-483.9" font-family="Arial" font-size="14.00" fill="#000000">created_at </text>
<text text-anchor="start" x="123.028" y="-483.9" font-family="Arial" font-size="14.00" fill="#666666">[timestamp]</text>
<polygon fill="none" stroke="#000000" points="46,-442.5 46,-472.5 372,-472.5 372,-442.5 46,-442.5"/>
<text text-anchor="start" x="53" y="-453.9" font-family="Arial" font-size="14.00" fill="#000000">updated_at </text>
<text text-anchor="start" x="126.9326" y="-453.9" font-family="Arial" font-size="14.00" fill="#666666">[timestamp]</text>
<polygon fill="none" stroke="#000000" points="46,-412.5 46,-442.5 372,-442.5 372,-412.5 46,-412.5"/>
<text text-anchor="start" x="53" y="-423.9" font-family="Arial" font-size="14.00" fill="#000000">deleted_at </text>
<text text-anchor="start" x="122.2566" y="-423.9" font-family="Arial" font-size="14.00" fill="#666666">[timestamp]</text>
<polygon fill="none" stroke="#000000" stroke-width="3" points="44.5,-411.5 44.5,-659.5 373.5,-659.5 373.5,-411.5 44.5,-411.5"/>
</g>
<!-- service_codes -->
<g id="node2" class="node">
<title>service_codes</title>
<polygon fill="#efefef" stroke="transparent" points="81,-252.5 81,-287.5 337,-287.5 337,-252.5 81,-252.5"/>
<polygon fill="none" stroke="#000000" points="81,-252.5 81,-287.5 337,-287.5 337,-252.5 81,-252.5"/>
<text text-anchor="start" x="87.7042" y="-265.3" font-family="Arial Bold" font-size="18.00" fill="#000000">service_codes</text>
<text text-anchor="start" x="202.7278" y="-265.3" font-family="Arial" font-size="14.00" fill="#000000">    </text>
<text text-anchor="start" x="236.9326" y="-265.3" font-family="Arial" font-size="14.00" fill="#666666">[BASE TABLE]</text>
<polygon fill="none" stroke="#000000" points="81,-222.5 81,-252.5 337,-252.5 337,-222.5 81,-222.5"/>
<text text-anchor="start" x="88" y="-233.9" font-family="Arial" font-size="14.00" fill="#000000">id    </text>
<text text-anchor="start" x="133.094" y="-233.9" font-family="Arial" font-size="14.00" fill="#666666">[char(36)]</text>
<polygon fill="none" stroke="#000000" points="81,-192.5 81,-222.5 337,-222.5 337,-192.5 81,-192.5"/>
<text text-anchor="start" x="88" y="-203.9" font-family="Arial" font-size="14.00" fill="#000000">code    </text>
<text text-anchor="start" x="152.5526" y="-203.9" font-family="Arial" font-size="14.00" fill="#666666">[varchar(20)]</text>
<polygon fill="none" stroke="#000000" points="81,-162.5 81,-192.5 337,-192.5 337,-162.5 81,-162.5"/>
<text text-anchor="start" x="88" y="-173.9" font-family="Arial" font-size="14.00" fill="#000000">description    </text>
<text text-anchor="start" x="189.8822" y="-173.9" font-family="Arial" font-size="14.00" fill="#666666">[json]</text>
<polygon fill="none" stroke="#000000" points="81,-132.5 81,-162.5 337,-162.5 337,-132.5 81,-132.5"/>
<text text-anchor="start" x="88" y="-143.9" font-family="Arial" font-size="14.00" fill="#000000">is_locked    </text>
<text text-anchor="start" x="180.5484" y="-143.9" font-family="Arial" font-size="14.00" fill="#666666">[tinyint(1)]</text>
<polygon fill="none" stroke="#000000" points="81,-102.5 81,-132.5 337,-132.5 337,-102.5 81,-102.5"/>
<text text-anchor="start" x="88" y="-113.9" font-family="Arial" font-size="14.00" fill="#000000">created_at    </text>
<text text-anchor="start" x="188.3422" y="-113.9" font-family="Arial" font-size="14.00" fill="#666666">[timestamp]</text>
<polygon fill="none" stroke="#000000" points="81,-72.5 81,-102.5 337,-102.5 337,-72.5 81,-72.5"/>
<text text-anchor="start" x="88" y="-83.9" font-family="Arial" font-size="14.00" fill="#000000">updated_at    </text>
<text text-anchor="start" x="192.2468" y="-83.9" font-family="Arial" font-size="14.00" fill="#666666">[timestamp]</text>
<polygon fill="none" stroke="#000000" points="81,-42.5 81,-72.5 337,-72.5 337,-42.5 81,-42.5"/>
<text text-anchor="start" x="88" y="-53.9" font-family="Arial" font-size="14.00" fill="#000000">deleted_at    </text>
<text text-anchor="start" x="187.5708" y="-53.9" font-family="Arial" font-size="14.00" fill="#666666">[timestamp]</text>
</g>
<!-- service_code_mapping&#45;&gt;service_codes -->
<g id="edge1" class="edge">
<title>service_code_mapping:service_code_id&#45;&gt;service_codes:id</title>
<path fill="none" stroke="#000000" d="M381.7275,-514.9069C430.6527,-486.6795 396.1547,-237.5 337,-237.5"/>
<polygon fill="#000000" stroke="#000000" points="381.6626,-514.9241 370.8409,-513.1518 376.8313,-516.2121 372,-517.5 372,-517.5 372,-517.5 376.8313,-516.2121 373.1591,-521.8482 381.6626,-514.9241 381.6626,-514.9241"/>
<text text-anchor="start" x="379.49" y="-527.5" font-family="Arial" font-size="10.00" fill="#000000">FOREIGN KEY (service_code_id) REFERENCES service_codes (id)</text>
</g>
</g>
</svg>
