<?xml version="1.0" encoding="UTF-8" standalone="no"?>
<!DOCTYPE svg PUBLIC "-//W3C//DTD SVG 1.1//EN"
 "http://www.w3.org/Graphics/SVG/1.1/DTD/svg11.dtd">
<!-- Generated by graphviz version 2.40.1 (20161225.0304)
 -->
<!-- Title: service_code_groups Pages: 1 -->
<svg width="722pt" height="862pt"
 viewBox="0.00 0.00 722.00 862.00" xmlns="http://www.w3.org/2000/svg" xmlns:xlink="http://www.w3.org/1999/xlink">
<g id="graph0" class="graph" transform="scale(1 1) rotate(0) translate(4 858)">
<title>service_code_groups</title>
<polygon fill="#ffffff" stroke="transparent" points="-4,4 -4,-858 718,-858 718,4 -4,4"/>
<!-- service_code_groups -->
<g id="node1" class="node">
<title>service_code_groups</title>
<polygon fill="#efefef" stroke="transparent" points="46,-772.5 46,-807.5 358,-807.5 358,-772.5 46,-772.5"/>
<polygon fill="none" stroke="#000000" points="46,-772.5 46,-807.5 358,-807.5 358,-772.5 46,-772.5"/>
<text text-anchor="start" x="52.6926" y="-785.3" font-family="Arial Bold" font-size="18.00" fill="#000000">service_code_groups</text>
<text text-anchor="start" x="223.7394" y="-785.3" font-family="Arial" font-size="14.00" fill="#000000">    </text>
<text text-anchor="start" x="257.9442" y="-785.3" font-family="Arial" font-size="14.00" fill="#666666">[BASE TABLE]</text>
<polygon fill="none" stroke="#000000" points="46,-742.5 46,-772.5 358,-772.5 358,-742.5 46,-742.5"/>
<text text-anchor="start" x="53" y="-753.9" font-family="Arial" font-size="14.00" fill="#000000">id </text>
<text text-anchor="start" x="67.7798" y="-753.9" font-family="Arial" font-size="14.00" fill="#666666">[char(36)]</text>
<polygon fill="none" stroke="#000000" points="46,-712.5 46,-742.5 358,-742.5 358,-712.5 46,-712.5"/>
<text text-anchor="start" x="53" y="-723.9" font-family="Arial" font-size="14.00" fill="#000000">name </text>
<text text-anchor="start" x="91.899" y="-723.9" font-family="Arial" font-size="14.00" fill="#666666">[json]</text>
<polygon fill="none" stroke="#000000" points="46,-682.5 46,-712.5 358,-712.5 358,-682.5 46,-682.5"/>
<text text-anchor="start" x="53" y="-693.9" font-family="Arial" font-size="14.00" fill="#000000">description </text>
<text text-anchor="start" x="124.568" y="-693.9" font-family="Arial" font-size="14.00" fill="#666666">[json]</text>
<polygon fill="none" stroke="#000000" points="46,-652.5 46,-682.5 358,-682.5 358,-652.5 46,-652.5"/>
<text text-anchor="start" x="53" y="-663.9" font-family="Arial" font-size="14.00" fill="#000000">status </text>
<text text-anchor="start" x="94.237" y="-663.9" font-family="Arial" font-size="14.00" fill="#666666">[varchar(30)]</text>
<polygon fill="none" stroke="#000000" points="46,-622.5 46,-652.5 358,-652.5 358,-622.5 46,-622.5"/>
<text text-anchor="start" x="53" y="-633.9" font-family="Arial" font-size="14.00" fill="#000000">is_locked </text>
<text text-anchor="start" x="115.2342" y="-633.9" font-family="Arial" font-size="14.00" fill="#666666">[tinyint(1)]</text>
<polygon fill="none" stroke="#000000" points="46,-592.5 46,-622.5 358,-622.5 358,-592.5 46,-592.5"/>
<text text-anchor="start" x="53" y="-603.9" font-family="Arial" font-size="14.00" fill="#000000">effective_date </text>
<text text-anchor="start" x="144.0378" y="-603.9" font-family="Arial" font-size="14.00" fill="#666666">[date]</text>
<polygon fill="none" stroke="#000000" points="46,-562.5 46,-592.5 358,-592.5 358,-562.5 46,-562.5"/>
<text text-anchor="start" x="53" y="-573.9" font-family="Arial" font-size="14.00" fill="#000000">service_code_set_id </text>
<text text-anchor="start" x="184.481" y="-573.9" font-family="Arial" font-size="14.00" fill="#666666">[char(36)]</text>
<polygon fill="none" stroke="#000000" points="46,-532.5 46,-562.5 358,-562.5 358,-532.5 46,-532.5"/>
<text text-anchor="start" x="53" y="-543.9" font-family="Arial" font-size="14.00" fill="#000000">created_at </text>
<text text-anchor="start" x="123.028" y="-543.9" font-family="Arial" font-size="14.00" fill="#666666">[timestamp]</text>
<polygon fill="none" stroke="#000000" points="46,-502.5 46,-532.5 358,-532.5 358,-502.5 46,-502.5"/>
<text text-anchor="start" x="53" y="-513.9" font-family="Arial" font-size="14.00" fill="#000000">updated_at </text>
<text text-anchor="start" x="126.9326" y="-513.9" font-family="Arial" font-size="14.00" fill="#666666">[timestamp]</text>
<polygon fill="none" stroke="#000000" points="46,-472.5 46,-502.5 358,-502.5 358,-472.5 46,-472.5"/>
<text text-anchor="start" x="53" y="-483.9" font-family="Arial" font-size="14.00" fill="#000000">deleted_at </text>
<text text-anchor="start" x="122.2566" y="-483.9" font-family="Arial" font-size="14.00" fill="#666666">[timestamp]</text>
<polygon fill="none" stroke="#000000" stroke-width="3" points="44.5,-471.5 44.5,-809.5 359.5,-809.5 359.5,-471.5 44.5,-471.5"/>
</g>
<!-- service_code_sets -->
<g id="node2" class="node">
<title>service_code_sets</title>
<polygon fill="#efefef" stroke="transparent" points="57,-312.5 57,-347.5 347,-347.5 347,-312.5 57,-312.5"/>
<polygon fill="none" stroke="#000000" points="57,-312.5 57,-347.5 347,-347.5 347,-312.5 57,-312.5"/>
<text text-anchor="start" x="63.6969" y="-325.3" font-family="Arial Bold" font-size="18.00" fill="#000000">service_code_sets</text>
<text text-anchor="start" x="212.7351" y="-325.3" font-family="Arial" font-size="14.00" fill="#000000">    </text>
<text text-anchor="start" x="246.9399" y="-325.3" font-family="Arial" font-size="14.00" fill="#666666">[BASE TABLE]</text>
<polygon fill="none" stroke="#000000" points="57,-282.5 57,-312.5 347,-312.5 347,-282.5 57,-282.5"/>
<text text-anchor="start" x="64" y="-293.9" font-family="Arial" font-size="14.00" fill="#000000">id    </text>
<text text-anchor="start" x="109.094" y="-293.9" font-family="Arial" font-size="14.00" fill="#666666">[char(36)]</text>
<polygon fill="none" stroke="#000000" points="57,-252.5 57,-282.5 347,-282.5 347,-252.5 57,-252.5"/>
<text text-anchor="start" x="64" y="-263.9" font-family="Arial" font-size="14.00" fill="#000000">name    </text>
<text text-anchor="start" x="133.2132" y="-263.9" font-family="Arial" font-size="14.00" fill="#666666">[json]</text>
<polygon fill="none" stroke="#000000" points="57,-222.5 57,-252.5 347,-252.5 347,-222.5 57,-222.5"/>
<text text-anchor="start" x="64" y="-233.9" font-family="Arial" font-size="14.00" fill="#000000">description    </text>
<text text-anchor="start" x="165.8822" y="-233.9" font-family="Arial" font-size="14.00" fill="#666666">[json]</text>
<polygon fill="none" stroke="#000000" points="57,-192.5 57,-222.5 347,-222.5 347,-192.5 57,-192.5"/>
<text text-anchor="start" x="64" y="-203.9" font-family="Arial" font-size="14.00" fill="#000000">status    </text>
<text text-anchor="start" x="135.5512" y="-203.9" font-family="Arial" font-size="14.00" fill="#666666">[varchar(30)]</text>
<polygon fill="none" stroke="#000000" points="57,-162.5 57,-192.5 347,-192.5 347,-162.5 57,-162.5"/>
<text text-anchor="start" x="64" y="-173.9" font-family="Arial" font-size="14.00" fill="#000000">is_locked    </text>
<text text-anchor="start" x="156.5484" y="-173.9" font-family="Arial" font-size="14.00" fill="#666666">[tinyint(1)]</text>
<polygon fill="none" stroke="#000000" points="57,-132.5 57,-162.5 347,-162.5 347,-132.5 57,-132.5"/>
<text text-anchor="start" x="64" y="-143.9" font-family="Arial" font-size="14.00" fill="#000000">effective_date    </text>
<text text-anchor="start" x="185.352" y="-143.9" font-family="Arial" font-size="14.00" fill="#666666">[date]</text>
<polygon fill="none" stroke="#000000" points="57,-102.5 57,-132.5 347,-132.5 347,-102.5 57,-102.5"/>
<text text-anchor="start" x="64" y="-113.9" font-family="Arial" font-size="14.00" fill="#000000">created_at    </text>
<text text-anchor="start" x="164.3422" y="-113.9" font-family="Arial" font-size="14.00" fill="#666666">[timestamp]</text>
<polygon fill="none" stroke="#000000" points="57,-72.5 57,-102.5 347,-102.5 347,-72.5 57,-72.5"/>
<text text-anchor="start" x="64" y="-83.9" font-family="Arial" font-size="14.00" fill="#000000">updated_at    </text>
<text text-anchor="start" x="168.2468" y="-83.9" font-family="Arial" font-size="14.00" fill="#666666">[timestamp]</text>
<polygon fill="none" stroke="#000000" points="57,-42.5 57,-72.5 347,-72.5 347,-42.5 57,-42.5"/>
<text text-anchor="start" x="64" y="-53.9" font-family="Arial" font-size="14.00" fill="#000000">deleted_at    </text>
<text text-anchor="start" x="163.5708" y="-53.9" font-family="Arial" font-size="14.00" fill="#666666">[timestamp]</text>
</g>
<!-- service_code_groups&#45;&gt;service_code_sets -->
<g id="edge1" class="edge">
<title>service_code_groups:service_code_set_id&#45;&gt;service_code_sets:id</title>
<path fill="none" stroke="#000000" d="M367.8799,-574.9069C418.8596,-546.6795 405.7432,-297.5 347,-297.5"/>
<polygon fill="#000000" stroke="#000000" points="367.6724,-574.9613 356.8576,-573.1474 362.8362,-576.2306 358,-577.5 358,-577.5 358,-577.5 362.8362,-576.2306 359.1424,-581.8526 367.6724,-574.9613 367.6724,-574.9613"/>
<text text-anchor="start" x="364.593" y="-587.5" font-family="Arial" font-size="10.00" fill="#000000">FOREIGN KEY (service_code_set_id) REFERENCES service_code_sets (id)</text>
</g>
</g>
</svg>
