<?xml version="1.0" encoding="UTF-8" standalone="no"?>
<!DOCTYPE svg PUBLIC "-//W3C//DTD SVG 1.1//EN"
 "http://www.w3.org/Graphics/SVG/1.1/DTD/svg11.dtd">
<!-- Generated by graphviz version 2.40.1 (20161225.0304)
 -->
<!-- Title: service_code_sets Pages: 1 -->
<svg width="719pt" height="862pt"
 viewBox="0.00 0.00 719.00 862.00" xmlns="http://www.w3.org/2000/svg" xmlns:xlink="http://www.w3.org/1999/xlink">
<g id="graph0" class="graph" transform="scale(1 1) rotate(0) translate(4 858)">
<title>service_code_sets</title>
<polygon fill="#ffffff" stroke="transparent" points="-4,4 -4,-858 715,-858 715,4 -4,4"/>
<!-- service_code_sets -->
<g id="node1" class="node">
<title>service_code_sets</title>
<polygon fill="#efefef" stroke="transparent" points="54,-315.5 54,-350.5 344,-350.5 344,-315.5 54,-315.5"/>
<polygon fill="none" stroke="#000000" points="54,-315.5 54,-350.5 344,-350.5 344,-315.5 54,-315.5"/>
<text text-anchor="start" x="60.6969" y="-328.3" font-family="Arial Bold" font-size="18.00" fill="#000000">service_code_sets</text>
<text text-anchor="start" x="209.7351" y="-328.3" font-family="Arial" font-size="14.00" fill="#000000">    </text>
<text text-anchor="start" x="243.9399" y="-328.3" font-family="Arial" font-size="14.00" fill="#666666">[BASE TABLE]</text>
<polygon fill="none" stroke="#000000" points="54,-285.5 54,-315.5 344,-315.5 344,-285.5 54,-285.5"/>
<text text-anchor="start" x="61" y="-296.9" font-family="Arial" font-size="14.00" fill="#000000">id </text>
<text text-anchor="start" x="75.7798" y="-296.9" font-family="Arial" font-size="14.00" fill="#666666">[char(36)]</text>
<polygon fill="none" stroke="#000000" points="54,-255.5 54,-285.5 344,-285.5 344,-255.5 54,-255.5"/>
<text text-anchor="start" x="61" y="-266.9" font-family="Arial" font-size="14.00" fill="#000000">name </text>
<text text-anchor="start" x="99.899" y="-266.9" font-family="Arial" font-size="14.00" fill="#666666">[json]</text>
<polygon fill="none" stroke="#000000" points="54,-225.5 54,-255.5 344,-255.5 344,-225.5 54,-225.5"/>
<text text-anchor="start" x="61" y="-236.9" font-family="Arial" font-size="14.00" fill="#000000">description </text>
<text text-anchor="start" x="132.568" y="-236.9" font-family="Arial" font-size="14.00" fill="#666666">[json]</text>
<polygon fill="none" stroke="#000000" points="54,-195.5 54,-225.5 344,-225.5 344,-195.5 54,-195.5"/>
<text text-anchor="start" x="61" y="-206.9" font-family="Arial" font-size="14.00" fill="#000000">status </text>
<text text-anchor="start" x="102.237" y="-206.9" font-family="Arial" font-size="14.00" fill="#666666">[varchar(30)]</text>
<polygon fill="none" stroke="#000000" points="54,-165.5 54,-195.5 344,-195.5 344,-165.5 54,-165.5"/>
<text text-anchor="start" x="61" y="-176.9" font-family="Arial" font-size="14.00" fill="#000000">is_locked </text>
<text text-anchor="start" x="123.2342" y="-176.9" font-family="Arial" font-size="14.00" fill="#666666">[tinyint(1)]</text>
<polygon fill="none" stroke="#000000" points="54,-135.5 54,-165.5 344,-165.5 344,-135.5 54,-135.5"/>
<text text-anchor="start" x="61" y="-146.9" font-family="Arial" font-size="14.00" fill="#000000">effective_date </text>
<text text-anchor="start" x="152.0378" y="-146.9" font-family="Arial" font-size="14.00" fill="#666666">[date]</text>
<polygon fill="none" stroke="#000000" points="54,-105.5 54,-135.5 344,-135.5 344,-105.5 54,-105.5"/>
<text text-anchor="start" x="61" y="-116.9" font-family="Arial" font-size="14.00" fill="#000000">created_at </text>
<text text-anchor="start" x="131.028" y="-116.9" font-family="Arial" font-size="14.00" fill="#666666">[timestamp]</text>
<polygon fill="none" stroke="#000000" points="54,-75.5 54,-105.5 344,-105.5 344,-75.5 54,-75.5"/>
<text text-anchor="start" x="61" y="-86.9" font-family="Arial" font-size="14.00" fill="#000000">updated_at </text>
<text text-anchor="start" x="134.9326" y="-86.9" font-family="Arial" font-size="14.00" fill="#666666">[timestamp]</text>
<polygon fill="none" stroke="#000000" points="54,-45.5 54,-75.5 344,-75.5 344,-45.5 54,-45.5"/>
<text text-anchor="start" x="61" y="-56.9" font-family="Arial" font-size="14.00" fill="#000000">deleted_at </text>
<text text-anchor="start" x="130.2566" y="-56.9" font-family="Arial" font-size="14.00" fill="#666666">[timestamp]</text>
<polygon fill="none" stroke="#000000" stroke-width="3" points="52.5,-44.5 52.5,-352.5 345.5,-352.5 345.5,-44.5 52.5,-44.5"/>
</g>
<!-- service_code_groups -->
<g id="node2" class="node">
<title>service_code_groups</title>
<polygon fill="#efefef" stroke="transparent" points="43,-775.5 43,-810.5 355,-810.5 355,-775.5 43,-775.5"/>
<polygon fill="none" stroke="#000000" points="43,-775.5 43,-810.5 355,-810.5 355,-775.5 43,-775.5"/>
<text text-anchor="start" x="49.6926" y="-788.3" font-family="Arial Bold" font-size="18.00" fill="#000000">service_code_groups</text>
<text text-anchor="start" x="220.7394" y="-788.3" font-family="Arial" font-size="14.00" fill="#000000">    </text>
<text text-anchor="start" x="254.9442" y="-788.3" font-family="Arial" font-size="14.00" fill="#666666">[BASE TABLE]</text>
<polygon fill="none" stroke="#000000" points="43,-745.5 43,-775.5 355,-775.5 355,-745.5 43,-745.5"/>
<text text-anchor="start" x="50" y="-756.9" font-family="Arial" font-size="14.00" fill="#000000">id    </text>
<text text-anchor="start" x="95.094" y="-756.9" font-family="Arial" font-size="14.00" fill="#666666">[char(36)]</text>
<polygon fill="none" stroke="#000000" points="43,-715.5 43,-745.5 355,-745.5 355,-715.5 43,-715.5"/>
<text text-anchor="start" x="50" y="-726.9" font-family="Arial" font-size="14.00" fill="#000000">name    </text>
<text text-anchor="start" x="119.2132" y="-726.9" font-family="Arial" font-size="14.00" fill="#666666">[json]</text>
<polygon fill="none" stroke="#000000" points="43,-685.5 43,-715.5 355,-715.5 355,-685.5 43,-685.5"/>
<text text-anchor="start" x="50" y="-696.9" font-family="Arial" font-size="14.00" fill="#000000">description    </text>
<text text-anchor="start" x="151.8822" y="-696.9" font-family="Arial" font-size="14.00" fill="#666666">[json]</text>
<polygon fill="none" stroke="#000000" points="43,-655.5 43,-685.5 355,-685.5 355,-655.5 43,-655.5"/>
<text text-anchor="start" x="50" y="-666.9" font-family="Arial" font-size="14.00" fill="#000000">status    </text>
<text text-anchor="start" x="121.5512" y="-666.9" font-family="Arial" font-size="14.00" fill="#666666">[varchar(30)]</text>
<polygon fill="none" stroke="#000000" points="43,-625.5 43,-655.5 355,-655.5 355,-625.5 43,-625.5"/>
<text text-anchor="start" x="50" y="-636.9" font-family="Arial" font-size="14.00" fill="#000000">is_locked    </text>
<text text-anchor="start" x="142.5484" y="-636.9" font-family="Arial" font-size="14.00" fill="#666666">[tinyint(1)]</text>
<polygon fill="none" stroke="#000000" points="43,-595.5 43,-625.5 355,-625.5 355,-595.5 43,-595.5"/>
<text text-anchor="start" x="50" y="-606.9" font-family="Arial" font-size="14.00" fill="#000000">effective_date    </text>
<text text-anchor="start" x="171.352" y="-606.9" font-family="Arial" font-size="14.00" fill="#666666">[date]</text>
<polygon fill="none" stroke="#000000" points="43,-565.5 43,-595.5 355,-595.5 355,-565.5 43,-565.5"/>
<text text-anchor="start" x="50" y="-576.9" font-family="Arial" font-size="14.00" fill="#000000">service_code_set_id    </text>
<text text-anchor="start" x="211.7952" y="-576.9" font-family="Arial" font-size="14.00" fill="#666666">[char(36)]</text>
<polygon fill="none" stroke="#000000" points="43,-535.5 43,-565.5 355,-565.5 355,-535.5 43,-535.5"/>
<text text-anchor="start" x="50" y="-546.9" font-family="Arial" font-size="14.00" fill="#000000">created_at    </text>
<text text-anchor="start" x="150.3422" y="-546.9" font-family="Arial" font-size="14.00" fill="#666666">[timestamp]</text>
<polygon fill="none" stroke="#000000" points="43,-505.5 43,-535.5 355,-535.5 355,-505.5 43,-505.5"/>
<text text-anchor="start" x="50" y="-516.9" font-family="Arial" font-size="14.00" fill="#000000">updated_at    </text>
<text text-anchor="start" x="154.2468" y="-516.9" font-family="Arial" font-size="14.00" fill="#666666">[timestamp]</text>
<polygon fill="none" stroke="#000000" points="43,-475.5 43,-505.5 355,-505.5 355,-475.5 43,-475.5"/>
<text text-anchor="start" x="50" y="-486.9" font-family="Arial" font-size="14.00" fill="#000000">deleted_at    </text>
<text text-anchor="start" x="149.5708" y="-486.9" font-family="Arial" font-size="14.00" fill="#666666">[timestamp]</text>
</g>
<!-- service_code_groups&#45;&gt;service_code_sets -->
<g id="edge1" class="edge">
<title>service_code_groups:service_code_set_id&#45;&gt;service_code_sets:id</title>
<path fill="none" stroke="#000000" d="M364.8799,-577.9069C415.8596,-549.6795 402.7432,-300.5 344,-300.5"/>
<polygon fill="#000000" stroke="#000000" points="364.6724,-577.9613 353.8576,-576.1474 359.8362,-579.2306 355,-580.5 355,-580.5 355,-580.5 359.8362,-579.2306 356.1424,-584.8526 364.6724,-577.9613 364.6724,-577.9613"/>
<text text-anchor="start" x="361.593" y="-590.5" font-family="Arial" font-size="10.00" fill="#000000">FOREIGN KEY (service_code_set_id) REFERENCES service_code_sets (id)</text>
</g>
</g>
</svg>
