<?xml version="1.0" encoding="UTF-8" standalone="no"?>
<!DOCTYPE svg PUBLIC "-//W3C//DTD SVG 1.1//EN"
 "http://www.w3.org/Graphics/SVG/1.1/DTD/svg11.dtd">
<!-- Generated by graphviz version 2.40.1 (20161225.0304)
 -->
<!-- Title: service_codes Pages: 1 -->
<svg width="696pt" height="712pt"
 viewBox="0.00 0.00 696.00 712.00" xmlns="http://www.w3.org/2000/svg" xmlns:xlink="http://www.w3.org/1999/xlink">
<g id="graph0" class="graph" transform="scale(1 1) rotate(0) translate(4 708)">
<title>service_codes</title>
<polygon fill="#ffffff" stroke="transparent" points="-4,4 -4,-708 692,-708 692,4 -4,4"/>
<!-- service_codes -->
<g id="node1" class="node">
<title>service_codes</title>
<polygon fill="#efefef" stroke="transparent" points="78,-255.5 78,-290.5 334,-290.5 334,-255.5 78,-255.5"/>
<polygon fill="none" stroke="#000000" points="78,-255.5 78,-290.5 334,-290.5 334,-255.5 78,-255.5"/>
<text text-anchor="start" x="84.7042" y="-268.3" font-family="Arial Bold" font-size="18.00" fill="#000000">service_codes</text>
<text text-anchor="start" x="199.7278" y="-268.3" font-family="Arial" font-size="14.00" fill="#000000">    </text>
<text text-anchor="start" x="233.9326" y="-268.3" font-family="Arial" font-size="14.00" fill="#666666">[BASE TABLE]</text>
<polygon fill="none" stroke="#000000" points="78,-225.5 78,-255.5 334,-255.5 334,-225.5 78,-225.5"/>
<text text-anchor="start" x="85" y="-236.9" font-family="Arial" font-size="14.00" fill="#000000">id </text>
<text text-anchor="start" x="99.7798" y="-236.9" font-family="Arial" font-size="14.00" fill="#666666">[char(36)]</text>
<polygon fill="none" stroke="#000000" points="78,-195.5 78,-225.5 334,-225.5 334,-195.5 78,-195.5"/>
<text text-anchor="start" x="85" y="-206.9" font-family="Arial" font-size="14.00" fill="#000000">code </text>
<text text-anchor="start" x="119.2384" y="-206.9" font-family="Arial" font-size="14.00" fill="#666666">[varchar(20)]</text>
<polygon fill="none" stroke="#000000" points="78,-165.5 78,-195.5 334,-195.5 334,-165.5 78,-165.5"/>
<text text-anchor="start" x="85" y="-176.9" font-family="Arial" font-size="14.00" fill="#000000">description </text>
<text text-anchor="start" x="156.568" y="-176.9" font-family="Arial" font-size="14.00" fill="#666666">[json]</text>
<polygon fill="none" stroke="#000000" points="78,-135.5 78,-165.5 334,-165.5 334,-135.5 78,-135.5"/>
<text text-anchor="start" x="85" y="-146.9" font-family="Arial" font-size="14.00" fill="#000000">is_locked </text>
<text text-anchor="start" x="147.2342" y="-146.9" font-family="Arial" font-size="14.00" fill="#666666">[tinyint(1)]</text>
<polygon fill="none" stroke="#000000" points="78,-105.5 78,-135.5 334,-135.5 334,-105.5 78,-105.5"/>
<text text-anchor="start" x="85" y="-116.9" font-family="Arial" font-size="14.00" fill="#000000">created_at </text>
<text text-anchor="start" x="155.028" y="-116.9" font-family="Arial" font-size="14.00" fill="#666666">[timestamp]</text>
<polygon fill="none" stroke="#000000" points="78,-75.5 78,-105.5 334,-105.5 334,-75.5 78,-75.5"/>
<text text-anchor="start" x="85" y="-86.9" font-family="Arial" font-size="14.00" fill="#000000">updated_at </text>
<text text-anchor="start" x="158.9326" y="-86.9" font-family="Arial" font-size="14.00" fill="#666666">[timestamp]</text>
<polygon fill="none" stroke="#000000" points="78,-45.5 78,-75.5 334,-75.5 334,-45.5 78,-45.5"/>
<text text-anchor="start" x="85" y="-56.9" font-family="Arial" font-size="14.00" fill="#000000">deleted_at </text>
<text text-anchor="start" x="154.2566" y="-56.9" font-family="Arial" font-size="14.00" fill="#666666">[timestamp]</text>
<polygon fill="none" stroke="#000000" stroke-width="3" points="76.5,-44.5 76.5,-292.5 335.5,-292.5 335.5,-44.5 76.5,-44.5"/>
</g>
<!-- service_code_mapping -->
<g id="node2" class="node">
<title>service_code_mapping</title>
<polygon fill="#efefef" stroke="transparent" points="43,-625.5 43,-660.5 369,-660.5 369,-625.5 43,-625.5"/>
<polygon fill="none" stroke="#000000" points="43,-625.5 43,-660.5 369,-660.5 369,-625.5 43,-625.5"/>
<text text-anchor="start" x="49.6924" y="-638.3" font-family="Arial Bold" font-size="18.00" fill="#000000">service_code_mapping</text>
<text text-anchor="start" x="234.7396" y="-638.3" font-family="Arial" font-size="14.00" fill="#000000">    </text>
<text text-anchor="start" x="268.9444" y="-638.3" font-family="Arial" font-size="14.00" fill="#666666">[BASE TABLE]</text>
<polygon fill="none" stroke="#000000" points="43,-595.5 43,-625.5 369,-625.5 369,-595.5 43,-595.5"/>
<text text-anchor="start" x="50" y="-606.9" font-family="Arial" font-size="14.00" fill="#000000">id    </text>
<text text-anchor="start" x="95.094" y="-606.9" font-family="Arial" font-size="14.00" fill="#666666">[char(36)]</text>
<polygon fill="none" stroke="#000000" points="43,-565.5 43,-595.5 369,-595.5 369,-565.5 43,-565.5"/>
<text text-anchor="start" x="50" y="-576.9" font-family="Arial" font-size="14.00" fill="#000000">mappable_type    </text>
<text text-anchor="start" x="179.906" y="-576.9" font-family="Arial" font-size="14.00" fill="#666666">[varchar(255)]</text>
<polygon fill="none" stroke="#000000" points="43,-535.5 43,-565.5 369,-565.5 369,-535.5 43,-535.5"/>
<text text-anchor="start" x="50" y="-546.9" font-family="Arial" font-size="14.00" fill="#000000">mappable_id    </text>
<text text-anchor="start" x="164.3394" y="-546.9" font-family="Arial" font-size="14.00" fill="#666666">[char(36)]</text>
<polygon fill="none" stroke="#000000" points="43,-505.5 43,-535.5 369,-535.5 369,-505.5 43,-505.5"/>
<text text-anchor="start" x="50" y="-516.9" font-family="Arial" font-size="14.00" fill="#000000">service_code_id    </text>
<text text-anchor="start" x="185.3394" y="-516.9" font-family="Arial" font-size="14.00" fill="#666666">[char(36)]</text>
<polygon fill="none" stroke="#000000" points="43,-475.5 43,-505.5 369,-505.5 369,-475.5 43,-475.5"/>
<text text-anchor="start" x="50" y="-486.9" font-family="Arial" font-size="14.00" fill="#000000">created_at    </text>
<text text-anchor="start" x="150.3422" y="-486.9" font-family="Arial" font-size="14.00" fill="#666666">[timestamp]</text>
<polygon fill="none" stroke="#000000" points="43,-445.5 43,-475.5 369,-475.5 369,-445.5 43,-445.5"/>
<text text-anchor="start" x="50" y="-456.9" font-family="Arial" font-size="14.00" fill="#000000">updated_at    </text>
<text text-anchor="start" x="154.2468" y="-456.9" font-family="Arial" font-size="14.00" fill="#666666">[timestamp]</text>
<polygon fill="none" stroke="#000000" points="43,-415.5 43,-445.5 369,-445.5 369,-415.5 43,-415.5"/>
<text text-anchor="start" x="50" y="-426.9" font-family="Arial" font-size="14.00" fill="#000000">deleted_at    </text>
<text text-anchor="start" x="149.5708" y="-426.9" font-family="Arial" font-size="14.00" fill="#666666">[timestamp]</text>
</g>
<!-- service_code_mapping&#45;&gt;service_codes -->
<g id="edge1" class="edge">
<title>service_code_mapping:service_code_id&#45;&gt;service_codes:id</title>
<path fill="none" stroke="#000000" d="M378.7275,-517.9069C427.6527,-489.6795 393.1547,-240.5 334,-240.5"/>
<polygon fill="#000000" stroke="#000000" points="378.6626,-517.9241 367.8409,-516.1518 373.8313,-519.2121 369,-520.5 369,-520.5 369,-520.5 373.8313,-519.2121 370.1591,-524.8482 378.6626,-517.9241 378.6626,-517.9241"/>
<text text-anchor="start" x="376.49" y="-530.5" font-family="Arial" font-size="10.00" fill="#000000">FOREIGN KEY (service_code_id) REFERENCES service_codes (id)</text>
</g>
</g>
</svg>
