<?xml version="1.0" encoding="UTF-8" standalone="no"?>
<!DOCTYPE svg PUBLIC "-//W3C//DTD SVG 1.1//EN"
 "http://www.w3.org/Graphics/SVG/1.1/DTD/svg11.dtd">
<!-- Generated by graphviz version 2.40.1 (20161225.0304)
 -->
<!-- Title: taggables Pages: 1 -->
<svg width="503pt" height="622pt"
 viewBox="0.00 0.00 502.50 622.00" xmlns="http://www.w3.org/2000/svg" xmlns:xlink="http://www.w3.org/1999/xlink">
<g id="graph0" class="graph" transform="scale(1 1) rotate(0) translate(4 618)">
<title>taggables</title>
<polygon fill="#ffffff" stroke="transparent" points="-4,4 -4,-618 498.5,-618 498.5,4 -4,4"/>
<!-- taggables -->
<g id="node1" class="node">
<title>taggables</title>
<polygon fill="#efefef" stroke="transparent" points="46.5,-532.5 46.5,-567.5 265.5,-567.5 265.5,-532.5 46.5,-532.5"/>
<polygon fill="none" stroke="#000000" points="46.5,-532.5 46.5,-567.5 265.5,-567.5 265.5,-532.5 46.5,-532.5"/>
<text text-anchor="start" x="53.1992" y="-545.3" font-family="Arial Bold" font-size="18.00" fill="#000000">taggables</text>
<text text-anchor="start" x="131.2328" y="-545.3" font-family="Arial" font-size="14.00" fill="#000000">    </text>
<text text-anchor="start" x="165.4376" y="-545.3" font-family="Arial" font-size="14.00" fill="#666666">[BASE TABLE]</text>
<polygon fill="none" stroke="#000000" points="46.5,-502.5 46.5,-532.5 265.5,-532.5 265.5,-502.5 46.5,-502.5"/>
<text text-anchor="start" x="53.5" y="-513.9" font-family="Arial" font-size="14.00" fill="#000000">tag_id </text>
<text text-anchor="start" x="95.5182" y="-513.9" font-family="Arial" font-size="14.00" fill="#666666">[char(36)]</text>
<polygon fill="none" stroke="#000000" points="46.5,-472.5 46.5,-502.5 265.5,-502.5 265.5,-472.5 46.5,-472.5"/>
<text text-anchor="start" x="53.5" y="-483.9" font-family="Arial" font-size="14.00" fill="#000000">taggable_type </text>
<text text-anchor="start" x="145.3218" y="-483.9" font-family="Arial" font-size="14.00" fill="#666666">[varchar(255)]</text>
<polygon fill="none" stroke="#000000" points="46.5,-442.5 46.5,-472.5 265.5,-472.5 265.5,-442.5 46.5,-442.5"/>
<text text-anchor="start" x="53.5" y="-453.9" font-family="Arial" font-size="14.00" fill="#000000">taggable_id </text>
<text text-anchor="start" x="129.7552" y="-453.9" font-family="Arial" font-size="14.00" fill="#666666">[char(36)]</text>
<polygon fill="none" stroke="#000000" stroke-width="3" points="44.5,-441.5 44.5,-569.5 266.5,-569.5 266.5,-441.5 44.5,-441.5"/>
</g>
<!-- tags -->
<g id="node2" class="node">
<title>tags</title>
<polygon fill="#efefef" stroke="transparent" points="61.5,-282.5 61.5,-317.5 251.5,-317.5 251.5,-282.5 61.5,-282.5"/>
<polygon fill="none" stroke="#000000" points="61.5,-282.5 61.5,-317.5 251.5,-317.5 251.5,-282.5 61.5,-282.5"/>
<text text-anchor="start" x="75.7087" y="-295.3" font-family="Arial Bold" font-size="18.00" fill="#000000">tags</text>
<text text-anchor="start" x="109.7233" y="-295.3" font-family="Arial" font-size="14.00" fill="#000000">    </text>
<text text-anchor="start" x="143.9281" y="-295.3" font-family="Arial" font-size="14.00" fill="#666666">[BASE TABLE]</text>
<polygon fill="none" stroke="#000000" points="61.5,-252.5 61.5,-282.5 251.5,-282.5 251.5,-252.5 61.5,-252.5"/>
<text text-anchor="start" x="68.5" y="-263.9" font-family="Arial" font-size="14.00" fill="#000000">id    </text>
<text text-anchor="start" x="113.594" y="-263.9" font-family="Arial" font-size="14.00" fill="#666666">[char(36)]</text>
<polygon fill="none" stroke="#000000" points="61.5,-222.5 61.5,-252.5 251.5,-252.5 251.5,-222.5 61.5,-222.5"/>
<text text-anchor="start" x="68.5" y="-233.9" font-family="Arial" font-size="14.00" fill="#000000">name    </text>
<text text-anchor="start" x="137.7132" y="-233.9" font-family="Arial" font-size="14.00" fill="#666666">[json]</text>
<polygon fill="none" stroke="#000000" points="61.5,-192.5 61.5,-222.5 251.5,-222.5 251.5,-192.5 61.5,-192.5"/>
<text text-anchor="start" x="68.5" y="-203.9" font-family="Arial" font-size="14.00" fill="#000000">slug    </text>
<text text-anchor="start" x="128.3766" y="-203.9" font-family="Arial" font-size="14.00" fill="#666666">[json]</text>
<polygon fill="none" stroke="#000000" points="61.5,-162.5 61.5,-192.5 251.5,-192.5 251.5,-162.5 61.5,-162.5"/>
<text text-anchor="start" x="68.5" y="-173.9" font-family="Arial" font-size="14.00" fill="#000000">type    </text>
<text text-anchor="start" x="129.1606" y="-173.9" font-family="Arial" font-size="14.00" fill="#666666">[varchar(255)]</text>
<polygon fill="none" stroke="#000000" points="61.5,-132.5 61.5,-162.5 251.5,-162.5 251.5,-132.5 61.5,-132.5"/>
<text text-anchor="start" x="68.5" y="-143.9" font-family="Arial" font-size="14.00" fill="#000000">order_column    </text>
<text text-anchor="start" x="188.2714" y="-143.9" font-family="Arial" font-size="14.00" fill="#666666">[int]</text>
<polygon fill="none" stroke="#000000" points="61.5,-102.5 61.5,-132.5 251.5,-132.5 251.5,-102.5 61.5,-102.5"/>
<text text-anchor="start" x="68.5" y="-113.9" font-family="Arial" font-size="14.00" fill="#000000">created_at    </text>
<text text-anchor="start" x="168.8422" y="-113.9" font-family="Arial" font-size="14.00" fill="#666666">[timestamp]</text>
<polygon fill="none" stroke="#000000" points="61.5,-72.5 61.5,-102.5 251.5,-102.5 251.5,-72.5 61.5,-72.5"/>
<text text-anchor="start" x="68.2076" y="-83.9" font-family="Arial" font-size="14.00" fill="#000000">updated_at    </text>
<text text-anchor="start" x="172.4544" y="-83.9" font-family="Arial" font-size="14.00" fill="#666666">[timestamp]</text>
<polygon fill="none" stroke="#000000" points="61.5,-42.5 61.5,-72.5 251.5,-72.5 251.5,-42.5 61.5,-42.5"/>
<text text-anchor="start" x="68.5" y="-53.9" font-family="Arial" font-size="14.00" fill="#000000">deleted_at    </text>
<text text-anchor="start" x="168.0708" y="-53.9" font-family="Arial" font-size="14.00" fill="#666666">[timestamp]</text>
</g>
<!-- taggables&#45;&gt;tags -->
<g id="edge1" class="edge">
<title>taggables:tag_id&#45;&gt;tags:id</title>
<path fill="none" stroke="#000000" d="M275.4824,-516.4236C316.3682,-506.8144 297.5689,-435.2237 265.5,-397 206.325,-326.468 120.675,-431.532 61.5,-361 34.7908,-329.1647 19.9444,-267.5 61.5,-267.5"/>
<polygon fill="#000000" stroke="#000000" points="275.4424,-516.4278 265.0175,-513.0259 270.4712,-516.9639 265.5,-517.5 265.5,-517.5 265.5,-517.5 270.4712,-516.9639 265.9825,-521.9741 275.4424,-516.4278 275.4424,-516.4278"/>
<text text-anchor="start" x="272.995" y="-527.5" font-family="Arial" font-size="10.00" fill="#000000">FOREIGN KEY (tag_id) REFERENCES tags (id)</text>
</g>
</g>
</svg>
