<?xml version="1.0" encoding="UTF-8" standalone="no"?>
<!DOCTYPE svg PUBLIC "-//W3C//DTD SVG 1.1//EN"
 "http://www.w3.org/Graphics/SVG/1.1/DTD/svg11.dtd">
<!-- Generated by graphviz version 2.40.1 (20161225.0304)
 -->
<!-- Title: tags Pages: 1 -->
<svg width="503pt" height="622pt"
 viewBox="0.00 0.00 502.50 622.00" xmlns="http://www.w3.org/2000/svg" xmlns:xlink="http://www.w3.org/1999/xlink">
<g id="graph0" class="graph" transform="scale(1 1) rotate(0) translate(4 618)">
<title>tags</title>
<polygon fill="#ffffff" stroke="transparent" points="-4,4 -4,-618 498.5,-618 498.5,4 -4,4"/>
<!-- tags -->
<g id="node1" class="node">
<title>tags</title>
<polygon fill="#efefef" stroke="transparent" points="253,-285.5 253,-320.5 428,-320.5 428,-285.5 253,-285.5"/>
<polygon fill="none" stroke="#000000" points="253,-285.5 253,-320.5 428,-320.5 428,-285.5 253,-285.5"/>
<text text-anchor="start" x="259.7087" y="-298.3" font-family="Arial Bold" font-size="18.00" fill="#000000">tags</text>
<text text-anchor="start" x="293.7233" y="-298.3" font-family="Arial" font-size="14.00" fill="#000000">    </text>
<text text-anchor="start" x="327.9281" y="-298.3" font-family="Arial" font-size="14.00" fill="#666666">[BASE TABLE]</text>
<polygon fill="none" stroke="#000000" points="253,-255.5 253,-285.5 428,-285.5 428,-255.5 253,-255.5"/>
<text text-anchor="start" x="260" y="-266.9" font-family="Arial" font-size="14.00" fill="#000000">id </text>
<text text-anchor="start" x="274.7798" y="-266.9" font-family="Arial" font-size="14.00" fill="#666666">[char(36)]</text>
<polygon fill="none" stroke="#000000" points="253,-225.5 253,-255.5 428,-255.5 428,-225.5 253,-225.5"/>
<text text-anchor="start" x="260" y="-236.9" font-family="Arial" font-size="14.00" fill="#000000">name </text>
<text text-anchor="start" x="298.899" y="-236.9" font-family="Arial" font-size="14.00" fill="#666666">[json]</text>
<polygon fill="none" stroke="#000000" points="253,-195.5 253,-225.5 428,-225.5 428,-195.5 253,-195.5"/>
<text text-anchor="start" x="260" y="-206.9" font-family="Arial" font-size="14.00" fill="#000000">slug </text>
<text text-anchor="start" x="289.5624" y="-206.9" font-family="Arial" font-size="14.00" fill="#666666">[json]</text>
<polygon fill="none" stroke="#000000" points="253,-165.5 253,-195.5 428,-195.5 428,-165.5 253,-165.5"/>
<text text-anchor="start" x="260" y="-176.9" font-family="Arial" font-size="14.00" fill="#000000">type </text>
<text text-anchor="start" x="290.3464" y="-176.9" font-family="Arial" font-size="14.00" fill="#666666">[varchar(255)]</text>
<polygon fill="none" stroke="#000000" points="253,-135.5 253,-165.5 428,-165.5 428,-135.5 253,-135.5"/>
<text text-anchor="start" x="260" y="-146.9" font-family="Arial" font-size="14.00" fill="#000000">order_column </text>
<text text-anchor="start" x="349.4572" y="-146.9" font-family="Arial" font-size="14.00" fill="#666666">[int]</text>
<polygon fill="none" stroke="#000000" points="253,-105.5 253,-135.5 428,-135.5 428,-105.5 253,-105.5"/>
<text text-anchor="start" x="260" y="-116.9" font-family="Arial" font-size="14.00" fill="#000000">created_at </text>
<text text-anchor="start" x="330.028" y="-116.9" font-family="Arial" font-size="14.00" fill="#666666">[timestamp]</text>
<polygon fill="none" stroke="#000000" points="253,-75.5 253,-105.5 428,-105.5 428,-75.5 253,-75.5"/>
<text text-anchor="start" x="260" y="-86.9" font-family="Arial" font-size="14.00" fill="#000000">updated_at </text>
<text text-anchor="start" x="333.9326" y="-86.9" font-family="Arial" font-size="14.00" fill="#666666">[timestamp]</text>
<polygon fill="none" stroke="#000000" points="253,-45.5 253,-75.5 428,-75.5 428,-45.5 253,-45.5"/>
<text text-anchor="start" x="260" y="-56.9" font-family="Arial" font-size="14.00" fill="#000000">deleted_at </text>
<text text-anchor="start" x="329.2566" y="-56.9" font-family="Arial" font-size="14.00" fill="#666666">[timestamp]</text>
<polygon fill="none" stroke="#000000" stroke-width="3" points="251,-44.5 251,-322.5 429,-322.5 429,-44.5 251,-44.5"/>
</g>
<!-- taggables -->
<g id="node2" class="node">
<title>taggables</title>
<polygon fill="#efefef" stroke="transparent" points="229,-535.5 229,-570.5 452,-570.5 452,-535.5 229,-535.5"/>
<polygon fill="none" stroke="#000000" points="229,-535.5 229,-570.5 452,-570.5 452,-535.5 229,-535.5"/>
<text text-anchor="start" x="237.6992" y="-548.3" font-family="Arial Bold" font-size="18.00" fill="#000000">taggables</text>
<text text-anchor="start" x="315.7328" y="-548.3" font-family="Arial" font-size="14.00" fill="#000000">    </text>
<text text-anchor="start" x="349.9376" y="-548.3" font-family="Arial" font-size="14.00" fill="#666666">[BASE TABLE]</text>
<polygon fill="none" stroke="#000000" points="229,-505.5 229,-535.5 452,-535.5 452,-505.5 229,-505.5"/>
<text text-anchor="start" x="236" y="-516.9" font-family="Arial" font-size="14.00" fill="#000000">tag_id    </text>
<text text-anchor="start" x="308.3324" y="-516.9" font-family="Arial" font-size="14.00" fill="#666666">[char(36)]</text>
<polygon fill="none" stroke="#000000" points="229,-475.5 229,-505.5 452,-505.5 452,-475.5 229,-475.5"/>
<text text-anchor="start" x="235.8724" y="-486.9" font-family="Arial" font-size="14.00" fill="#000000">taggable_type    </text>
<text text-anchor="start" x="358.0084" y="-486.9" font-family="Arial" font-size="14.00" fill="#666666">[varchar(255)]</text>
<polygon fill="none" stroke="#000000" points="229,-445.5 229,-475.5 452,-475.5 452,-445.5 229,-445.5"/>
<text text-anchor="start" x="236" y="-456.9" font-family="Arial" font-size="14.00" fill="#000000">taggable_id    </text>
<text text-anchor="start" x="342.5694" y="-456.9" font-family="Arial" font-size="14.00" fill="#666666">[char(36)]</text>
</g>
<!-- taggables&#45;&gt;tags -->
<g id="edge1" class="edge">
<title>taggables:tag_id&#45;&gt;tags:id</title>
<path fill="none" stroke="#000000" d="M218.9313,-519.7828C118.9636,-505.1191 144.8662,-270.5 253,-270.5"/>
<polygon fill="#000000" stroke="#000000" points="219.0253,-519.7894 228.6802,-524.9886 224.0126,-520.1447 229,-520.5 229,-520.5 229,-520.5 224.0126,-520.1447 229.3198,-516.0114 219.0253,-519.7894 219.0253,-519.7894"/>
<text text-anchor="start" x="7.495" y="-530.5" font-family="Arial" font-size="10.00" fill="#000000">FOREIGN KEY (tag_id) REFERENCES tags (id)</text>
</g>
</g>
</svg>
