<?xml version="1.0" encoding="UTF-8" standalone="no"?>
<!DOCTYPE svg PUBLIC "-//W3C//DTD SVG 1.1//EN"
 "http://www.w3.org/Graphics/SVG/1.1/DTD/svg11.dtd">
<!-- Generated by graphviz version 2.40.1 (20161225.0304)
 -->
<!-- Title: telescope_entries Pages: 1 -->
<svg width="696pt" height="592pt"
 viewBox="0.00 0.00 696.00 592.00" xmlns="http://www.w3.org/2000/svg" xmlns:xlink="http://www.w3.org/1999/xlink">
<g id="graph0" class="graph" transform="scale(1 1) rotate(0) translate(4 588)">
<title>telescope_entries</title>
<polygon fill="#ffffff" stroke="transparent" points="-4,4 -4,-588 692,-588 692,4 -4,4"/>
<!-- telescope_entries -->
<g id="node1" class="node">
<title>telescope_entries</title>
<polygon fill="#efefef" stroke="transparent" points="65,-285.5 65,-320.5 347,-320.5 347,-285.5 65,-285.5"/>
<polygon fill="none" stroke="#000000" points="65,-285.5 65,-320.5 347,-320.5 347,-285.5 65,-285.5"/>
<text text-anchor="start" x="71.6956" y="-298.3" font-family="Arial Bold" font-size="18.00" fill="#000000">telescope_entries</text>
<text text-anchor="start" x="212.7364" y="-298.3" font-family="Arial" font-size="14.00" fill="#000000">    </text>
<text text-anchor="start" x="246.9412" y="-298.3" font-family="Arial" font-size="14.00" fill="#666666">[BASE TABLE]</text>
<polygon fill="none" stroke="#000000" points="65,-255.5 65,-285.5 347,-285.5 347,-255.5 65,-255.5"/>
<text text-anchor="start" x="72" y="-266.9" font-family="Arial" font-size="14.00" fill="#000000">sequence </text>
<text text-anchor="start" x="136.5862" y="-266.9" font-family="Arial" font-size="14.00" fill="#666666">[bigint unsigned]</text>
<polygon fill="none" stroke="#000000" points="65,-225.5 65,-255.5 347,-255.5 347,-225.5 65,-225.5"/>
<text text-anchor="start" x="72" y="-236.9" font-family="Arial" font-size="14.00" fill="#000000">uuid </text>
<text text-anchor="start" x="102.345" y="-236.9" font-family="Arial" font-size="14.00" fill="#666666">[char(36)]</text>
<polygon fill="none" stroke="#000000" points="65,-195.5 65,-225.5 347,-225.5 347,-195.5 65,-195.5"/>
<text text-anchor="start" x="72" y="-206.9" font-family="Arial" font-size="14.00" fill="#000000">batch_id </text>
<text text-anchor="start" x="128.8008" y="-206.9" font-family="Arial" font-size="14.00" fill="#666666">[char(36)]</text>
<polygon fill="none" stroke="#000000" points="65,-165.5 65,-195.5 347,-195.5 347,-165.5 65,-165.5"/>
<text text-anchor="start" x="72" y="-176.9" font-family="Arial" font-size="14.00" fill="#000000">family_hash </text>
<text text-anchor="start" x="150.568" y="-176.9" font-family="Arial" font-size="14.00" fill="#666666">[varchar(255)]</text>
<polygon fill="none" stroke="#000000" points="65,-135.5 65,-165.5 347,-165.5 347,-135.5 65,-135.5"/>
<text text-anchor="start" x="72" y="-146.9" font-family="Arial" font-size="14.00" fill="#000000">should_display_on_index </text>
<text text-anchor="start" x="233.056" y="-146.9" font-family="Arial" font-size="14.00" fill="#666666">[tinyint(1)]</text>
<polygon fill="none" stroke="#000000" points="65,-105.5 65,-135.5 347,-135.5 347,-105.5 65,-105.5"/>
<text text-anchor="start" x="72" y="-116.9" font-family="Arial" font-size="14.00" fill="#000000">type </text>
<text text-anchor="start" x="102.3464" y="-116.9" font-family="Arial" font-size="14.00" fill="#666666">[varchar(20)]</text>
<polygon fill="none" stroke="#000000" points="65,-75.5 65,-105.5 347,-105.5 347,-75.5 65,-75.5"/>
<text text-anchor="start" x="72" y="-86.9" font-family="Arial" font-size="14.00" fill="#000000">content </text>
<text text-anchor="start" x="121.8022" y="-86.9" font-family="Arial" font-size="14.00" fill="#666666">[longtext]</text>
<polygon fill="none" stroke="#000000" points="65,-45.5 65,-75.5 347,-75.5 347,-45.5 65,-45.5"/>
<text text-anchor="start" x="72" y="-56.9" font-family="Arial" font-size="14.00" fill="#000000">created_at </text>
<text text-anchor="start" x="142.028" y="-56.9" font-family="Arial" font-size="14.00" fill="#666666">[datetime]</text>
<polygon fill="none" stroke="#000000" stroke-width="3" points="63.5,-44.5 63.5,-322.5 348.5,-322.5 348.5,-44.5 63.5,-44.5"/>
</g>
<!-- telescope_entries_tags -->
<g id="node2" class="node">
<title>telescope_entries_tags</title>
<polygon fill="#efefef" stroke="transparent" points="43,-505.5 43,-540.5 369,-540.5 369,-505.5 43,-505.5"/>
<polygon fill="none" stroke="#000000" points="43,-505.5 43,-540.5 369,-540.5 369,-505.5 43,-505.5"/>
<text text-anchor="start" x="49.6852" y="-518.3" font-family="Arial Bold" font-size="18.00" fill="#000000">telescope_entries_tags</text>
<text text-anchor="start" x="234.7468" y="-518.3" font-family="Arial" font-size="14.00" fill="#000000">    </text>
<text text-anchor="start" x="268.9516" y="-518.3" font-family="Arial" font-size="14.00" fill="#666666">[BASE TABLE]</text>
<polygon fill="none" stroke="#000000" points="43,-475.5 43,-505.5 369,-505.5 369,-475.5 43,-475.5"/>
<text text-anchor="start" x="50" y="-486.9" font-family="Arial" font-size="14.00" fill="#000000">entry_uuid    </text>
<text text-anchor="start" x="149.5582" y="-486.9" font-family="Arial" font-size="14.00" fill="#666666">[char(36)]</text>
<polygon fill="none" stroke="#000000" points="43,-445.5 43,-475.5 369,-475.5 369,-445.5 43,-445.5"/>
<text text-anchor="start" x="50" y="-456.9" font-family="Arial" font-size="14.00" fill="#000000">tag    </text>
<text text-anchor="start" x="103.6606" y="-456.9" font-family="Arial" font-size="14.00" fill="#666666">[varchar(255)]</text>
</g>
<!-- telescope_entries_tags&#45;&gt;telescope_entries -->
<g id="edge1" class="edge">
<title>telescope_entries_tags:entry_uuid&#45;&gt;telescope_entries:uuid</title>
<path fill="none" stroke="#000000" d="M379.067,-489.7828C479.0781,-475.1191 455.0549,-240.5 347,-240.5"/>
<polygon fill="#000000" stroke="#000000" points="378.9747,-489.7893 368.6802,-486.0114 373.9874,-490.1447 369,-490.5 369,-490.5 369,-490.5 373.9874,-490.1447 369.3198,-494.9886 378.9747,-489.7893 378.9747,-489.7893"/>
<text text-anchor="start" x="376.483" y="-500.5" font-family="Arial" font-size="10.00" fill="#000000">FOREIGN KEY (entry_uuid) REFERENCES telescope_entries (uuid)</text>
</g>
</g>
</svg>
