<?xml version="1.0" encoding="UTF-8" standalone="no"?>
<!DOCTYPE svg PUBLIC "-//W3C//DTD SVG 1.1//EN"
 "http://www.w3.org/Graphics/SVG/1.1/DTD/svg11.dtd">
<!-- Generated by graphviz version 2.40.1 (20161225.0304)
 -->
<!-- Title: telescope_monitoring Pages: 1 -->
<svg width="412pt" height="165pt"
 viewBox="0.00 0.00 412.00 165.00" xmlns="http://www.w3.org/2000/svg" xmlns:xlink="http://www.w3.org/1999/xlink">
<g id="graph0" class="graph" transform="scale(1 1) rotate(0) translate(4 161)">
<title>telescope_monitoring</title>
<polygon fill="#ffffff" stroke="transparent" points="-4,4 -4,-161 408,-161 408,4 -4,4"/>
<!-- telescope_monitoring -->
<g id="node1" class="node">
<title>telescope_monitoring</title>
<polygon fill="#efefef" stroke="transparent" points="46,-75.5 46,-110.5 358,-110.5 358,-75.5 46,-75.5"/>
<polygon fill="none" stroke="#000000" points="46,-75.5 46,-110.5 358,-110.5 358,-75.5 46,-75.5"/>
<text text-anchor="start" x="52.6962" y="-88.3" font-family="Arial Bold" font-size="18.00" fill="#000000">telescope_monitoring</text>
<text text-anchor="start" x="223.7358" y="-88.3" font-family="Arial" font-size="14.00" fill="#000000">    </text>
<text text-anchor="start" x="257.9406" y="-88.3" font-family="Arial" font-size="14.00" fill="#666666">[BASE TABLE]</text>
<polygon fill="none" stroke="#000000" points="46,-45.5 46,-75.5 358,-75.5 358,-45.5 46,-45.5"/>
<text text-anchor="start" x="53" y="-56.9" font-family="Arial" font-size="14.00" fill="#000000">tag </text>
<text text-anchor="start" x="76.3464" y="-56.9" font-family="Arial" font-size="14.00" fill="#666666">[varchar(255)]</text>
<polygon fill="none" stroke="#000000" stroke-width="3" points="44.5,-44.5 44.5,-112.5 359.5,-112.5 359.5,-44.5 44.5,-44.5"/>
</g>
</g>
</svg>
