<?xml version="1.0" encoding="UTF-8" standalone="no"?>
<!DOCTYPE svg PUBLIC "-//W3C//DTD SVG 1.1//EN"
 "http://www.w3.org/Graphics/SVG/1.1/DTD/svg11.dtd">
<!-- Generated by graphviz version 2.40.1 (20161225.0304)
 -->
<!-- Title: telescope_entries_tags Pages: 1 -->
<svg width="699pt" height="592pt"
 viewBox="0.00 0.00 699.00 592.00" xmlns="http://www.w3.org/2000/svg" xmlns:xlink="http://www.w3.org/1999/xlink">
<g id="graph0" class="graph" transform="scale(1 1) rotate(0) translate(4 588)">
<title>telescope_entries_tags</title>
<polygon fill="#ffffff" stroke="transparent" points="-4,4 -4,-588 695,-588 695,4 -4,4"/>
<!-- telescope_entries_tags -->
<g id="node1" class="node">
<title>telescope_entries_tags</title>
<polygon fill="#efefef" stroke="transparent" points="46,-502.5 46,-537.5 372,-537.5 372,-502.5 46,-502.5"/>
<polygon fill="none" stroke="#000000" points="46,-502.5 46,-537.5 372,-537.5 372,-502.5 46,-502.5"/>
<text text-anchor="start" x="52.6852" y="-515.3" font-family="Arial Bold" font-size="18.00" fill="#000000">telescope_entries_tags</text>
<text text-anchor="start" x="237.7468" y="-515.3" font-family="Arial" font-size="14.00" fill="#000000">    </text>
<text text-anchor="start" x="271.9516" y="-515.3" font-family="Arial" font-size="14.00" fill="#666666">[BASE TABLE]</text>
<polygon fill="none" stroke="#000000" points="46,-472.5 46,-502.5 372,-502.5 372,-472.5 46,-472.5"/>
<text text-anchor="start" x="53" y="-483.9" font-family="Arial" font-size="14.00" fill="#000000">entry_uuid </text>
<text text-anchor="start" x="122.244" y="-483.9" font-family="Arial" font-size="14.00" fill="#666666">[char(36)]</text>
<polygon fill="none" stroke="#000000" points="46,-442.5 46,-472.5 372,-472.5 372,-442.5 46,-442.5"/>
<text text-anchor="start" x="53" y="-453.9" font-family="Arial" font-size="14.00" fill="#000000">tag </text>
<text text-anchor="start" x="76.3464" y="-453.9" font-family="Arial" font-size="14.00" fill="#666666">[varchar(255)]</text>
<polygon fill="none" stroke="#000000" stroke-width="3" points="44.5,-441.5 44.5,-539.5 373.5,-539.5 373.5,-441.5 44.5,-441.5"/>
</g>
<!-- telescope_entries -->
<g id="node2" class="node">
<title>telescope_entries</title>
<polygon fill="#efefef" stroke="transparent" points="68,-282.5 68,-317.5 350,-317.5 350,-282.5 68,-282.5"/>
<polygon fill="none" stroke="#000000" points="68,-282.5 68,-317.5 350,-317.5 350,-282.5 68,-282.5"/>
<text text-anchor="start" x="74.6956" y="-295.3" font-family="Arial Bold" font-size="18.00" fill="#000000">telescope_entries</text>
<text text-anchor="start" x="215.7364" y="-295.3" font-family="Arial" font-size="14.00" fill="#000000">    </text>
<text text-anchor="start" x="249.9412" y="-295.3" font-family="Arial" font-size="14.00" fill="#666666">[BASE TABLE]</text>
<polygon fill="none" stroke="#000000" points="68,-252.5 68,-282.5 350,-282.5 350,-252.5 68,-252.5"/>
<text text-anchor="start" x="75" y="-263.9" font-family="Arial" font-size="14.00" fill="#000000">sequence    </text>
<text text-anchor="start" x="169.9004" y="-263.9" font-family="Arial" font-size="14.00" fill="#666666">[bigint unsigned]</text>
<polygon fill="none" stroke="#000000" points="68,-222.5 68,-252.5 350,-252.5 350,-222.5 68,-222.5"/>
<text text-anchor="start" x="75" y="-233.9" font-family="Arial" font-size="14.00" fill="#000000">uuid    </text>
<text text-anchor="start" x="135.6592" y="-233.9" font-family="Arial" font-size="14.00" fill="#666666">[char(36)]</text>
<polygon fill="none" stroke="#000000" points="68,-192.5 68,-222.5 350,-222.5 350,-192.5 68,-192.5"/>
<text text-anchor="start" x="75" y="-203.9" font-family="Arial" font-size="14.00" fill="#000000">batch_id    </text>
<text text-anchor="start" x="162.115" y="-203.9" font-family="Arial" font-size="14.00" fill="#666666">[char(36)]</text>
<polygon fill="none" stroke="#000000" points="68,-162.5 68,-192.5 350,-192.5 350,-162.5 68,-162.5"/>
<text text-anchor="start" x="75" y="-173.9" font-family="Arial" font-size="14.00" fill="#000000">family_hash    </text>
<text text-anchor="start" x="183.8822" y="-173.9" font-family="Arial" font-size="14.00" fill="#666666">[varchar(255)]</text>
<polygon fill="none" stroke="#000000" points="68,-132.5 68,-162.5 350,-162.5 350,-132.5 68,-132.5"/>
<text text-anchor="start" x="75" y="-143.9" font-family="Arial" font-size="14.00" fill="#000000">should_display_on_index    </text>
<text text-anchor="start" x="266.3702" y="-143.9" font-family="Arial" font-size="14.00" fill="#666666">[tinyint(1)]</text>
<polygon fill="none" stroke="#000000" points="68,-102.5 68,-132.5 350,-132.5 350,-102.5 68,-102.5"/>
<text text-anchor="start" x="75" y="-113.9" font-family="Arial" font-size="14.00" fill="#000000">type    </text>
<text text-anchor="start" x="135.6606" y="-113.9" font-family="Arial" font-size="14.00" fill="#666666">[varchar(20)]</text>
<polygon fill="none" stroke="#000000" points="68,-72.5 68,-102.5 350,-102.5 350,-72.5 68,-72.5"/>
<text text-anchor="start" x="75" y="-83.9" font-family="Arial" font-size="14.00" fill="#000000">content    </text>
<text text-anchor="start" x="155.1164" y="-83.9" font-family="Arial" font-size="14.00" fill="#666666">[longtext]</text>
<polygon fill="none" stroke="#000000" points="68,-42.5 68,-72.5 350,-72.5 350,-42.5 68,-42.5"/>
<text text-anchor="start" x="75" y="-53.9" font-family="Arial" font-size="14.00" fill="#000000">created_at    </text>
<text text-anchor="start" x="175.3422" y="-53.9" font-family="Arial" font-size="14.00" fill="#666666">[datetime]</text>
</g>
<!-- telescope_entries_tags&#45;&gt;telescope_entries -->
<g id="edge1" class="edge">
<title>telescope_entries_tags:entry_uuid&#45;&gt;telescope_entries:uuid</title>
<path fill="none" stroke="#000000" d="M382.067,-486.7828C482.0781,-472.1191 458.0549,-237.5 350,-237.5"/>
<polygon fill="#000000" stroke="#000000" points="381.9747,-486.7893 371.6802,-483.0114 376.9874,-487.1447 372,-487.5 372,-487.5 372,-487.5 376.9874,-487.1447 372.3198,-491.9886 381.9747,-486.7893 381.9747,-486.7893"/>
<text text-anchor="start" x="379.483" y="-497.5" font-family="Arial" font-size="10.00" fill="#000000">FOREIGN KEY (entry_uuid) REFERENCES telescope_entries (uuid)</text>
</g>
</g>
</svg>
