<?xml version="1.0" encoding="UTF-8" standalone="no"?>
<!DOCTYPE svg PUBLIC "-//W3C//DTD SVG 1.1//EN"
 "http://www.w3.org/Graphics/SVG/1.1/DTD/svg11.dtd">
<!-- Generated by graphviz version 2.40.1 (20161225.0304)
 -->
<!-- Title: vendors Pages: 1 -->
<svg width="573pt" height="622pt"
 viewBox="0.00 0.00 573.00 622.00" xmlns="http://www.w3.org/2000/svg" xmlns:xlink="http://www.w3.org/1999/xlink">
<g id="graph0" class="graph" transform="scale(1 1) rotate(0) translate(4 618)">
<title>vendors</title>
<polygon fill="#ffffff" stroke="transparent" points="-4,4 -4,-618 569,-618 569,4 -4,4"/>
<!-- vendors -->
<g id="node1" class="node">
<title>vendors</title>
<polygon fill="#efefef" stroke="transparent" points="289,-225.5 289,-260.5 494,-260.5 494,-225.5 289,-225.5"/>
<polygon fill="none" stroke="#000000" points="289,-225.5 289,-260.5 494,-260.5 494,-225.5 289,-225.5"/>
<text text-anchor="start" x="295.7075" y="-238.3" font-family="Arial Bold" font-size="18.00" fill="#000000">vendors</text>
<text text-anchor="start" x="359.7245" y="-238.3" font-family="Arial" font-size="14.00" fill="#000000">    </text>
<text text-anchor="start" x="393.9293" y="-238.3" font-family="Arial" font-size="14.00" fill="#666666">[BASE TABLE]</text>
<polygon fill="none" stroke="#000000" points="289,-195.5 289,-225.5 494,-225.5 494,-195.5 289,-195.5"/>
<text text-anchor="start" x="296" y="-206.9" font-family="Arial" font-size="14.00" fill="#000000">id </text>
<text text-anchor="start" x="310.7798" y="-206.9" font-family="Arial" font-size="14.00" fill="#666666">[char(36)]</text>
<polygon fill="none" stroke="#000000" points="289,-165.5 289,-195.5 494,-195.5 494,-165.5 289,-165.5"/>
<text text-anchor="start" x="296" y="-176.9" font-family="Arial" font-size="14.00" fill="#000000">name </text>
<text text-anchor="start" x="334.899" y="-176.9" font-family="Arial" font-size="14.00" fill="#666666">[varchar(255)]</text>
<polygon fill="none" stroke="#000000" points="289,-135.5 289,-165.5 494,-165.5 494,-135.5 289,-135.5"/>
<text text-anchor="start" x="296" y="-146.9" font-family="Arial" font-size="14.00" fill="#000000">is_active </text>
<text text-anchor="start" x="354.3422" y="-146.9" font-family="Arial" font-size="14.00" fill="#666666">[tinyint(1)]</text>
<polygon fill="none" stroke="#000000" points="289,-105.5 289,-135.5 494,-135.5 494,-105.5 289,-105.5"/>
<text text-anchor="start" x="296" y="-116.9" font-family="Arial" font-size="14.00" fill="#000000">created_at </text>
<text text-anchor="start" x="366.028" y="-116.9" font-family="Arial" font-size="14.00" fill="#666666">[timestamp]</text>
<polygon fill="none" stroke="#000000" points="289,-75.5 289,-105.5 494,-105.5 494,-75.5 289,-75.5"/>
<text text-anchor="start" x="296" y="-86.9" font-family="Arial" font-size="14.00" fill="#000000">updated_at </text>
<text text-anchor="start" x="369.9326" y="-86.9" font-family="Arial" font-size="14.00" fill="#666666">[timestamp]</text>
<polygon fill="none" stroke="#000000" points="289,-45.5 289,-75.5 494,-75.5 494,-45.5 289,-45.5"/>
<text text-anchor="start" x="296" y="-56.9" font-family="Arial" font-size="14.00" fill="#000000">deleted_at </text>
<text text-anchor="start" x="365.2566" y="-56.9" font-family="Arial" font-size="14.00" fill="#666666">[timestamp]</text>
<polygon fill="none" stroke="#000000" stroke-width="3" points="287,-44.5 287,-262.5 495,-262.5 495,-44.5 287,-44.5"/>
</g>
<!-- benefit_vendor -->
<g id="node2" class="node">
<title>benefit_vendor</title>
<polygon fill="#efefef" stroke="transparent" points="262,-535.5 262,-570.5 522,-570.5 522,-535.5 262,-535.5"/>
<polygon fill="none" stroke="#000000" points="262,-535.5 262,-570.5 522,-570.5 522,-535.5 262,-535.5"/>
<text text-anchor="start" x="268.6927" y="-548.3" font-family="Arial Bold" font-size="18.00" fill="#000000">benefit_vendor</text>
<text text-anchor="start" x="387.7393" y="-548.3" font-family="Arial" font-size="14.00" fill="#000000">    </text>
<text text-anchor="start" x="421.9441" y="-548.3" font-family="Arial" font-size="14.00" fill="#666666">[BASE TABLE]</text>
<polygon fill="none" stroke="#000000" points="262,-505.5 262,-535.5 522,-535.5 522,-505.5 262,-505.5"/>
<text text-anchor="start" x="269" y="-516.9" font-family="Arial" font-size="14.00" fill="#000000">id    </text>
<text text-anchor="start" x="314.094" y="-516.9" font-family="Arial" font-size="14.00" fill="#666666">[char(36)]</text>
<polygon fill="none" stroke="#000000" points="262,-475.5 262,-505.5 522,-505.5 522,-475.5 262,-475.5"/>
<text text-anchor="start" x="269" y="-486.9" font-family="Arial" font-size="14.00" fill="#000000">benefit_id    </text>
<text text-anchor="start" x="363.8948" y="-486.9" font-family="Arial" font-size="14.00" fill="#666666">[char(36)]</text>
<polygon fill="none" stroke="#000000" points="262,-445.5 262,-475.5 522,-475.5 522,-445.5 262,-445.5"/>
<text text-anchor="start" x="269" y="-456.9" font-family="Arial" font-size="14.00" fill="#000000">vendor_id    </text>
<text text-anchor="start" x="364.6676" y="-456.9" font-family="Arial" font-size="14.00" fill="#666666">[char(36)]</text>
<polygon fill="none" stroke="#000000" points="262,-415.5 262,-445.5 522,-445.5 522,-415.5 262,-415.5"/>
<text text-anchor="start" x="269" y="-426.9" font-family="Arial" font-size="14.00" fill="#000000">created_at    </text>
<text text-anchor="start" x="369.3422" y="-426.9" font-family="Arial" font-size="14.00" fill="#666666">[timestamp]</text>
<polygon fill="none" stroke="#000000" points="262,-385.5 262,-415.5 522,-415.5 522,-385.5 262,-385.5"/>
<text text-anchor="start" x="269" y="-396.9" font-family="Arial" font-size="14.00" fill="#000000">updated_at    </text>
<text text-anchor="start" x="373.2468" y="-396.9" font-family="Arial" font-size="14.00" fill="#666666">[timestamp]</text>
</g>
<!-- benefit_vendor&#45;&gt;vendors -->
<g id="edge1" class="edge">
<title>benefit_vendor:vendor_id&#45;&gt;vendors:id</title>
<path fill="none" stroke="#000000" d="M252.0105,-459.3858C212.4212,-449.7421 230.4112,-379.8685 262,-343 329.891,-263.7617 426.109,-386.2383 494,-307 521.9052,-274.4307 536.8889,-210.5 494,-210.5"/>
<polygon fill="#000000" stroke="#000000" points="252.0616,-459.3914 261.5011,-464.9723 257.0308,-459.9457 262,-460.5 262,-460.5 262,-460.5 257.0308,-459.9457 262.4989,-456.0277 252.0616,-459.3914 252.0616,-459.3914"/>
<text text-anchor="start" x="6.827" y="-470.5" font-family="Arial" font-size="10.00" fill="#000000">FOREIGN KEY (vendor_id) REFERENCES vendors (id)</text>
</g>
</g>
</svg>
