<?xml version="1.0" encoding="UTF-8" standalone="no"?>
<!DOCTYPE svg PUBLIC "-//W3C//DTD SVG 1.1//EN"
 "http://www.w3.org/Graphics/SVG/1.1/DTD/svg11.dtd">
<!-- Generated by graphviz version 2.40.1 (20161225.0304)
 -->
<!-- Title: actor Pages: 1 -->
<svg width="538pt" height="502pt"
 viewBox="0.00 0.00 537.50 502.00" xmlns="http://www.w3.org/2000/svg" xmlns:xlink="http://www.w3.org/1999/xlink">
<g id="graph0" class="graph" transform="scale(1 1) rotate(0) translate(4 498)">
<title>actor</title>
<polygon fill="#ffffff" stroke="transparent" points="-4,4 -4,-498 533.5,-498 533.5,4 -4,4"/>
<!-- actor -->
<g id="node1" class="node">
<title>actor</title>
<polygon fill="#efefef" stroke="transparent" points="286,-165.5 286,-200.5 469,-200.5 469,-165.5 286,-165.5"/>
<polygon fill="none" stroke="#000000" points="286,-165.5 286,-200.5 469,-200.5 469,-165.5 286,-165.5"/>
<text text-anchor="start" x="293.7126" y="-178.3" font-family="Arial Bold" font-size="18.00" fill="#000000">actor</text>
<text text-anchor="start" x="333.7194" y="-178.3" font-family="Arial" font-size="14.00" fill="#000000">    </text>
<text text-anchor="start" x="367.9242" y="-178.3" font-family="Arial" font-size="14.00" fill="#666666">[BASE TABLE]</text>
<polygon fill="none" stroke="#000000" points="286,-135.5 286,-165.5 469,-165.5 469,-135.5 286,-135.5"/>
<text text-anchor="start" x="292.7055" y="-146.9" font-family="Arial" font-size="14.00" fill="#000000">actor_id </text>
<text text-anchor="start" x="346.3843" y="-146.9" font-family="Arial" font-size="14.00" fill="#666666">[smallint unsigned]</text>
<polygon fill="none" stroke="#000000" points="286,-105.5 286,-135.5 469,-135.5 469,-105.5 286,-105.5"/>
<text text-anchor="start" x="293" y="-116.9" font-family="Arial" font-size="14.00" fill="#000000">first_name </text>
<text text-anchor="start" x="362.23" y="-116.9" font-family="Arial" font-size="14.00" fill="#666666">[varchar(45)]</text>
<polygon fill="none" stroke="#000000" points="286,-75.5 286,-105.5 469,-105.5 469,-75.5 286,-75.5"/>
<text text-anchor="start" x="293" y="-86.9" font-family="Arial" font-size="14.00" fill="#000000">last_name </text>
<text text-anchor="start" x="361.4614" y="-86.9" font-family="Arial" font-size="14.00" fill="#666666">[varchar(45)]</text>
<polygon fill="none" stroke="#000000" points="286,-45.5 286,-75.5 469,-75.5 469,-45.5 286,-45.5"/>
<text text-anchor="start" x="293" y="-56.9" font-family="Arial" font-size="14.00" fill="#000000">last_update </text>
<text text-anchor="start" x="369.2566" y="-56.9" font-family="Arial" font-size="14.00" fill="#666666">[timestamp]</text>
<polygon fill="none" stroke="#000000" stroke-width="3" points="284,-44.5 284,-202.5 470,-202.5 470,-44.5 284,-44.5"/>
</g>
<!-- film_actor -->
<g id="node2" class="node">
<title>film_actor</title>
<polygon fill="#efefef" stroke="transparent" points="268,-415.5 268,-450.5 487,-450.5 487,-415.5 268,-415.5"/>
<polygon fill="none" stroke="#000000" points="268,-415.5 268,-450.5 487,-450.5 487,-415.5 268,-415.5"/>
<text text-anchor="start" x="274.7181" y="-428.3" font-family="Arial Bold" font-size="18.00" fill="#000000">film_actor</text>
<text text-anchor="start" x="352.7139" y="-428.3" font-family="Arial" font-size="14.00" fill="#000000">    </text>
<text text-anchor="start" x="386.9187" y="-428.3" font-family="Arial" font-size="14.00" fill="#666666">[BASE TABLE]</text>
<polygon fill="none" stroke="#000000" points="268,-385.5 268,-415.5 487,-415.5 487,-385.5 268,-385.5"/>
<text text-anchor="start" x="275" y="-396.9" font-family="Arial" font-size="14.00" fill="#000000">actor_id    </text>
<text text-anchor="start" x="358.993" y="-396.9" font-family="Arial" font-size="14.00" fill="#666666">[smallint unsigned]</text>
<polygon fill="none" stroke="#000000" points="268,-355.5 268,-385.5 487,-385.5 487,-355.5 268,-355.5"/>
<text text-anchor="start" x="275" y="-366.9" font-family="Arial" font-size="14.00" fill="#000000">film_id    </text>
<text text-anchor="start" x="349.641" y="-366.9" font-family="Arial" font-size="14.00" fill="#666666">[smallint unsigned]</text>
<polygon fill="none" stroke="#000000" points="268,-325.5 268,-355.5 487,-355.5 487,-325.5 268,-325.5"/>
<text text-anchor="start" x="275" y="-336.9" font-family="Arial" font-size="14.00" fill="#000000">last_update    </text>
<text text-anchor="start" x="381.5708" y="-336.9" font-family="Arial" font-size="14.00" fill="#666666">[timestamp]</text>
</g>
<!-- film_actor&#45;&gt;actor -->
<g id="edge1" class="edge">
<title>film_actor:actor_id&#45;&gt;actor:actor_id</title>
<path fill="none" stroke="#000000" d="M258.1389,-397.5182C214.7776,-369.312 233.8906,-150.5 286,-150.5"/>
<polygon fill="#000000" stroke="#000000" points="258.428,-397.6056 266.6975,-404.8074 263.214,-399.0528 268,-400.5 268,-400.5 268,-400.5 263.214,-399.0528 269.3025,-396.1926 258.428,-397.6056 258.428,-397.6056"/>
<text text-anchor="start" x="6.7735" y="-410.5" font-family="Arial" font-size="10.00" fill="#000000">FOREIGN KEY (actor_id) REFERENCES actor (actor_id)</text>
</g>
</g>
</svg>
