<?xml version="1.0" encoding="UTF-8" standalone="no"?>
<!DOCTYPE svg PUBLIC "-//W3C//DTD SVG 1.1//EN"
 "http://www.w3.org/Graphics/SVG/1.1/DTD/svg11.dtd">
<!-- Generated by graphviz version 2.40.1 (20161225.0304)
 -->
<!-- Title: address Pages: 1 -->
<svg width="1065pt" height="1139pt"
 viewBox="0.00 0.00 1065.00 1139.00" xmlns="http://www.w3.org/2000/svg" xmlns:xlink="http://www.w3.org/1999/xlink">
<g id="graph0" class="graph" transform="scale(1 1) rotate(0) translate(4 1135)">
<title>address</title>
<polygon fill="#ffffff" stroke="transparent" points="-4,4 -4,-1135 1061,-1135 1061,4 -4,4"/>
<!-- address -->
<g id="node1" class="node">
<title>address</title>
<polygon fill="#efefef" stroke="transparent" points="425,-562.5 425,-597.5 630,-597.5 630,-562.5 425,-562.5"/>
<polygon fill="none" stroke="#000000" points="425,-562.5 425,-597.5 630,-597.5 630,-562.5 425,-562.5"/>
<text text-anchor="start" x="431.7075" y="-575.3" font-family="Arial Bold" font-size="18.00" fill="#000000">address</text>
<text text-anchor="start" x="495.7245" y="-575.3" font-family="Arial" font-size="14.00" fill="#000000">    </text>
<text text-anchor="start" x="529.9293" y="-575.3" font-family="Arial" font-size="14.00" fill="#666666">[BASE TABLE]</text>
<polygon fill="none" stroke="#000000" points="425,-532.5 425,-562.5 630,-562.5 630,-532.5 425,-532.5"/>
<text text-anchor="start" x="432" y="-543.9" font-family="Arial" font-size="14.00" fill="#000000">address_id </text>
<text text-anchor="start" x="504.3534" y="-543.9" font-family="Arial" font-size="14.00" fill="#666666">[smallint unsigned]</text>
<polygon fill="none" stroke="#000000" points="425,-502.5 425,-532.5 630,-532.5 630,-502.5 425,-502.5"/>
<text text-anchor="start" x="432" y="-513.9" font-family="Arial" font-size="14.00" fill="#000000">address </text>
<text text-anchor="start" x="485.6816" y="-513.9" font-family="Arial" font-size="14.00" fill="#666666">[varchar(50)]</text>
<polygon fill="none" stroke="#000000" points="425,-472.5 425,-502.5 630,-502.5 630,-472.5 425,-472.5"/>
<text text-anchor="start" x="432" y="-483.9" font-family="Arial" font-size="14.00" fill="#000000">address2 </text>
<text text-anchor="start" x="493.4642" y="-483.9" font-family="Arial" font-size="14.00" fill="#666666">[varchar(50)]</text>
<polygon fill="none" stroke="#000000" points="425,-442.5 425,-472.5 630,-472.5 630,-442.5 425,-442.5"/>
<text text-anchor="start" x="432" y="-453.9" font-family="Arial" font-size="14.00" fill="#000000">district </text>
<text text-anchor="start" x="476.3282" y="-453.9" font-family="Arial" font-size="14.00" fill="#666666">[varchar(20)]</text>
<polygon fill="none" stroke="#000000" points="425,-412.5 425,-442.5 630,-442.5 630,-412.5 425,-412.5"/>
<text text-anchor="start" x="432" y="-423.9" font-family="Arial" font-size="14.00" fill="#000000">city_id </text>
<text text-anchor="start" x="475.5596" y="-423.9" font-family="Arial" font-size="14.00" fill="#666666">[smallint unsigned]</text>
<polygon fill="none" stroke="#000000" points="425,-382.5 425,-412.5 630,-412.5 630,-382.5 425,-382.5"/>
<text text-anchor="start" x="432" y="-393.9" font-family="Arial" font-size="14.00" fill="#000000">postal_code </text>
<text text-anchor="start" x="511.366" y="-393.9" font-family="Arial" font-size="14.00" fill="#666666">[varchar(10)]</text>
<polygon fill="none" stroke="#000000" points="425,-352.5 425,-382.5 630,-382.5 630,-352.5 425,-352.5"/>
<text text-anchor="start" x="432" y="-363.9" font-family="Arial" font-size="14.00" fill="#000000">phone </text>
<text text-anchor="start" x="474.8036" y="-363.9" font-family="Arial" font-size="14.00" fill="#666666">[varchar(20)]</text>
<polygon fill="none" stroke="#000000" points="425,-322.5 425,-352.5 630,-352.5 630,-322.5 425,-322.5"/>
<text text-anchor="start" x="432" y="-333.9" font-family="Arial" font-size="14.00" fill="#000000">last_update </text>
<text text-anchor="start" x="508.2566" y="-333.9" font-family="Arial" font-size="14.00" fill="#666666">[timestamp]</text>
<polygon fill="none" stroke="#000000" stroke-width="3" points="423,-321.5 423,-599.5 631,-599.5 631,-321.5 423,-321.5"/>
</g>
<!-- city -->
<g id="node5" class="node">
<title>city</title>
<polygon fill="#efefef" stroke="transparent" points="414,-162.5 414,-197.5 642,-197.5 642,-162.5 414,-162.5"/>
<polygon fill="none" stroke="#000000" points="414,-162.5 414,-197.5 642,-197.5 642,-162.5 414,-162.5"/>
<text text-anchor="start" x="450.7178" y="-175.3" font-family="Arial Bold" font-size="18.00" fill="#000000">city</text>
<text text-anchor="start" x="477.7142" y="-175.3" font-family="Arial" font-size="14.00" fill="#000000">    </text>
<text text-anchor="start" x="511.919" y="-175.3" font-family="Arial" font-size="14.00" fill="#666666">[BASE TABLE]</text>
<polygon fill="none" stroke="#000000" points="414,-132.5 414,-162.5 642,-162.5 642,-132.5 414,-132.5"/>
<text text-anchor="start" x="421" y="-143.9" font-family="Arial" font-size="14.00" fill="#000000">city_id    </text>
<text text-anchor="start" x="494.8738" y="-143.9" font-family="Arial" font-size="14.00" fill="#666666">[smallint unsigned]</text>
<polygon fill="none" stroke="#000000" points="414,-102.5 414,-132.5 642,-132.5 642,-102.5 414,-102.5"/>
<text text-anchor="start" x="421" y="-113.9" font-family="Arial" font-size="14.00" fill="#000000">city    </text>
<text text-anchor="start" x="476.202" y="-113.9" font-family="Arial" font-size="14.00" fill="#666666">[varchar(50)]</text>
<polygon fill="none" stroke="#000000" points="414,-72.5 414,-102.5 642,-102.5 642,-72.5 414,-72.5"/>
<text text-anchor="start" x="420.6571" y="-83.9" font-family="Arial" font-size="14.00" fill="#000000">country_id    </text>
<text text-anchor="start" x="519.4327" y="-83.9" font-family="Arial" font-size="14.00" fill="#666666">[smallint unsigned]</text>
<polygon fill="none" stroke="#000000" points="414,-42.5 414,-72.5 642,-72.5 642,-42.5 414,-42.5"/>
<text text-anchor="start" x="421" y="-53.9" font-family="Arial" font-size="14.00" fill="#000000">last_update    </text>
<text text-anchor="start" x="527.5708" y="-53.9" font-family="Arial" font-size="14.00" fill="#666666">[timestamp]</text>
</g>
<!-- address&#45;&gt;city -->
<g id="edge4" class="edge">
<title>address:city_id&#45;&gt;city:city_id</title>
<path fill="none" stroke="#000000" d="M640.1732,-426.6318C694.2432,-416.7661 670.8709,-325.2464 630,-277 567.0921,-202.7397 476.9079,-315.2603 414,-241 387.1395,-209.2923 372.4444,-147.5 414,-147.5"/>
<polygon fill="#000000" stroke="#000000" points="639.9638,-426.6496 629.6173,-423.0163 634.9819,-427.0748 630,-427.5 630,-427.5 630,-427.5 634.9819,-427.0748 630.3827,-431.9837 639.9638,-426.6496 639.9638,-426.6496"/>
<text text-anchor="start" x="636.6155" y="-437.5" font-family="Arial" font-size="10.00" fill="#000000">FOREIGN KEY (city_id) REFERENCES city (city_id)</text>
</g>
<!-- customer -->
<g id="node2" class="node">
<title>customer</title>
<polygon fill="#efefef" stroke="transparent" points="68,-1022.5 68,-1057.5 308,-1057.5 308,-1022.5 68,-1022.5"/>
<polygon fill="none" stroke="#000000" points="68,-1022.5 68,-1057.5 308,-1057.5 308,-1022.5 68,-1022.5"/>
<text text-anchor="start" x="87.2134" y="-1035.3" font-family="Arial Bold" font-size="18.00" fill="#000000">customer</text>
<text text-anchor="start" x="161.2186" y="-1035.3" font-family="Arial" font-size="14.00" fill="#000000">    </text>
<text text-anchor="start" x="195.4234" y="-1035.3" font-family="Arial" font-size="14.00" fill="#666666">[BASE TABLE]</text>
<polygon fill="none" stroke="#000000" points="68,-992.5 68,-1022.5 308,-1022.5 308,-992.5 68,-992.5"/>
<text text-anchor="start" x="74.8268" y="-1003.9" font-family="Arial" font-size="14.00" fill="#000000">customer_id    </text>
<text text-anchor="start" x="185.263" y="-1003.9" font-family="Arial" font-size="14.00" fill="#666666">[smallint unsigned]</text>
<polygon fill="none" stroke="#000000" points="68,-962.5 68,-992.5 308,-992.5 308,-962.5 68,-962.5"/>
<text text-anchor="start" x="75" y="-973.9" font-family="Arial" font-size="14.00" fill="#000000">store_id    </text>
<text text-anchor="start" x="158.993" y="-973.9" font-family="Arial" font-size="14.00" fill="#666666">[tinyint unsigned]</text>
<polygon fill="none" stroke="#000000" points="68,-932.5 68,-962.5 308,-962.5 308,-932.5 68,-932.5"/>
<text text-anchor="start" x="75" y="-943.9" font-family="Arial" font-size="14.00" fill="#000000">first_name    </text>
<text text-anchor="start" x="174.5442" y="-943.9" font-family="Arial" font-size="14.00" fill="#666666">[varchar(45)]</text>
<polygon fill="none" stroke="#000000" points="68,-902.5 68,-932.5 308,-932.5 308,-902.5 68,-902.5"/>
<text text-anchor="start" x="75" y="-913.9" font-family="Arial" font-size="14.00" fill="#000000">last_name    </text>
<text text-anchor="start" x="173.7756" y="-913.9" font-family="Arial" font-size="14.00" fill="#666666">[varchar(45)]</text>
<polygon fill="none" stroke="#000000" points="68,-872.5 68,-902.5 308,-902.5 308,-872.5 68,-872.5"/>
<text text-anchor="start" x="75" y="-883.9" font-family="Arial" font-size="14.00" fill="#000000">email    </text>
<text text-anchor="start" x="142.6438" y="-883.9" font-family="Arial" font-size="14.00" fill="#666666">[varchar(50)]</text>
<polygon fill="none" stroke="#000000" points="68,-842.5 68,-872.5 308,-872.5 308,-842.5 68,-842.5"/>
<text text-anchor="start" x="75" y="-853.9" font-family="Arial" font-size="14.00" fill="#000000">address_id    </text>
<text text-anchor="start" x="177.6676" y="-853.9" font-family="Arial" font-size="14.00" fill="#666666">[smallint unsigned]</text>
<polygon fill="none" stroke="#000000" points="68,-812.5 68,-842.5 308,-842.5 308,-812.5 68,-812.5"/>
<text text-anchor="start" x="75" y="-823.9" font-family="Arial" font-size="14.00" fill="#000000">active    </text>
<text text-anchor="start" x="145.7672" y="-823.9" font-family="Arial" font-size="14.00" fill="#666666">[tinyint(1)]</text>
<polygon fill="none" stroke="#000000" points="68,-782.5 68,-812.5 308,-812.5 308,-782.5 68,-782.5"/>
<text text-anchor="start" x="75" y="-793.9" font-family="Arial" font-size="14.00" fill="#000000">create_date    </text>
<text text-anchor="start" x="183.1248" y="-793.9" font-family="Arial" font-size="14.00" fill="#666666">[datetime]</text>
<polygon fill="none" stroke="#000000" points="68,-752.5 68,-782.5 308,-782.5 308,-752.5 68,-752.5"/>
<text text-anchor="start" x="75" y="-763.9" font-family="Arial" font-size="14.00" fill="#000000">last_update    </text>
<text text-anchor="start" x="181.5708" y="-763.9" font-family="Arial" font-size="14.00" fill="#666666">[timestamp]</text>
</g>
<!-- customer&#45;&gt;address -->
<g id="edge1" class="edge">
<title>customer:address_id&#45;&gt;address:address_id</title>
<path fill="none" stroke="#000000" d="M318.2386,-856.9007C384.9975,-848.486 331.5703,-753.1836 360,-680 383.7518,-618.8582 359.4068,-547.5 425,-547.5"/>
<polygon fill="#000000" stroke="#000000" points="317.9829,-856.9155 307.737,-853.0077 312.9915,-857.2078 308,-857.5 308,-857.5 308,-857.5 312.9915,-857.2078 308.263,-861.9923 317.9829,-856.9155 317.9829,-856.9155"/>
<text text-anchor="start" x="6.765" y="-867.5" font-family="Arial" font-size="10.00" fill="#000000">FOREIGN KEY (address_id) REFERENCES address (address_id)</text>
</g>
<!-- staff -->
<g id="node3" class="node">
<title>staff</title>
<polygon fill="#efefef" stroke="transparent" points="412,-1052.5 412,-1087.5 644,-1087.5 644,-1052.5 412,-1052.5"/>
<polygon fill="none" stroke="#000000" points="412,-1052.5 412,-1087.5 644,-1087.5 644,-1052.5 412,-1052.5"/>
<text text-anchor="start" x="447.2096" y="-1065.3" font-family="Arial Bold" font-size="18.00" fill="#000000">staff</text>
<text text-anchor="start" x="481.2224" y="-1065.3" font-family="Arial" font-size="14.00" fill="#000000">    </text>
<text text-anchor="start" x="515.4272" y="-1065.3" font-family="Arial" font-size="14.00" fill="#666666">[BASE TABLE]</text>
<polygon fill="none" stroke="#000000" points="412,-1022.5 412,-1052.5 644,-1052.5 644,-1022.5 412,-1022.5"/>
<text text-anchor="start" x="419" y="-1033.9" font-family="Arial" font-size="14.00" fill="#000000">staff_id    </text>
<text text-anchor="start" x="498.331" y="-1033.9" font-family="Arial" font-size="14.00" fill="#666666">[tinyint unsigned]</text>
<polygon fill="none" stroke="#000000" points="412,-992.5 412,-1022.5 644,-1022.5 644,-992.5 412,-992.5"/>
<text text-anchor="start" x="419" y="-1003.9" font-family="Arial" font-size="14.00" fill="#000000">first_name    </text>
<text text-anchor="start" x="518.5442" y="-1003.9" font-family="Arial" font-size="14.00" fill="#666666">[varchar(45)]</text>
<polygon fill="none" stroke="#000000" points="412,-962.5 412,-992.5 644,-992.5 644,-962.5 412,-962.5"/>
<text text-anchor="start" x="419" y="-973.9" font-family="Arial" font-size="14.00" fill="#000000">last_name    </text>
<text text-anchor="start" x="517.7756" y="-973.9" font-family="Arial" font-size="14.00" fill="#666666">[varchar(45)]</text>
<polygon fill="none" stroke="#000000" points="412,-932.5 412,-962.5 644,-962.5 644,-932.5 412,-932.5"/>
<text text-anchor="start" x="418.7111" y="-943.9" font-family="Arial" font-size="14.00" fill="#000000">address_id    </text>
<text text-anchor="start" x="521.3787" y="-943.9" font-family="Arial" font-size="14.00" fill="#666666">[smallint unsigned]</text>
<polygon fill="none" stroke="#000000" points="412,-902.5 412,-932.5 644,-932.5 644,-902.5 412,-902.5"/>
<text text-anchor="start" x="419" y="-913.9" font-family="Arial" font-size="14.00" fill="#000000">picture    </text>
<text text-anchor="start" x="495.2104" y="-913.9" font-family="Arial" font-size="14.00" fill="#666666">[blob]</text>
<polygon fill="none" stroke="#000000" points="412,-872.5 412,-902.5 644,-902.5 644,-872.5 412,-872.5"/>
<text text-anchor="start" x="419" y="-883.9" font-family="Arial" font-size="14.00" fill="#000000">email    </text>
<text text-anchor="start" x="486.6438" y="-883.9" font-family="Arial" font-size="14.00" fill="#666666">[varchar(50)]</text>
<polygon fill="none" stroke="#000000" points="412,-842.5 412,-872.5 644,-872.5 644,-842.5 412,-842.5"/>
<text text-anchor="start" x="419" y="-853.9" font-family="Arial" font-size="14.00" fill="#000000">store_id    </text>
<text text-anchor="start" x="502.993" y="-853.9" font-family="Arial" font-size="14.00" fill="#666666">[tinyint unsigned]</text>
<polygon fill="none" stroke="#000000" points="412,-812.5 412,-842.5 644,-842.5 644,-812.5 412,-812.5"/>
<text text-anchor="start" x="419" y="-823.9" font-family="Arial" font-size="14.00" fill="#000000">active    </text>
<text text-anchor="start" x="489.7672" y="-823.9" font-family="Arial" font-size="14.00" fill="#666666">[tinyint(1)]</text>
<polygon fill="none" stroke="#000000" points="412,-782.5 412,-812.5 644,-812.5 644,-782.5 412,-782.5"/>
<text text-anchor="start" x="419" y="-793.9" font-family="Arial" font-size="14.00" fill="#000000">username    </text>
<text text-anchor="start" x="515.439" y="-793.9" font-family="Arial" font-size="14.00" fill="#666666">[varchar(16)]</text>
<polygon fill="none" stroke="#000000" points="412,-752.5 412,-782.5 644,-782.5 644,-752.5 412,-752.5"/>
<text text-anchor="start" x="419" y="-763.9" font-family="Arial" font-size="14.00" fill="#000000">password    </text>
<text text-anchor="start" x="513.1024" y="-763.9" font-family="Arial" font-size="14.00" fill="#666666">[varchar(40)]</text>
<polygon fill="none" stroke="#000000" points="412,-722.5 412,-752.5 644,-752.5 644,-722.5 412,-722.5"/>
<text text-anchor="start" x="419" y="-733.9" font-family="Arial" font-size="14.00" fill="#000000">last_update    </text>
<text text-anchor="start" x="525.5708" y="-733.9" font-family="Arial" font-size="14.00" fill="#666666">[timestamp]</text>
</g>
<!-- staff&#45;&gt;address -->
<g id="edge2" class="edge">
<title>staff:address_id&#45;&gt;address:address_id</title>
<path fill="none" stroke="#000000" d="M402.0731,-945.1452C355.161,-921.2447 375.8713,-722.5842 412,-680 475.5305,-605.1178 566.4695,-718.8822 630,-644 657.7466,-611.2956 672.8889,-547.5 630,-547.5"/>
<polygon fill="#000000" stroke="#000000" points="402.27,-945.1918 410.9613,-951.8785 407.135,-946.3459 412,-947.5 412,-947.5 412,-947.5 407.135,-946.3459 413.0387,-943.1215 402.27,-945.1918 402.27,-945.1918"/>
<text text-anchor="start" x="187.765" y="-931.5" font-family="Arial" font-size="10.00" fill="#000000">FOREIGN KEY (address_id) REFERENCES address (address_id)</text>
</g>
<!-- store -->
<g id="node4" class="node">
<title>store</title>
<polygon fill="#efefef" stroke="transparent" points="749,-947.5 749,-982.5 1010,-982.5 1010,-947.5 749,-947.5"/>
<polygon fill="none" stroke="#000000" points="749,-947.5 749,-982.5 1010,-982.5 1010,-947.5 749,-947.5"/>
<text text-anchor="start" x="795.7126" y="-960.3" font-family="Arial Bold" font-size="18.00" fill="#000000">store</text>
<text text-anchor="start" x="835.7194" y="-960.3" font-family="Arial" font-size="14.00" fill="#000000">    </text>
<text text-anchor="start" x="869.9242" y="-960.3" font-family="Arial" font-size="14.00" fill="#666666">[BASE TABLE]</text>
<polygon fill="none" stroke="#000000" points="749,-917.5 749,-947.5 1010,-947.5 1010,-917.5 749,-917.5"/>
<text text-anchor="start" x="756" y="-928.9" font-family="Arial" font-size="14.00" fill="#000000">store_id    </text>
<text text-anchor="start" x="839.993" y="-928.9" font-family="Arial" font-size="14.00" fill="#666666">[tinyint unsigned]</text>
<polygon fill="none" stroke="#000000" points="749,-887.5 749,-917.5 1010,-917.5 1010,-887.5 749,-887.5"/>
<text text-anchor="start" x="755.8093" y="-898.9" font-family="Arial" font-size="14.00" fill="#000000">manager_staff_id    </text>
<text text-anchor="start" x="898.1571" y="-898.9" font-family="Arial" font-size="14.00" fill="#666666">[tinyint unsigned]</text>
<polygon fill="none" stroke="#000000" points="749,-857.5 749,-887.5 1010,-887.5 1010,-857.5 749,-857.5"/>
<text text-anchor="start" x="756" y="-868.9" font-family="Arial" font-size="14.00" fill="#000000">address_id    </text>
<text text-anchor="start" x="858.6676" y="-868.9" font-family="Arial" font-size="14.00" fill="#666666">[smallint unsigned]</text>
<polygon fill="none" stroke="#000000" points="749,-827.5 749,-857.5 1010,-857.5 1010,-827.5 749,-827.5"/>
<text text-anchor="start" x="756" y="-838.9" font-family="Arial" font-size="14.00" fill="#000000">last_update    </text>
<text text-anchor="start" x="862.5708" y="-838.9" font-family="Arial" font-size="14.00" fill="#666666">[timestamp]</text>
</g>
<!-- store&#45;&gt;address -->
<g id="edge3" class="edge">
<title>store:address_id&#45;&gt;address:address_id</title>
<path fill="none" stroke="#000000" d="M738.8516,-871.9562C665.627,-863.5528 726.4082,-759.4811 696,-680 672.4915,-618.5533 695.7902,-547.5 630,-547.5"/>
<polygon fill="#000000" stroke="#000000" points="739.0143,-871.9648 748.7592,-876.9936 744.0072,-872.2324 749,-872.5 749,-872.5 749,-872.5 744.0072,-872.2324 749.2408,-868.0064 739.0143,-871.9648 739.0143,-871.9648"/>
<text text-anchor="start" x="755.765" y="-882.5" font-family="Arial" font-size="10.00" fill="#000000">FOREIGN KEY (address_id) REFERENCES address (address_id)</text>
</g>
</g>
</svg>
