<?xml version="1.0" encoding="UTF-8" standalone="no"?>
<!DOCTYPE svg PUBLIC "-//W3C//DTD SVG 1.1//EN"
 "http://www.w3.org/Graphics/SVG/1.1/DTD/svg11.dtd">
<!-- Generated by graphviz version 2.40.1 (20161225.0304)
 -->
<!-- Title: category Pages: 1 -->
<svg width="615pt" height="472pt"
 viewBox="0.00 0.00 615.00 472.00" xmlns="http://www.w3.org/2000/svg" xmlns:xlink="http://www.w3.org/1999/xlink">
<g id="graph0" class="graph" transform="scale(1 1) rotate(0) translate(4 468)">
<title>category</title>
<polygon fill="#ffffff" stroke="transparent" points="-4,4 -4,-468 611,-468 611,4 -4,4"/>
<!-- category -->
<g id="node1" class="node">
<title>category</title>
<polygon fill="#efefef" stroke="transparent" points="62,-135.5 62,-170.5 272,-170.5 272,-135.5 62,-135.5"/>
<polygon fill="none" stroke="#000000" points="62,-135.5 62,-170.5 272,-170.5 272,-135.5 62,-135.5"/>
<text text-anchor="start" x="68.7064" y="-148.3" font-family="Arial Bold" font-size="18.00" fill="#000000">category</text>
<text text-anchor="start" x="137.7256" y="-148.3" font-family="Arial" font-size="14.00" fill="#000000">    </text>
<text text-anchor="start" x="171.9304" y="-148.3" font-family="Arial" font-size="14.00" fill="#666666">[BASE TABLE]</text>
<polygon fill="none" stroke="#000000" points="62,-105.5 62,-135.5 272,-135.5 272,-105.5 62,-105.5"/>
<text text-anchor="start" x="69" y="-116.9" font-family="Arial" font-size="14.00" fill="#000000">category_id </text>
<text text-anchor="start" x="145.244" y="-116.9" font-family="Arial" font-size="14.00" fill="#666666">[tinyint unsigned]</text>
<polygon fill="none" stroke="#000000" points="62,-75.5 62,-105.5 272,-105.5 272,-75.5 62,-75.5"/>
<text text-anchor="start" x="69" y="-86.9" font-family="Arial" font-size="14.00" fill="#000000">name </text>
<text text-anchor="start" x="107.899" y="-86.9" font-family="Arial" font-size="14.00" fill="#666666">[varchar(25)]</text>
<polygon fill="none" stroke="#000000" points="62,-45.5 62,-75.5 272,-75.5 272,-45.5 62,-45.5"/>
<text text-anchor="start" x="69" y="-56.9" font-family="Arial" font-size="14.00" fill="#000000">last_update </text>
<text text-anchor="start" x="145.2566" y="-56.9" font-family="Arial" font-size="14.00" fill="#666666">[timestamp]</text>
<polygon fill="none" stroke="#000000" stroke-width="3" points="60.5,-44.5 60.5,-172.5 273.5,-172.5 273.5,-44.5 60.5,-44.5"/>
</g>
<!-- film_category -->
<g id="node2" class="node">
<title>film_category</title>
<polygon fill="#efefef" stroke="transparent" points="43,-385.5 43,-420.5 291,-420.5 291,-385.5 43,-385.5"/>
<polygon fill="none" stroke="#000000" points="43,-385.5 43,-420.5 291,-420.5 291,-385.5 43,-385.5"/>
<text text-anchor="start" x="49.7119" y="-398.3" font-family="Arial Bold" font-size="18.00" fill="#000000">film_category</text>
<text text-anchor="start" x="156.7201" y="-398.3" font-family="Arial" font-size="14.00" fill="#000000">    </text>
<text text-anchor="start" x="190.9249" y="-398.3" font-family="Arial" font-size="14.00" fill="#666666">[BASE TABLE]</text>
<polygon fill="none" stroke="#000000" points="43,-355.5 43,-385.5 291,-385.5 291,-355.5 43,-355.5"/>
<text text-anchor="start" x="50" y="-366.9" font-family="Arial" font-size="14.00" fill="#000000">film_id    </text>
<text text-anchor="start" x="124.641" y="-366.9" font-family="Arial" font-size="14.00" fill="#666666">[smallint unsigned]</text>
<polygon fill="none" stroke="#000000" points="43,-325.5 43,-355.5 291,-355.5 291,-325.5 43,-325.5"/>
<text text-anchor="start" x="50" y="-336.9" font-family="Arial" font-size="14.00" fill="#000000">category_id    </text>
<text text-anchor="start" x="156.5582" y="-336.9" font-family="Arial" font-size="14.00" fill="#666666">[tinyint unsigned]</text>
<polygon fill="none" stroke="#000000" points="43,-295.5 43,-325.5 291,-325.5 291,-295.5 43,-295.5"/>
<text text-anchor="start" x="50" y="-306.9" font-family="Arial" font-size="14.00" fill="#000000">last_update    </text>
<text text-anchor="start" x="156.5708" y="-306.9" font-family="Arial" font-size="14.00" fill="#666666">[timestamp]</text>
</g>
<!-- film_category&#45;&gt;category -->
<g id="edge1" class="edge">
<title>film_category:category_id&#45;&gt;category:category_id</title>
<path fill="none" stroke="#000000" d="M301.1814,-339.6591C387.6654,-324.8888 366.5956,-120.5 272,-120.5"/>
<polygon fill="#000000" stroke="#000000" points="300.9661,-339.6768 290.6295,-336.0153 295.983,-340.0884 291,-340.5 291,-340.5 291,-340.5 295.983,-340.0884 291.3705,-344.9847 300.9661,-339.6768 300.9661,-339.6768"/>
<text text-anchor="start" x="297.5965" y="-350.5" font-family="Arial" font-size="10.00" fill="#000000">FOREIGN KEY (category_id) REFERENCES category (category_id)</text>
</g>
</g>
</svg>
