<?xml version="1.0" encoding="UTF-8" standalone="no"?>
<!DOCTYPE svg PUBLIC "-//W3C//DTD SVG 1.1//EN"
 "http://www.w3.org/Graphics/SVG/1.1/DTD/svg11.dtd">
<!-- Generated by graphviz version 2.40.1 (20161225.0304)
 -->
<!-- Title: city Pages: 1 -->
<svg width="566pt" height="899pt"
 viewBox="0.00 0.00 566.00 899.00" xmlns="http://www.w3.org/2000/svg" xmlns:xlink="http://www.w3.org/1999/xlink">
<g id="graph0" class="graph" transform="scale(1 1) rotate(0) translate(4 895)">
<title>city</title>
<polygon fill="#ffffff" stroke="transparent" points="-4,4 -4,-895 562,-895 562,4 -4,4"/>
<!-- city -->
<g id="node1" class="node">
<title>city</title>
<polygon fill="#efefef" stroke="transparent" points="60,-412.5 60,-447.5 258,-447.5 258,-412.5 60,-412.5"/>
<polygon fill="none" stroke="#000000" points="60,-412.5 60,-447.5 258,-447.5 258,-412.5 60,-412.5"/>
<text text-anchor="start" x="81.7178" y="-425.3" font-family="Arial Bold" font-size="18.00" fill="#000000">city</text>
<text text-anchor="start" x="108.7142" y="-425.3" font-family="Arial" font-size="14.00" fill="#000000">    </text>
<text text-anchor="start" x="142.919" y="-425.3" font-family="Arial" font-size="14.00" fill="#666666">[BASE TABLE]</text>
<polygon fill="none" stroke="#000000" points="60,-382.5 60,-412.5 258,-412.5 258,-382.5 60,-382.5"/>
<text text-anchor="start" x="67" y="-393.9" font-family="Arial" font-size="14.00" fill="#000000">city_id </text>
<text text-anchor="start" x="110.5596" y="-393.9" font-family="Arial" font-size="14.00" fill="#666666">[smallint unsigned]</text>
<polygon fill="none" stroke="#000000" points="60,-352.5 60,-382.5 258,-382.5 258,-352.5 60,-352.5"/>
<text text-anchor="start" x="67" y="-363.9" font-family="Arial" font-size="14.00" fill="#000000">city </text>
<text text-anchor="start" x="91.8878" y="-363.9" font-family="Arial" font-size="14.00" fill="#666666">[varchar(50)]</text>
<polygon fill="none" stroke="#000000" points="60,-322.5 60,-352.5 258,-352.5 258,-322.5 60,-322.5"/>
<text text-anchor="start" x="66.8142" y="-333.9" font-family="Arial" font-size="14.00" fill="#000000">country_id </text>
<text text-anchor="start" x="135.2756" y="-333.9" font-family="Arial" font-size="14.00" fill="#666666">[smallint unsigned]</text>
<polygon fill="none" stroke="#000000" points="60,-292.5 60,-322.5 258,-322.5 258,-292.5 60,-292.5"/>
<text text-anchor="start" x="67" y="-303.9" font-family="Arial" font-size="14.00" fill="#000000">last_update </text>
<text text-anchor="start" x="143.2566" y="-303.9" font-family="Arial" font-size="14.00" fill="#666666">[timestamp]</text>
<polygon fill="none" stroke="#000000" stroke-width="3" points="58.5,-291.5 58.5,-449.5 259.5,-449.5 259.5,-291.5 58.5,-291.5"/>
</g>
<!-- country -->
<g id="node3" class="node">
<title>country</title>
<polygon fill="#efefef" stroke="transparent" points="45,-132.5 45,-167.5 273,-167.5 273,-132.5 45,-132.5"/>
<polygon fill="none" stroke="#000000" points="45,-132.5 45,-167.5 273,-167.5 273,-132.5 45,-132.5"/>
<text text-anchor="start" x="65.7095" y="-145.3" font-family="Arial Bold" font-size="18.00" fill="#000000">country</text>
<text text-anchor="start" x="124.7225" y="-145.3" font-family="Arial" font-size="14.00" fill="#000000">    </text>
<text text-anchor="start" x="158.9273" y="-145.3" font-family="Arial" font-size="14.00" fill="#666666">[BASE TABLE]</text>
<polygon fill="none" stroke="#000000" points="45,-102.5 45,-132.5 273,-132.5 273,-102.5 45,-102.5"/>
<text text-anchor="start" x="51.6571" y="-113.9" font-family="Arial" font-size="14.00" fill="#000000">country_id    </text>
<text text-anchor="start" x="150.4327" y="-113.9" font-family="Arial" font-size="14.00" fill="#666666">[smallint unsigned]</text>
<polygon fill="none" stroke="#000000" points="45,-72.5 45,-102.5 273,-102.5 273,-72.5 45,-72.5"/>
<text text-anchor="start" x="52" y="-83.9" font-family="Arial" font-size="14.00" fill="#000000">country    </text>
<text text-anchor="start" x="132.1038" y="-83.9" font-family="Arial" font-size="14.00" fill="#666666">[varchar(50)]</text>
<polygon fill="none" stroke="#000000" points="45,-42.5 45,-72.5 273,-72.5 273,-42.5 45,-42.5"/>
<text text-anchor="start" x="52" y="-53.9" font-family="Arial" font-size="14.00" fill="#000000">last_update    </text>
<text text-anchor="start" x="158.5708" y="-53.9" font-family="Arial" font-size="14.00" fill="#666666">[timestamp]</text>
</g>
<!-- city&#45;&gt;country -->
<g id="edge2" class="edge">
<title>city:country_id&#45;&gt;country:country_id</title>
<path fill="none" stroke="#000000" d="M268.0274,-336.7034C356.9198,-322.3032 367.5593,-117.5 273,-117.5"/>
<polygon fill="#000000" stroke="#000000" points="267.9686,-336.708 257.6436,-333.0141 262.9843,-337.104 258,-337.5 258,-337.5 258,-337.5 262.9843,-337.104 258.3564,-341.9859 267.9686,-336.708 267.9686,-336.708"/>
<text text-anchor="start" x="264.935" y="-347.5" font-family="Arial" font-size="10.00" fill="#000000">FOREIGN KEY (country_id) REFERENCES country (country_id)</text>
</g>
<!-- address -->
<g id="node2" class="node">
<title>address</title>
<polygon fill="#efefef" stroke="transparent" points="43,-812.5 43,-847.5 275,-847.5 275,-812.5 43,-812.5"/>
<polygon fill="none" stroke="#000000" points="43,-812.5 43,-847.5 275,-847.5 275,-812.5 43,-812.5"/>
<text text-anchor="start" x="63.2075" y="-825.3" font-family="Arial Bold" font-size="18.00" fill="#000000">address</text>
<text text-anchor="start" x="127.2245" y="-825.3" font-family="Arial" font-size="14.00" fill="#000000">    </text>
<text text-anchor="start" x="161.4293" y="-825.3" font-family="Arial" font-size="14.00" fill="#666666">[BASE TABLE]</text>
<polygon fill="none" stroke="#000000" points="43,-782.5 43,-812.5 275,-812.5 275,-782.5 43,-782.5"/>
<text text-anchor="start" x="49.7111" y="-793.9" font-family="Arial" font-size="14.00" fill="#000000">address_id    </text>
<text text-anchor="start" x="152.3787" y="-793.9" font-family="Arial" font-size="14.00" fill="#666666">[smallint unsigned]</text>
<polygon fill="none" stroke="#000000" points="43,-752.5 43,-782.5 275,-782.5 275,-752.5 43,-752.5"/>
<text text-anchor="start" x="50" y="-763.9" font-family="Arial" font-size="14.00" fill="#000000">address    </text>
<text text-anchor="start" x="133.9958" y="-763.9" font-family="Arial" font-size="14.00" fill="#666666">[varchar(50)]</text>
<polygon fill="none" stroke="#000000" points="43,-722.5 43,-752.5 275,-752.5 275,-722.5 43,-722.5"/>
<text text-anchor="start" x="50" y="-733.9" font-family="Arial" font-size="14.00" fill="#000000">address2    </text>
<text text-anchor="start" x="141.7784" y="-733.9" font-family="Arial" font-size="14.00" fill="#666666">[varchar(50)]</text>
<polygon fill="none" stroke="#000000" points="43,-692.5 43,-722.5 275,-722.5 275,-692.5 43,-692.5"/>
<text text-anchor="start" x="50" y="-703.9" font-family="Arial" font-size="14.00" fill="#000000">district    </text>
<text text-anchor="start" x="124.6424" y="-703.9" font-family="Arial" font-size="14.00" fill="#666666">[varchar(20)]</text>
<polygon fill="none" stroke="#000000" points="43,-662.5 43,-692.5 275,-692.5 275,-662.5 43,-662.5"/>
<text text-anchor="start" x="50" y="-673.9" font-family="Arial" font-size="14.00" fill="#000000">city_id    </text>
<text text-anchor="start" x="123.8738" y="-673.9" font-family="Arial" font-size="14.00" fill="#666666">[smallint unsigned]</text>
<polygon fill="none" stroke="#000000" points="43,-632.5 43,-662.5 275,-662.5 275,-632.5 43,-632.5"/>
<text text-anchor="start" x="50" y="-643.9" font-family="Arial" font-size="14.00" fill="#000000">postal_code    </text>
<text text-anchor="start" x="159.6802" y="-643.9" font-family="Arial" font-size="14.00" fill="#666666">[varchar(10)]</text>
<polygon fill="none" stroke="#000000" points="43,-602.5 43,-632.5 275,-632.5 275,-602.5 43,-602.5"/>
<text text-anchor="start" x="50" y="-613.9" font-family="Arial" font-size="14.00" fill="#000000">phone    </text>
<text text-anchor="start" x="123.1178" y="-613.9" font-family="Arial" font-size="14.00" fill="#666666">[varchar(20)]</text>
<polygon fill="none" stroke="#000000" points="43,-572.5 43,-602.5 275,-602.5 275,-572.5 43,-572.5"/>
<text text-anchor="start" x="50" y="-583.9" font-family="Arial" font-size="14.00" fill="#000000">last_update    </text>
<text text-anchor="start" x="156.5708" y="-583.9" font-family="Arial" font-size="14.00" fill="#666666">[timestamp]</text>
</g>
<!-- address&#45;&gt;city -->
<g id="edge1" class="edge">
<title>address:city_id&#45;&gt;city:city_id</title>
<path fill="none" stroke="#000000" d="M285.2523,-676.839C398.6243,-661.8652 379.1428,-397.5 258,-397.5"/>
<polygon fill="#000000" stroke="#000000" points="284.9793,-676.8565 274.7104,-673.0093 279.9896,-677.1783 275,-677.5 275,-677.5 275,-677.5 279.9896,-677.1783 275.2896,-681.9907 284.9793,-676.8565 284.9793,-676.8565"/>
<text text-anchor="start" x="281.6155" y="-687.5" font-family="Arial" font-size="10.00" fill="#000000">FOREIGN KEY (city_id) REFERENCES city (city_id)</text>
</g>
</g>
</svg>
