<?xml version="1.0" encoding="UTF-8" standalone="no"?>
<!DOCTYPE svg PUBLIC "-//W3C//DTD SVG 1.1//EN"
 "http://www.w3.org/Graphics/SVG/1.1/DTD/svg11.dtd">
<!-- Generated by graphviz version 2.40.1 (20161225.0304)
 -->
<!-- Title: country Pages: 1 -->
<svg width="579pt" height="502pt"
 viewBox="0.00 0.00 579.00 502.00" xmlns="http://www.w3.org/2000/svg" xmlns:xlink="http://www.w3.org/1999/xlink">
<g id="graph0" class="graph" transform="scale(1 1) rotate(0) translate(4 498)">
<title>country</title>
<polygon fill="#ffffff" stroke="transparent" points="-4,4 -4,-498 575,-498 575,4 -4,4"/>
<!-- country -->
<g id="node1" class="node">
<title>country</title>
<polygon fill="#efefef" stroke="transparent" points="57,-135.5 57,-170.5 257,-170.5 257,-135.5 57,-135.5"/>
<polygon fill="none" stroke="#000000" points="57,-135.5 57,-170.5 257,-170.5 257,-135.5 57,-135.5"/>
<text text-anchor="start" x="63.7095" y="-148.3" font-family="Arial Bold" font-size="18.00" fill="#000000">country</text>
<text text-anchor="start" x="122.7225" y="-148.3" font-family="Arial" font-size="14.00" fill="#000000">    </text>
<text text-anchor="start" x="156.9273" y="-148.3" font-family="Arial" font-size="14.00" fill="#666666">[BASE TABLE]</text>
<polygon fill="none" stroke="#000000" points="57,-105.5 57,-135.5 257,-135.5 257,-105.5 57,-105.5"/>
<text text-anchor="start" x="64" y="-116.9" font-family="Arial" font-size="14.00" fill="#000000">country_id </text>
<text text-anchor="start" x="132.4614" y="-116.9" font-family="Arial" font-size="14.00" fill="#666666">[smallint unsigned]</text>
<polygon fill="none" stroke="#000000" points="57,-75.5 57,-105.5 257,-105.5 257,-75.5 57,-75.5"/>
<text text-anchor="start" x="64" y="-86.9" font-family="Arial" font-size="14.00" fill="#000000">country </text>
<text text-anchor="start" x="113.7896" y="-86.9" font-family="Arial" font-size="14.00" fill="#666666">[varchar(50)]</text>
<polygon fill="none" stroke="#000000" points="57,-45.5 57,-75.5 257,-75.5 257,-45.5 57,-45.5"/>
<text text-anchor="start" x="64" y="-56.9" font-family="Arial" font-size="14.00" fill="#000000">last_update </text>
<text text-anchor="start" x="140.2566" y="-56.9" font-family="Arial" font-size="14.00" fill="#666666">[timestamp]</text>
<polygon fill="none" stroke="#000000" stroke-width="3" points="55.5,-44.5 55.5,-172.5 258.5,-172.5 258.5,-44.5 55.5,-44.5"/>
</g>
<!-- city -->
<g id="node2" class="node">
<title>city</title>
<polygon fill="#efefef" stroke="transparent" points="43,-415.5 43,-450.5 271,-450.5 271,-415.5 43,-415.5"/>
<polygon fill="none" stroke="#000000" points="43,-415.5 43,-450.5 271,-450.5 271,-415.5 43,-415.5"/>
<text text-anchor="start" x="79.7178" y="-428.3" font-family="Arial Bold" font-size="18.00" fill="#000000">city</text>
<text text-anchor="start" x="106.7142" y="-428.3" font-family="Arial" font-size="14.00" fill="#000000">    </text>
<text text-anchor="start" x="140.919" y="-428.3" font-family="Arial" font-size="14.00" fill="#666666">[BASE TABLE]</text>
<polygon fill="none" stroke="#000000" points="43,-385.5 43,-415.5 271,-415.5 271,-385.5 43,-385.5"/>
<text text-anchor="start" x="50" y="-396.9" font-family="Arial" font-size="14.00" fill="#000000">city_id    </text>
<text text-anchor="start" x="123.8738" y="-396.9" font-family="Arial" font-size="14.00" fill="#666666">[smallint unsigned]</text>
<polygon fill="none" stroke="#000000" points="43,-355.5 43,-385.5 271,-385.5 271,-355.5 43,-355.5"/>
<text text-anchor="start" x="50" y="-366.9" font-family="Arial" font-size="14.00" fill="#000000">city    </text>
<text text-anchor="start" x="105.202" y="-366.9" font-family="Arial" font-size="14.00" fill="#666666">[varchar(50)]</text>
<polygon fill="none" stroke="#000000" points="43,-325.5 43,-355.5 271,-355.5 271,-325.5 43,-325.5"/>
<text text-anchor="start" x="49.6571" y="-336.9" font-family="Arial" font-size="14.00" fill="#000000">country_id    </text>
<text text-anchor="start" x="148.4327" y="-336.9" font-family="Arial" font-size="14.00" fill="#666666">[smallint unsigned]</text>
<polygon fill="none" stroke="#000000" points="43,-295.5 43,-325.5 271,-325.5 271,-295.5 43,-295.5"/>
<text text-anchor="start" x="50" y="-306.9" font-family="Arial" font-size="14.00" fill="#000000">last_update    </text>
<text text-anchor="start" x="156.5708" y="-306.9" font-family="Arial" font-size="14.00" fill="#666666">[timestamp]</text>
</g>
<!-- city&#45;&gt;country -->
<g id="edge1" class="edge">
<title>city:country_id&#45;&gt;country:country_id</title>
<path fill="none" stroke="#000000" d="M281.1831,-339.6591C367.8542,-324.8888 351.4354,-120.5 257,-120.5"/>
<polygon fill="#000000" stroke="#000000" points="280.9661,-339.6769 270.6296,-336.0153 275.983,-340.0885 271,-340.5 271,-340.5 271,-340.5 275.983,-340.0885 271.3704,-344.9847 280.9661,-339.6769 280.9661,-339.6769"/>
<text text-anchor="start" x="277.935" y="-350.5" font-family="Arial" font-size="10.00" fill="#000000">FOREIGN KEY (country_id) REFERENCES country (country_id)</text>
</g>
</g>
</svg>
