<?xml version="1.0" encoding="UTF-8" standalone="no"?>
<!DOCTYPE svg PUBLIC "-//W3C//DTD SVG 1.1//EN"
 "http://www.w3.org/Graphics/SVG/1.1/DTD/svg11.dtd">
<!-- Generated by graphviz version 2.40.1 (20161225.0304)
 -->
<!-- Title: customer Pages: 1 -->
<svg width="804pt" height="1169pt"
 viewBox="0.00 0.00 804.00 1169.00" xmlns="http://www.w3.org/2000/svg" xmlns:xlink="http://www.w3.org/1999/xlink">
<g id="graph0" class="graph" transform="scale(1 1) rotate(0) translate(4 1165)">
<title>customer</title>
<polygon fill="#ffffff" stroke="transparent" points="-4,4 -4,-1165 800,-1165 800,4 -4,4"/>
<!-- customer -->
<g id="node1" class="node">
<title>customer</title>
<polygon fill="#efefef" stroke="transparent" points="273,-712.5 273,-747.5 488,-747.5 488,-712.5 273,-712.5"/>
<polygon fill="none" stroke="#000000" points="273,-712.5 273,-747.5 488,-747.5 488,-712.5 273,-712.5"/>
<text text-anchor="start" x="279.7134" y="-725.3" font-family="Arial Bold" font-size="18.00" fill="#000000">customer</text>
<text text-anchor="start" x="353.7186" y="-725.3" font-family="Arial" font-size="14.00" fill="#000000">    </text>
<text text-anchor="start" x="387.9234" y="-725.3" font-family="Arial" font-size="14.00" fill="#666666">[BASE TABLE]</text>
<polygon fill="none" stroke="#000000" points="273,-682.5 273,-712.5 488,-712.5 488,-682.5 273,-682.5"/>
<text text-anchor="start" x="280" y="-693.9" font-family="Arial" font-size="14.00" fill="#000000">customer_id </text>
<text text-anchor="start" x="360.122" y="-693.9" font-family="Arial" font-size="14.00" fill="#666666">[smallint unsigned]</text>
<polygon fill="none" stroke="#000000" points="273,-652.5 273,-682.5 488,-682.5 488,-652.5 273,-652.5"/>
<text text-anchor="start" x="280" y="-663.9" font-family="Arial" font-size="14.00" fill="#000000">store_id </text>
<text text-anchor="start" x="333.6788" y="-663.9" font-family="Arial" font-size="14.00" fill="#666666">[tinyint unsigned]</text>
<polygon fill="none" stroke="#000000" points="273,-622.5 273,-652.5 488,-652.5 488,-622.5 273,-622.5"/>
<text text-anchor="start" x="280" y="-633.9" font-family="Arial" font-size="14.00" fill="#000000">first_name </text>
<text text-anchor="start" x="349.23" y="-633.9" font-family="Arial" font-size="14.00" fill="#666666">[varchar(45)]</text>
<polygon fill="none" stroke="#000000" points="273,-592.5 273,-622.5 488,-622.5 488,-592.5 273,-592.5"/>
<text text-anchor="start" x="280" y="-603.9" font-family="Arial" font-size="14.00" fill="#000000">last_name </text>
<text text-anchor="start" x="348.4614" y="-603.9" font-family="Arial" font-size="14.00" fill="#666666">[varchar(45)]</text>
<polygon fill="none" stroke="#000000" points="273,-562.5 273,-592.5 488,-592.5 488,-562.5 273,-562.5"/>
<text text-anchor="start" x="280" y="-573.9" font-family="Arial" font-size="14.00" fill="#000000">email </text>
<text text-anchor="start" x="317.3296" y="-573.9" font-family="Arial" font-size="14.00" fill="#666666">[varchar(50)]</text>
<polygon fill="none" stroke="#000000" points="273,-532.5 273,-562.5 488,-562.5 488,-532.5 273,-532.5"/>
<text text-anchor="start" x="280" y="-543.9" font-family="Arial" font-size="14.00" fill="#000000">address_id </text>
<text text-anchor="start" x="352.3534" y="-543.9" font-family="Arial" font-size="14.00" fill="#666666">[smallint unsigned]</text>
<polygon fill="none" stroke="#000000" points="273,-502.5 273,-532.5 488,-532.5 488,-502.5 273,-502.5"/>
<text text-anchor="start" x="280" y="-513.9" font-family="Arial" font-size="14.00" fill="#000000">active </text>
<text text-anchor="start" x="320.453" y="-513.9" font-family="Arial" font-size="14.00" fill="#666666">[tinyint(1)]</text>
<polygon fill="none" stroke="#000000" points="273,-472.5 273,-502.5 488,-502.5 488,-472.5 273,-472.5"/>
<text text-anchor="start" x="280" y="-483.9" font-family="Arial" font-size="14.00" fill="#000000">create_date </text>
<text text-anchor="start" x="357.8106" y="-483.9" font-family="Arial" font-size="14.00" fill="#666666">[datetime]</text>
<polygon fill="none" stroke="#000000" points="273,-442.5 273,-472.5 488,-472.5 488,-442.5 273,-442.5"/>
<text text-anchor="start" x="280" y="-453.9" font-family="Arial" font-size="14.00" fill="#000000">last_update </text>
<text text-anchor="start" x="356.2566" y="-453.9" font-family="Arial" font-size="14.00" fill="#666666">[timestamp]</text>
<polygon fill="none" stroke="#000000" stroke-width="3" points="271,-441.5 271,-749.5 489,-749.5 489,-441.5 271,-441.5"/>
</g>
<!-- store -->
<g id="node4" class="node">
<title>store</title>
<polygon fill="#efefef" stroke="transparent" points="75,-222.5 75,-257.5 336,-257.5 336,-222.5 75,-222.5"/>
<polygon fill="none" stroke="#000000" points="75,-222.5 75,-257.5 336,-257.5 336,-222.5 75,-222.5"/>
<text text-anchor="start" x="121.7126" y="-235.3" font-family="Arial Bold" font-size="18.00" fill="#000000">store</text>
<text text-anchor="start" x="161.7194" y="-235.3" font-family="Arial" font-size="14.00" fill="#000000">    </text>
<text text-anchor="start" x="195.9242" y="-235.3" font-family="Arial" font-size="14.00" fill="#666666">[BASE TABLE]</text>
<polygon fill="none" stroke="#000000" points="75,-192.5 75,-222.5 336,-222.5 336,-192.5 75,-192.5"/>
<text text-anchor="start" x="82" y="-203.9" font-family="Arial" font-size="14.00" fill="#000000">store_id    </text>
<text text-anchor="start" x="165.993" y="-203.9" font-family="Arial" font-size="14.00" fill="#666666">[tinyint unsigned]</text>
<polygon fill="none" stroke="#000000" points="75,-162.5 75,-192.5 336,-192.5 336,-162.5 75,-162.5"/>
<text text-anchor="start" x="81.8093" y="-173.9" font-family="Arial" font-size="14.00" fill="#000000">manager_staff_id    </text>
<text text-anchor="start" x="224.1571" y="-173.9" font-family="Arial" font-size="14.00" fill="#666666">[tinyint unsigned]</text>
<polygon fill="none" stroke="#000000" points="75,-132.5 75,-162.5 336,-162.5 336,-132.5 75,-132.5"/>
<text text-anchor="start" x="82" y="-143.9" font-family="Arial" font-size="14.00" fill="#000000">address_id    </text>
<text text-anchor="start" x="184.6676" y="-143.9" font-family="Arial" font-size="14.00" fill="#666666">[smallint unsigned]</text>
<polygon fill="none" stroke="#000000" points="75,-102.5 75,-132.5 336,-132.5 336,-102.5 75,-102.5"/>
<text text-anchor="start" x="82" y="-113.9" font-family="Arial" font-size="14.00" fill="#000000">last_update    </text>
<text text-anchor="start" x="188.5708" y="-113.9" font-family="Arial" font-size="14.00" fill="#666666">[timestamp]</text>
</g>
<!-- customer&#45;&gt;store -->
<g id="edge3" class="edge">
<title>customer:store_id&#45;&gt;store:store_id</title>
<path fill="none" stroke="#000000" d="M262.9576,-667.105C157.7611,-658.4342 239.5871,-508.8145 273,-397 287.6117,-348.1027 321.3883,-349.8973 336,-301 347.898,-261.1841 377.5556,-207.5 336,-207.5"/>
<polygon fill="#000000" stroke="#000000" points="263.0077,-667.1069 272.8231,-671.9965 268.0039,-667.3034 273,-667.5 273,-667.5 273,-667.5 268.0039,-667.3034 273.1769,-663.0035 263.0077,-667.1069 263.0077,-667.1069"/>
<text text-anchor="start" x="11.7735" y="-677.5" font-family="Arial" font-size="10.00" fill="#000000">FOREIGN KEY (store_id) REFERENCES store (store_id)</text>
</g>
<!-- address -->
<g id="node5" class="node">
<title>address</title>
<polygon fill="#efefef" stroke="transparent" points="440,-282.5 440,-317.5 672,-317.5 672,-282.5 440,-282.5"/>
<polygon fill="none" stroke="#000000" points="440,-282.5 440,-317.5 672,-317.5 672,-282.5 440,-282.5"/>
<text text-anchor="start" x="460.2075" y="-295.3" font-family="Arial Bold" font-size="18.00" fill="#000000">address</text>
<text text-anchor="start" x="524.2245" y="-295.3" font-family="Arial" font-size="14.00" fill="#000000">    </text>
<text text-anchor="start" x="558.4293" y="-295.3" font-family="Arial" font-size="14.00" fill="#666666">[BASE TABLE]</text>
<polygon fill="none" stroke="#000000" points="440,-252.5 440,-282.5 672,-282.5 672,-252.5 440,-252.5"/>
<text text-anchor="start" x="446.7111" y="-263.9" font-family="Arial" font-size="14.00" fill="#000000">address_id    </text>
<text text-anchor="start" x="549.3787" y="-263.9" font-family="Arial" font-size="14.00" fill="#666666">[smallint unsigned]</text>
<polygon fill="none" stroke="#000000" points="440,-222.5 440,-252.5 672,-252.5 672,-222.5 440,-222.5"/>
<text text-anchor="start" x="447" y="-233.9" font-family="Arial" font-size="14.00" fill="#000000">address    </text>
<text text-anchor="start" x="530.9958" y="-233.9" font-family="Arial" font-size="14.00" fill="#666666">[varchar(50)]</text>
<polygon fill="none" stroke="#000000" points="440,-192.5 440,-222.5 672,-222.5 672,-192.5 440,-192.5"/>
<text text-anchor="start" x="447" y="-203.9" font-family="Arial" font-size="14.00" fill="#000000">address2    </text>
<text text-anchor="start" x="538.7784" y="-203.9" font-family="Arial" font-size="14.00" fill="#666666">[varchar(50)]</text>
<polygon fill="none" stroke="#000000" points="440,-162.5 440,-192.5 672,-192.5 672,-162.5 440,-162.5"/>
<text text-anchor="start" x="447" y="-173.9" font-family="Arial" font-size="14.00" fill="#000000">district    </text>
<text text-anchor="start" x="521.6424" y="-173.9" font-family="Arial" font-size="14.00" fill="#666666">[varchar(20)]</text>
<polygon fill="none" stroke="#000000" points="440,-132.5 440,-162.5 672,-162.5 672,-132.5 440,-132.5"/>
<text text-anchor="start" x="447" y="-143.9" font-family="Arial" font-size="14.00" fill="#000000">city_id    </text>
<text text-anchor="start" x="520.8738" y="-143.9" font-family="Arial" font-size="14.00" fill="#666666">[smallint unsigned]</text>
<polygon fill="none" stroke="#000000" points="440,-102.5 440,-132.5 672,-132.5 672,-102.5 440,-102.5"/>
<text text-anchor="start" x="447" y="-113.9" font-family="Arial" font-size="14.00" fill="#000000">postal_code    </text>
<text text-anchor="start" x="556.6802" y="-113.9" font-family="Arial" font-size="14.00" fill="#666666">[varchar(10)]</text>
<polygon fill="none" stroke="#000000" points="440,-72.5 440,-102.5 672,-102.5 672,-72.5 440,-72.5"/>
<text text-anchor="start" x="447" y="-83.9" font-family="Arial" font-size="14.00" fill="#000000">phone    </text>
<text text-anchor="start" x="520.1178" y="-83.9" font-family="Arial" font-size="14.00" fill="#666666">[varchar(20)]</text>
<polygon fill="none" stroke="#000000" points="440,-42.5 440,-72.5 672,-72.5 672,-42.5 440,-42.5"/>
<text text-anchor="start" x="447" y="-53.9" font-family="Arial" font-size="14.00" fill="#000000">last_update    </text>
<text text-anchor="start" x="553.5708" y="-53.9" font-family="Arial" font-size="14.00" fill="#666666">[timestamp]</text>
</g>
<!-- customer&#45;&gt;address -->
<g id="edge4" class="edge">
<title>customer:address_id&#45;&gt;address:address_id</title>
<path fill="none" stroke="#000000" d="M498.2096,-547.4248C777.8595,-543.2124 441.2343,-363.4686 440,-361 421.4158,-323.8316 398.4444,-267.5 440,-267.5"/>
<polygon fill="#000000" stroke="#000000" points="497.9997,-547.4262 487.9668,-543.0001 492.9999,-547.4631 488,-547.5 488,-547.5 488,-547.5 492.9999,-547.4631 488.0332,-551.9999 497.9997,-547.4262 497.9997,-547.4262"/>
<text text-anchor="start" x="494.765" y="-557.5" font-family="Arial" font-size="10.00" fill="#000000">FOREIGN KEY (address_id) REFERENCES address (address_id)</text>
</g>
<!-- payment -->
<g id="node2" class="node">
<title>payment</title>
<polygon fill="#efefef" stroke="transparent" points="85,-1082.5 85,-1117.5 325,-1117.5 325,-1082.5 85,-1082.5"/>
<polygon fill="none" stroke="#000000" points="85,-1082.5 85,-1117.5 325,-1117.5 325,-1082.5 85,-1082.5"/>
<text text-anchor="start" x="106.7064" y="-1095.3" font-family="Arial Bold" font-size="18.00" fill="#000000">payment</text>
<text text-anchor="start" x="175.7256" y="-1095.3" font-family="Arial" font-size="14.00" fill="#000000">    </text>
<text text-anchor="start" x="209.9304" y="-1095.3" font-family="Arial" font-size="14.00" fill="#666666">[BASE TABLE]</text>
<polygon fill="none" stroke="#000000" points="85,-1052.5 85,-1082.5 325,-1082.5 325,-1052.5 85,-1052.5"/>
<text text-anchor="start" x="92" y="-1063.9" font-family="Arial" font-size="14.00" fill="#000000">payment_id    </text>
<text text-anchor="start" x="198.5582" y="-1063.9" font-family="Arial" font-size="14.00" fill="#666666">[smallint unsigned]</text>
<polygon fill="none" stroke="#000000" points="85,-1022.5 85,-1052.5 325,-1052.5 325,-1022.5 85,-1022.5"/>
<text text-anchor="start" x="91.8268" y="-1033.9" font-family="Arial" font-size="14.00" fill="#000000">customer_id    </text>
<text text-anchor="start" x="202.263" y="-1033.9" font-family="Arial" font-size="14.00" fill="#666666">[smallint unsigned]</text>
<polygon fill="none" stroke="#000000" points="85,-992.5 85,-1022.5 325,-1022.5 325,-992.5 85,-992.5"/>
<text text-anchor="start" x="92" y="-1003.9" font-family="Arial" font-size="14.00" fill="#000000">staff_id    </text>
<text text-anchor="start" x="171.331" y="-1003.9" font-family="Arial" font-size="14.00" fill="#666666">[tinyint unsigned]</text>
<polygon fill="none" stroke="#000000" points="85,-962.5 85,-992.5 325,-992.5 325,-962.5 85,-962.5"/>
<text text-anchor="start" x="92" y="-973.9" font-family="Arial" font-size="14.00" fill="#000000">rental_id    </text>
<text text-anchor="start" x="179.8822" y="-973.9" font-family="Arial" font-size="14.00" fill="#666666">[int]</text>
<polygon fill="none" stroke="#000000" points="85,-932.5 85,-962.5 325,-962.5 325,-932.5 85,-932.5"/>
<text text-anchor="start" x="92" y="-943.9" font-family="Arial" font-size="14.00" fill="#000000">amount    </text>
<text text-anchor="start" x="172.8864" y="-943.9" font-family="Arial" font-size="14.00" fill="#666666">[decimal(5,2)]</text>
<polygon fill="none" stroke="#000000" points="85,-902.5 85,-932.5 325,-932.5 325,-902.5 85,-902.5"/>
<text text-anchor="start" x="92" y="-913.9" font-family="Arial" font-size="14.00" fill="#000000">payment_date    </text>
<text text-anchor="start" x="214.9074" y="-913.9" font-family="Arial" font-size="14.00" fill="#666666">[datetime]</text>
<polygon fill="none" stroke="#000000" points="85,-872.5 85,-902.5 325,-902.5 325,-872.5 85,-872.5"/>
<text text-anchor="start" x="92" y="-883.9" font-family="Arial" font-size="14.00" fill="#000000">last_update    </text>
<text text-anchor="start" x="198.5708" y="-883.9" font-family="Arial" font-size="14.00" fill="#666666">[timestamp]</text>
</g>
<!-- payment&#45;&gt;customer -->
<g id="edge1" class="edge">
<title>payment:customer_id&#45;&gt;customer:customer_id</title>
<path fill="none" stroke="#000000" d="M334.9589,-1034.2971C367.0793,-1011.0046 344.645,-867.4938 325,-830 311.9544,-805.1015 286.0456,-818.8985 273,-794 253.095,-756.0099 230.1111,-697.5 273,-697.5"/>
<polygon fill="#000000" stroke="#000000" points="334.5198,-1034.4383 323.6222,-1033.2161 329.7599,-1035.9691 325,-1037.5 325,-1037.5 325,-1037.5 329.7599,-1035.9691 326.3778,-1041.7839 334.5198,-1034.4383 334.5198,-1034.4383"/>
<text text-anchor="start" x="7.4415" y="-1047.5" font-family="Arial" font-size="10.00" fill="#000000">FOREIGN KEY (customer_id) REFERENCES customer (customer_id)</text>
</g>
<!-- rental -->
<g id="node3" class="node">
<title>rental</title>
<polygon fill="#efefef" stroke="transparent" points="429,-1082.5 429,-1117.5 685,-1117.5 685,-1082.5 429,-1082.5"/>
<polygon fill="none" stroke="#000000" points="429,-1082.5 429,-1117.5 685,-1117.5 685,-1082.5 429,-1082.5"/>
<text text-anchor="start" x="470.7124" y="-1095.3" font-family="Arial Bold" font-size="18.00" fill="#000000">rental</text>
<text text-anchor="start" x="515.7196" y="-1095.3" font-family="Arial" font-size="14.00" fill="#000000">    </text>
<text text-anchor="start" x="549.9244" y="-1095.3" font-family="Arial" font-size="14.00" fill="#666666">[BASE TABLE]</text>
<polygon fill="none" stroke="#000000" points="429,-1052.5 429,-1082.5 685,-1082.5 685,-1052.5 429,-1052.5"/>
<text text-anchor="start" x="436" y="-1063.9" font-family="Arial" font-size="14.00" fill="#000000">rental_id    </text>
<text text-anchor="start" x="523.8822" y="-1063.9" font-family="Arial" font-size="14.00" fill="#666666">[int]</text>
<polygon fill="none" stroke="#000000" points="429,-1022.5 429,-1052.5 685,-1052.5 685,-1022.5 429,-1022.5"/>
<text text-anchor="start" x="436" y="-1033.9" font-family="Arial" font-size="14.00" fill="#000000">rental_date    </text>
<text text-anchor="start" x="540.2314" y="-1033.9" font-family="Arial" font-size="14.00" fill="#666666">[datetime]</text>
<polygon fill="none" stroke="#000000" points="429,-992.5 429,-1022.5 685,-1022.5 685,-992.5 429,-992.5"/>
<text text-anchor="start" x="435.6529" y="-1003.9" font-family="Arial" font-size="14.00" fill="#000000">inventory_id    </text>
<text text-anchor="start" x="545.3177" y="-1003.9" font-family="Arial" font-size="14.00" fill="#666666">[mediumint unsigned]</text>
<polygon fill="none" stroke="#000000" points="429,-962.5 429,-992.5 685,-992.5 685,-962.5 429,-962.5"/>
<text text-anchor="start" x="436" y="-973.9" font-family="Arial" font-size="14.00" fill="#000000">customer_id    </text>
<text text-anchor="start" x="546.4362" y="-973.9" font-family="Arial" font-size="14.00" fill="#666666">[smallint unsigned]</text>
<polygon fill="none" stroke="#000000" points="429,-932.5 429,-962.5 685,-962.5 685,-932.5 429,-932.5"/>
<text text-anchor="start" x="436" y="-943.9" font-family="Arial" font-size="14.00" fill="#000000">return_date    </text>
<text text-anchor="start" x="541.7854" y="-943.9" font-family="Arial" font-size="14.00" fill="#666666">[datetime]</text>
<polygon fill="none" stroke="#000000" points="429,-902.5 429,-932.5 685,-932.5 685,-902.5 429,-902.5"/>
<text text-anchor="start" x="436" y="-913.9" font-family="Arial" font-size="14.00" fill="#000000">staff_id    </text>
<text text-anchor="start" x="515.331" y="-913.9" font-family="Arial" font-size="14.00" fill="#666666">[tinyint unsigned]</text>
<polygon fill="none" stroke="#000000" points="429,-872.5 429,-902.5 685,-902.5 685,-872.5 429,-872.5"/>
<text text-anchor="start" x="436" y="-883.9" font-family="Arial" font-size="14.00" fill="#000000">last_update    </text>
<text text-anchor="start" x="542.5708" y="-883.9" font-family="Arial" font-size="14.00" fill="#666666">[timestamp]</text>
</g>
<!-- rental&#45;&gt;customer -->
<g id="edge2" class="edge">
<title>rental:customer_id&#45;&gt;customer:customer_id</title>
<path fill="none" stroke="#000000" d="M418.7955,-976.653C367.2314,-967.3733 398.7308,-883.9283 429,-830 444.0352,-803.2129 472.9648,-820.7871 488,-794 508.9922,-756.5997 530.8889,-697.5 488,-697.5"/>
<polygon fill="#000000" stroke="#000000" points="419.0343,-976.6728 428.6277,-981.9846 424.0171,-977.0864 429,-977.5 429,-977.5 429,-977.5 424.0171,-977.0864 429.3723,-973.0154 419.0343,-976.6728 419.0343,-976.6728"/>
<text text-anchor="start" x="436.4415" y="-987.5" font-family="Arial" font-size="10.00" fill="#000000">FOREIGN KEY (customer_id) REFERENCES customer (customer_id)</text>
</g>
</g>
</svg>
