<?xml version="1.0" encoding="UTF-8" standalone="no"?>
<!DOCTYPE svg PUBLIC "-//W3C//DTD SVG 1.1//EN"
 "http://www.w3.org/Graphics/SVG/1.1/DTD/svg11.dtd">
<!-- Generated by graphviz version 2.40.1 (20161225.0304)
 -->
<!-- Title: film Pages: 1 -->
<svg width="1170pt" height="1049pt"
 viewBox="0.00 0.00 1170.00 1049.00" xmlns="http://www.w3.org/2000/svg" xmlns:xlink="http://www.w3.org/1999/xlink">
<g id="graph0" class="graph" transform="scale(1 1) rotate(0) translate(4 1045)">
<title>film</title>
<polygon fill="#ffffff" stroke="transparent" points="-4,4 -4,-1045 1166,-1045 1166,4 -4,4"/>
<!-- film -->
<g id="node1" class="node">
<title>film</title>
<polygon fill="#efefef" stroke="transparent" points="362,-682.5 362,-717.5 907,-717.5 907,-682.5 362,-682.5"/>
<polygon fill="none" stroke="#000000" points="362,-682.5 362,-717.5 907,-717.5 907,-682.5 362,-682.5"/>
<text text-anchor="start" x="556.7246" y="-695.3" font-family="Arial Bold" font-size="18.00" fill="#000000">film</text>
<text text-anchor="start" x="584.7074" y="-695.3" font-family="Arial" font-size="14.00" fill="#000000">    </text>
<text text-anchor="start" x="618.9122" y="-695.3" font-family="Arial" font-size="14.00" fill="#666666">[BASE TABLE]</text>
<polygon fill="none" stroke="#000000" points="362,-652.5 362,-682.5 907,-682.5 907,-652.5 362,-652.5"/>
<text text-anchor="start" x="369" y="-663.9" font-family="Arial" font-size="14.00" fill="#000000">film_id </text>
<text text-anchor="start" x="413.3268" y="-663.9" font-family="Arial" font-size="14.00" fill="#666666">[smallint unsigned]</text>
<polygon fill="none" stroke="#000000" points="362,-622.5 362,-652.5 907,-652.5 907,-622.5 362,-622.5"/>
<text text-anchor="start" x="369" y="-633.9" font-family="Arial" font-size="14.00" fill="#000000">title </text>
<text text-anchor="start" x="394.6676" y="-633.9" font-family="Arial" font-size="14.00" fill="#666666">[varchar(128)]</text>
<polygon fill="none" stroke="#000000" points="362,-592.5 362,-622.5 907,-622.5 907,-592.5 362,-592.5"/>
<text text-anchor="start" x="369" y="-603.9" font-family="Arial" font-size="14.00" fill="#000000">description </text>
<text text-anchor="start" x="440.568" y="-603.9" font-family="Arial" font-size="14.00" fill="#666666">[text]</text>
<polygon fill="none" stroke="#000000" points="362,-562.5 362,-592.5 907,-592.5 907,-562.5 362,-562.5"/>
<text text-anchor="start" x="369" y="-573.9" font-family="Arial" font-size="14.00" fill="#000000">release_year </text>
<text text-anchor="start" x="453.7966" y="-573.9" font-family="Arial" font-size="14.00" fill="#666666">[year]</text>
<polygon fill="none" stroke="#000000" points="362,-532.5 362,-562.5 907,-562.5 907,-532.5 362,-532.5"/>
<text text-anchor="start" x="369" y="-543.9" font-family="Arial" font-size="14.00" fill="#000000">language_id </text>
<text text-anchor="start" x="449.1472" y="-543.9" font-family="Arial" font-size="14.00" fill="#666666">[tinyint unsigned]</text>
<polygon fill="none" stroke="#000000" points="362,-502.5 362,-532.5 907,-532.5 907,-502.5 362,-502.5"/>
<text text-anchor="start" x="369" y="-513.9" font-family="Arial" font-size="14.00" fill="#000000">original_language_id </text>
<text text-anchor="start" x="502.0406" y="-513.9" font-family="Arial" font-size="14.00" fill="#666666">[tinyint unsigned]</text>
<polygon fill="none" stroke="#000000" points="362,-472.5 362,-502.5 907,-502.5 907,-472.5 362,-472.5"/>
<text text-anchor="start" x="369" y="-483.9" font-family="Arial" font-size="14.00" fill="#000000">rental_duration </text>
<text text-anchor="start" x="466.2496" y="-483.9" font-family="Arial" font-size="14.00" fill="#666666">[tinyint unsigned]</text>
<polygon fill="none" stroke="#000000" points="362,-442.5 362,-472.5 907,-472.5 907,-442.5 362,-442.5"/>
<text text-anchor="start" x="369" y="-453.9" font-family="Arial" font-size="14.00" fill="#000000">rental_rate </text>
<text text-anchor="start" x="439.7952" y="-453.9" font-family="Arial" font-size="14.00" fill="#666666">[decimal(4,2)]</text>
<polygon fill="none" stroke="#000000" points="362,-412.5 362,-442.5 907,-442.5 907,-412.5 362,-412.5"/>
<text text-anchor="start" x="369" y="-423.9" font-family="Arial" font-size="14.00" fill="#000000">length </text>
<text text-anchor="start" x="411.0182" y="-423.9" font-family="Arial" font-size="14.00" fill="#666666">[smallint unsigned]</text>
<polygon fill="none" stroke="#000000" points="362,-382.5 362,-412.5 907,-412.5 907,-382.5 362,-382.5"/>
<text text-anchor="start" x="369" y="-393.9" font-family="Arial" font-size="14.00" fill="#000000">replacement_cost </text>
<text text-anchor="start" x="483.3604" y="-393.9" font-family="Arial" font-size="14.00" fill="#666666">[decimal(5,2)]</text>
<polygon fill="none" stroke="#000000" points="362,-352.5 362,-382.5 907,-382.5 907,-352.5 362,-352.5"/>
<text text-anchor="start" x="369" y="-363.9" font-family="Arial" font-size="14.00" fill="#000000">rating </text>
<text text-anchor="start" x="407.8962" y="-363.9" font-family="Arial" font-size="14.00" fill="#666666">[enum(&#39;G&#39;,&#39;PG&#39;,&#39;PG&#45;13&#39;,&#39;R&#39;,&#39;NC&#45;17&#39;)]</text>
<polygon fill="none" stroke="#000000" points="362,-322.5 362,-352.5 907,-352.5 907,-322.5 362,-322.5"/>
<text text-anchor="start" x="368.5252" y="-333.9" font-family="Arial" font-size="14.00" fill="#000000">special_features </text>
<text text-anchor="start" x="474.3316" y="-333.9" font-family="Arial" font-size="14.00" fill="#666666">[set(&#39;Trailers&#39;,&#39;Commentaries&#39;,&#39;Deleted Scenes&#39;,&#39;Behind the Scenes&#39;)]</text>
<polygon fill="none" stroke="#000000" points="362,-292.5 362,-322.5 907,-322.5 907,-292.5 362,-292.5"/>
<text text-anchor="start" x="369" y="-303.9" font-family="Arial" font-size="14.00" fill="#000000">last_update </text>
<text text-anchor="start" x="445.2566" y="-303.9" font-family="Arial" font-size="14.00" fill="#666666">[timestamp]</text>
<polygon fill="none" stroke="#000000" stroke-width="3" points="360,-291.5 360,-719.5 908,-719.5 908,-291.5 360,-291.5"/>
</g>
<!-- language -->
<g id="node5" class="node">
<title>language</title>
<polygon fill="#efefef" stroke="transparent" points="520,-132.5 520,-167.5 749,-167.5 749,-132.5 520,-132.5"/>
<polygon fill="none" stroke="#000000" points="520,-132.5 520,-167.5 749,-167.5 749,-132.5 520,-132.5"/>
<text text-anchor="start" x="533.6972" y="-145.3" font-family="Arial Bold" font-size="18.00" fill="#000000">language</text>
<text text-anchor="start" x="607.7348" y="-145.3" font-family="Arial" font-size="14.00" fill="#000000">    </text>
<text text-anchor="start" x="641.9396" y="-145.3" font-family="Arial" font-size="14.00" fill="#666666">[BASE TABLE]</text>
<polygon fill="none" stroke="#000000" points="520,-102.5 520,-132.5 749,-132.5 749,-102.5 520,-102.5"/>
<text text-anchor="start" x="526.7525" y="-113.9" font-family="Arial" font-size="14.00" fill="#000000">language_id    </text>
<text text-anchor="start" x="637.2139" y="-113.9" font-family="Arial" font-size="14.00" fill="#666666">[tinyint unsigned]</text>
<polygon fill="none" stroke="#000000" points="520,-72.5 520,-102.5 749,-102.5 749,-72.5 520,-72.5"/>
<text text-anchor="start" x="527" y="-83.9" font-family="Arial" font-size="14.00" fill="#000000">name    </text>
<text text-anchor="start" x="596.2132" y="-83.9" font-family="Arial" font-size="14.00" fill="#666666">[char(20)]</text>
<polygon fill="none" stroke="#000000" points="520,-42.5 520,-72.5 749,-72.5 749,-42.5 520,-42.5"/>
<text text-anchor="start" x="527" y="-53.9" font-family="Arial" font-size="14.00" fill="#000000">last_update    </text>
<text text-anchor="start" x="633.5708" y="-53.9" font-family="Arial" font-size="14.00" fill="#666666">[timestamp]</text>
</g>
<!-- film&#45;&gt;language -->
<g id="edge4" class="edge">
<title>film:language_id&#45;&gt;language:language_id</title>
<path fill="none" stroke="#000000" d="M351.8766,-547.1275C163.8096,-532.9283 319.8755,-117.5 520,-117.5"/>
<polygon fill="#000000" stroke="#000000" points="352.0068,-547.1322 361.8345,-551.997 357.0034,-547.3161 362,-547.5 362,-547.5 362,-547.5 357.0034,-547.3161 362.1655,-543.003 352.0068,-547.1322 352.0068,-547.1322"/>
<text text-anchor="start" x="44.4145" y="-557.5" font-family="Arial" font-size="10.00" fill="#000000">FOREIGN KEY (language_id) REFERENCES language (language_id)</text>
</g>
<!-- film&#45;&gt;language -->
<g id="edge5" class="edge">
<title>film:original_language_id&#45;&gt;language:language_id</title>
<path fill="none" stroke="#000000" d="M351.9801,-517.113C176.5756,-503.1774 332.3091,-117.5 520,-117.5"/>
<polygon fill="#000000" stroke="#000000" points="352.0074,-517.114 361.8263,-521.9966 357.0037,-517.307 362,-517.5 362,-517.5 362,-517.5 357.0037,-517.307 362.1737,-513.0034 352.0074,-517.114 352.0074,-517.114"/>
<text text-anchor="start" x="6.524" y="-527.5" font-family="Arial" font-size="10.00" fill="#000000">FOREIGN KEY (original_language_id) REFERENCES language (language_id)</text>
</g>
<!-- film_actor -->
<g id="node2" class="node">
<title>film_actor</title>
<polygon fill="#efefef" stroke="transparent" points="188,-947.5 188,-982.5 407,-982.5 407,-947.5 188,-947.5"/>
<polygon fill="none" stroke="#000000" points="188,-947.5 188,-982.5 407,-982.5 407,-947.5 188,-947.5"/>
<text text-anchor="start" x="194.7181" y="-960.3" font-family="Arial Bold" font-size="18.00" fill="#000000">film_actor</text>
<text text-anchor="start" x="272.7139" y="-960.3" font-family="Arial" font-size="14.00" fill="#000000">    </text>
<text text-anchor="start" x="306.9187" y="-960.3" font-family="Arial" font-size="14.00" fill="#666666">[BASE TABLE]</text>
<polygon fill="none" stroke="#000000" points="188,-917.5 188,-947.5 407,-947.5 407,-917.5 188,-917.5"/>
<text text-anchor="start" x="195" y="-928.9" font-family="Arial" font-size="14.00" fill="#000000">actor_id    </text>
<text text-anchor="start" x="278.993" y="-928.9" font-family="Arial" font-size="14.00" fill="#666666">[smallint unsigned]</text>
<polygon fill="none" stroke="#000000" points="188,-887.5 188,-917.5 407,-917.5 407,-887.5 188,-887.5"/>
<text text-anchor="start" x="195" y="-898.9" font-family="Arial" font-size="14.00" fill="#000000">film_id    </text>
<text text-anchor="start" x="269.641" y="-898.9" font-family="Arial" font-size="14.00" fill="#666666">[smallint unsigned]</text>
<polygon fill="none" stroke="#000000" points="188,-857.5 188,-887.5 407,-887.5 407,-857.5 188,-857.5"/>
<text text-anchor="start" x="195" y="-868.9" font-family="Arial" font-size="14.00" fill="#000000">last_update    </text>
<text text-anchor="start" x="301.5708" y="-868.9" font-family="Arial" font-size="14.00" fill="#666666">[timestamp]</text>
</g>
<!-- film_actor&#45;&gt;film -->
<g id="edge1" class="edge">
<title>film_actor:film_id&#45;&gt;film:film_id</title>
<path fill="none" stroke="#000000" d="M416.9467,-900.987C440.9007,-892.2675 419.3569,-847.6811 407,-815 396.3091,-786.7249 372.6909,-792.2751 362,-764 346.8316,-723.883 319.1111,-667.5 362,-667.5"/>
<polygon fill="#000000" stroke="#000000" points="416.8863,-900.9961 406.3232,-898.0512 411.9431,-901.748 407,-902.5 407,-902.5 407,-902.5 411.9431,-901.748 407.6768,-906.9488 416.8863,-900.9961 416.8863,-900.9961"/>
<text text-anchor="start" x="413.7935" y="-912.5" font-family="Arial" font-size="10.00" fill="#000000">FOREIGN KEY (film_id) REFERENCES film (film_id)</text>
</g>
<!-- film_category -->
<g id="node3" class="node">
<title>film_category</title>
<polygon fill="#efefef" stroke="transparent" points="511,-947.5 511,-982.5 759,-982.5 759,-947.5 511,-947.5"/>
<polygon fill="none" stroke="#000000" points="511,-947.5 511,-982.5 759,-982.5 759,-947.5 511,-947.5"/>
<text text-anchor="start" x="517.7119" y="-960.3" font-family="Arial Bold" font-size="18.00" fill="#000000">film_category</text>
<text text-anchor="start" x="624.7201" y="-960.3" font-family="Arial" font-size="14.00" fill="#000000">    </text>
<text text-anchor="start" x="658.9249" y="-960.3" font-family="Arial" font-size="14.00" fill="#666666">[BASE TABLE]</text>
<polygon fill="none" stroke="#000000" points="511,-917.5 511,-947.5 759,-947.5 759,-917.5 511,-917.5"/>
<text text-anchor="start" x="518" y="-928.9" font-family="Arial" font-size="14.00" fill="#000000">film_id    </text>
<text text-anchor="start" x="592.641" y="-928.9" font-family="Arial" font-size="14.00" fill="#666666">[smallint unsigned]</text>
<polygon fill="none" stroke="#000000" points="511,-887.5 511,-917.5 759,-917.5 759,-887.5 511,-887.5"/>
<text text-anchor="start" x="518" y="-898.9" font-family="Arial" font-size="14.00" fill="#000000">category_id    </text>
<text text-anchor="start" x="624.5582" y="-898.9" font-family="Arial" font-size="14.00" fill="#666666">[tinyint unsigned]</text>
<polygon fill="none" stroke="#000000" points="511,-857.5 511,-887.5 759,-887.5 759,-857.5 511,-857.5"/>
<text text-anchor="start" x="518" y="-868.9" font-family="Arial" font-size="14.00" fill="#000000">last_update    </text>
<text text-anchor="start" x="624.5708" y="-868.9" font-family="Arial" font-size="14.00" fill="#666666">[timestamp]</text>
</g>
<!-- film_category&#45;&gt;film -->
<g id="edge2" class="edge">
<title>film_category:film_id&#45;&gt;film:film_id</title>
<path fill="none" stroke="#000000" d="M501.0034,-931.3797C461.3545,-921.6842 478.9372,-851.457 511,-815 569.5955,-748.3741 848.4045,-830.6259 907,-764 935.324,-731.7943 949.8889,-667.5 907,-667.5"/>
<polygon fill="#000000" stroke="#000000" points="501.0622,-931.3862 510.4988,-936.972 506.0311,-931.9431 511,-932.5 511,-932.5 511,-932.5 506.0311,-931.9431 511.5012,-928.028 501.0622,-931.3862 501.0622,-931.3862"/>
<text text-anchor="start" x="517.7935" y="-942.5" font-family="Arial" font-size="10.00" fill="#000000">FOREIGN KEY (film_id) REFERENCES film (film_id)</text>
</g>
<!-- inventory -->
<g id="node4" class="node">
<title>inventory</title>
<polygon fill="#efefef" stroke="transparent" points="863,-962.5 863,-997.5 1119,-997.5 1119,-962.5 863,-962.5"/>
<polygon fill="none" stroke="#000000" points="863,-962.5 863,-997.5 1119,-997.5 1119,-962.5 863,-962.5"/>
<text text-anchor="start" x="890.7093" y="-975.3" font-family="Arial Bold" font-size="18.00" fill="#000000">inventory</text>
<text text-anchor="start" x="963.7227" y="-975.3" font-family="Arial" font-size="14.00" fill="#000000">    </text>
<text text-anchor="start" x="997.9275" y="-975.3" font-family="Arial" font-size="14.00" fill="#666666">[BASE TABLE]</text>
<polygon fill="none" stroke="#000000" points="863,-932.5 863,-962.5 1119,-962.5 1119,-932.5 863,-932.5"/>
<text text-anchor="start" x="869.6529" y="-943.9" font-family="Arial" font-size="14.00" fill="#000000">inventory_id    </text>
<text text-anchor="start" x="979.3177" y="-943.9" font-family="Arial" font-size="14.00" fill="#666666">[mediumint unsigned]</text>
<polygon fill="none" stroke="#000000" points="863,-902.5 863,-932.5 1119,-932.5 1119,-902.5 863,-902.5"/>
<text text-anchor="start" x="870" y="-913.9" font-family="Arial" font-size="14.00" fill="#000000">film_id    </text>
<text text-anchor="start" x="944.641" y="-913.9" font-family="Arial" font-size="14.00" fill="#666666">[smallint unsigned]</text>
<polygon fill="none" stroke="#000000" points="863,-872.5 863,-902.5 1119,-902.5 1119,-872.5 863,-872.5"/>
<text text-anchor="start" x="870" y="-883.9" font-family="Arial" font-size="14.00" fill="#000000">store_id    </text>
<text text-anchor="start" x="953.993" y="-883.9" font-family="Arial" font-size="14.00" fill="#666666">[tinyint unsigned]</text>
<polygon fill="none" stroke="#000000" points="863,-842.5 863,-872.5 1119,-872.5 1119,-842.5 863,-842.5"/>
<text text-anchor="start" x="870" y="-853.9" font-family="Arial" font-size="14.00" fill="#000000">last_update    </text>
<text text-anchor="start" x="976.5708" y="-853.9" font-family="Arial" font-size="14.00" fill="#666666">[timestamp]</text>
</g>
<!-- inventory&#45;&gt;film -->
<g id="edge3" class="edge">
<title>inventory:film_id&#45;&gt;film:film_id</title>
<path fill="none" stroke="#000000" d="M852.6922,-916.3763C815.1687,-907.1909 842.2966,-843.6891 863,-800 873.8201,-777.167 896.1799,-786.833 907,-764 925.3663,-725.2426 949.8889,-667.5 907,-667.5"/>
<polygon fill="#000000" stroke="#000000" points="853.0589,-916.4162 862.5123,-921.9735 858.0294,-916.9581 863,-917.5 863,-917.5 863,-917.5 858.0294,-916.9581 863.4877,-913.0265 853.0589,-916.4162 853.0589,-916.4162"/>
<text text-anchor="start" x="869.7935" y="-927.5" font-family="Arial" font-size="10.00" fill="#000000">FOREIGN KEY (film_id) REFERENCES film (film_id)</text>
</g>
</g>
</svg>
