<?xml version="1.0" encoding="UTF-8" standalone="no"?>
<!DOCTYPE svg PUBLIC "-//W3C//DTD SVG 1.1//EN"
 "http://www.w3.org/Graphics/SVG/1.1/DTD/svg11.dtd">
<!-- Generated by graphviz version 2.40.1 (20161225.0304)
 -->
<!-- Title: film_actor Pages: 1 -->
<svg width="988pt" height="772pt"
 viewBox="0.00 0.00 987.50 772.00" xmlns="http://www.w3.org/2000/svg" xmlns:xlink="http://www.w3.org/1999/xlink">
<g id="graph0" class="graph" transform="scale(1 1) rotate(0) translate(4 768)">
<title>film_actor</title>
<polygon fill="#ffffff" stroke="transparent" points="-4,4 -4,-768 983.5,-768 983.5,4 -4,4"/>
<!-- film_actor -->
<g id="node1" class="node">
<title>film_actor</title>
<polygon fill="#efefef" stroke="transparent" points="289.5,-682.5 289.5,-717.5 508.5,-717.5 508.5,-682.5 289.5,-682.5"/>
<polygon fill="none" stroke="#000000" points="289.5,-682.5 289.5,-717.5 508.5,-717.5 508.5,-682.5 289.5,-682.5"/>
<text text-anchor="start" x="296.2181" y="-695.3" font-family="Arial Bold" font-size="18.00" fill="#000000">film_actor</text>
<text text-anchor="start" x="374.2139" y="-695.3" font-family="Arial" font-size="14.00" fill="#000000">    </text>
<text text-anchor="start" x="408.4187" y="-695.3" font-family="Arial" font-size="14.00" fill="#666666">[BASE TABLE]</text>
<polygon fill="none" stroke="#000000" points="289.5,-652.5 289.5,-682.5 508.5,-682.5 508.5,-652.5 289.5,-652.5"/>
<text text-anchor="start" x="296.5" y="-663.9" font-family="Arial" font-size="14.00" fill="#000000">actor_id </text>
<text text-anchor="start" x="350.1788" y="-663.9" font-family="Arial" font-size="14.00" fill="#666666">[smallint unsigned]</text>
<polygon fill="none" stroke="#000000" points="289.5,-622.5 289.5,-652.5 508.5,-652.5 508.5,-622.5 289.5,-622.5"/>
<text text-anchor="start" x="296.5" y="-633.9" font-family="Arial" font-size="14.00" fill="#000000">film_id </text>
<text text-anchor="start" x="340.8268" y="-633.9" font-family="Arial" font-size="14.00" fill="#666666">[smallint unsigned]</text>
<polygon fill="none" stroke="#000000" points="289.5,-592.5 289.5,-622.5 508.5,-622.5 508.5,-592.5 289.5,-592.5"/>
<text text-anchor="start" x="296.5" y="-603.9" font-family="Arial" font-size="14.00" fill="#000000">last_update </text>
<text text-anchor="start" x="372.7566" y="-603.9" font-family="Arial" font-size="14.00" fill="#666666">[timestamp]</text>
<polygon fill="none" stroke="#000000" stroke-width="3" points="287.5,-591.5 287.5,-719.5 509.5,-719.5 509.5,-591.5 287.5,-591.5"/>
</g>
<!-- actor -->
<g id="node2" class="node">
<title>actor</title>
<polygon fill="#efefef" stroke="transparent" points="43.5,-297.5 43.5,-332.5 256.5,-332.5 256.5,-297.5 43.5,-297.5"/>
<polygon fill="none" stroke="#000000" points="43.5,-297.5 43.5,-332.5 256.5,-332.5 256.5,-297.5 43.5,-297.5"/>
<text text-anchor="start" x="66.2126" y="-310.3" font-family="Arial Bold" font-size="18.00" fill="#000000">actor</text>
<text text-anchor="start" x="106.2194" y="-310.3" font-family="Arial" font-size="14.00" fill="#000000">    </text>
<text text-anchor="start" x="140.4242" y="-310.3" font-family="Arial" font-size="14.00" fill="#666666">[BASE TABLE]</text>
<polygon fill="none" stroke="#000000" points="43.5,-267.5 43.5,-297.5 256.5,-297.5 256.5,-267.5 43.5,-267.5"/>
<text text-anchor="start" x="50.0484" y="-278.9" font-family="Arial" font-size="14.00" fill="#000000">actor_id    </text>
<text text-anchor="start" x="134.0414" y="-278.9" font-family="Arial" font-size="14.00" fill="#666666">[smallint unsigned]</text>
<polygon fill="none" stroke="#000000" points="43.5,-237.5 43.5,-267.5 256.5,-267.5 256.5,-237.5 43.5,-237.5"/>
<text text-anchor="start" x="50.5" y="-248.9" font-family="Arial" font-size="14.00" fill="#000000">first_name    </text>
<text text-anchor="start" x="150.0442" y="-248.9" font-family="Arial" font-size="14.00" fill="#666666">[varchar(45)]</text>
<polygon fill="none" stroke="#000000" points="43.5,-207.5 43.5,-237.5 256.5,-237.5 256.5,-207.5 43.5,-207.5"/>
<text text-anchor="start" x="50.5" y="-218.9" font-family="Arial" font-size="14.00" fill="#000000">last_name    </text>
<text text-anchor="start" x="149.2756" y="-218.9" font-family="Arial" font-size="14.00" fill="#666666">[varchar(45)]</text>
<polygon fill="none" stroke="#000000" points="43.5,-177.5 43.5,-207.5 256.5,-207.5 256.5,-177.5 43.5,-177.5"/>
<text text-anchor="start" x="50.5" y="-188.9" font-family="Arial" font-size="14.00" fill="#000000">last_update    </text>
<text text-anchor="start" x="157.0708" y="-188.9" font-family="Arial" font-size="14.00" fill="#666666">[timestamp]</text>
</g>
<!-- film_actor&#45;&gt;actor -->
<g id="edge1" class="edge">
<title>film_actor:actor_id&#45;&gt;actor:actor_id</title>
<path fill="none" stroke="#000000" d="M279.6394,-665.4286C215.1389,-635.1249 338.6796,-282.5 256.5,-282.5"/>
<polygon fill="#000000" stroke="#000000" points="279.7136,-665.4441 288.5748,-671.9039 284.6068,-666.4721 289.5,-667.5 289.5,-667.5 289.5,-667.5 284.6068,-666.4721 290.4252,-663.0961 279.7136,-665.4441 279.7136,-665.4441"/>
<text text-anchor="start" x="28.2735" y="-677.5" font-family="Arial" font-size="10.00" fill="#000000">FOREIGN KEY (actor_id) REFERENCES actor (actor_id)</text>
</g>
<!-- film -->
<g id="node3" class="node">
<title>film</title>
<polygon fill="#efefef" stroke="transparent" points="360.5,-432.5 360.5,-467.5 936.5,-467.5 936.5,-432.5 360.5,-432.5"/>
<polygon fill="none" stroke="#000000" points="360.5,-432.5 360.5,-467.5 936.5,-467.5 936.5,-432.5 360.5,-432.5"/>
<text text-anchor="start" x="570.7246" y="-445.3" font-family="Arial Bold" font-size="18.00" fill="#000000">film</text>
<text text-anchor="start" x="598.7074" y="-445.3" font-family="Arial" font-size="14.00" fill="#000000">    </text>
<text text-anchor="start" x="632.9122" y="-445.3" font-family="Arial" font-size="14.00" fill="#666666">[BASE TABLE]</text>
<polygon fill="none" stroke="#000000" points="360.5,-402.5 360.5,-432.5 936.5,-432.5 936.5,-402.5 360.5,-402.5"/>
<text text-anchor="start" x="367.5" y="-413.9" font-family="Arial" font-size="14.00" fill="#000000">film_id    </text>
<text text-anchor="start" x="442.141" y="-413.9" font-family="Arial" font-size="14.00" fill="#666666">[smallint unsigned]</text>
<polygon fill="none" stroke="#000000" points="360.5,-372.5 360.5,-402.5 936.5,-402.5 936.5,-372.5 360.5,-372.5"/>
<text text-anchor="start" x="367.5" y="-383.9" font-family="Arial" font-size="14.00" fill="#000000">title    </text>
<text text-anchor="start" x="423.4818" y="-383.9" font-family="Arial" font-size="14.00" fill="#666666">[varchar(128)]</text>
<polygon fill="none" stroke="#000000" points="360.5,-342.5 360.5,-372.5 936.5,-372.5 936.5,-342.5 360.5,-342.5"/>
<text text-anchor="start" x="367.5" y="-353.9" font-family="Arial" font-size="14.00" fill="#000000">description    </text>
<text text-anchor="start" x="469.3822" y="-353.9" font-family="Arial" font-size="14.00" fill="#666666">[text]</text>
<polygon fill="none" stroke="#000000" points="360.5,-312.5 360.5,-342.5 936.5,-342.5 936.5,-312.5 360.5,-312.5"/>
<text text-anchor="start" x="367.5" y="-323.9" font-family="Arial" font-size="14.00" fill="#000000">release_year    </text>
<text text-anchor="start" x="482.6108" y="-323.9" font-family="Arial" font-size="14.00" fill="#666666">[year]</text>
<polygon fill="none" stroke="#000000" points="360.5,-282.5 360.5,-312.5 936.5,-312.5 936.5,-282.5 360.5,-282.5"/>
<text text-anchor="start" x="367.5" y="-293.9" font-family="Arial" font-size="14.00" fill="#000000">language_id    </text>
<text text-anchor="start" x="477.9614" y="-293.9" font-family="Arial" font-size="14.00" fill="#666666">[tinyint unsigned]</text>
<polygon fill="none" stroke="#000000" points="360.5,-252.5 360.5,-282.5 936.5,-282.5 936.5,-252.5 360.5,-252.5"/>
<text text-anchor="start" x="367.5" y="-263.9" font-family="Arial" font-size="14.00" fill="#000000">original_language_id    </text>
<text text-anchor="start" x="530.8548" y="-263.9" font-family="Arial" font-size="14.00" fill="#666666">[tinyint unsigned]</text>
<polygon fill="none" stroke="#000000" points="360.5,-222.5 360.5,-252.5 936.5,-252.5 936.5,-222.5 360.5,-222.5"/>
<text text-anchor="start" x="367.5" y="-233.9" font-family="Arial" font-size="14.00" fill="#000000">rental_duration    </text>
<text text-anchor="start" x="495.0638" y="-233.9" font-family="Arial" font-size="14.00" fill="#666666">[tinyint unsigned]</text>
<polygon fill="none" stroke="#000000" points="360.5,-192.5 360.5,-222.5 936.5,-222.5 936.5,-192.5 360.5,-192.5"/>
<text text-anchor="start" x="367.5" y="-203.9" font-family="Arial" font-size="14.00" fill="#000000">rental_rate    </text>
<text text-anchor="start" x="468.6094" y="-203.9" font-family="Arial" font-size="14.00" fill="#666666">[decimal(4,2)]</text>
<polygon fill="none" stroke="#000000" points="360.5,-162.5 360.5,-192.5 936.5,-192.5 936.5,-162.5 360.5,-162.5"/>
<text text-anchor="start" x="367.5" y="-173.9" font-family="Arial" font-size="14.00" fill="#000000">length    </text>
<text text-anchor="start" x="439.8324" y="-173.9" font-family="Arial" font-size="14.00" fill="#666666">[smallint unsigned]</text>
<polygon fill="none" stroke="#000000" points="360.5,-132.5 360.5,-162.5 936.5,-162.5 936.5,-132.5 360.5,-132.5"/>
<text text-anchor="start" x="367.5" y="-143.9" font-family="Arial" font-size="14.00" fill="#000000">replacement_cost    </text>
<text text-anchor="start" x="512.1746" y="-143.9" font-family="Arial" font-size="14.00" fill="#666666">[decimal(5,2)]</text>
<polygon fill="none" stroke="#000000" points="360.5,-102.5 360.5,-132.5 936.5,-132.5 936.5,-102.5 360.5,-102.5"/>
<text text-anchor="start" x="367.5" y="-113.9" font-family="Arial" font-size="14.00" fill="#000000">rating    </text>
<text text-anchor="start" x="436.7104" y="-113.9" font-family="Arial" font-size="14.00" fill="#666666">[enum(&#39;G&#39;,&#39;PG&#39;,&#39;PG&#45;13&#39;,&#39;R&#39;,&#39;NC&#45;17&#39;)]</text>
<polygon fill="none" stroke="#000000" points="360.5,-72.5 360.5,-102.5 936.5,-102.5 936.5,-72.5 360.5,-72.5"/>
<text text-anchor="start" x="367.3681" y="-83.9" font-family="Arial" font-size="14.00" fill="#000000">special_features    </text>
<text text-anchor="start" x="503.4887" y="-83.9" font-family="Arial" font-size="14.00" fill="#666666">[set(&#39;Trailers&#39;,&#39;Commentaries&#39;,&#39;Deleted Scenes&#39;,&#39;Behind the Scenes&#39;)]</text>
<polygon fill="none" stroke="#000000" points="360.5,-42.5 360.5,-72.5 936.5,-72.5 936.5,-42.5 360.5,-42.5"/>
<text text-anchor="start" x="367.5" y="-53.9" font-family="Arial" font-size="14.00" fill="#000000">last_update    </text>
<text text-anchor="start" x="474.0708" y="-53.9" font-family="Arial" font-size="14.00" fill="#666666">[timestamp]</text>
</g>
<!-- film_actor&#45;&gt;film -->
<g id="edge2" class="edge">
<title>film_actor:film_id&#45;&gt;film:film_id</title>
<path fill="none" stroke="#000000" d="M518.7363,-635.8958C545.6302,-626.2607 530.9269,-575.5361 508.5,-547 466.6695,-493.7748 402.3305,-564.2252 360.5,-511 334.822,-478.3273 318.9444,-417.5 360.5,-417.5"/>
<polygon fill="#000000" stroke="#000000" points="518.3794,-635.9516 507.8032,-633.0543 513.4397,-636.7258 508.5,-637.5 508.5,-637.5 508.5,-637.5 513.4397,-636.7258 509.1968,-641.9457 518.3794,-635.9516 518.3794,-635.9516"/>
<text text-anchor="start" x="515.2935" y="-647.5" font-family="Arial" font-size="10.00" fill="#000000">FOREIGN KEY (film_id) REFERENCES film (film_id)</text>
</g>
</g>
</svg>
