<?xml version="1.0" encoding="UTF-8" standalone="no"?>
<!DOCTYPE svg PUBLIC "-//W3C//DTD SVG 1.1//EN"
 "http://www.w3.org/Graphics/SVG/1.1/DTD/svg11.dtd">
<!-- Generated by graphviz version 2.40.1 (20161225.0304)
 -->
<!-- Title: film_category Pages: 1 -->
<svg width="1032pt" height="772pt"
 viewBox="0.00 0.00 1032.00 772.00" xmlns="http://www.w3.org/2000/svg" xmlns:xlink="http://www.w3.org/1999/xlink">
<g id="graph0" class="graph" transform="scale(1 1) rotate(0) translate(4 768)">
<title>film_category</title>
<polygon fill="#ffffff" stroke="transparent" points="-4,4 -4,-768 1028,-768 1028,4 -4,4"/>
<!-- film_category -->
<g id="node1" class="node">
<title>film_category</title>
<polygon fill="#efefef" stroke="transparent" points="460,-682.5 460,-717.5 708,-717.5 708,-682.5 460,-682.5"/>
<polygon fill="none" stroke="#000000" points="460,-682.5 460,-717.5 708,-717.5 708,-682.5 460,-682.5"/>
<text text-anchor="start" x="466.7119" y="-695.3" font-family="Arial Bold" font-size="18.00" fill="#000000">film_category</text>
<text text-anchor="start" x="573.7201" y="-695.3" font-family="Arial" font-size="14.00" fill="#000000">    </text>
<text text-anchor="start" x="607.9249" y="-695.3" font-family="Arial" font-size="14.00" fill="#666666">[BASE TABLE]</text>
<polygon fill="none" stroke="#000000" points="460,-652.5 460,-682.5 708,-682.5 708,-652.5 460,-652.5"/>
<text text-anchor="start" x="467" y="-663.9" font-family="Arial" font-size="14.00" fill="#000000">film_id </text>
<text text-anchor="start" x="511.3268" y="-663.9" font-family="Arial" font-size="14.00" fill="#666666">[smallint unsigned]</text>
<polygon fill="none" stroke="#000000" points="460,-622.5 460,-652.5 708,-652.5 708,-622.5 460,-622.5"/>
<text text-anchor="start" x="467" y="-633.9" font-family="Arial" font-size="14.00" fill="#000000">category_id </text>
<text text-anchor="start" x="543.244" y="-633.9" font-family="Arial" font-size="14.00" fill="#666666">[tinyint unsigned]</text>
<polygon fill="none" stroke="#000000" points="460,-592.5 460,-622.5 708,-622.5 708,-592.5 460,-592.5"/>
<text text-anchor="start" x="467" y="-603.9" font-family="Arial" font-size="14.00" fill="#000000">last_update </text>
<text text-anchor="start" x="543.2566" y="-603.9" font-family="Arial" font-size="14.00" fill="#666666">[timestamp]</text>
<polygon fill="none" stroke="#000000" stroke-width="3" points="458.5,-591.5 458.5,-719.5 709.5,-719.5 709.5,-591.5 458.5,-591.5"/>
</g>
<!-- film -->
<g id="node2" class="node">
<title>film</title>
<polygon fill="#efefef" stroke="transparent" points="43,-432.5 43,-467.5 619,-467.5 619,-432.5 43,-432.5"/>
<polygon fill="none" stroke="#000000" points="43,-432.5 43,-467.5 619,-467.5 619,-432.5 43,-432.5"/>
<text text-anchor="start" x="253.2246" y="-445.3" font-family="Arial Bold" font-size="18.00" fill="#000000">film</text>
<text text-anchor="start" x="281.2074" y="-445.3" font-family="Arial" font-size="14.00" fill="#000000">    </text>
<text text-anchor="start" x="315.4122" y="-445.3" font-family="Arial" font-size="14.00" fill="#666666">[BASE TABLE]</text>
<polygon fill="none" stroke="#000000" points="43,-402.5 43,-432.5 619,-432.5 619,-402.5 43,-402.5"/>
<text text-anchor="start" x="50" y="-413.9" font-family="Arial" font-size="14.00" fill="#000000">film_id    </text>
<text text-anchor="start" x="124.641" y="-413.9" font-family="Arial" font-size="14.00" fill="#666666">[smallint unsigned]</text>
<polygon fill="none" stroke="#000000" points="43,-372.5 43,-402.5 619,-402.5 619,-372.5 43,-372.5"/>
<text text-anchor="start" x="50" y="-383.9" font-family="Arial" font-size="14.00" fill="#000000">title    </text>
<text text-anchor="start" x="105.9818" y="-383.9" font-family="Arial" font-size="14.00" fill="#666666">[varchar(128)]</text>
<polygon fill="none" stroke="#000000" points="43,-342.5 43,-372.5 619,-372.5 619,-342.5 43,-342.5"/>
<text text-anchor="start" x="50" y="-353.9" font-family="Arial" font-size="14.00" fill="#000000">description    </text>
<text text-anchor="start" x="151.8822" y="-353.9" font-family="Arial" font-size="14.00" fill="#666666">[text]</text>
<polygon fill="none" stroke="#000000" points="43,-312.5 43,-342.5 619,-342.5 619,-312.5 43,-312.5"/>
<text text-anchor="start" x="50" y="-323.9" font-family="Arial" font-size="14.00" fill="#000000">release_year    </text>
<text text-anchor="start" x="165.1108" y="-323.9" font-family="Arial" font-size="14.00" fill="#666666">[year]</text>
<polygon fill="none" stroke="#000000" points="43,-282.5 43,-312.5 619,-312.5 619,-282.5 43,-282.5"/>
<text text-anchor="start" x="50" y="-293.9" font-family="Arial" font-size="14.00" fill="#000000">language_id    </text>
<text text-anchor="start" x="160.4614" y="-293.9" font-family="Arial" font-size="14.00" fill="#666666">[tinyint unsigned]</text>
<polygon fill="none" stroke="#000000" points="43,-252.5 43,-282.5 619,-282.5 619,-252.5 43,-252.5"/>
<text text-anchor="start" x="50" y="-263.9" font-family="Arial" font-size="14.00" fill="#000000">original_language_id    </text>
<text text-anchor="start" x="213.3548" y="-263.9" font-family="Arial" font-size="14.00" fill="#666666">[tinyint unsigned]</text>
<polygon fill="none" stroke="#000000" points="43,-222.5 43,-252.5 619,-252.5 619,-222.5 43,-222.5"/>
<text text-anchor="start" x="50" y="-233.9" font-family="Arial" font-size="14.00" fill="#000000">rental_duration    </text>
<text text-anchor="start" x="177.5638" y="-233.9" font-family="Arial" font-size="14.00" fill="#666666">[tinyint unsigned]</text>
<polygon fill="none" stroke="#000000" points="43,-192.5 43,-222.5 619,-222.5 619,-192.5 43,-192.5"/>
<text text-anchor="start" x="50" y="-203.9" font-family="Arial" font-size="14.00" fill="#000000">rental_rate    </text>
<text text-anchor="start" x="151.1094" y="-203.9" font-family="Arial" font-size="14.00" fill="#666666">[decimal(4,2)]</text>
<polygon fill="none" stroke="#000000" points="43,-162.5 43,-192.5 619,-192.5 619,-162.5 43,-162.5"/>
<text text-anchor="start" x="50" y="-173.9" font-family="Arial" font-size="14.00" fill="#000000">length    </text>
<text text-anchor="start" x="122.3324" y="-173.9" font-family="Arial" font-size="14.00" fill="#666666">[smallint unsigned]</text>
<polygon fill="none" stroke="#000000" points="43,-132.5 43,-162.5 619,-162.5 619,-132.5 43,-132.5"/>
<text text-anchor="start" x="50" y="-143.9" font-family="Arial" font-size="14.00" fill="#000000">replacement_cost    </text>
<text text-anchor="start" x="194.6746" y="-143.9" font-family="Arial" font-size="14.00" fill="#666666">[decimal(5,2)]</text>
<polygon fill="none" stroke="#000000" points="43,-102.5 43,-132.5 619,-132.5 619,-102.5 43,-102.5"/>
<text text-anchor="start" x="50" y="-113.9" font-family="Arial" font-size="14.00" fill="#000000">rating    </text>
<text text-anchor="start" x="119.2104" y="-113.9" font-family="Arial" font-size="14.00" fill="#666666">[enum(&#39;G&#39;,&#39;PG&#39;,&#39;PG&#45;13&#39;,&#39;R&#39;,&#39;NC&#45;17&#39;)]</text>
<polygon fill="none" stroke="#000000" points="43,-72.5 43,-102.5 619,-102.5 619,-72.5 43,-72.5"/>
<text text-anchor="start" x="49.8681" y="-83.9" font-family="Arial" font-size="14.00" fill="#000000">special_features    </text>
<text text-anchor="start" x="185.9887" y="-83.9" font-family="Arial" font-size="14.00" fill="#666666">[set(&#39;Trailers&#39;,&#39;Commentaries&#39;,&#39;Deleted Scenes&#39;,&#39;Behind the Scenes&#39;)]</text>
<polygon fill="none" stroke="#000000" points="43,-42.5 43,-72.5 619,-72.5 619,-42.5 43,-42.5"/>
<text text-anchor="start" x="50" y="-53.9" font-family="Arial" font-size="14.00" fill="#000000">last_update    </text>
<text text-anchor="start" x="156.5708" y="-53.9" font-family="Arial" font-size="14.00" fill="#666666">[timestamp]</text>
</g>
<!-- film_category&#45;&gt;film -->
<g id="edge1" class="edge">
<title>film_category:film_id&#45;&gt;film:film_id</title>
<path fill="none" stroke="#000000" d="M450.0306,-666.4342C409.2584,-656.9181 428.8574,-585.9821 460,-547 505.2244,-490.3914 573.7756,-567.6086 619,-511 644.9377,-478.5331 660.5556,-417.5 619,-417.5"/>
<polygon fill="#000000" stroke="#000000" points="450.0567,-666.4369 459.5216,-671.9745 455.0283,-666.9684 460,-667.5 460,-667.5 460,-667.5 455.0283,-666.9684 460.4784,-663.0255 450.0567,-666.4369 450.0567,-666.4369"/>
<text text-anchor="start" x="218.7935" y="-677.5" font-family="Arial" font-size="10.00" fill="#000000">FOREIGN KEY (film_id) REFERENCES film (film_id)</text>
</g>
<!-- category -->
<g id="node3" class="node">
<title>category</title>
<polygon fill="#efefef" stroke="transparent" points="724,-282.5 724,-317.5 949,-317.5 949,-282.5 724,-282.5"/>
<polygon fill="none" stroke="#000000" points="724,-282.5 724,-317.5 949,-317.5 949,-282.5 724,-282.5"/>
<text text-anchor="start" x="738.2064" y="-295.3" font-family="Arial Bold" font-size="18.00" fill="#000000">category</text>
<text text-anchor="start" x="807.2256" y="-295.3" font-family="Arial" font-size="14.00" fill="#000000">    </text>
<text text-anchor="start" x="841.4304" y="-295.3" font-family="Arial" font-size="14.00" fill="#666666">[BASE TABLE]</text>
<polygon fill="none" stroke="#000000" points="724,-252.5 724,-282.5 949,-282.5 949,-252.5 724,-252.5"/>
<text text-anchor="start" x="730.7041" y="-263.9" font-family="Arial" font-size="14.00" fill="#000000">category_id    </text>
<text text-anchor="start" x="837.2623" y="-263.9" font-family="Arial" font-size="14.00" fill="#666666">[tinyint unsigned]</text>
<polygon fill="none" stroke="#000000" points="724,-222.5 724,-252.5 949,-252.5 949,-222.5 724,-222.5"/>
<text text-anchor="start" x="731" y="-233.9" font-family="Arial" font-size="14.00" fill="#000000">name    </text>
<text text-anchor="start" x="800.2132" y="-233.9" font-family="Arial" font-size="14.00" fill="#666666">[varchar(25)]</text>
<polygon fill="none" stroke="#000000" points="724,-192.5 724,-222.5 949,-222.5 949,-192.5 724,-192.5"/>
<text text-anchor="start" x="731" y="-203.9" font-family="Arial" font-size="14.00" fill="#000000">last_update    </text>
<text text-anchor="start" x="837.5708" y="-203.9" font-family="Arial" font-size="14.00" fill="#666666">[timestamp]</text>
</g>
<!-- film_category&#45;&gt;category -->
<g id="edge2" class="edge">
<title>film_category:category_id&#45;&gt;category:category_id</title>
<path fill="none" stroke="#000000" d="M718.3788,-636.9484C858.7698,-621.0656 563.0989,-267.5 724,-267.5"/>
<polygon fill="#000000" stroke="#000000" points="717.9859,-636.9692 707.7611,-633.0063 712.993,-637.2346 708,-637.5 708,-637.5 708,-637.5 712.993,-637.2346 708.2389,-641.9937 717.9859,-636.9692 717.9859,-636.9692"/>
<text text-anchor="start" x="714.5965" y="-647.5" font-family="Arial" font-size="10.00" fill="#000000">FOREIGN KEY (category_id) REFERENCES category (category_id)</text>
</g>
</g>
</svg>
