<?xml version="1.0" encoding="UTF-8" standalone="no"?>
<!DOCTYPE svg PUBLIC "-//W3C//DTD SVG 1.1//EN"
 "http://www.w3.org/Graphics/SVG/1.1/DTD/svg11.dtd">
<!-- Generated by graphviz version 2.40.1 (20161225.0304)
 -->
<!-- Title: inventory Pages: 1 -->
<svg width="1052pt" height="1169pt"
 viewBox="0.00 0.00 1052.00 1169.00" xmlns="http://www.w3.org/2000/svg" xmlns:xlink="http://www.w3.org/1999/xlink">
<g id="graph0" class="graph" transform="scale(1 1) rotate(0) translate(4 1165)">
<title>inventory</title>
<polygon fill="#ffffff" stroke="transparent" points="-4,4 -4,-1165 1048,-1165 1048,4 -4,4"/>
<!-- inventory -->
<g id="node1" class="node">
<title>inventory</title>
<polygon fill="#efefef" stroke="transparent" points="480,-712.5 480,-747.5 706,-747.5 706,-712.5 480,-712.5"/>
<polygon fill="none" stroke="#000000" points="480,-712.5 480,-747.5 706,-747.5 706,-712.5 480,-712.5"/>
<text text-anchor="start" x="492.7093" y="-725.3" font-family="Arial Bold" font-size="18.00" fill="#000000">inventory</text>
<text text-anchor="start" x="565.7227" y="-725.3" font-family="Arial" font-size="14.00" fill="#000000">    </text>
<text text-anchor="start" x="599.9275" y="-725.3" font-family="Arial" font-size="14.00" fill="#666666">[BASE TABLE]</text>
<polygon fill="none" stroke="#000000" points="480,-682.5 480,-712.5 706,-712.5 706,-682.5 480,-682.5"/>
<text text-anchor="start" x="486.81" y="-693.9" font-family="Arial" font-size="14.00" fill="#000000">inventory_id </text>
<text text-anchor="start" x="566.1606" y="-693.9" font-family="Arial" font-size="14.00" fill="#666666">[mediumint unsigned]</text>
<polygon fill="none" stroke="#000000" points="480,-652.5 480,-682.5 706,-682.5 706,-652.5 480,-652.5"/>
<text text-anchor="start" x="487" y="-663.9" font-family="Arial" font-size="14.00" fill="#000000">film_id </text>
<text text-anchor="start" x="531.3268" y="-663.9" font-family="Arial" font-size="14.00" fill="#666666">[smallint unsigned]</text>
<polygon fill="none" stroke="#000000" points="480,-622.5 480,-652.5 706,-652.5 706,-622.5 480,-622.5"/>
<text text-anchor="start" x="487" y="-633.9" font-family="Arial" font-size="14.00" fill="#000000">store_id </text>
<text text-anchor="start" x="540.6788" y="-633.9" font-family="Arial" font-size="14.00" fill="#666666">[tinyint unsigned]</text>
<polygon fill="none" stroke="#000000" points="480,-592.5 480,-622.5 706,-622.5 706,-592.5 480,-592.5"/>
<text text-anchor="start" x="487" y="-603.9" font-family="Arial" font-size="14.00" fill="#000000">last_update </text>
<text text-anchor="start" x="563.2566" y="-603.9" font-family="Arial" font-size="14.00" fill="#666666">[timestamp]</text>
<polygon fill="none" stroke="#000000" stroke-width="3" points="478.5,-591.5 478.5,-749.5 707.5,-749.5 707.5,-591.5 478.5,-591.5"/>
</g>
<!-- film -->
<g id="node3" class="node">
<title>film</title>
<polygon fill="#efefef" stroke="transparent" points="43,-432.5 43,-467.5 619,-467.5 619,-432.5 43,-432.5"/>
<polygon fill="none" stroke="#000000" points="43,-432.5 43,-467.5 619,-467.5 619,-432.5 43,-432.5"/>
<text text-anchor="start" x="253.2246" y="-445.3" font-family="Arial Bold" font-size="18.00" fill="#000000">film</text>
<text text-anchor="start" x="281.2074" y="-445.3" font-family="Arial" font-size="14.00" fill="#000000">    </text>
<text text-anchor="start" x="315.4122" y="-445.3" font-family="Arial" font-size="14.00" fill="#666666">[BASE TABLE]</text>
<polygon fill="none" stroke="#000000" points="43,-402.5 43,-432.5 619,-432.5 619,-402.5 43,-402.5"/>
<text text-anchor="start" x="50" y="-413.9" font-family="Arial" font-size="14.00" fill="#000000">film_id    </text>
<text text-anchor="start" x="124.641" y="-413.9" font-family="Arial" font-size="14.00" fill="#666666">[smallint unsigned]</text>
<polygon fill="none" stroke="#000000" points="43,-372.5 43,-402.5 619,-402.5 619,-372.5 43,-372.5"/>
<text text-anchor="start" x="50" y="-383.9" font-family="Arial" font-size="14.00" fill="#000000">title    </text>
<text text-anchor="start" x="105.9818" y="-383.9" font-family="Arial" font-size="14.00" fill="#666666">[varchar(128)]</text>
<polygon fill="none" stroke="#000000" points="43,-342.5 43,-372.5 619,-372.5 619,-342.5 43,-342.5"/>
<text text-anchor="start" x="50" y="-353.9" font-family="Arial" font-size="14.00" fill="#000000">description    </text>
<text text-anchor="start" x="151.8822" y="-353.9" font-family="Arial" font-size="14.00" fill="#666666">[text]</text>
<polygon fill="none" stroke="#000000" points="43,-312.5 43,-342.5 619,-342.5 619,-312.5 43,-312.5"/>
<text text-anchor="start" x="50" y="-323.9" font-family="Arial" font-size="14.00" fill="#000000">release_year    </text>
<text text-anchor="start" x="165.1108" y="-323.9" font-family="Arial" font-size="14.00" fill="#666666">[year]</text>
<polygon fill="none" stroke="#000000" points="43,-282.5 43,-312.5 619,-312.5 619,-282.5 43,-282.5"/>
<text text-anchor="start" x="50" y="-293.9" font-family="Arial" font-size="14.00" fill="#000000">language_id    </text>
<text text-anchor="start" x="160.4614" y="-293.9" font-family="Arial" font-size="14.00" fill="#666666">[tinyint unsigned]</text>
<polygon fill="none" stroke="#000000" points="43,-252.5 43,-282.5 619,-282.5 619,-252.5 43,-252.5"/>
<text text-anchor="start" x="50" y="-263.9" font-family="Arial" font-size="14.00" fill="#000000">original_language_id    </text>
<text text-anchor="start" x="213.3548" y="-263.9" font-family="Arial" font-size="14.00" fill="#666666">[tinyint unsigned]</text>
<polygon fill="none" stroke="#000000" points="43,-222.5 43,-252.5 619,-252.5 619,-222.5 43,-222.5"/>
<text text-anchor="start" x="50" y="-233.9" font-family="Arial" font-size="14.00" fill="#000000">rental_duration    </text>
<text text-anchor="start" x="177.5638" y="-233.9" font-family="Arial" font-size="14.00" fill="#666666">[tinyint unsigned]</text>
<polygon fill="none" stroke="#000000" points="43,-192.5 43,-222.5 619,-222.5 619,-192.5 43,-192.5"/>
<text text-anchor="start" x="50" y="-203.9" font-family="Arial" font-size="14.00" fill="#000000">rental_rate    </text>
<text text-anchor="start" x="151.1094" y="-203.9" font-family="Arial" font-size="14.00" fill="#666666">[decimal(4,2)]</text>
<polygon fill="none" stroke="#000000" points="43,-162.5 43,-192.5 619,-192.5 619,-162.5 43,-162.5"/>
<text text-anchor="start" x="50" y="-173.9" font-family="Arial" font-size="14.00" fill="#000000">length    </text>
<text text-anchor="start" x="122.3324" y="-173.9" font-family="Arial" font-size="14.00" fill="#666666">[smallint unsigned]</text>
<polygon fill="none" stroke="#000000" points="43,-132.5 43,-162.5 619,-162.5 619,-132.5 43,-132.5"/>
<text text-anchor="start" x="50" y="-143.9" font-family="Arial" font-size="14.00" fill="#000000">replacement_cost    </text>
<text text-anchor="start" x="194.6746" y="-143.9" font-family="Arial" font-size="14.00" fill="#666666">[decimal(5,2)]</text>
<polygon fill="none" stroke="#000000" points="43,-102.5 43,-132.5 619,-132.5 619,-102.5 43,-102.5"/>
<text text-anchor="start" x="50" y="-113.9" font-family="Arial" font-size="14.00" fill="#000000">rating    </text>
<text text-anchor="start" x="119.2104" y="-113.9" font-family="Arial" font-size="14.00" fill="#666666">[enum(&#39;G&#39;,&#39;PG&#39;,&#39;PG&#45;13&#39;,&#39;R&#39;,&#39;NC&#45;17&#39;)]</text>
<polygon fill="none" stroke="#000000" points="43,-72.5 43,-102.5 619,-102.5 619,-72.5 43,-72.5"/>
<text text-anchor="start" x="49.8681" y="-83.9" font-family="Arial" font-size="14.00" fill="#000000">special_features    </text>
<text text-anchor="start" x="185.9887" y="-83.9" font-family="Arial" font-size="14.00" fill="#666666">[set(&#39;Trailers&#39;,&#39;Commentaries&#39;,&#39;Deleted Scenes&#39;,&#39;Behind the Scenes&#39;)]</text>
<polygon fill="none" stroke="#000000" points="43,-42.5 43,-72.5 619,-72.5 619,-42.5 43,-42.5"/>
<text text-anchor="start" x="50" y="-53.9" font-family="Arial" font-size="14.00" fill="#000000">last_update    </text>
<text text-anchor="start" x="156.5708" y="-53.9" font-family="Arial" font-size="14.00" fill="#666666">[timestamp]</text>
</g>
<!-- inventory&#45;&gt;film -->
<g id="edge2" class="edge">
<title>inventory:film_id&#45;&gt;film:film_id</title>
<path fill="none" stroke="#000000" d="M470.0391,-666.4408C429.3409,-656.9829 449.4606,-586.4565 480,-547 519.0604,-496.5344 579.9396,-561.4656 619,-511 644.4353,-478.138 660.5556,-417.5 619,-417.5"/>
<polygon fill="#000000" stroke="#000000" points="470.0561,-666.4426 479.5241,-671.9748 475.028,-666.9713 480,-667.5 480,-667.5 480,-667.5 475.028,-666.9713 480.4759,-663.0252 470.0561,-666.4426 470.0561,-666.4426"/>
<text text-anchor="start" x="238.7935" y="-677.5" font-family="Arial" font-size="10.00" fill="#000000">FOREIGN KEY (film_id) REFERENCES film (film_id)</text>
</g>
<!-- store -->
<g id="node4" class="node">
<title>store</title>
<polygon fill="#efefef" stroke="transparent" points="724,-297.5 724,-332.5 985,-332.5 985,-297.5 724,-297.5"/>
<polygon fill="none" stroke="#000000" points="724,-297.5 724,-332.5 985,-332.5 985,-297.5 724,-297.5"/>
<text text-anchor="start" x="770.7126" y="-310.3" font-family="Arial Bold" font-size="18.00" fill="#000000">store</text>
<text text-anchor="start" x="810.7194" y="-310.3" font-family="Arial" font-size="14.00" fill="#000000">    </text>
<text text-anchor="start" x="844.9242" y="-310.3" font-family="Arial" font-size="14.00" fill="#666666">[BASE TABLE]</text>
<polygon fill="none" stroke="#000000" points="724,-267.5 724,-297.5 985,-297.5 985,-267.5 724,-267.5"/>
<text text-anchor="start" x="731" y="-278.9" font-family="Arial" font-size="14.00" fill="#000000">store_id    </text>
<text text-anchor="start" x="814.993" y="-278.9" font-family="Arial" font-size="14.00" fill="#666666">[tinyint unsigned]</text>
<polygon fill="none" stroke="#000000" points="724,-237.5 724,-267.5 985,-267.5 985,-237.5 724,-237.5"/>
<text text-anchor="start" x="730.8093" y="-248.9" font-family="Arial" font-size="14.00" fill="#000000">manager_staff_id    </text>
<text text-anchor="start" x="873.1571" y="-248.9" font-family="Arial" font-size="14.00" fill="#666666">[tinyint unsigned]</text>
<polygon fill="none" stroke="#000000" points="724,-207.5 724,-237.5 985,-237.5 985,-207.5 724,-207.5"/>
<text text-anchor="start" x="731" y="-218.9" font-family="Arial" font-size="14.00" fill="#000000">address_id    </text>
<text text-anchor="start" x="833.6676" y="-218.9" font-family="Arial" font-size="14.00" fill="#666666">[smallint unsigned]</text>
<polygon fill="none" stroke="#000000" points="724,-177.5 724,-207.5 985,-207.5 985,-177.5 724,-177.5"/>
<text text-anchor="start" x="731" y="-188.9" font-family="Arial" font-size="14.00" fill="#000000">last_update    </text>
<text text-anchor="start" x="837.5708" y="-188.9" font-family="Arial" font-size="14.00" fill="#666666">[timestamp]</text>
</g>
<!-- inventory&#45;&gt;store -->
<g id="edge3" class="edge">
<title>inventory:store_id&#45;&gt;store:store_id</title>
<path fill="none" stroke="#000000" d="M716.3684,-636.9241C850.264,-621.0544 569.7222,-282.5 724,-282.5"/>
<polygon fill="#000000" stroke="#000000" points="715.9846,-636.9453 705.7504,-633.0069 710.9923,-637.2227 706,-637.5 706,-637.5 706,-637.5 710.9923,-637.2227 706.2496,-641.9931 715.9846,-636.9453 715.9846,-636.9453"/>
<text text-anchor="start" x="712.7735" y="-647.5" font-family="Arial" font-size="10.00" fill="#000000">FOREIGN KEY (store_id) REFERENCES store (store_id)</text>
</g>
<!-- rental -->
<g id="node2" class="node">
<title>rental</title>
<polygon fill="#efefef" stroke="transparent" points="465,-1082.5 465,-1117.5 721,-1117.5 721,-1082.5 465,-1082.5"/>
<polygon fill="none" stroke="#000000" points="465,-1082.5 465,-1117.5 721,-1117.5 721,-1082.5 465,-1082.5"/>
<text text-anchor="start" x="506.7124" y="-1095.3" font-family="Arial Bold" font-size="18.00" fill="#000000">rental</text>
<text text-anchor="start" x="551.7196" y="-1095.3" font-family="Arial" font-size="14.00" fill="#000000">    </text>
<text text-anchor="start" x="585.9244" y="-1095.3" font-family="Arial" font-size="14.00" fill="#666666">[BASE TABLE]</text>
<polygon fill="none" stroke="#000000" points="465,-1052.5 465,-1082.5 721,-1082.5 721,-1052.5 465,-1052.5"/>
<text text-anchor="start" x="472" y="-1063.9" font-family="Arial" font-size="14.00" fill="#000000">rental_id    </text>
<text text-anchor="start" x="559.8822" y="-1063.9" font-family="Arial" font-size="14.00" fill="#666666">[int]</text>
<polygon fill="none" stroke="#000000" points="465,-1022.5 465,-1052.5 721,-1052.5 721,-1022.5 465,-1022.5"/>
<text text-anchor="start" x="472" y="-1033.9" font-family="Arial" font-size="14.00" fill="#000000">rental_date    </text>
<text text-anchor="start" x="576.2314" y="-1033.9" font-family="Arial" font-size="14.00" fill="#666666">[datetime]</text>
<polygon fill="none" stroke="#000000" points="465,-992.5 465,-1022.5 721,-1022.5 721,-992.5 465,-992.5"/>
<text text-anchor="start" x="471.6529" y="-1003.9" font-family="Arial" font-size="14.00" fill="#000000">inventory_id    </text>
<text text-anchor="start" x="581.3177" y="-1003.9" font-family="Arial" font-size="14.00" fill="#666666">[mediumint unsigned]</text>
<polygon fill="none" stroke="#000000" points="465,-962.5 465,-992.5 721,-992.5 721,-962.5 465,-962.5"/>
<text text-anchor="start" x="472" y="-973.9" font-family="Arial" font-size="14.00" fill="#000000">customer_id    </text>
<text text-anchor="start" x="582.4362" y="-973.9" font-family="Arial" font-size="14.00" fill="#666666">[smallint unsigned]</text>
<polygon fill="none" stroke="#000000" points="465,-932.5 465,-962.5 721,-962.5 721,-932.5 465,-932.5"/>
<text text-anchor="start" x="472" y="-943.9" font-family="Arial" font-size="14.00" fill="#000000">return_date    </text>
<text text-anchor="start" x="577.7854" y="-943.9" font-family="Arial" font-size="14.00" fill="#666666">[datetime]</text>
<polygon fill="none" stroke="#000000" points="465,-902.5 465,-932.5 721,-932.5 721,-902.5 465,-902.5"/>
<text text-anchor="start" x="472" y="-913.9" font-family="Arial" font-size="14.00" fill="#000000">staff_id    </text>
<text text-anchor="start" x="551.331" y="-913.9" font-family="Arial" font-size="14.00" fill="#666666">[tinyint unsigned]</text>
<polygon fill="none" stroke="#000000" points="465,-872.5 465,-902.5 721,-902.5 721,-872.5 465,-872.5"/>
<text text-anchor="start" x="472" y="-883.9" font-family="Arial" font-size="14.00" fill="#000000">last_update    </text>
<text text-anchor="start" x="578.5708" y="-883.9" font-family="Arial" font-size="14.00" fill="#666666">[timestamp]</text>
</g>
<!-- rental&#45;&gt;inventory -->
<g id="edge1" class="edge">
<title>rental:inventory_id&#45;&gt;inventory:inventory_id</title>
<path fill="none" stroke="#000000" d="M731.2118,-1006.9106C858.098,-991.9577 840.4366,-697.5 706,-697.5"/>
<polygon fill="#000000" stroke="#000000" points="730.9834,-1006.9237 720.7407,-1003.0075 725.9917,-1007.2118 721,-1007.5 721,-1007.5 721,-1007.5 725.9917,-1007.2118 721.2593,-1011.9925 730.9834,-1006.9237 730.9834,-1006.9237"/>
<text text-anchor="start" x="728.268" y="-1017.5" font-family="Arial" font-size="10.00" fill="#000000">FOREIGN KEY (inventory_id) REFERENCES inventory (inventory_id)</text>
</g>
</g>
</svg>
