<?xml version="1.0" encoding="UTF-8" standalone="no"?>
<!DOCTYPE svg PUBLIC "-//W3C//DTD SVG 1.1//EN"
 "http://www.w3.org/Graphics/SVG/1.1/DTD/svg11.dtd">
<!-- Generated by graphviz version 2.40.1 (20161225.0304)
 -->
<!-- Title: language Pages: 1 -->
<svg width="989pt" height="772pt"
 viewBox="0.00 0.00 989.00 772.00" xmlns="http://www.w3.org/2000/svg" xmlns:xlink="http://www.w3.org/1999/xlink">
<g id="graph0" class="graph" transform="scale(1 1) rotate(0) translate(4 768)">
<title>language</title>
<polygon fill="#ffffff" stroke="transparent" points="-4,4 -4,-768 985,-768 985,4 -4,4"/>
<!-- language -->
<g id="node1" class="node">
<title>language</title>
<polygon fill="#efefef" stroke="transparent" points="542,-135.5 542,-170.5 757,-170.5 757,-135.5 542,-135.5"/>
<polygon fill="none" stroke="#000000" points="542,-135.5 542,-170.5 757,-170.5 757,-135.5 542,-135.5"/>
<text text-anchor="start" x="548.6972" y="-148.3" font-family="Arial Bold" font-size="18.00" fill="#000000">language</text>
<text text-anchor="start" x="622.7348" y="-148.3" font-family="Arial" font-size="14.00" fill="#000000">    </text>
<text text-anchor="start" x="656.9396" y="-148.3" font-family="Arial" font-size="14.00" fill="#666666">[BASE TABLE]</text>
<polygon fill="none" stroke="#000000" points="542,-105.5 542,-135.5 757,-135.5 757,-105.5 542,-105.5"/>
<text text-anchor="start" x="549" y="-116.9" font-family="Arial" font-size="14.00" fill="#000000">language_id </text>
<text text-anchor="start" x="629.1472" y="-116.9" font-family="Arial" font-size="14.00" fill="#666666">[tinyint unsigned]</text>
<polygon fill="none" stroke="#000000" points="542,-75.5 542,-105.5 757,-105.5 757,-75.5 542,-75.5"/>
<text text-anchor="start" x="549" y="-86.9" font-family="Arial" font-size="14.00" fill="#000000">name </text>
<text text-anchor="start" x="587.899" y="-86.9" font-family="Arial" font-size="14.00" fill="#666666">[char(20)]</text>
<polygon fill="none" stroke="#000000" points="542,-45.5 542,-75.5 757,-75.5 757,-45.5 542,-45.5"/>
<text text-anchor="start" x="549" y="-56.9" font-family="Arial" font-size="14.00" fill="#000000">last_update </text>
<text text-anchor="start" x="625.2566" y="-56.9" font-family="Arial" font-size="14.00" fill="#666666">[timestamp]</text>
<polygon fill="none" stroke="#000000" stroke-width="3" points="540,-44.5 540,-172.5 758,-172.5 758,-44.5 540,-44.5"/>
</g>
<!-- film -->
<g id="node2" class="node">
<title>film</title>
<polygon fill="#efefef" stroke="transparent" points="362,-685.5 362,-720.5 938,-720.5 938,-685.5 362,-685.5"/>
<polygon fill="none" stroke="#000000" points="362,-685.5 362,-720.5 938,-720.5 938,-685.5 362,-685.5"/>
<text text-anchor="start" x="572.2246" y="-698.3" font-family="Arial Bold" font-size="18.00" fill="#000000">film</text>
<text text-anchor="start" x="600.2074" y="-698.3" font-family="Arial" font-size="14.00" fill="#000000">    </text>
<text text-anchor="start" x="634.4122" y="-698.3" font-family="Arial" font-size="14.00" fill="#666666">[BASE TABLE]</text>
<polygon fill="none" stroke="#000000" points="362,-655.5 362,-685.5 938,-685.5 938,-655.5 362,-655.5"/>
<text text-anchor="start" x="369" y="-666.9" font-family="Arial" font-size="14.00" fill="#000000">film_id    </text>
<text text-anchor="start" x="443.641" y="-666.9" font-family="Arial" font-size="14.00" fill="#666666">[smallint unsigned]</text>
<polygon fill="none" stroke="#000000" points="362,-625.5 362,-655.5 938,-655.5 938,-625.5 362,-625.5"/>
<text text-anchor="start" x="369" y="-636.9" font-family="Arial" font-size="14.00" fill="#000000">title    </text>
<text text-anchor="start" x="424.9818" y="-636.9" font-family="Arial" font-size="14.00" fill="#666666">[varchar(128)]</text>
<polygon fill="none" stroke="#000000" points="362,-595.5 362,-625.5 938,-625.5 938,-595.5 362,-595.5"/>
<text text-anchor="start" x="369" y="-606.9" font-family="Arial" font-size="14.00" fill="#000000">description    </text>
<text text-anchor="start" x="470.8822" y="-606.9" font-family="Arial" font-size="14.00" fill="#666666">[text]</text>
<polygon fill="none" stroke="#000000" points="362,-565.5 362,-595.5 938,-595.5 938,-565.5 362,-565.5"/>
<text text-anchor="start" x="369" y="-576.9" font-family="Arial" font-size="14.00" fill="#000000">release_year    </text>
<text text-anchor="start" x="484.1108" y="-576.9" font-family="Arial" font-size="14.00" fill="#666666">[year]</text>
<polygon fill="none" stroke="#000000" points="362,-535.5 362,-565.5 938,-565.5 938,-535.5 362,-535.5"/>
<text text-anchor="start" x="369" y="-546.9" font-family="Arial" font-size="14.00" fill="#000000">language_id    </text>
<text text-anchor="start" x="479.4614" y="-546.9" font-family="Arial" font-size="14.00" fill="#666666">[tinyint unsigned]</text>
<polygon fill="none" stroke="#000000" points="362,-505.5 362,-535.5 938,-535.5 938,-505.5 362,-505.5"/>
<text text-anchor="start" x="369" y="-516.9" font-family="Arial" font-size="14.00" fill="#000000">original_language_id    </text>
<text text-anchor="start" x="532.3548" y="-516.9" font-family="Arial" font-size="14.00" fill="#666666">[tinyint unsigned]</text>
<polygon fill="none" stroke="#000000" points="362,-475.5 362,-505.5 938,-505.5 938,-475.5 362,-475.5"/>
<text text-anchor="start" x="369" y="-486.9" font-family="Arial" font-size="14.00" fill="#000000">rental_duration    </text>
<text text-anchor="start" x="496.5638" y="-486.9" font-family="Arial" font-size="14.00" fill="#666666">[tinyint unsigned]</text>
<polygon fill="none" stroke="#000000" points="362,-445.5 362,-475.5 938,-475.5 938,-445.5 362,-445.5"/>
<text text-anchor="start" x="369" y="-456.9" font-family="Arial" font-size="14.00" fill="#000000">rental_rate    </text>
<text text-anchor="start" x="470.1094" y="-456.9" font-family="Arial" font-size="14.00" fill="#666666">[decimal(4,2)]</text>
<polygon fill="none" stroke="#000000" points="362,-415.5 362,-445.5 938,-445.5 938,-415.5 362,-415.5"/>
<text text-anchor="start" x="369" y="-426.9" font-family="Arial" font-size="14.00" fill="#000000">length    </text>
<text text-anchor="start" x="441.3324" y="-426.9" font-family="Arial" font-size="14.00" fill="#666666">[smallint unsigned]</text>
<polygon fill="none" stroke="#000000" points="362,-385.5 362,-415.5 938,-415.5 938,-385.5 362,-385.5"/>
<text text-anchor="start" x="369" y="-396.9" font-family="Arial" font-size="14.00" fill="#000000">replacement_cost    </text>
<text text-anchor="start" x="513.6746" y="-396.9" font-family="Arial" font-size="14.00" fill="#666666">[decimal(5,2)]</text>
<polygon fill="none" stroke="#000000" points="362,-355.5 362,-385.5 938,-385.5 938,-355.5 362,-355.5"/>
<text text-anchor="start" x="369" y="-366.9" font-family="Arial" font-size="14.00" fill="#000000">rating    </text>
<text text-anchor="start" x="438.2104" y="-366.9" font-family="Arial" font-size="14.00" fill="#666666">[enum(&#39;G&#39;,&#39;PG&#39;,&#39;PG&#45;13&#39;,&#39;R&#39;,&#39;NC&#45;17&#39;)]</text>
<polygon fill="none" stroke="#000000" points="362,-325.5 362,-355.5 938,-355.5 938,-325.5 362,-325.5"/>
<text text-anchor="start" x="368.8681" y="-336.9" font-family="Arial" font-size="14.00" fill="#000000">special_features    </text>
<text text-anchor="start" x="504.9887" y="-336.9" font-family="Arial" font-size="14.00" fill="#666666">[set(&#39;Trailers&#39;,&#39;Commentaries&#39;,&#39;Deleted Scenes&#39;,&#39;Behind the Scenes&#39;)]</text>
<polygon fill="none" stroke="#000000" points="362,-295.5 362,-325.5 938,-325.5 938,-295.5 362,-295.5"/>
<text text-anchor="start" x="369" y="-306.9" font-family="Arial" font-size="14.00" fill="#000000">last_update    </text>
<text text-anchor="start" x="475.5708" y="-306.9" font-family="Arial" font-size="14.00" fill="#666666">[timestamp]</text>
</g>
<!-- film&#45;&gt;language -->
<g id="edge1" class="edge">
<title>film:language_id&#45;&gt;language:language_id</title>
<path fill="none" stroke="#000000" d="M351.9295,-548.3422C298.3132,-523.8987 319.8621,-299.153 362,-253 421.4298,-187.9075 697.5702,-282.0925 757,-217 785.918,-185.3266 799.8889,-120.5 757,-120.5"/>
<polygon fill="#000000" stroke="#000000" points="352.2219,-548.4048 361.0572,-554.9001 357.111,-549.4524 362,-550.5 362,-550.5 362,-550.5 357.111,-549.4524 362.9428,-546.0999 352.2219,-548.4048 352.2219,-548.4048"/>
<text text-anchor="start" x="44.4145" y="-560.5" font-family="Arial" font-size="10.00" fill="#000000">FOREIGN KEY (language_id) REFERENCES language (language_id)</text>
</g>
<!-- film&#45;&gt;language -->
<g id="edge2" class="edge">
<title>film:original_language_id&#45;&gt;language:language_id</title>
<path fill="none" stroke="#000000" d="M352.0563,-518.1304C304.9763,-494.0822 324.3461,-294.2417 362,-253 421.4298,-187.9075 697.5702,-282.0925 757,-217 785.918,-185.3266 799.8889,-120.5 757,-120.5"/>
<polygon fill="#000000" stroke="#000000" points="352.2724,-518.1818 360.9568,-524.8774 357.1362,-519.3409 362,-520.5 362,-520.5 362,-520.5 357.1362,-519.3409 363.0432,-516.1226 352.2724,-518.1818 352.2724,-518.1818"/>
<text text-anchor="start" x="6.524" y="-530.5" font-family="Arial" font-size="10.00" fill="#000000">FOREIGN KEY (original_language_id) REFERENCES language (language_id)</text>
</g>
</g>
</svg>
