<?xml version="1.0" encoding="UTF-8" standalone="no"?>
<!DOCTYPE svg PUBLIC "-//W3C//DTD SVG 1.1//EN"
 "http://www.w3.org/Graphics/SVG/1.1/DTD/svg11.dtd">
<!-- Generated by graphviz version 2.40.1 (20161225.0304)
 -->
<!-- Title: payment Pages: 1 -->
<svg width="1030pt" height="832pt"
 viewBox="0.00 0.00 1030.00 832.00" xmlns="http://www.w3.org/2000/svg" xmlns:xlink="http://www.w3.org/1999/xlink">
<g id="graph0" class="graph" transform="scale(1 1) rotate(0) translate(4 828)">
<title>payment</title>
<polygon fill="#ffffff" stroke="transparent" points="-4,4 -4,-828 1026,-828 1026,4 -4,4"/>
<!-- payment -->
<g id="node1" class="node">
<title>payment</title>
<polygon fill="#efefef" stroke="transparent" points="398,-742.5 398,-777.5 608,-777.5 608,-742.5 398,-742.5"/>
<polygon fill="none" stroke="#000000" points="398,-742.5 398,-777.5 608,-777.5 608,-742.5 398,-742.5"/>
<text text-anchor="start" x="404.7064" y="-755.3" font-family="Arial Bold" font-size="18.00" fill="#000000">payment</text>
<text text-anchor="start" x="473.7256" y="-755.3" font-family="Arial" font-size="14.00" fill="#000000">    </text>
<text text-anchor="start" x="507.9304" y="-755.3" font-family="Arial" font-size="14.00" fill="#666666">[BASE TABLE]</text>
<polygon fill="none" stroke="#000000" points="398,-712.5 398,-742.5 608,-742.5 608,-712.5 398,-712.5"/>
<text text-anchor="start" x="405" y="-723.9" font-family="Arial" font-size="14.00" fill="#000000">payment_id </text>
<text text-anchor="start" x="481.244" y="-723.9" font-family="Arial" font-size="14.00" fill="#666666">[smallint unsigned]</text>
<polygon fill="none" stroke="#000000" points="398,-682.5 398,-712.5 608,-712.5 608,-682.5 398,-682.5"/>
<text text-anchor="start" x="404.9839" y="-693.9" font-family="Arial" font-size="14.00" fill="#000000">customer_id </text>
<text text-anchor="start" x="485.1059" y="-693.9" font-family="Arial" font-size="14.00" fill="#666666">[smallint unsigned]</text>
<polygon fill="none" stroke="#000000" points="398,-652.5 398,-682.5 608,-682.5 608,-652.5 398,-652.5"/>
<text text-anchor="start" x="405" y="-663.9" font-family="Arial" font-size="14.00" fill="#000000">staff_id </text>
<text text-anchor="start" x="454.0168" y="-663.9" font-family="Arial" font-size="14.00" fill="#666666">[tinyint unsigned]</text>
<polygon fill="none" stroke="#000000" points="398,-622.5 398,-652.5 608,-652.5 608,-622.5 398,-622.5"/>
<text text-anchor="start" x="405" y="-633.9" font-family="Arial" font-size="14.00" fill="#000000">rental_id </text>
<text text-anchor="start" x="462.568" y="-633.9" font-family="Arial" font-size="14.00" fill="#666666">[int]</text>
<polygon fill="none" stroke="#000000" points="398,-592.5 398,-622.5 608,-622.5 608,-592.5 398,-592.5"/>
<text text-anchor="start" x="405" y="-603.9" font-family="Arial" font-size="14.00" fill="#000000">amount </text>
<text text-anchor="start" x="455.5722" y="-603.9" font-family="Arial" font-size="14.00" fill="#666666">[decimal(5,2)]</text>
<polygon fill="none" stroke="#000000" points="398,-562.5 398,-592.5 608,-592.5 608,-562.5 398,-562.5"/>
<text text-anchor="start" x="405" y="-573.9" font-family="Arial" font-size="14.00" fill="#000000">payment_date </text>
<text text-anchor="start" x="497.5932" y="-573.9" font-family="Arial" font-size="14.00" fill="#666666">[datetime]</text>
<polygon fill="none" stroke="#000000" points="398,-532.5 398,-562.5 608,-562.5 608,-532.5 398,-532.5"/>
<text text-anchor="start" x="405" y="-543.9" font-family="Arial" font-size="14.00" fill="#000000">last_update </text>
<text text-anchor="start" x="481.2566" y="-543.9" font-family="Arial" font-size="14.00" fill="#666666">[timestamp]</text>
<polygon fill="none" stroke="#000000" stroke-width="3" points="396.5,-531.5 396.5,-779.5 609.5,-779.5 609.5,-531.5 396.5,-531.5"/>
</g>
<!-- customer -->
<g id="node2" class="node">
<title>customer</title>
<polygon fill="#efefef" stroke="transparent" points="43,-342.5 43,-377.5 283,-377.5 283,-342.5 43,-342.5"/>
<polygon fill="none" stroke="#000000" points="43,-342.5 43,-377.5 283,-377.5 283,-342.5 43,-342.5"/>
<text text-anchor="start" x="62.2134" y="-355.3" font-family="Arial Bold" font-size="18.00" fill="#000000">customer</text>
<text text-anchor="start" x="136.2186" y="-355.3" font-family="Arial" font-size="14.00" fill="#000000">    </text>
<text text-anchor="start" x="170.4234" y="-355.3" font-family="Arial" font-size="14.00" fill="#666666">[BASE TABLE]</text>
<polygon fill="none" stroke="#000000" points="43,-312.5 43,-342.5 283,-342.5 283,-312.5 43,-312.5"/>
<text text-anchor="start" x="49.8268" y="-323.9" font-family="Arial" font-size="14.00" fill="#000000">customer_id    </text>
<text text-anchor="start" x="160.263" y="-323.9" font-family="Arial" font-size="14.00" fill="#666666">[smallint unsigned]</text>
<polygon fill="none" stroke="#000000" points="43,-282.5 43,-312.5 283,-312.5 283,-282.5 43,-282.5"/>
<text text-anchor="start" x="50" y="-293.9" font-family="Arial" font-size="14.00" fill="#000000">store_id    </text>
<text text-anchor="start" x="133.993" y="-293.9" font-family="Arial" font-size="14.00" fill="#666666">[tinyint unsigned]</text>
<polygon fill="none" stroke="#000000" points="43,-252.5 43,-282.5 283,-282.5 283,-252.5 43,-252.5"/>
<text text-anchor="start" x="50" y="-263.9" font-family="Arial" font-size="14.00" fill="#000000">first_name    </text>
<text text-anchor="start" x="149.5442" y="-263.9" font-family="Arial" font-size="14.00" fill="#666666">[varchar(45)]</text>
<polygon fill="none" stroke="#000000" points="43,-222.5 43,-252.5 283,-252.5 283,-222.5 43,-222.5"/>
<text text-anchor="start" x="50" y="-233.9" font-family="Arial" font-size="14.00" fill="#000000">last_name    </text>
<text text-anchor="start" x="148.7756" y="-233.9" font-family="Arial" font-size="14.00" fill="#666666">[varchar(45)]</text>
<polygon fill="none" stroke="#000000" points="43,-192.5 43,-222.5 283,-222.5 283,-192.5 43,-192.5"/>
<text text-anchor="start" x="50" y="-203.9" font-family="Arial" font-size="14.00" fill="#000000">email    </text>
<text text-anchor="start" x="117.6438" y="-203.9" font-family="Arial" font-size="14.00" fill="#666666">[varchar(50)]</text>
<polygon fill="none" stroke="#000000" points="43,-162.5 43,-192.5 283,-192.5 283,-162.5 43,-162.5"/>
<text text-anchor="start" x="50" y="-173.9" font-family="Arial" font-size="14.00" fill="#000000">address_id    </text>
<text text-anchor="start" x="152.6676" y="-173.9" font-family="Arial" font-size="14.00" fill="#666666">[smallint unsigned]</text>
<polygon fill="none" stroke="#000000" points="43,-132.5 43,-162.5 283,-162.5 283,-132.5 43,-132.5"/>
<text text-anchor="start" x="50" y="-143.9" font-family="Arial" font-size="14.00" fill="#000000">active    </text>
<text text-anchor="start" x="120.7672" y="-143.9" font-family="Arial" font-size="14.00" fill="#666666">[tinyint(1)]</text>
<polygon fill="none" stroke="#000000" points="43,-102.5 43,-132.5 283,-132.5 283,-102.5 43,-102.5"/>
<text text-anchor="start" x="50" y="-113.9" font-family="Arial" font-size="14.00" fill="#000000">create_date    </text>
<text text-anchor="start" x="158.1248" y="-113.9" font-family="Arial" font-size="14.00" fill="#666666">[datetime]</text>
<polygon fill="none" stroke="#000000" points="43,-72.5 43,-102.5 283,-102.5 283,-72.5 43,-72.5"/>
<text text-anchor="start" x="50" y="-83.9" font-family="Arial" font-size="14.00" fill="#000000">last_update    </text>
<text text-anchor="start" x="156.5708" y="-83.9" font-family="Arial" font-size="14.00" fill="#666666">[timestamp]</text>
</g>
<!-- payment&#45;&gt;customer -->
<g id="edge1" class="edge">
<title>payment:customer_id&#45;&gt;customer:customer_id</title>
<path fill="none" stroke="#000000" d="M389.119,-692.2696C350.8152,-647.298 323.024,-327.5 283,-327.5"/>
<polygon fill="#000000" stroke="#000000" points="389.3833,-692.4252 395.7163,-701.3775 393.6917,-694.9626 398,-697.5 398,-697.5 398,-697.5 393.6917,-694.9626 400.2837,-693.6225 389.3833,-692.4252 389.3833,-692.4252"/>
<text text-anchor="start" x="80.4415" y="-707.5" font-family="Arial" font-size="10.00" fill="#000000">FOREIGN KEY (customer_id) REFERENCES customer (customer_id)</text>
</g>
<!-- staff -->
<g id="node3" class="node">
<title>staff</title>
<polygon fill="#efefef" stroke="transparent" points="387,-372.5 387,-407.5 619,-407.5 619,-372.5 387,-372.5"/>
<polygon fill="none" stroke="#000000" points="387,-372.5 387,-407.5 619,-407.5 619,-372.5 387,-372.5"/>
<text text-anchor="start" x="422.2096" y="-385.3" font-family="Arial Bold" font-size="18.00" fill="#000000">staff</text>
<text text-anchor="start" x="456.2224" y="-385.3" font-family="Arial" font-size="14.00" fill="#000000">    </text>
<text text-anchor="start" x="490.4272" y="-385.3" font-family="Arial" font-size="14.00" fill="#666666">[BASE TABLE]</text>
<polygon fill="none" stroke="#000000" points="387,-342.5 387,-372.5 619,-372.5 619,-342.5 387,-342.5"/>
<text text-anchor="start" x="394" y="-353.9" font-family="Arial" font-size="14.00" fill="#000000">staff_id    </text>
<text text-anchor="start" x="473.331" y="-353.9" font-family="Arial" font-size="14.00" fill="#666666">[tinyint unsigned]</text>
<polygon fill="none" stroke="#000000" points="387,-312.5 387,-342.5 619,-342.5 619,-312.5 387,-312.5"/>
<text text-anchor="start" x="394" y="-323.9" font-family="Arial" font-size="14.00" fill="#000000">first_name    </text>
<text text-anchor="start" x="493.5442" y="-323.9" font-family="Arial" font-size="14.00" fill="#666666">[varchar(45)]</text>
<polygon fill="none" stroke="#000000" points="387,-282.5 387,-312.5 619,-312.5 619,-282.5 387,-282.5"/>
<text text-anchor="start" x="394" y="-293.9" font-family="Arial" font-size="14.00" fill="#000000">last_name    </text>
<text text-anchor="start" x="492.7756" y="-293.9" font-family="Arial" font-size="14.00" fill="#666666">[varchar(45)]</text>
<polygon fill="none" stroke="#000000" points="387,-252.5 387,-282.5 619,-282.5 619,-252.5 387,-252.5"/>
<text text-anchor="start" x="393.7111" y="-263.9" font-family="Arial" font-size="14.00" fill="#000000">address_id    </text>
<text text-anchor="start" x="496.3787" y="-263.9" font-family="Arial" font-size="14.00" fill="#666666">[smallint unsigned]</text>
<polygon fill="none" stroke="#000000" points="387,-222.5 387,-252.5 619,-252.5 619,-222.5 387,-222.5"/>
<text text-anchor="start" x="394" y="-233.9" font-family="Arial" font-size="14.00" fill="#000000">picture    </text>
<text text-anchor="start" x="470.2104" y="-233.9" font-family="Arial" font-size="14.00" fill="#666666">[blob]</text>
<polygon fill="none" stroke="#000000" points="387,-192.5 387,-222.5 619,-222.5 619,-192.5 387,-192.5"/>
<text text-anchor="start" x="394" y="-203.9" font-family="Arial" font-size="14.00" fill="#000000">email    </text>
<text text-anchor="start" x="461.6438" y="-203.9" font-family="Arial" font-size="14.00" fill="#666666">[varchar(50)]</text>
<polygon fill="none" stroke="#000000" points="387,-162.5 387,-192.5 619,-192.5 619,-162.5 387,-162.5"/>
<text text-anchor="start" x="394" y="-173.9" font-family="Arial" font-size="14.00" fill="#000000">store_id    </text>
<text text-anchor="start" x="477.993" y="-173.9" font-family="Arial" font-size="14.00" fill="#666666">[tinyint unsigned]</text>
<polygon fill="none" stroke="#000000" points="387,-132.5 387,-162.5 619,-162.5 619,-132.5 387,-132.5"/>
<text text-anchor="start" x="394" y="-143.9" font-family="Arial" font-size="14.00" fill="#000000">active    </text>
<text text-anchor="start" x="464.7672" y="-143.9" font-family="Arial" font-size="14.00" fill="#666666">[tinyint(1)]</text>
<polygon fill="none" stroke="#000000" points="387,-102.5 387,-132.5 619,-132.5 619,-102.5 387,-102.5"/>
<text text-anchor="start" x="394" y="-113.9" font-family="Arial" font-size="14.00" fill="#000000">username    </text>
<text text-anchor="start" x="490.439" y="-113.9" font-family="Arial" font-size="14.00" fill="#666666">[varchar(16)]</text>
<polygon fill="none" stroke="#000000" points="387,-72.5 387,-102.5 619,-102.5 619,-72.5 387,-72.5"/>
<text text-anchor="start" x="394" y="-83.9" font-family="Arial" font-size="14.00" fill="#000000">password    </text>
<text text-anchor="start" x="488.1024" y="-83.9" font-family="Arial" font-size="14.00" fill="#666666">[varchar(40)]</text>
<polygon fill="none" stroke="#000000" points="387,-42.5 387,-72.5 619,-72.5 619,-42.5 387,-42.5"/>
<text text-anchor="start" x="394" y="-53.9" font-family="Arial" font-size="14.00" fill="#000000">last_update    </text>
<text text-anchor="start" x="500.5708" y="-53.9" font-family="Arial" font-size="14.00" fill="#666666">[timestamp]</text>
</g>
<!-- payment&#45;&gt;staff -->
<g id="edge2" class="edge">
<title>payment:staff_id&#45;&gt;staff:staff_id</title>
<path fill="none" stroke="#000000" d="M618.0503,-665.183C677.8433,-636.815 684.4318,-357.5 619,-357.5"/>
<polygon fill="#000000" stroke="#000000" points="617.7444,-665.2534 606.989,-663.115 612.8722,-666.3767 608,-667.5 608,-667.5 608,-667.5 612.8722,-666.3767 609.011,-671.885 617.7444,-665.2534 617.7444,-665.2534"/>
<text text-anchor="start" x="614.7685" y="-677.5" font-family="Arial" font-size="10.00" fill="#000000">FOREIGN KEY (staff_id) REFERENCES staff (staff_id)</text>
</g>
<!-- rental -->
<g id="node4" class="node">
<title>rental</title>
<polygon fill="#efefef" stroke="transparent" points="723,-312.5 723,-347.5 979,-347.5 979,-312.5 723,-312.5"/>
<polygon fill="none" stroke="#000000" points="723,-312.5 723,-347.5 979,-347.5 979,-312.5 723,-312.5"/>
<text text-anchor="start" x="764.7124" y="-325.3" font-family="Arial Bold" font-size="18.00" fill="#000000">rental</text>
<text text-anchor="start" x="809.7196" y="-325.3" font-family="Arial" font-size="14.00" fill="#000000">    </text>
<text text-anchor="start" x="843.9244" y="-325.3" font-family="Arial" font-size="14.00" fill="#666666">[BASE TABLE]</text>
<polygon fill="none" stroke="#000000" points="723,-282.5 723,-312.5 979,-312.5 979,-282.5 723,-282.5"/>
<text text-anchor="start" x="730" y="-293.9" font-family="Arial" font-size="14.00" fill="#000000">rental_id    </text>
<text text-anchor="start" x="817.8822" y="-293.9" font-family="Arial" font-size="14.00" fill="#666666">[int]</text>
<polygon fill="none" stroke="#000000" points="723,-252.5 723,-282.5 979,-282.5 979,-252.5 723,-252.5"/>
<text text-anchor="start" x="730" y="-263.9" font-family="Arial" font-size="14.00" fill="#000000">rental_date    </text>
<text text-anchor="start" x="834.2314" y="-263.9" font-family="Arial" font-size="14.00" fill="#666666">[datetime]</text>
<polygon fill="none" stroke="#000000" points="723,-222.5 723,-252.5 979,-252.5 979,-222.5 723,-222.5"/>
<text text-anchor="start" x="729.6529" y="-233.9" font-family="Arial" font-size="14.00" fill="#000000">inventory_id    </text>
<text text-anchor="start" x="839.3177" y="-233.9" font-family="Arial" font-size="14.00" fill="#666666">[mediumint unsigned]</text>
<polygon fill="none" stroke="#000000" points="723,-192.5 723,-222.5 979,-222.5 979,-192.5 723,-192.5"/>
<text text-anchor="start" x="730" y="-203.9" font-family="Arial" font-size="14.00" fill="#000000">customer_id    </text>
<text text-anchor="start" x="840.4362" y="-203.9" font-family="Arial" font-size="14.00" fill="#666666">[smallint unsigned]</text>
<polygon fill="none" stroke="#000000" points="723,-162.5 723,-192.5 979,-192.5 979,-162.5 723,-162.5"/>
<text text-anchor="start" x="730" y="-173.9" font-family="Arial" font-size="14.00" fill="#000000">return_date    </text>
<text text-anchor="start" x="835.7854" y="-173.9" font-family="Arial" font-size="14.00" fill="#666666">[datetime]</text>
<polygon fill="none" stroke="#000000" points="723,-132.5 723,-162.5 979,-162.5 979,-132.5 723,-132.5"/>
<text text-anchor="start" x="730" y="-143.9" font-family="Arial" font-size="14.00" fill="#000000">staff_id    </text>
<text text-anchor="start" x="809.331" y="-143.9" font-family="Arial" font-size="14.00" fill="#666666">[tinyint unsigned]</text>
<polygon fill="none" stroke="#000000" points="723,-102.5 723,-132.5 979,-132.5 979,-102.5 723,-102.5"/>
<text text-anchor="start" x="730" y="-113.9" font-family="Arial" font-size="14.00" fill="#000000">last_update    </text>
<text text-anchor="start" x="836.5708" y="-113.9" font-family="Arial" font-size="14.00" fill="#666666">[timestamp]</text>
</g>
<!-- payment&#45;&gt;rental -->
<g id="edge3" class="edge">
<title>payment:rental_id&#45;&gt;rental:rental_id</title>
<path fill="none" stroke="#000000" d="M611.4643,-628.0516C630.5559,-573.1391 721.8779,-297.5 723,-297.5"/>
<polygon fill="#000000" stroke="#000000" points="611.4425,-628.1112 603.775,-635.9509 609.7213,-632.8056 608,-637.5 608,-637.5 608,-637.5 609.7213,-632.8056 612.225,-639.0491 611.4425,-628.1112 611.4425,-628.1112"/>
<text text-anchor="start" x="614.6065" y="-647.5" font-family="Arial" font-size="10.00" fill="#000000">FOREIGN KEY (rental_id) REFERENCES rental (rental_id)</text>
</g>
</g>
</svg>
