<?xml version="1.0" encoding="UTF-8" standalone="no"?>
<!DOCTYPE svg PUBLIC "-//W3C//DTD SVG 1.1//EN"
 "http://www.w3.org/Graphics/SVG/1.1/DTD/svg11.dtd">
<!-- Generated by graphviz version 2.40.1 (20161225.0304)
 -->
<!-- Title: rental Pages: 1 -->
<svg width="1030pt" height="1199pt"
 viewBox="0.00 0.00 1030.00 1199.00" xmlns="http://www.w3.org/2000/svg" xmlns:xlink="http://www.w3.org/1999/xlink">
<g id="graph0" class="graph" transform="scale(1 1) rotate(0) translate(4 1195)">
<title>rental</title>
<polygon fill="#ffffff" stroke="transparent" points="-4,4 -4,-1195 1026,-1195 1026,4 -4,4"/>
<!-- rental -->
<g id="node1" class="node">
<title>rental</title>
<polygon fill="#efefef" stroke="transparent" points="410,-742.5 410,-777.5 636,-777.5 636,-742.5 410,-742.5"/>
<polygon fill="none" stroke="#000000" points="410,-742.5 410,-777.5 636,-777.5 636,-742.5 410,-742.5"/>
<text text-anchor="start" x="436.7124" y="-755.3" font-family="Arial Bold" font-size="18.00" fill="#000000">rental</text>
<text text-anchor="start" x="481.7196" y="-755.3" font-family="Arial" font-size="14.00" fill="#000000">    </text>
<text text-anchor="start" x="515.9244" y="-755.3" font-family="Arial" font-size="14.00" fill="#666666">[BASE TABLE]</text>
<polygon fill="none" stroke="#000000" points="410,-712.5 410,-742.5 636,-742.5 636,-712.5 410,-712.5"/>
<text text-anchor="start" x="417" y="-723.9" font-family="Arial" font-size="14.00" fill="#000000">rental_id </text>
<text text-anchor="start" x="474.568" y="-723.9" font-family="Arial" font-size="14.00" fill="#666666">[int]</text>
<polygon fill="none" stroke="#000000" points="410,-682.5 410,-712.5 636,-712.5 636,-682.5 410,-682.5"/>
<text text-anchor="start" x="417" y="-693.9" font-family="Arial" font-size="14.00" fill="#000000">rental_date </text>
<text text-anchor="start" x="490.9172" y="-693.9" font-family="Arial" font-size="14.00" fill="#666666">[datetime]</text>
<polygon fill="none" stroke="#000000" points="410,-652.5 410,-682.5 636,-682.5 636,-652.5 410,-652.5"/>
<text text-anchor="start" x="416.81" y="-663.9" font-family="Arial" font-size="14.00" fill="#000000">inventory_id </text>
<text text-anchor="start" x="496.1606" y="-663.9" font-family="Arial" font-size="14.00" fill="#666666">[mediumint unsigned]</text>
<polygon fill="none" stroke="#000000" points="410,-622.5 410,-652.5 636,-652.5 636,-622.5 410,-622.5"/>
<text text-anchor="start" x="417" y="-633.9" font-family="Arial" font-size="14.00" fill="#000000">customer_id </text>
<text text-anchor="start" x="497.122" y="-633.9" font-family="Arial" font-size="14.00" fill="#666666">[smallint unsigned]</text>
<polygon fill="none" stroke="#000000" points="410,-592.5 410,-622.5 636,-622.5 636,-592.5 410,-592.5"/>
<text text-anchor="start" x="417" y="-603.9" font-family="Arial" font-size="14.00" fill="#000000">return_date </text>
<text text-anchor="start" x="492.4712" y="-603.9" font-family="Arial" font-size="14.00" fill="#666666">[datetime]</text>
<polygon fill="none" stroke="#000000" points="410,-562.5 410,-592.5 636,-592.5 636,-562.5 410,-562.5"/>
<text text-anchor="start" x="417" y="-573.9" font-family="Arial" font-size="14.00" fill="#000000">staff_id </text>
<text text-anchor="start" x="466.0168" y="-573.9" font-family="Arial" font-size="14.00" fill="#666666">[tinyint unsigned]</text>
<polygon fill="none" stroke="#000000" points="410,-532.5 410,-562.5 636,-562.5 636,-532.5 410,-532.5"/>
<text text-anchor="start" x="417" y="-543.9" font-family="Arial" font-size="14.00" fill="#000000">last_update </text>
<text text-anchor="start" x="493.2566" y="-543.9" font-family="Arial" font-size="14.00" fill="#666666">[timestamp]</text>
<polygon fill="none" stroke="#000000" stroke-width="3" points="408.5,-531.5 408.5,-779.5 637.5,-779.5 637.5,-531.5 408.5,-531.5"/>
</g>
<!-- inventory -->
<g id="node3" class="node">
<title>inventory</title>
<polygon fill="#efefef" stroke="transparent" points="43,-267.5 43,-302.5 299,-302.5 299,-267.5 43,-267.5"/>
<polygon fill="none" stroke="#000000" points="43,-267.5 43,-302.5 299,-302.5 299,-267.5 43,-267.5"/>
<text text-anchor="start" x="70.7093" y="-280.3" font-family="Arial Bold" font-size="18.00" fill="#000000">inventory</text>
<text text-anchor="start" x="143.7227" y="-280.3" font-family="Arial" font-size="14.00" fill="#000000">    </text>
<text text-anchor="start" x="177.9275" y="-280.3" font-family="Arial" font-size="14.00" fill="#666666">[BASE TABLE]</text>
<polygon fill="none" stroke="#000000" points="43,-237.5 43,-267.5 299,-267.5 299,-237.5 43,-237.5"/>
<text text-anchor="start" x="49.6529" y="-248.9" font-family="Arial" font-size="14.00" fill="#000000">inventory_id    </text>
<text text-anchor="start" x="159.3177" y="-248.9" font-family="Arial" font-size="14.00" fill="#666666">[mediumint unsigned]</text>
<polygon fill="none" stroke="#000000" points="43,-207.5 43,-237.5 299,-237.5 299,-207.5 43,-207.5"/>
<text text-anchor="start" x="50" y="-218.9" font-family="Arial" font-size="14.00" fill="#000000">film_id    </text>
<text text-anchor="start" x="124.641" y="-218.9" font-family="Arial" font-size="14.00" fill="#666666">[smallint unsigned]</text>
<polygon fill="none" stroke="#000000" points="43,-177.5 43,-207.5 299,-207.5 299,-177.5 43,-177.5"/>
<text text-anchor="start" x="50" y="-188.9" font-family="Arial" font-size="14.00" fill="#000000">store_id    </text>
<text text-anchor="start" x="133.993" y="-188.9" font-family="Arial" font-size="14.00" fill="#666666">[tinyint unsigned]</text>
<polygon fill="none" stroke="#000000" points="43,-147.5 43,-177.5 299,-177.5 299,-147.5 43,-147.5"/>
<text text-anchor="start" x="50" y="-158.9" font-family="Arial" font-size="14.00" fill="#000000">last_update    </text>
<text text-anchor="start" x="156.5708" y="-158.9" font-family="Arial" font-size="14.00" fill="#666666">[timestamp]</text>
</g>
<!-- rental&#45;&gt;inventory -->
<g id="edge2" class="edge">
<title>rental:inventory_id&#45;&gt;inventory:inventory_id</title>
<path fill="none" stroke="#000000" d="M399.8281,-667.0362C314.9525,-658.8484 375.8177,-543.8688 351,-451 327.4547,-362.8927 390.1991,-252.5 299,-252.5"/>
<polygon fill="#000000" stroke="#000000" points="400.0104,-667.0444 409.795,-671.9953 405.0052,-667.2722 410,-667.5 410,-667.5 410,-667.5 405.0052,-667.2722 410.205,-663.0047 400.0104,-667.0444 400.0104,-667.0444"/>
<text text-anchor="start" x="94.268" y="-677.5" font-family="Arial" font-size="10.00" fill="#000000">FOREIGN KEY (inventory_id) REFERENCES inventory (inventory_id)</text>
</g>
<!-- customer -->
<g id="node4" class="node">
<title>customer</title>
<polygon fill="#efefef" stroke="transparent" points="403,-342.5 403,-377.5 643,-377.5 643,-342.5 403,-342.5"/>
<polygon fill="none" stroke="#000000" points="403,-342.5 403,-377.5 643,-377.5 643,-342.5 403,-342.5"/>
<text text-anchor="start" x="422.2134" y="-355.3" font-family="Arial Bold" font-size="18.00" fill="#000000">customer</text>
<text text-anchor="start" x="496.2186" y="-355.3" font-family="Arial" font-size="14.00" fill="#000000">    </text>
<text text-anchor="start" x="530.4234" y="-355.3" font-family="Arial" font-size="14.00" fill="#666666">[BASE TABLE]</text>
<polygon fill="none" stroke="#000000" points="403,-312.5 403,-342.5 643,-342.5 643,-312.5 403,-312.5"/>
<text text-anchor="start" x="409.8268" y="-323.9" font-family="Arial" font-size="14.00" fill="#000000">customer_id    </text>
<text text-anchor="start" x="520.263" y="-323.9" font-family="Arial" font-size="14.00" fill="#666666">[smallint unsigned]</text>
<polygon fill="none" stroke="#000000" points="403,-282.5 403,-312.5 643,-312.5 643,-282.5 403,-282.5"/>
<text text-anchor="start" x="410" y="-293.9" font-family="Arial" font-size="14.00" fill="#000000">store_id    </text>
<text text-anchor="start" x="493.993" y="-293.9" font-family="Arial" font-size="14.00" fill="#666666">[tinyint unsigned]</text>
<polygon fill="none" stroke="#000000" points="403,-252.5 403,-282.5 643,-282.5 643,-252.5 403,-252.5"/>
<text text-anchor="start" x="410" y="-263.9" font-family="Arial" font-size="14.00" fill="#000000">first_name    </text>
<text text-anchor="start" x="509.5442" y="-263.9" font-family="Arial" font-size="14.00" fill="#666666">[varchar(45)]</text>
<polygon fill="none" stroke="#000000" points="403,-222.5 403,-252.5 643,-252.5 643,-222.5 403,-222.5"/>
<text text-anchor="start" x="410" y="-233.9" font-family="Arial" font-size="14.00" fill="#000000">last_name    </text>
<text text-anchor="start" x="508.7756" y="-233.9" font-family="Arial" font-size="14.00" fill="#666666">[varchar(45)]</text>
<polygon fill="none" stroke="#000000" points="403,-192.5 403,-222.5 643,-222.5 643,-192.5 403,-192.5"/>
<text text-anchor="start" x="410" y="-203.9" font-family="Arial" font-size="14.00" fill="#000000">email    </text>
<text text-anchor="start" x="477.6438" y="-203.9" font-family="Arial" font-size="14.00" fill="#666666">[varchar(50)]</text>
<polygon fill="none" stroke="#000000" points="403,-162.5 403,-192.5 643,-192.5 643,-162.5 403,-162.5"/>
<text text-anchor="start" x="410" y="-173.9" font-family="Arial" font-size="14.00" fill="#000000">address_id    </text>
<text text-anchor="start" x="512.6676" y="-173.9" font-family="Arial" font-size="14.00" fill="#666666">[smallint unsigned]</text>
<polygon fill="none" stroke="#000000" points="403,-132.5 403,-162.5 643,-162.5 643,-132.5 403,-132.5"/>
<text text-anchor="start" x="410" y="-143.9" font-family="Arial" font-size="14.00" fill="#000000">active    </text>
<text text-anchor="start" x="480.7672" y="-143.9" font-family="Arial" font-size="14.00" fill="#666666">[tinyint(1)]</text>
<polygon fill="none" stroke="#000000" points="403,-102.5 403,-132.5 643,-132.5 643,-102.5 403,-102.5"/>
<text text-anchor="start" x="410" y="-113.9" font-family="Arial" font-size="14.00" fill="#000000">create_date    </text>
<text text-anchor="start" x="518.1248" y="-113.9" font-family="Arial" font-size="14.00" fill="#666666">[datetime]</text>
<polygon fill="none" stroke="#000000" points="403,-72.5 403,-102.5 643,-102.5 643,-72.5 403,-72.5"/>
<text text-anchor="start" x="410" y="-83.9" font-family="Arial" font-size="14.00" fill="#000000">last_update    </text>
<text text-anchor="start" x="516.5708" y="-83.9" font-family="Arial" font-size="14.00" fill="#666666">[timestamp]</text>
</g>
<!-- rental&#45;&gt;customer -->
<g id="edge3" class="edge">
<title>rental:customer_id&#45;&gt;customer:customer_id</title>
<path fill="none" stroke="#000000" d="M646.0167,-635.183C705.4216,-606.815 708.4073,-327.5 643,-327.5"/>
<polygon fill="#000000" stroke="#000000" points="645.7427,-635.2463 634.9858,-633.1158 640.8714,-636.3731 636,-637.5 636,-637.5 636,-637.5 640.8714,-636.3731 637.0142,-641.8842 645.7427,-635.2463 645.7427,-635.2463"/>
<text text-anchor="start" x="643.4415" y="-647.5" font-family="Arial" font-size="10.00" fill="#000000">FOREIGN KEY (customer_id) REFERENCES customer (customer_id)</text>
</g>
<!-- staff -->
<g id="node5" class="node">
<title>staff</title>
<polygon fill="#efefef" stroke="transparent" points="747,-372.5 747,-407.5 979,-407.5 979,-372.5 747,-372.5"/>
<polygon fill="none" stroke="#000000" points="747,-372.5 747,-407.5 979,-407.5 979,-372.5 747,-372.5"/>
<text text-anchor="start" x="782.2096" y="-385.3" font-family="Arial Bold" font-size="18.00" fill="#000000">staff</text>
<text text-anchor="start" x="816.2224" y="-385.3" font-family="Arial" font-size="14.00" fill="#000000">    </text>
<text text-anchor="start" x="850.4272" y="-385.3" font-family="Arial" font-size="14.00" fill="#666666">[BASE TABLE]</text>
<polygon fill="none" stroke="#000000" points="747,-342.5 747,-372.5 979,-372.5 979,-342.5 747,-342.5"/>
<text text-anchor="start" x="754" y="-353.9" font-family="Arial" font-size="14.00" fill="#000000">staff_id    </text>
<text text-anchor="start" x="833.331" y="-353.9" font-family="Arial" font-size="14.00" fill="#666666">[tinyint unsigned]</text>
<polygon fill="none" stroke="#000000" points="747,-312.5 747,-342.5 979,-342.5 979,-312.5 747,-312.5"/>
<text text-anchor="start" x="754" y="-323.9" font-family="Arial" font-size="14.00" fill="#000000">first_name    </text>
<text text-anchor="start" x="853.5442" y="-323.9" font-family="Arial" font-size="14.00" fill="#666666">[varchar(45)]</text>
<polygon fill="none" stroke="#000000" points="747,-282.5 747,-312.5 979,-312.5 979,-282.5 747,-282.5"/>
<text text-anchor="start" x="754" y="-293.9" font-family="Arial" font-size="14.00" fill="#000000">last_name    </text>
<text text-anchor="start" x="852.7756" y="-293.9" font-family="Arial" font-size="14.00" fill="#666666">[varchar(45)]</text>
<polygon fill="none" stroke="#000000" points="747,-252.5 747,-282.5 979,-282.5 979,-252.5 747,-252.5"/>
<text text-anchor="start" x="753.7111" y="-263.9" font-family="Arial" font-size="14.00" fill="#000000">address_id    </text>
<text text-anchor="start" x="856.3787" y="-263.9" font-family="Arial" font-size="14.00" fill="#666666">[smallint unsigned]</text>
<polygon fill="none" stroke="#000000" points="747,-222.5 747,-252.5 979,-252.5 979,-222.5 747,-222.5"/>
<text text-anchor="start" x="754" y="-233.9" font-family="Arial" font-size="14.00" fill="#000000">picture    </text>
<text text-anchor="start" x="830.2104" y="-233.9" font-family="Arial" font-size="14.00" fill="#666666">[blob]</text>
<polygon fill="none" stroke="#000000" points="747,-192.5 747,-222.5 979,-222.5 979,-192.5 747,-192.5"/>
<text text-anchor="start" x="754" y="-203.9" font-family="Arial" font-size="14.00" fill="#000000">email    </text>
<text text-anchor="start" x="821.6438" y="-203.9" font-family="Arial" font-size="14.00" fill="#666666">[varchar(50)]</text>
<polygon fill="none" stroke="#000000" points="747,-162.5 747,-192.5 979,-192.5 979,-162.5 747,-162.5"/>
<text text-anchor="start" x="754" y="-173.9" font-family="Arial" font-size="14.00" fill="#000000">store_id    </text>
<text text-anchor="start" x="837.993" y="-173.9" font-family="Arial" font-size="14.00" fill="#666666">[tinyint unsigned]</text>
<polygon fill="none" stroke="#000000" points="747,-132.5 747,-162.5 979,-162.5 979,-132.5 747,-132.5"/>
<text text-anchor="start" x="754" y="-143.9" font-family="Arial" font-size="14.00" fill="#000000">active    </text>
<text text-anchor="start" x="824.7672" y="-143.9" font-family="Arial" font-size="14.00" fill="#666666">[tinyint(1)]</text>
<polygon fill="none" stroke="#000000" points="747,-102.5 747,-132.5 979,-132.5 979,-102.5 747,-102.5"/>
<text text-anchor="start" x="754" y="-113.9" font-family="Arial" font-size="14.00" fill="#000000">username    </text>
<text text-anchor="start" x="850.439" y="-113.9" font-family="Arial" font-size="14.00" fill="#666666">[varchar(16)]</text>
<polygon fill="none" stroke="#000000" points="747,-72.5 747,-102.5 979,-102.5 979,-72.5 747,-72.5"/>
<text text-anchor="start" x="754" y="-83.9" font-family="Arial" font-size="14.00" fill="#000000">password    </text>
<text text-anchor="start" x="848.1024" y="-83.9" font-family="Arial" font-size="14.00" fill="#666666">[varchar(40)]</text>
<polygon fill="none" stroke="#000000" points="747,-42.5 747,-72.5 979,-72.5 979,-42.5 747,-42.5"/>
<text text-anchor="start" x="754" y="-53.9" font-family="Arial" font-size="14.00" fill="#000000">last_update    </text>
<text text-anchor="start" x="860.5708" y="-53.9" font-family="Arial" font-size="14.00" fill="#666666">[timestamp]</text>
</g>
<!-- rental&#45;&gt;staff -->
<g id="edge4" class="edge">
<title>rental:staff_id&#45;&gt;staff:staff_id</title>
<path fill="none" stroke="#000000" d="M645.9528,-574.876C691.1715,-550.0546 695.7702,-357.5 747,-357.5"/>
<polygon fill="#000000" stroke="#000000" points="645.6696,-574.9506 634.8528,-573.1487 640.8348,-576.2253 636,-577.5 636,-577.5 636,-577.5 640.8348,-576.2253 637.1472,-581.8513 645.6696,-574.9506 645.6696,-574.9506"/>
<text text-anchor="start" x="642.7685" y="-587.5" font-family="Arial" font-size="10.00" fill="#000000">FOREIGN KEY (staff_id) REFERENCES staff (staff_id)</text>
</g>
<!-- payment -->
<g id="node2" class="node">
<title>payment</title>
<polygon fill="#efefef" stroke="transparent" points="403,-1112.5 403,-1147.5 643,-1147.5 643,-1112.5 403,-1112.5"/>
<polygon fill="none" stroke="#000000" points="403,-1112.5 403,-1147.5 643,-1147.5 643,-1112.5 403,-1112.5"/>
<text text-anchor="start" x="424.7064" y="-1125.3" font-family="Arial Bold" font-size="18.00" fill="#000000">payment</text>
<text text-anchor="start" x="493.7256" y="-1125.3" font-family="Arial" font-size="14.00" fill="#000000">    </text>
<text text-anchor="start" x="527.9304" y="-1125.3" font-family="Arial" font-size="14.00" fill="#666666">[BASE TABLE]</text>
<polygon fill="none" stroke="#000000" points="403,-1082.5 403,-1112.5 643,-1112.5 643,-1082.5 403,-1082.5"/>
<text text-anchor="start" x="410" y="-1093.9" font-family="Arial" font-size="14.00" fill="#000000">payment_id    </text>
<text text-anchor="start" x="516.5582" y="-1093.9" font-family="Arial" font-size="14.00" fill="#666666">[smallint unsigned]</text>
<polygon fill="none" stroke="#000000" points="403,-1052.5 403,-1082.5 643,-1082.5 643,-1052.5 403,-1052.5"/>
<text text-anchor="start" x="409.8268" y="-1063.9" font-family="Arial" font-size="14.00" fill="#000000">customer_id    </text>
<text text-anchor="start" x="520.263" y="-1063.9" font-family="Arial" font-size="14.00" fill="#666666">[smallint unsigned]</text>
<polygon fill="none" stroke="#000000" points="403,-1022.5 403,-1052.5 643,-1052.5 643,-1022.5 403,-1022.5"/>
<text text-anchor="start" x="410" y="-1033.9" font-family="Arial" font-size="14.00" fill="#000000">staff_id    </text>
<text text-anchor="start" x="489.331" y="-1033.9" font-family="Arial" font-size="14.00" fill="#666666">[tinyint unsigned]</text>
<polygon fill="none" stroke="#000000" points="403,-992.5 403,-1022.5 643,-1022.5 643,-992.5 403,-992.5"/>
<text text-anchor="start" x="410" y="-1003.9" font-family="Arial" font-size="14.00" fill="#000000">rental_id    </text>
<text text-anchor="start" x="497.8822" y="-1003.9" font-family="Arial" font-size="14.00" fill="#666666">[int]</text>
<polygon fill="none" stroke="#000000" points="403,-962.5 403,-992.5 643,-992.5 643,-962.5 403,-962.5"/>
<text text-anchor="start" x="410" y="-973.9" font-family="Arial" font-size="14.00" fill="#000000">amount    </text>
<text text-anchor="start" x="490.8864" y="-973.9" font-family="Arial" font-size="14.00" fill="#666666">[decimal(5,2)]</text>
<polygon fill="none" stroke="#000000" points="403,-932.5 403,-962.5 643,-962.5 643,-932.5 403,-932.5"/>
<text text-anchor="start" x="410" y="-943.9" font-family="Arial" font-size="14.00" fill="#000000">payment_date    </text>
<text text-anchor="start" x="532.9074" y="-943.9" font-family="Arial" font-size="14.00" fill="#666666">[datetime]</text>
<polygon fill="none" stroke="#000000" points="403,-902.5 403,-932.5 643,-932.5 643,-902.5 403,-902.5"/>
<text text-anchor="start" x="410" y="-913.9" font-family="Arial" font-size="14.00" fill="#000000">last_update    </text>
<text text-anchor="start" x="516.5708" y="-913.9" font-family="Arial" font-size="14.00" fill="#666666">[timestamp]</text>
</g>
<!-- payment&#45;&gt;rental -->
<g id="edge1" class="edge">
<title>payment:rental_id&#45;&gt;rental:rental_id</title>
<path fill="none" stroke="#000000" d="M653.2602,-1006.839C766.9926,-991.8652 756.9579,-727.5 636,-727.5"/>
<polygon fill="#000000" stroke="#000000" points="652.9793,-1006.857 642.7107,-1003.0093 647.9897,-1007.1785 643,-1007.5 643,-1007.5 643,-1007.5 647.9897,-1007.1785 643.2893,-1011.9907 652.9793,-1006.857 652.9793,-1006.857"/>
<text text-anchor="start" x="649.6065" y="-1017.5" font-family="Arial" font-size="10.00" fill="#000000">FOREIGN KEY (rental_id) REFERENCES rental (rental_id)</text>
</g>
</g>
</svg>
