<?xml version="1.0" encoding="UTF-8" standalone="no"?>
<!DOCTYPE svg PUBLIC "-//W3C//DTD SVG 1.1//EN"
 "http://www.w3.org/Graphics/SVG/1.1/DTD/svg11.dtd">
<!-- Generated by graphviz version 2.40.1 (20161225.0304)
 -->
<!-- Title: staff Pages: 1 -->
<svg width="756pt" height="1229pt"
 viewBox="0.00 0.00 756.00 1229.00" xmlns="http://www.w3.org/2000/svg" xmlns:xlink="http://www.w3.org/1999/xlink">
<g id="graph0" class="graph" transform="scale(1 1) rotate(0) translate(4 1225)">
<title>staff</title>
<polygon fill="#ffffff" stroke="transparent" points="-4,4 -4,-1225 752,-1225 752,4 -4,4"/>
<!-- staff -->
<g id="node1" class="node">
<title>staff</title>
<polygon fill="#efefef" stroke="transparent" points="238,-772.5 238,-807.5 440,-807.5 440,-772.5 238,-772.5"/>
<polygon fill="none" stroke="#000000" points="238,-772.5 238,-807.5 440,-807.5 440,-772.5 238,-772.5"/>
<text text-anchor="start" x="258.2096" y="-785.3" font-family="Arial Bold" font-size="18.00" fill="#000000">staff</text>
<text text-anchor="start" x="292.2224" y="-785.3" font-family="Arial" font-size="14.00" fill="#000000">    </text>
<text text-anchor="start" x="326.4272" y="-785.3" font-family="Arial" font-size="14.00" fill="#666666">[BASE TABLE]</text>
<polygon fill="none" stroke="#000000" points="238,-742.5 238,-772.5 440,-772.5 440,-742.5 238,-742.5"/>
<text text-anchor="start" x="245" y="-753.9" font-family="Arial" font-size="14.00" fill="#000000">staff_id </text>
<text text-anchor="start" x="294.0168" y="-753.9" font-family="Arial" font-size="14.00" fill="#666666">[tinyint unsigned]</text>
<polygon fill="none" stroke="#000000" points="238,-712.5 238,-742.5 440,-742.5 440,-712.5 238,-712.5"/>
<text text-anchor="start" x="245" y="-723.9" font-family="Arial" font-size="14.00" fill="#000000">first_name </text>
<text text-anchor="start" x="314.23" y="-723.9" font-family="Arial" font-size="14.00" fill="#666666">[varchar(45)]</text>
<polygon fill="none" stroke="#000000" points="238,-682.5 238,-712.5 440,-712.5 440,-682.5 238,-682.5"/>
<text text-anchor="start" x="245" y="-693.9" font-family="Arial" font-size="14.00" fill="#000000">last_name </text>
<text text-anchor="start" x="313.4614" y="-693.9" font-family="Arial" font-size="14.00" fill="#666666">[varchar(45)]</text>
<polygon fill="none" stroke="#000000" points="238,-652.5 238,-682.5 440,-682.5 440,-652.5 238,-652.5"/>
<text text-anchor="start" x="244.8682" y="-663.9" font-family="Arial" font-size="14.00" fill="#000000">address_id </text>
<text text-anchor="start" x="317.2216" y="-663.9" font-family="Arial" font-size="14.00" fill="#666666">[smallint unsigned]</text>
<polygon fill="none" stroke="#000000" points="238,-622.5 238,-652.5 440,-652.5 440,-622.5 238,-622.5"/>
<text text-anchor="start" x="245" y="-633.9" font-family="Arial" font-size="14.00" fill="#000000">picture </text>
<text text-anchor="start" x="290.8962" y="-633.9" font-family="Arial" font-size="14.00" fill="#666666">[blob]</text>
<polygon fill="none" stroke="#000000" points="238,-592.5 238,-622.5 440,-622.5 440,-592.5 238,-592.5"/>
<text text-anchor="start" x="245" y="-603.9" font-family="Arial" font-size="14.00" fill="#000000">email </text>
<text text-anchor="start" x="282.3296" y="-603.9" font-family="Arial" font-size="14.00" fill="#666666">[varchar(50)]</text>
<polygon fill="none" stroke="#000000" points="238,-562.5 238,-592.5 440,-592.5 440,-562.5 238,-562.5"/>
<text text-anchor="start" x="245" y="-573.9" font-family="Arial" font-size="14.00" fill="#000000">store_id </text>
<text text-anchor="start" x="298.6788" y="-573.9" font-family="Arial" font-size="14.00" fill="#666666">[tinyint unsigned]</text>
<polygon fill="none" stroke="#000000" points="238,-532.5 238,-562.5 440,-562.5 440,-532.5 238,-532.5"/>
<text text-anchor="start" x="245" y="-543.9" font-family="Arial" font-size="14.00" fill="#000000">active </text>
<text text-anchor="start" x="285.453" y="-543.9" font-family="Arial" font-size="14.00" fill="#666666">[tinyint(1)]</text>
<polygon fill="none" stroke="#000000" points="238,-502.5 238,-532.5 440,-532.5 440,-502.5 238,-502.5"/>
<text text-anchor="start" x="245" y="-513.9" font-family="Arial" font-size="14.00" fill="#000000">username </text>
<text text-anchor="start" x="311.1248" y="-513.9" font-family="Arial" font-size="14.00" fill="#666666">[varchar(16)]</text>
<polygon fill="none" stroke="#000000" points="238,-472.5 238,-502.5 440,-502.5 440,-472.5 238,-472.5"/>
<text text-anchor="start" x="245" y="-483.9" font-family="Arial" font-size="14.00" fill="#000000">password </text>
<text text-anchor="start" x="308.7882" y="-483.9" font-family="Arial" font-size="14.00" fill="#666666">[varchar(40)]</text>
<polygon fill="none" stroke="#000000" points="238,-442.5 238,-472.5 440,-472.5 440,-442.5 238,-442.5"/>
<text text-anchor="start" x="245" y="-453.9" font-family="Arial" font-size="14.00" fill="#000000">last_update </text>
<text text-anchor="start" x="321.2566" y="-453.9" font-family="Arial" font-size="14.00" fill="#666666">[timestamp]</text>
<polygon fill="none" stroke="#000000" stroke-width="3" points="236.5,-441.5 236.5,-809.5 441.5,-809.5 441.5,-441.5 236.5,-441.5"/>
</g>
<!-- address -->
<g id="node4" class="node">
<title>address</title>
<polygon fill="#efefef" stroke="transparent" points="223,-282.5 223,-317.5 455,-317.5 455,-282.5 223,-282.5"/>
<polygon fill="none" stroke="#000000" points="223,-282.5 223,-317.5 455,-317.5 455,-282.5 223,-282.5"/>
<text text-anchor="start" x="243.2075" y="-295.3" font-family="Arial Bold" font-size="18.00" fill="#000000">address</text>
<text text-anchor="start" x="307.2245" y="-295.3" font-family="Arial" font-size="14.00" fill="#000000">    </text>
<text text-anchor="start" x="341.4293" y="-295.3" font-family="Arial" font-size="14.00" fill="#666666">[BASE TABLE]</text>
<polygon fill="none" stroke="#000000" points="223,-252.5 223,-282.5 455,-282.5 455,-252.5 223,-252.5"/>
<text text-anchor="start" x="229.7111" y="-263.9" font-family="Arial" font-size="14.00" fill="#000000">address_id    </text>
<text text-anchor="start" x="332.3787" y="-263.9" font-family="Arial" font-size="14.00" fill="#666666">[smallint unsigned]</text>
<polygon fill="none" stroke="#000000" points="223,-222.5 223,-252.5 455,-252.5 455,-222.5 223,-222.5"/>
<text text-anchor="start" x="230" y="-233.9" font-family="Arial" font-size="14.00" fill="#000000">address    </text>
<text text-anchor="start" x="313.9958" y="-233.9" font-family="Arial" font-size="14.00" fill="#666666">[varchar(50)]</text>
<polygon fill="none" stroke="#000000" points="223,-192.5 223,-222.5 455,-222.5 455,-192.5 223,-192.5"/>
<text text-anchor="start" x="230" y="-203.9" font-family="Arial" font-size="14.00" fill="#000000">address2    </text>
<text text-anchor="start" x="321.7784" y="-203.9" font-family="Arial" font-size="14.00" fill="#666666">[varchar(50)]</text>
<polygon fill="none" stroke="#000000" points="223,-162.5 223,-192.5 455,-192.5 455,-162.5 223,-162.5"/>
<text text-anchor="start" x="230" y="-173.9" font-family="Arial" font-size="14.00" fill="#000000">district    </text>
<text text-anchor="start" x="304.6424" y="-173.9" font-family="Arial" font-size="14.00" fill="#666666">[varchar(20)]</text>
<polygon fill="none" stroke="#000000" points="223,-132.5 223,-162.5 455,-162.5 455,-132.5 223,-132.5"/>
<text text-anchor="start" x="230" y="-143.9" font-family="Arial" font-size="14.00" fill="#000000">city_id    </text>
<text text-anchor="start" x="303.8738" y="-143.9" font-family="Arial" font-size="14.00" fill="#666666">[smallint unsigned]</text>
<polygon fill="none" stroke="#000000" points="223,-102.5 223,-132.5 455,-132.5 455,-102.5 223,-102.5"/>
<text text-anchor="start" x="230" y="-113.9" font-family="Arial" font-size="14.00" fill="#000000">postal_code    </text>
<text text-anchor="start" x="339.6802" y="-113.9" font-family="Arial" font-size="14.00" fill="#666666">[varchar(10)]</text>
<polygon fill="none" stroke="#000000" points="223,-72.5 223,-102.5 455,-102.5 455,-72.5 223,-72.5"/>
<text text-anchor="start" x="230" y="-83.9" font-family="Arial" font-size="14.00" fill="#000000">phone    </text>
<text text-anchor="start" x="303.1178" y="-83.9" font-family="Arial" font-size="14.00" fill="#666666">[varchar(20)]</text>
<polygon fill="none" stroke="#000000" points="223,-42.5 223,-72.5 455,-72.5 455,-42.5 223,-42.5"/>
<text text-anchor="start" x="230" y="-53.9" font-family="Arial" font-size="14.00" fill="#000000">last_update    </text>
<text text-anchor="start" x="336.5708" y="-53.9" font-family="Arial" font-size="14.00" fill="#666666">[timestamp]</text>
</g>
<!-- staff&#45;&gt;address -->
<g id="edge3" class="edge">
<title>staff:address_id&#45;&gt;address:address_id</title>
<path fill="none" stroke="#000000" d="M450.2373,-667.0482C618.4151,-652.0276 629.4281,-267.5 455,-267.5"/>
<polygon fill="#000000" stroke="#000000" points="449.9903,-667.059 439.8016,-663.0044 444.9951,-667.2795 440,-667.5 440,-667.5 440,-667.5 444.9951,-667.2795 440.1984,-671.9956 449.9903,-667.059 449.9903,-667.059"/>
<text text-anchor="start" x="446.765" y="-677.5" font-family="Arial" font-size="10.00" fill="#000000">FOREIGN KEY (address_id) REFERENCES address (address_id)</text>
</g>
<!-- payment -->
<g id="node2" class="node">
<title>payment</title>
<polygon fill="#efefef" stroke="transparent" points="43,-1142.5 43,-1177.5 283,-1177.5 283,-1142.5 43,-1142.5"/>
<polygon fill="none" stroke="#000000" points="43,-1142.5 43,-1177.5 283,-1177.5 283,-1142.5 43,-1142.5"/>
<text text-anchor="start" x="64.7064" y="-1155.3" font-family="Arial Bold" font-size="18.00" fill="#000000">payment</text>
<text text-anchor="start" x="133.7256" y="-1155.3" font-family="Arial" font-size="14.00" fill="#000000">    </text>
<text text-anchor="start" x="167.9304" y="-1155.3" font-family="Arial" font-size="14.00" fill="#666666">[BASE TABLE]</text>
<polygon fill="none" stroke="#000000" points="43,-1112.5 43,-1142.5 283,-1142.5 283,-1112.5 43,-1112.5"/>
<text text-anchor="start" x="50" y="-1123.9" font-family="Arial" font-size="14.00" fill="#000000">payment_id    </text>
<text text-anchor="start" x="156.5582" y="-1123.9" font-family="Arial" font-size="14.00" fill="#666666">[smallint unsigned]</text>
<polygon fill="none" stroke="#000000" points="43,-1082.5 43,-1112.5 283,-1112.5 283,-1082.5 43,-1082.5"/>
<text text-anchor="start" x="49.8268" y="-1093.9" font-family="Arial" font-size="14.00" fill="#000000">customer_id    </text>
<text text-anchor="start" x="160.263" y="-1093.9" font-family="Arial" font-size="14.00" fill="#666666">[smallint unsigned]</text>
<polygon fill="none" stroke="#000000" points="43,-1052.5 43,-1082.5 283,-1082.5 283,-1052.5 43,-1052.5"/>
<text text-anchor="start" x="50" y="-1063.9" font-family="Arial" font-size="14.00" fill="#000000">staff_id    </text>
<text text-anchor="start" x="129.331" y="-1063.9" font-family="Arial" font-size="14.00" fill="#666666">[tinyint unsigned]</text>
<polygon fill="none" stroke="#000000" points="43,-1022.5 43,-1052.5 283,-1052.5 283,-1022.5 43,-1022.5"/>
<text text-anchor="start" x="50" y="-1033.9" font-family="Arial" font-size="14.00" fill="#000000">rental_id    </text>
<text text-anchor="start" x="137.8822" y="-1033.9" font-family="Arial" font-size="14.00" fill="#666666">[int]</text>
<polygon fill="none" stroke="#000000" points="43,-992.5 43,-1022.5 283,-1022.5 283,-992.5 43,-992.5"/>
<text text-anchor="start" x="50" y="-1003.9" font-family="Arial" font-size="14.00" fill="#000000">amount    </text>
<text text-anchor="start" x="130.8864" y="-1003.9" font-family="Arial" font-size="14.00" fill="#666666">[decimal(5,2)]</text>
<polygon fill="none" stroke="#000000" points="43,-962.5 43,-992.5 283,-992.5 283,-962.5 43,-962.5"/>
<text text-anchor="start" x="50" y="-973.9" font-family="Arial" font-size="14.00" fill="#000000">payment_date    </text>
<text text-anchor="start" x="172.9074" y="-973.9" font-family="Arial" font-size="14.00" fill="#666666">[datetime]</text>
<polygon fill="none" stroke="#000000" points="43,-932.5 43,-962.5 283,-962.5 283,-932.5 43,-932.5"/>
<text text-anchor="start" x="50" y="-943.9" font-family="Arial" font-size="14.00" fill="#000000">last_update    </text>
<text text-anchor="start" x="156.5708" y="-943.9" font-family="Arial" font-size="14.00" fill="#666666">[timestamp]</text>
</g>
<!-- payment&#45;&gt;staff -->
<g id="edge1" class="edge">
<title>payment:staff_id&#45;&gt;staff:staff_id</title>
<path fill="none" stroke="#000000" d="M293.2928,-1066.8132C357.72,-1057.6028 315.5719,-957.7699 283,-890 271.905,-866.9154 249.095,-877.0846 238,-854 219.421,-815.3441 195.1111,-757.5 238,-757.5"/>
<polygon fill="#000000" stroke="#000000" points="292.9778,-1066.8342 282.7004,-1063.01 287.9889,-1067.1671 283,-1067.5 283,-1067.5 283,-1067.5 287.9889,-1067.1671 283.2996,-1071.99 292.9778,-1066.8342 292.9778,-1066.8342"/>
<text text-anchor="start" x="289.7685" y="-1077.5" font-family="Arial" font-size="10.00" fill="#000000">FOREIGN KEY (staff_id) REFERENCES staff (staff_id)</text>
</g>
<!-- rental -->
<g id="node3" class="node">
<title>rental</title>
<polygon fill="#efefef" stroke="transparent" points="387,-1142.5 387,-1177.5 643,-1177.5 643,-1142.5 387,-1142.5"/>
<polygon fill="none" stroke="#000000" points="387,-1142.5 387,-1177.5 643,-1177.5 643,-1142.5 387,-1142.5"/>
<text text-anchor="start" x="428.7124" y="-1155.3" font-family="Arial Bold" font-size="18.00" fill="#000000">rental</text>
<text text-anchor="start" x="473.7196" y="-1155.3" font-family="Arial" font-size="14.00" fill="#000000">    </text>
<text text-anchor="start" x="507.9244" y="-1155.3" font-family="Arial" font-size="14.00" fill="#666666">[BASE TABLE]</text>
<polygon fill="none" stroke="#000000" points="387,-1112.5 387,-1142.5 643,-1142.5 643,-1112.5 387,-1112.5"/>
<text text-anchor="start" x="394" y="-1123.9" font-family="Arial" font-size="14.00" fill="#000000">rental_id    </text>
<text text-anchor="start" x="481.8822" y="-1123.9" font-family="Arial" font-size="14.00" fill="#666666">[int]</text>
<polygon fill="none" stroke="#000000" points="387,-1082.5 387,-1112.5 643,-1112.5 643,-1082.5 387,-1082.5"/>
<text text-anchor="start" x="394" y="-1093.9" font-family="Arial" font-size="14.00" fill="#000000">rental_date    </text>
<text text-anchor="start" x="498.2314" y="-1093.9" font-family="Arial" font-size="14.00" fill="#666666">[datetime]</text>
<polygon fill="none" stroke="#000000" points="387,-1052.5 387,-1082.5 643,-1082.5 643,-1052.5 387,-1052.5"/>
<text text-anchor="start" x="393.6529" y="-1063.9" font-family="Arial" font-size="14.00" fill="#000000">inventory_id    </text>
<text text-anchor="start" x="503.3177" y="-1063.9" font-family="Arial" font-size="14.00" fill="#666666">[mediumint unsigned]</text>
<polygon fill="none" stroke="#000000" points="387,-1022.5 387,-1052.5 643,-1052.5 643,-1022.5 387,-1022.5"/>
<text text-anchor="start" x="394" y="-1033.9" font-family="Arial" font-size="14.00" fill="#000000">customer_id    </text>
<text text-anchor="start" x="504.4362" y="-1033.9" font-family="Arial" font-size="14.00" fill="#666666">[smallint unsigned]</text>
<polygon fill="none" stroke="#000000" points="387,-992.5 387,-1022.5 643,-1022.5 643,-992.5 387,-992.5"/>
<text text-anchor="start" x="394" y="-1003.9" font-family="Arial" font-size="14.00" fill="#000000">return_date    </text>
<text text-anchor="start" x="499.7854" y="-1003.9" font-family="Arial" font-size="14.00" fill="#666666">[datetime]</text>
<polygon fill="none" stroke="#000000" points="387,-962.5 387,-992.5 643,-992.5 643,-962.5 387,-962.5"/>
<text text-anchor="start" x="394" y="-973.9" font-family="Arial" font-size="14.00" fill="#000000">staff_id    </text>
<text text-anchor="start" x="473.331" y="-973.9" font-family="Arial" font-size="14.00" fill="#666666">[tinyint unsigned]</text>
<polygon fill="none" stroke="#000000" points="387,-932.5 387,-962.5 643,-962.5 643,-932.5 387,-932.5"/>
<text text-anchor="start" x="394" y="-943.9" font-family="Arial" font-size="14.00" fill="#000000">last_update    </text>
<text text-anchor="start" x="500.5708" y="-943.9" font-family="Arial" font-size="14.00" fill="#666666">[timestamp]</text>
</g>
<!-- rental&#45;&gt;staff -->
<g id="edge2" class="edge">
<title>rental:staff_id&#45;&gt;staff:staff_id</title>
<path fill="none" stroke="#000000" d="M376.9296,-975.9311C352.2876,-966.9008 370.6472,-920.8761 387,-890 400.3277,-864.8358 426.6723,-879.1642 440,-854 460.0736,-816.0987 482.8889,-757.5 440,-757.5"/>
<polygon fill="#000000" stroke="#000000" points="377.1192,-975.9606 386.3073,-981.9464 382.0596,-976.7303 387,-977.5 387,-977.5 387,-977.5 382.0596,-976.7303 387.6927,-973.0536 377.1192,-975.9606 377.1192,-975.9606"/>
<text text-anchor="start" x="393.7685" y="-987.5" font-family="Arial" font-size="10.00" fill="#000000">FOREIGN KEY (staff_id) REFERENCES staff (staff_id)</text>
</g>
</g>
</svg>
