<?xml version="1.0" encoding="UTF-8" standalone="no"?>
<!DOCTYPE svg PUBLIC "-//W3C//DTD SVG 1.1//EN"
 "http://www.w3.org/Graphics/SVG/1.1/DTD/svg11.dtd">
<!-- Generated by graphviz version 2.40.1 (20161225.0304)
 -->
<!-- Title: store Pages: 1 -->
<svg width="770pt" height="1079pt"
 viewBox="0.00 0.00 770.00 1079.00" xmlns="http://www.w3.org/2000/svg" xmlns:xlink="http://www.w3.org/1999/xlink">
<g id="graph0" class="graph" transform="scale(1 1) rotate(0) translate(4 1075)">
<title>store</title>
<polygon fill="#ffffff" stroke="transparent" points="-4,4 -4,-1075 766,-1075 766,4 -4,4"/>
<!-- store -->
<g id="node1" class="node">
<title>store</title>
<polygon fill="#efefef" stroke="transparent" points="223,-562.5 223,-597.5 454,-597.5 454,-562.5 223,-562.5"/>
<polygon fill="none" stroke="#000000" points="223,-562.5 223,-597.5 454,-597.5 454,-562.5 223,-562.5"/>
<text text-anchor="start" x="254.7126" y="-575.3" font-family="Arial Bold" font-size="18.00" fill="#000000">store</text>
<text text-anchor="start" x="294.7194" y="-575.3" font-family="Arial" font-size="14.00" fill="#000000">    </text>
<text text-anchor="start" x="328.9242" y="-575.3" font-family="Arial" font-size="14.00" fill="#666666">[BASE TABLE]</text>
<polygon fill="none" stroke="#000000" points="223,-532.5 223,-562.5 454,-562.5 454,-532.5 223,-532.5"/>
<text text-anchor="start" x="230" y="-543.9" font-family="Arial" font-size="14.00" fill="#000000">store_id </text>
<text text-anchor="start" x="283.6788" y="-543.9" font-family="Arial" font-size="14.00" fill="#666666">[tinyint unsigned]</text>
<polygon fill="none" stroke="#000000" points="223,-502.5 223,-532.5 454,-532.5 454,-502.5 223,-502.5"/>
<text text-anchor="start" x="229.9664" y="-513.9" font-family="Arial" font-size="14.00" fill="#000000">manager_staff_id </text>
<text text-anchor="start" x="342" y="-513.9" font-family="Arial" font-size="14.00" fill="#666666">[tinyint unsigned]</text>
<polygon fill="none" stroke="#000000" points="223,-472.5 223,-502.5 454,-502.5 454,-472.5 223,-472.5"/>
<text text-anchor="start" x="230" y="-483.9" font-family="Arial" font-size="14.00" fill="#000000">address_id </text>
<text text-anchor="start" x="302.3534" y="-483.9" font-family="Arial" font-size="14.00" fill="#666666">[smallint unsigned]</text>
<polygon fill="none" stroke="#000000" points="223,-442.5 223,-472.5 454,-472.5 454,-442.5 223,-442.5"/>
<text text-anchor="start" x="230" y="-453.9" font-family="Arial" font-size="14.00" fill="#000000">last_update </text>
<text text-anchor="start" x="306.2566" y="-453.9" font-family="Arial" font-size="14.00" fill="#666666">[timestamp]</text>
<polygon fill="none" stroke="#000000" stroke-width="3" points="221,-441.5 221,-599.5 455,-599.5 455,-441.5 221,-441.5"/>
</g>
<!-- address -->
<g id="node4" class="node">
<title>address</title>
<polygon fill="#efefef" stroke="transparent" points="223,-282.5 223,-317.5 455,-317.5 455,-282.5 223,-282.5"/>
<polygon fill="none" stroke="#000000" points="223,-282.5 223,-317.5 455,-317.5 455,-282.5 223,-282.5"/>
<text text-anchor="start" x="243.2075" y="-295.3" font-family="Arial Bold" font-size="18.00" fill="#000000">address</text>
<text text-anchor="start" x="307.2245" y="-295.3" font-family="Arial" font-size="14.00" fill="#000000">    </text>
<text text-anchor="start" x="341.4293" y="-295.3" font-family="Arial" font-size="14.00" fill="#666666">[BASE TABLE]</text>
<polygon fill="none" stroke="#000000" points="223,-252.5 223,-282.5 455,-282.5 455,-252.5 223,-252.5"/>
<text text-anchor="start" x="229.7111" y="-263.9" font-family="Arial" font-size="14.00" fill="#000000">address_id    </text>
<text text-anchor="start" x="332.3787" y="-263.9" font-family="Arial" font-size="14.00" fill="#666666">[smallint unsigned]</text>
<polygon fill="none" stroke="#000000" points="223,-222.5 223,-252.5 455,-252.5 455,-222.5 223,-222.5"/>
<text text-anchor="start" x="230" y="-233.9" font-family="Arial" font-size="14.00" fill="#000000">address    </text>
<text text-anchor="start" x="313.9958" y="-233.9" font-family="Arial" font-size="14.00" fill="#666666">[varchar(50)]</text>
<polygon fill="none" stroke="#000000" points="223,-192.5 223,-222.5 455,-222.5 455,-192.5 223,-192.5"/>
<text text-anchor="start" x="230" y="-203.9" font-family="Arial" font-size="14.00" fill="#000000">address2    </text>
<text text-anchor="start" x="321.7784" y="-203.9" font-family="Arial" font-size="14.00" fill="#666666">[varchar(50)]</text>
<polygon fill="none" stroke="#000000" points="223,-162.5 223,-192.5 455,-192.5 455,-162.5 223,-162.5"/>
<text text-anchor="start" x="230" y="-173.9" font-family="Arial" font-size="14.00" fill="#000000">district    </text>
<text text-anchor="start" x="304.6424" y="-173.9" font-family="Arial" font-size="14.00" fill="#666666">[varchar(20)]</text>
<polygon fill="none" stroke="#000000" points="223,-132.5 223,-162.5 455,-162.5 455,-132.5 223,-132.5"/>
<text text-anchor="start" x="230" y="-143.9" font-family="Arial" font-size="14.00" fill="#000000">city_id    </text>
<text text-anchor="start" x="303.8738" y="-143.9" font-family="Arial" font-size="14.00" fill="#666666">[smallint unsigned]</text>
<polygon fill="none" stroke="#000000" points="223,-102.5 223,-132.5 455,-132.5 455,-102.5 223,-102.5"/>
<text text-anchor="start" x="230" y="-113.9" font-family="Arial" font-size="14.00" fill="#000000">postal_code    </text>
<text text-anchor="start" x="339.6802" y="-113.9" font-family="Arial" font-size="14.00" fill="#666666">[varchar(10)]</text>
<polygon fill="none" stroke="#000000" points="223,-72.5 223,-102.5 455,-102.5 455,-72.5 223,-72.5"/>
<text text-anchor="start" x="230" y="-83.9" font-family="Arial" font-size="14.00" fill="#000000">phone    </text>
<text text-anchor="start" x="303.1178" y="-83.9" font-family="Arial" font-size="14.00" fill="#666666">[varchar(20)]</text>
<polygon fill="none" stroke="#000000" points="223,-42.5 223,-72.5 455,-72.5 455,-42.5 223,-42.5"/>
<text text-anchor="start" x="230" y="-53.9" font-family="Arial" font-size="14.00" fill="#000000">last_update    </text>
<text text-anchor="start" x="336.5708" y="-53.9" font-family="Arial" font-size="14.00" fill="#666666">[timestamp]</text>
</g>
<!-- store&#45;&gt;address -->
<g id="edge3" class="edge">
<title>store:address_id&#45;&gt;address:address_id</title>
<path fill="none" stroke="#000000" d="M463.9159,-485.993C491.4793,-476.5183 477.7076,-424.6885 454,-397 386.4206,-318.073 290.5794,-439.927 223,-361 195.9727,-329.4344 181.4444,-267.5 223,-267.5"/>
<polygon fill="#000000" stroke="#000000" points="463.8865,-485.9974 453.3238,-483.0511 458.9432,-486.7487 454,-487.5 454,-487.5 454,-487.5 458.9432,-486.7487 454.6762,-491.9489 463.8865,-485.9974 463.8865,-485.9974"/>
<text text-anchor="start" x="460.765" y="-497.5" font-family="Arial" font-size="10.00" fill="#000000">FOREIGN KEY (address_id) REFERENCES address (address_id)</text>
</g>
<!-- customer -->
<g id="node2" class="node">
<title>customer</title>
<polygon fill="#efefef" stroke="transparent" points="43,-992.5 43,-1027.5 283,-1027.5 283,-992.5 43,-992.5"/>
<polygon fill="none" stroke="#000000" points="43,-992.5 43,-1027.5 283,-1027.5 283,-992.5 43,-992.5"/>
<text text-anchor="start" x="62.2134" y="-1005.3" font-family="Arial Bold" font-size="18.00" fill="#000000">customer</text>
<text text-anchor="start" x="136.2186" y="-1005.3" font-family="Arial" font-size="14.00" fill="#000000">    </text>
<text text-anchor="start" x="170.4234" y="-1005.3" font-family="Arial" font-size="14.00" fill="#666666">[BASE TABLE]</text>
<polygon fill="none" stroke="#000000" points="43,-962.5 43,-992.5 283,-992.5 283,-962.5 43,-962.5"/>
<text text-anchor="start" x="49.8268" y="-973.9" font-family="Arial" font-size="14.00" fill="#000000">customer_id    </text>
<text text-anchor="start" x="160.263" y="-973.9" font-family="Arial" font-size="14.00" fill="#666666">[smallint unsigned]</text>
<polygon fill="none" stroke="#000000" points="43,-932.5 43,-962.5 283,-962.5 283,-932.5 43,-932.5"/>
<text text-anchor="start" x="50" y="-943.9" font-family="Arial" font-size="14.00" fill="#000000">store_id    </text>
<text text-anchor="start" x="133.993" y="-943.9" font-family="Arial" font-size="14.00" fill="#666666">[tinyint unsigned]</text>
<polygon fill="none" stroke="#000000" points="43,-902.5 43,-932.5 283,-932.5 283,-902.5 43,-902.5"/>
<text text-anchor="start" x="50" y="-913.9" font-family="Arial" font-size="14.00" fill="#000000">first_name    </text>
<text text-anchor="start" x="149.5442" y="-913.9" font-family="Arial" font-size="14.00" fill="#666666">[varchar(45)]</text>
<polygon fill="none" stroke="#000000" points="43,-872.5 43,-902.5 283,-902.5 283,-872.5 43,-872.5"/>
<text text-anchor="start" x="50" y="-883.9" font-family="Arial" font-size="14.00" fill="#000000">last_name    </text>
<text text-anchor="start" x="148.7756" y="-883.9" font-family="Arial" font-size="14.00" fill="#666666">[varchar(45)]</text>
<polygon fill="none" stroke="#000000" points="43,-842.5 43,-872.5 283,-872.5 283,-842.5 43,-842.5"/>
<text text-anchor="start" x="50" y="-853.9" font-family="Arial" font-size="14.00" fill="#000000">email    </text>
<text text-anchor="start" x="117.6438" y="-853.9" font-family="Arial" font-size="14.00" fill="#666666">[varchar(50)]</text>
<polygon fill="none" stroke="#000000" points="43,-812.5 43,-842.5 283,-842.5 283,-812.5 43,-812.5"/>
<text text-anchor="start" x="50" y="-823.9" font-family="Arial" font-size="14.00" fill="#000000">address_id    </text>
<text text-anchor="start" x="152.6676" y="-823.9" font-family="Arial" font-size="14.00" fill="#666666">[smallint unsigned]</text>
<polygon fill="none" stroke="#000000" points="43,-782.5 43,-812.5 283,-812.5 283,-782.5 43,-782.5"/>
<text text-anchor="start" x="50" y="-793.9" font-family="Arial" font-size="14.00" fill="#000000">active    </text>
<text text-anchor="start" x="120.7672" y="-793.9" font-family="Arial" font-size="14.00" fill="#666666">[tinyint(1)]</text>
<polygon fill="none" stroke="#000000" points="43,-752.5 43,-782.5 283,-782.5 283,-752.5 43,-752.5"/>
<text text-anchor="start" x="50" y="-763.9" font-family="Arial" font-size="14.00" fill="#000000">create_date    </text>
<text text-anchor="start" x="158.1248" y="-763.9" font-family="Arial" font-size="14.00" fill="#666666">[datetime]</text>
<polygon fill="none" stroke="#000000" points="43,-722.5 43,-752.5 283,-752.5 283,-722.5 43,-722.5"/>
<text text-anchor="start" x="50" y="-733.9" font-family="Arial" font-size="14.00" fill="#000000">last_update    </text>
<text text-anchor="start" x="156.5708" y="-733.9" font-family="Arial" font-size="14.00" fill="#666666">[timestamp]</text>
</g>
<!-- customer&#45;&gt;store -->
<g id="edge1" class="edge">
<title>customer:store_id&#45;&gt;store:store_id</title>
<path fill="none" stroke="#000000" d="M292.8322,-945.2113C338.7959,-921.9728 310.5149,-728.5965 283,-680 267.6779,-652.9382 238.3221,-671.0618 223,-644 201.8687,-606.6781 180.1111,-547.5 223,-547.5"/>
<polygon fill="#000000" stroke="#000000" points="292.7396,-945.2328 281.9797,-943.1172 287.8698,-946.3664 283,-947.5 283,-947.5 283,-947.5 287.8698,-946.3664 284.0203,-951.8828 292.7396,-945.2328 292.7396,-945.2328"/>
<text text-anchor="start" x="289.7735" y="-957.5" font-family="Arial" font-size="10.00" fill="#000000">FOREIGN KEY (store_id) REFERENCES store (store_id)</text>
</g>
<!-- inventory -->
<g id="node3" class="node">
<title>inventory</title>
<polygon fill="#efefef" stroke="transparent" points="387,-917.5 387,-952.5 643,-952.5 643,-917.5 387,-917.5"/>
<polygon fill="none" stroke="#000000" points="387,-917.5 387,-952.5 643,-952.5 643,-917.5 387,-917.5"/>
<text text-anchor="start" x="414.7093" y="-930.3" font-family="Arial Bold" font-size="18.00" fill="#000000">inventory</text>
<text text-anchor="start" x="487.7227" y="-930.3" font-family="Arial" font-size="14.00" fill="#000000">    </text>
<text text-anchor="start" x="521.9275" y="-930.3" font-family="Arial" font-size="14.00" fill="#666666">[BASE TABLE]</text>
<polygon fill="none" stroke="#000000" points="387,-887.5 387,-917.5 643,-917.5 643,-887.5 387,-887.5"/>
<text text-anchor="start" x="393.6529" y="-898.9" font-family="Arial" font-size="14.00" fill="#000000">inventory_id    </text>
<text text-anchor="start" x="503.3177" y="-898.9" font-family="Arial" font-size="14.00" fill="#666666">[mediumint unsigned]</text>
<polygon fill="none" stroke="#000000" points="387,-857.5 387,-887.5 643,-887.5 643,-857.5 387,-857.5"/>
<text text-anchor="start" x="394" y="-868.9" font-family="Arial" font-size="14.00" fill="#000000">film_id    </text>
<text text-anchor="start" x="468.641" y="-868.9" font-family="Arial" font-size="14.00" fill="#666666">[smallint unsigned]</text>
<polygon fill="none" stroke="#000000" points="387,-827.5 387,-857.5 643,-857.5 643,-827.5 387,-827.5"/>
<text text-anchor="start" x="394" y="-838.9" font-family="Arial" font-size="14.00" fill="#000000">store_id    </text>
<text text-anchor="start" x="477.993" y="-838.9" font-family="Arial" font-size="14.00" fill="#666666">[tinyint unsigned]</text>
<polygon fill="none" stroke="#000000" points="387,-797.5 387,-827.5 643,-827.5 643,-797.5 387,-797.5"/>
<text text-anchor="start" x="394" y="-808.9" font-family="Arial" font-size="14.00" fill="#000000">last_update    </text>
<text text-anchor="start" x="500.5708" y="-808.9" font-family="Arial" font-size="14.00" fill="#666666">[timestamp]</text>
</g>
<!-- inventory&#45;&gt;store -->
<g id="edge2" class="edge">
<title>inventory:store_id&#45;&gt;store:store_id</title>
<path fill="none" stroke="#000000" d="M377.0067,-841.8504C270.5677,-826.5878 584.7738,-547.5 454,-547.5"/>
<polygon fill="#000000" stroke="#000000" points="377.0211,-841.8512 386.708,-846.9905 382.0105,-842.1756 387,-842.5 387,-842.5 387,-842.5 382.0105,-842.1756 387.292,-838.0095 377.0211,-841.8512 377.0211,-841.8512"/>
<text text-anchor="start" x="393.7735" y="-852.5" font-family="Arial" font-size="10.00" fill="#000000">FOREIGN KEY (store_id) REFERENCES store (store_id)</text>
</g>
</g>
</svg>
